<svg width="76" height="77" viewBox="0 0 76 77" fill="none" xmlns="http://www.w3.org/2000/svg">
<g id="Artwork" clip-path="url(#clip0_419_654)">
<path id="Vector" d="M35.209 77C35.0049 76.9217 34.8028 76.8373 34.5967 76.767C32.5535 76.0638 31.2852 74.2576 31.2516 71.9471C31.2298 70.4985 31.2476 69.0479 31.2476 67.5772C28.1244 66.7997 25.2411 65.5962 22.5242 63.9005C21.5313 64.9131 20.5623 65.9116 19.5814 66.9001C17.3658 69.1283 14.5261 69.1202 12.2966 66.882C11.4881 66.0704 10.6776 65.2607 9.88492 64.4349C7.86359 62.3294 7.8735 59.4181 9.91068 57.3206C10.9154 56.2859 11.9399 55.2693 12.9764 54.2225C11.3078 51.47 10.1128 48.5527 9.35383 45.3823C7.93295 45.3823 6.52793 45.4004 5.12291 45.3783C2.55067 45.3381 0.50754 43.8473 0.188487 41.4022C-0.0612063 39.4855 -0.0572429 37.4824 0.198396 35.5677C0.51943 33.1668 2.55067 31.67 5.01193 31.6399C6.44272 31.6218 7.8735 31.6358 9.3459 31.6358C10.1089 28.4895 11.284 25.5642 12.9783 22.7896C12.0113 21.8132 11.0521 20.8468 10.097 19.8764C7.79027 17.5337 7.7982 14.6888 10.1148 12.3321C10.8996 11.5325 11.6784 10.7268 12.479 9.94324C14.536 7.92808 17.3975 7.93612 19.4426 9.96936C20.4652 10.986 21.462 12.0327 22.4944 13.0915C22.8214 12.9107 23.1088 12.7219 23.4179 12.5913C23.9886 12.3502 24.5039 12.4486 24.8289 13.0152C25.136 13.5536 25.0984 14.0981 24.5752 14.4819C24.1175 14.8174 23.6319 15.1328 23.1167 15.3659C22.3874 15.6974 21.7196 15.5005 21.1568 14.9299C20.1263 13.8852 19.0939 12.8384 18.0634 11.7936C16.6683 10.3792 15.2553 10.3672 13.8721 11.7615C13.0834 12.5571 12.2927 13.3507 11.5139 14.1544C10.3467 15.3599 10.3407 16.8667 11.5139 18.0802C12.5503 19.1551 13.6145 20.2039 14.6568 21.2747C15.5129 22.1527 15.6001 22.8358 14.9501 23.8947C13.3608 26.4884 12.2312 29.2691 11.5277 32.2366C11.2226 33.5224 10.6796 33.9423 9.3895 33.9504C7.90719 33.9604 6.4229 33.9423 4.94059 33.9564C3.4028 33.9705 2.32674 35.0293 2.29107 36.5863C2.26134 37.8642 2.26134 39.144 2.29107 40.4198C2.32674 41.9447 3.36713 43.0115 4.86925 43.0477C6.37732 43.0839 7.88539 43.0578 9.39346 43.0638C10.7014 43.0698 11.2206 43.4656 11.5317 44.7695C12.2412 47.7611 13.3866 50.5639 14.9937 53.1758C15.5922 54.1462 15.4991 54.8654 14.7104 55.6771C13.6719 56.75 12.6098 57.8008 11.5674 58.8716C10.3288 60.1454 10.3328 61.6342 11.5713 62.906C12.3878 63.7438 13.2062 64.5796 14.0386 65.4033C15.1998 66.5566 16.6881 66.5686 17.8593 65.4174C18.9234 64.3706 19.9559 63.2917 21.0102 62.2329C21.9138 61.3248 22.5618 61.2404 23.6498 61.9175C26.1705 63.4886 28.8537 64.6479 31.741 65.327C33.1381 65.6545 33.5384 66.1989 33.5424 67.6435C33.5464 69.0981 33.5305 70.5507 33.5483 72.0053C33.5662 73.6508 34.6224 74.7217 36.2474 74.7458C37.4087 74.7639 38.5719 74.7579 39.7332 74.7458C41.4553 74.7317 42.5096 73.6789 42.5254 71.9471C42.5393 70.4684 42.5234 68.9896 42.5314 67.5109C42.5393 66.2331 42.9475 65.6987 44.1762 65.3933C47.121 64.66 49.8954 63.5188 52.4716 61.8873C53.502 61.2344 54.1699 61.3368 55.0517 62.2209C56.0882 63.2596 57.1107 64.3164 58.1511 65.3511C59.3857 66.5787 60.8521 66.5807 62.0768 65.3672C62.6773 64.7725 63.2718 64.1697 63.9337 63.5067C63.0479 62.5966 62.7843 61.4875 62.8299 60.274C62.8358 60.1253 62.7229 59.9405 62.6119 59.824C60.438 57.5456 57.9787 55.6249 55.3827 53.885C45.6862 65.0658 29.9971 63.5429 21.4006 54.5821C12.8872 45.7058 12.8872 31.3023 21.3649 22.4501C30.0189 13.415 45.9022 11.9403 55.4996 23.2537C58.0798 21.4837 60.5113 19.5288 62.6277 17.1942C62.7605 17.0475 62.8239 16.7944 62.8358 16.5874C62.9389 14.9118 62.9666 14.8073 63.8207 13.5758C63.0915 12.7942 62.4236 11.9463 61.625 11.2572C60.654 10.4194 59.239 10.5842 58.2601 11.5465C57.2118 12.5752 56.1952 13.636 55.1607 14.6788C54.1441 15.7054 53.5456 15.7898 52.3487 15.0384C49.7883 13.4311 47.0298 12.314 44.1088 11.5947C42.9832 11.3175 42.5472 10.7569 42.5373 9.56954C42.5254 8.06671 42.5433 6.56187 42.5294 5.05904C42.5135 3.32315 41.4613 2.27237 39.7392 2.25831C38.5779 2.24826 37.4146 2.24424 36.2534 2.25831C34.6284 2.28041 33.5721 3.34927 33.5523 4.99475C33.5365 6.47347 33.5523 7.95219 33.5464 9.43091C33.5404 10.761 33.1322 11.2853 31.8897 11.6289C30.986 11.878 30.0883 12.1452 29.1906 12.4145C28.3405 12.6696 27.7459 12.4446 27.5379 11.7756C27.312 11.0483 27.6409 10.5259 28.5366 10.2346C29.4046 9.95328 30.2805 9.69612 31.2595 9.39475C31.2595 8.24753 31.2317 7.05009 31.2694 5.85666C31.2952 5.06105 31.309 4.23931 31.5151 3.48187C32.0759 1.37831 33.9249 0.0181255 36.075 0.00406153C37.2858 -0.003975 38.4966 0.0020524 39.7094 0.00406153C42.7256 0.0080798 44.7707 2.05739 44.8064 5.13137C44.8222 6.55584 44.8083 7.98032 44.8083 9.42488C47.9355 10.1964 50.8149 11.4059 53.5337 13.1016C54.5424 12.0729 55.5293 11.0563 56.5301 10.0517C58.6584 7.91401 61.516 7.89995 63.6562 10.0115C64.1338 10.4837 64.5995 10.9679 65.0732 11.4461C65.6934 12.0729 66.2741 12.6375 67.2451 12.8424C68.7393 13.1558 69.5637 14.5663 69.5676 16.3544C69.5756 21.116 69.5716 25.8777 69.5716 30.6393C69.5716 30.9347 69.5716 31.232 69.5716 31.6338C70.1225 31.6338 70.608 31.6258 71.0916 31.6338C73.428 31.6821 75.1957 33.0523 75.8536 35.3065C75.8873 35.4231 75.9527 35.5295 76.0042 35.642V41.356C75.9586 41.4424 75.8952 41.5228 75.8675 41.6152C75.2472 43.7971 73.8223 45.0388 71.6068 45.32C70.9548 45.4024 70.291 45.3884 69.5696 45.4225C69.5696 45.752 69.5696 46.0232 69.5696 46.2945C69.5696 48.4 69.5716 50.5056 69.5657 52.6112C69.5657 52.8844 69.5558 53.1657 69.4963 53.4309C69.3715 53.9874 69.0068 54.2828 68.4381 54.2888C67.8654 54.2968 67.4928 53.9995 67.36 53.451C67.2847 53.1416 67.2867 52.8061 67.2867 52.4826C67.2828 40.5524 67.2847 28.6201 67.2827 16.6899C67.2827 16.3885 67.3065 16.0811 67.253 15.7898C67.15 15.2212 66.7516 14.9098 66.2106 14.9078C65.6696 14.9058 65.2654 15.2052 65.1623 15.7778C65.1088 16.0711 65.1227 16.3765 65.1227 16.6779C65.1227 31.2159 65.1227 45.754 65.1227 60.2901C65.1227 60.5151 65.1148 60.7421 65.1306 60.9672C65.1762 61.6242 65.6142 62.0903 66.1849 62.1023C66.7814 62.1144 67.259 61.6221 67.2788 60.933C67.2986 60.2057 67.2709 59.4784 67.2907 58.7531C67.3125 57.9032 67.7029 57.4552 68.3965 57.4391C69.1099 57.4231 69.53 57.843 69.5617 58.6888C69.5914 59.4904 69.6033 60.2961 69.5478 61.0937C69.4448 62.6126 68.7115 63.8061 67.2471 64.1536C66.2879 64.3827 65.6974 64.9252 65.0771 65.552C64.6055 66.0302 64.1378 66.5144 63.6602 66.9865C61.518 69.1001 58.6604 69.0861 56.532 66.9483C55.5313 65.9438 54.5444 64.9252 53.5357 63.8985C50.8168 65.5942 47.9355 66.8037 44.8103 67.5752C44.8103 69.0218 44.8202 70.4463 44.8083 71.8707C44.7905 73.8216 44.0176 75.3666 42.3352 76.3672C41.8754 76.6404 41.3463 76.7931 40.8489 77.0021H35.213L35.209 77ZM62.8041 20.3184C62.5524 20.5233 62.4078 20.6459 62.2572 20.7624C60.1526 22.42 58.1174 24.18 55.9257 25.7089C51.5798 28.7407 46.7068 30.6634 41.7189 32.3049C41.2433 32.4616 41.0689 32.6645 41.0728 33.1889C41.0986 36.6205 41.1145 40.0541 41.0649 43.4857C41.053 44.2753 41.2928 44.5927 42.0241 44.8419C49.5406 47.3935 56.431 51.0963 62.4117 56.4326C62.5108 56.521 62.6297 56.5852 62.8021 56.7038V20.3184H62.8041ZM53.4604 24.5597C48.9917 18.9763 40.9143 15.9646 32.6982 18.2852C23.6537 20.8408 17.6631 28.3328 17.2826 37.615C16.9279 46.2764 21.9257 53.3626 27.09 56.2377C27.1098 56.1031 27.1395 55.9865 27.1395 55.87C27.1435 53.2883 27.1554 50.7065 27.1217 48.1268C27.1177 47.8777 26.876 47.5401 26.6501 47.3995C22.756 44.9664 21.0082 40.9642 21.8801 36.4156C22.7422 31.9231 26.3409 28.6041 30.8592 28.2705C32.8508 28.1239 34.8602 28.2324 36.8598 28.1641C38.568 28.1058 39.9908 28.5398 40.8053 30.2234C45.2859 28.8452 49.497 27.0108 53.4584 24.5617L53.4604 24.5597ZM38.8018 38.5272C38.8018 36.2709 38.8078 34.0147 38.7979 31.7604C38.7939 30.8422 38.4471 30.4967 37.5355 30.4947C35.5082 30.4886 33.481 30.4605 31.4537 30.5087C27.2505 30.6112 23.9054 34.1533 23.8876 38.4709C23.8697 42.7785 27.197 46.3568 31.3982 46.4853C33.4235 46.5476 35.4528 46.5195 37.478 46.5135C38.4709 46.5115 38.7939 46.1619 38.7979 45.1432C38.8038 42.9372 38.7979 40.7312 38.7979 38.5272H38.8018ZM38.35 59.5427C44.3228 59.3076 49.3008 57.0614 53.4822 52.5308C50.7871 51.1566 48.2129 49.8446 45.5733 48.4985C45.0798 51.912 42.1786 54.3852 38.35 53.5494V59.5427ZM35.9918 59.4221V48.7436H29.4046C29.4046 51.5142 29.4007 54.3913 29.4165 57.2684C29.4165 57.4291 29.5433 57.6742 29.6761 57.7345C31.6657 58.6486 33.7485 59.2031 35.9918 59.4241V59.4221ZM69.6152 33.9865V43.0517C70.1721 43.0517 70.6853 43.0698 71.1966 43.0477C72.665 42.9894 73.7173 41.9688 73.7649 40.4901C73.8085 39.1661 73.8025 37.836 73.7649 36.512C73.7292 35.2483 72.8474 34.1513 71.7158 34.0026C71.042 33.9142 70.3484 33.9865 69.6132 33.9865H69.6152ZM38.3044 48.7858C38.3044 49.3765 38.2549 49.9571 38.3262 50.5197C38.3579 50.7748 38.5799 51.1204 38.8038 51.2168C40.5794 51.9863 42.8623 50.7105 43.217 48.7878C43.3934 47.8355 43.3181 47.6968 42.4204 47.3673C42.028 47.2227 41.6396 47.0459 41.2334 46.9595C41.0471 46.9193 40.7201 46.9936 40.6329 47.1323C40.082 47.9962 39.3151 48.5286 38.3044 48.7858Z" fill="#444444"/>
</g>
<defs>
<clipPath id="clip0_419_654">
<rect width="76" height="77" fill="white"/>
</clipPath>
</defs>
</svg>
