<svg width="67" height="67" viewBox="0 0 67 67" fill="none" xmlns="http://www.w3.org/2000/svg">
<g id="Artwork" clip-path="url(#clip0_419_656)">
<path id="Vector" d="M33.5 0C15.0284 0 0 15.0284 0 33.5C0 51.9716 15.0284 67 33.5 67C51.9716 67 67 51.9716 67 33.5C67 15.0284 51.9716 0 33.5 0ZM33.5 65.0028C16.1292 65.0028 1.99721 50.8708 1.99721 33.5C1.99721 16.1292 16.1292 1.99721 33.5 1.99721C50.8708 1.99721 65.0028 16.1292 65.0028 33.5C65.0028 50.8708 50.8708 65.0028 33.5 65.0028Z" fill="#444444"/>
<path id="Vector_2" d="M33.5 15.1147C39.9495 15.1147 45.8179 18.4117 49.1959 23.9348L49.2681 24.0546H51.8447L51.644 23.6865C48.0212 17.0133 41.0679 12.8691 33.5 12.8691C22.1243 12.8691 12.8691 22.1243 12.8691 33.5C12.8691 44.8756 22.1243 54.1308 33.5 54.1308C41.0679 54.1308 48.0212 49.9849 51.644 43.3134L51.8447 42.9453H49.2681L49.1959 43.0651C45.8179 48.5883 39.9495 51.8853 33.5 51.8853C23.3624 51.8853 15.1147 43.6375 15.1147 33.5C15.1147 23.3624 23.3624 15.1147 33.5 15.1147Z" fill="#444444"/>
</g>
<defs>
<clipPath id="clip0_419_656">
<rect width="67" height="67" fill="white"/>
</clipPath>
</defs>
</svg>
