<svg width="71" height="71" viewBox="0 0 71 71" fill="none" xmlns="http://www.w3.org/2000/svg">
<g id="Artwork" clip-path="url(#clip0_419_659)">
<path id="Vector" d="M49.1527 0C49.382 0.0926047 49.6114 0.190766 49.8426 0.279666C51.4889 0.91123 52.6061 2.4744 52.608 4.22462C52.6154 12.9109 52.6117 21.5991 52.6098 30.2854C52.6098 31.1226 52.2177 31.5912 51.5296 31.6041C50.8137 31.6189 50.4031 31.1374 50.4031 30.2632C50.4012 25.2496 50.4031 20.236 50.4031 15.2224C50.4031 14.9742 50.4031 14.726 50.4031 14.4482H9.46488V51.0196H10.19C14.8975 51.0196 19.6032 51.0196 24.3108 51.0196C24.4717 51.0196 24.6345 51.0159 24.7954 51.0196C25.5612 51.0363 26.0237 51.4493 26.0274 52.1179C26.0311 52.7884 25.5686 53.2255 24.8084 53.2292C22.8477 53.2384 20.8851 53.2329 18.9244 53.2329C15.8095 53.2329 12.6945 53.2347 9.57956 53.2329C8.10163 53.2329 7.20451 52.3402 7.20451 50.8696C7.20266 35.3676 7.20266 19.8656 7.20451 4.36353C7.20451 2.40402 8.37909 0.792696 10.227 0.175949C10.3749 0.125942 10.5174 0.059267 10.6617 0C23.4914 0 36.3229 0 49.1527 0ZM9.41864 12.1534H50.4012C50.4012 9.70312 50.4012 7.3028 50.4012 4.90434C50.4012 2.97631 49.6465 2.21696 47.7302 2.21696C35.8476 2.21696 23.9649 2.21696 12.0822 2.21696C11.8751 2.21696 11.6661 2.2077 11.4589 2.22251C10.3491 2.30215 9.45193 3.10781 9.43344 4.21351C9.38904 6.84348 9.41864 9.47531 9.41864 12.1553V12.1534Z" fill="#444444"/>
<path id="Vector_2" d="M0 15.8039C0.20717 15.3205 0.360697 14.8056 0.630758 14.3611C1.47238 12.9813 2.7154 12.2423 4.34131 12.2072C5.05346 12.1923 5.51404 12.6294 5.53254 13.2721C5.55104 13.8944 5.14965 14.3297 4.48189 14.4148C2.92812 14.6112 2.21228 15.4205 2.21228 16.9985C2.21228 29.8872 2.21228 42.7759 2.21228 55.6647C2.21228 57.3445 3.09645 58.2261 4.7797 58.2261C13.8915 58.228 23.0051 58.2261 32.1168 58.2261C32.324 58.2261 32.533 58.215 32.7402 58.2317C33.3525 58.2798 33.7687 58.7188 33.7798 59.3096C33.7908 59.93 33.3617 60.4153 32.7162 60.4301C31.61 60.4542 30.502 60.4394 29.394 60.4394C27.0634 60.4394 24.7346 60.4394 22.4039 60.4394C22.1561 60.4394 21.91 60.4394 21.6307 60.4394V68.7627H22.3577C26.9487 68.7627 31.5397 68.7627 36.1308 68.7627C36.3379 68.7627 36.5525 68.7367 36.7523 68.7793C37.3127 68.9016 37.6383 69.2553 37.6531 69.8424C37.6679 70.4314 37.346 70.7889 36.8004 70.9519C36.6727 70.9907 36.5247 70.9741 36.3879 70.9741C29.3053 70.9741 22.2226 70.9741 15.1419 70.9741C14.981 70.9741 14.8145 70.9796 14.661 70.9407C14.1301 70.8092 13.7749 70.2832 13.86 69.7276C13.9525 69.1238 14.3225 68.7738 14.9384 68.7664C16.3886 68.7516 17.8406 68.7608 19.3389 68.7608V60.4357H18.6027C13.9895 60.4357 9.37443 60.4357 4.7612 60.4357C2.33066 60.4357 0.826829 59.3226 0.112833 57.0056C0.0943362 56.9426 0.0388443 56.8908 0 56.8352C0 43.1612 0 29.4835 0 15.8039Z" fill="#444444"/>
<path id="Vector_3" d="M44.8711 55.9351C45.5241 57.5816 46.116 59.0762 46.7116 60.5708C47.4626 62.4544 48.1877 64.3491 48.9794 66.2142C50.0837 68.8127 48.0896 71.1926 45.7183 70.9889C45.0542 70.9314 44.3809 70.9759 43.7113 70.9815C42.1224 70.9944 41.0366 70.2443 40.441 68.7886C39.0001 65.2715 37.5739 61.7469 36.1422 58.2261C36.0646 58.0335 35.9665 57.8483 35.9055 57.6519C35.5929 56.6444 35.1711 55.8628 33.9966 55.485C32.7905 55.096 32.0469 54.0181 31.7417 52.768C31.6123 52.2401 31.3588 52.092 30.8872 51.9864C28.5251 51.4585 26.9398 50.0195 26.2702 47.6988C25.6154 45.43 26.1815 43.4038 27.8203 41.7054C28.6582 40.8386 29.6848 40.2756 30.8779 40.0645C31.3496 39.9811 31.6067 39.8255 31.738 39.2921C32.2116 37.3734 33.9688 36.0547 35.9665 36.0491C38.989 36.0399 42.0133 36.0565 45.0357 36.0362C45.4834 36.0325 45.9532 35.9454 46.3712 35.788C51.7928 33.7266 57.207 31.6448 62.6248 29.5724C64.088 29.013 65.405 29.5724 65.8082 30.9225C65.8859 31.1818 65.897 31.467 65.897 31.7412C65.9044 33.96 65.9007 36.1769 65.9025 38.3957C65.9025 38.555 65.9173 38.7143 65.9266 38.8847C68.2868 39.4829 70.0126 40.8368 70.6138 43.213C71.1206 45.2133 71.1724 47.3006 70.4769 49.286C69.7315 51.4085 68.1093 52.6235 65.9007 53.1662C65.9007 54.9683 65.9007 56.7666 65.9007 58.5669C65.9007 59.1447 65.9025 59.7226 65.9007 60.3004C65.8933 62.1544 64.445 63.1656 62.6988 62.5063C59.5339 61.3098 56.3783 60.0893 53.2189 58.878C50.8772 57.9798 48.5391 57.0685 46.19 56.1869C45.82 56.048 45.402 56.0332 44.8693 55.9351H44.8711ZM63.6662 31.6208C63.5256 31.6615 63.4165 31.6856 63.3148 31.7245C58.0504 33.734 52.788 35.7528 47.5162 37.7475C47.0815 37.9123 47.0704 38.1772 47.0704 38.542C47.076 43.5316 47.0815 48.5211 47.0612 53.5107C47.0593 53.9848 47.2092 54.1885 47.6439 54.3515C51.5172 55.8147 55.3813 57.3019 59.2491 58.7817C60.7048 59.3392 62.1624 59.8911 63.6662 60.4653V31.6208ZM44.8323 38.2605C44.6048 38.2605 44.4253 38.2605 44.2459 38.2605C41.5952 38.2605 38.9427 38.2568 36.2921 38.2605C34.6828 38.2642 33.7838 39.1755 33.782 40.809C33.7783 44.2946 33.7783 47.7803 33.782 51.2659C33.7838 52.8958 34.6791 53.7866 36.3161 53.7903C38.9668 53.7959 41.6193 53.7903 44.27 53.7903C44.4475 53.7903 44.6251 53.7755 44.8323 53.7662V38.2587V38.2605ZM37.77 56.0073C37.7478 56.1128 37.733 56.1406 37.7404 56.1573C39.3478 60.1282 40.9552 64.0991 42.5682 68.0663C42.7643 68.5478 43.1564 68.7589 43.6614 68.7626C44.3994 68.7682 45.1375 68.783 45.8755 68.7589C46.8096 68.7293 47.2795 68.07 46.9447 67.2162C45.5185 63.5953 44.0757 59.9819 42.62 56.374C42.5553 56.2129 42.3074 56.024 42.1409 56.0221C40.6889 55.9943 39.2368 56.0054 37.77 56.0054V56.0073ZM65.9395 50.814C67.3416 50.338 68.309 49.4361 68.5051 48.0525C68.6919 46.7264 68.6901 45.3318 68.5051 44.0057C68.3127 42.6204 67.3435 41.7184 65.9395 41.2424V50.8159V50.814ZM31.5383 49.7472V42.2907C29.7699 42.3388 28.1958 44.1798 28.2458 46.1041C28.2938 48.0062 29.8735 49.7639 31.5383 49.7472Z" fill="#444444"/>
<path id="Vector_4" d="M22.1557 28.813C22.1557 26.8498 22.1983 24.8866 22.1446 22.9252C22.091 20.9583 24.0628 19.5803 25.8071 19.7192C26.0882 19.7415 26.3731 19.9044 26.6284 20.0508C29.9116 21.9177 33.1931 23.7864 36.4671 25.67C38.77 26.9943 38.7848 30.115 36.4967 31.43C33.1431 33.358 29.7859 35.2824 26.4175 37.1845C24.6991 38.155 22.7717 37.4012 22.2575 35.588C22.1779 35.3046 22.1613 34.9971 22.1613 34.7008C22.1539 32.7376 22.1576 30.7762 22.1576 28.813H22.1557ZM24.3661 28.813C24.3661 30.6614 24.3661 32.5079 24.3661 34.3563C24.3661 35.4213 24.6825 35.6028 25.6092 35.0731C28.7907 33.2562 31.9704 31.4374 35.1501 29.6168C36.2155 29.0056 36.2174 28.1129 35.1408 27.4943C32.0832 25.7385 29.0219 23.992 25.9606 22.2455C25.0746 21.7399 24.3717 22.164 24.368 23.2012C24.3625 25.0718 24.368 26.9424 24.368 28.813H24.3661Z" fill="#444444"/>
<path id="Vector_5" d="M59.811 21.9769C59.811 23.779 59.811 25.5811 59.811 27.3813C59.811 28.3389 59.4447 28.8223 58.7215 28.8315C57.9853 28.8408 57.6024 28.3592 57.6024 27.4128C57.6024 23.9716 57.6024 20.5286 57.6024 17.0874C57.6024 15.3964 56.9532 14.6501 55.2829 14.4111C54.6391 14.3185 54.2415 13.8462 54.2821 13.2239C54.321 12.6387 54.7538 12.2368 55.3809 12.2034C57.6302 12.0812 59.7721 14.1092 59.8054 16.4336C59.8313 18.282 59.811 20.1285 59.811 21.9769Z" fill="#444444"/>
<path id="Vector_6" d="M22.7366 6.10267C25.6444 6.10267 28.5522 6.09711 31.46 6.10637C32.4015 6.11007 32.9416 6.90462 32.5642 7.68621C32.3201 8.19183 31.8928 8.32147 31.3656 8.31962C28.4819 8.31036 25.5963 8.31592 22.7126 8.31592C19.8511 8.31592 16.9895 8.31592 14.128 8.31592C13.2272 8.31592 12.7555 7.94365 12.7444 7.23244C12.7314 6.49346 13.2124 6.10637 14.1539 6.10452C17.0154 6.10452 19.877 6.10452 22.7385 6.10452L22.7366 6.10267Z" fill="#444444"/>
<path id="Vector_7" d="M39.8724 7.19169C39.8798 8.12144 39.1565 8.86043 38.2317 8.86784C37.305 8.87524 36.5651 8.14922 36.5577 7.22318C36.5503 6.29157 37.2735 5.55444 38.1984 5.54888C39.1288 5.54148 39.8631 6.26379 39.8705 7.19169H39.8724ZM38.9716 7.19169C38.6257 6.95092 38.3852 6.66014 38.228 6.70089C38.0097 6.75645 37.8543 7.06019 37.6731 7.25837C37.8636 7.4232 38.0504 7.70843 38.2483 7.71769C38.437 7.72695 38.6405 7.44728 38.9697 7.19169H38.9716Z" fill="#444444"/>
<path id="Vector_8" d="M45.4197 5.54884C46.3465 5.55069 47.0734 6.28227 47.0716 7.21202C47.0716 8.13992 46.3372 8.86965 45.4105 8.86779C44.4856 8.86779 43.755 8.13066 43.7568 7.20276C43.7587 6.27486 44.4912 5.54514 45.4179 5.54884H45.4197ZM45.4123 7.96582C45.6621 7.62874 45.9358 7.41946 45.9229 7.23239C45.9099 7.03422 45.6214 6.85457 45.453 6.66565C45.2588 6.85086 44.9592 7.012 44.9092 7.23239C44.8722 7.39167 45.1663 7.62689 45.4142 7.96582H45.4123Z" fill="#444444"/>
</g>
<defs>
<clipPath id="clip0_419_659">
<rect width="71" height="71" fill="white"/>
</clipPath>
</defs>
</svg>
