<svg width="56" height="56" viewBox="0 0 56 56" fill="none" xmlns="http://www.w3.org/2000/svg">
<g id="Group">
<path id="Vector" d="M28.1624 55.682C43.4183 55.682 55.7857 43.3749 55.7857 28.1933C55.7857 13.0117 43.4183 0.70459 28.1624 0.70459C12.9065 0.70459 0.539185 13.0117 0.539185 28.1933C0.539185 43.3749 12.9065 55.682 28.1624 55.682Z" fill="#0865FF"/>
<path id="Vector_2" d="M31.653 36.6623C31.653 36.6623 38.5114 36.6327 38.9244 36.5994C39.3933 34.1034 40.5246 28.3228 40.5246 28.3228C40.5246 28.3228 32.6875 28.2635 31.493 28.2635C31.493 26.7415 31.3144 25.0936 31.5339 23.6271C31.8986 21.1719 32.7545 19.6573 35.6646 19.2315C36.9075 19.05 38.1839 19.0907 39.4454 19.0167C39.8771 18.9908 40.2083 18.987 40.8111 18.9389V11.477C39.8511 11.2918 33.2681 10.3957 29.1709 11.7436C26.953 12.3806 25.1333 13.6285 23.7973 15.5616C22.3758 17.6132 21.8474 19.9314 21.6874 22.3421C21.5869 23.8419 21.665 25.3528 21.6464 26.86C21.639 27.2896 21.5199 28.2376 21.5199 28.2376L15.8858 28.2857L15.8486 36.5735L21.438 36.6142C21.438 36.6142 21.5757 54.5487 21.5348 54.8783C21.5273 54.8783 21.5199 54.8783 21.5125 54.8783C23.6448 55.4041 25.8738 55.6818 28.1699 55.6818C29.3384 55.6818 30.4883 55.6078 31.6158 55.4671C31.6158 55.0005 31.6567 36.6586 31.6567 36.6586L31.653 36.6623Z" fill="white"/>
</g>
</svg>
