<svg width="111" height="111" viewBox="0 0 111 111" fill="none" xmlns="http://www.w3.org/2000/svg">
<g clip-path="url(#clip0_459_679)">
<path d="M4.36405 111H0V106.626H1.68995V109.31H4.36405V111Z" fill="white"/>
<path d="M1.68995 99.8165H0V92.997H1.68995V99.8165ZM1.68995 86.1775H0V79.3581H1.68995V86.1775ZM1.68995 72.5386H0V65.7192H1.68995V72.5386ZM1.68995 58.8997H0V52.0803H1.68995V58.8997ZM1.68995 45.2608H0V38.4414H1.68995V45.2608ZM1.68995 31.6219H0V24.8025H1.68995V31.6219ZM1.68995 17.983H0V11.1636H1.68995V17.983Z" fill="white"/>
<path d="M1.68995 4.36405H0V0H4.36405V1.68995H1.68995V4.36405Z" fill="white"/>
<path d="M99.8169 1.68995H92.9975V0H99.8169V1.68995ZM86.178 1.68995H79.3586V0H86.178V1.68995ZM72.5391 1.68995H65.7197V0H72.5391V1.68995ZM58.9002 1.68995H52.0808V0H58.9002V1.68995ZM45.2613 1.68995H38.4419V0H45.2613V1.68995ZM31.6224 1.68995H24.803V0H31.6224V1.68995ZM17.9835 1.68995H11.1641V0H17.9835V1.68995Z" fill="white"/>
<path d="M111.001 4.36405H109.311V1.68995H106.627V0H111.001V4.36405Z" fill="white"/>
<path d="M76.3866 111H70.084V109.31H76.317C76.6649 109.31 77.0128 109.31 77.3608 109.3L77.4105 110.99C77.0725 111 76.7345 111.01 76.3965 111.01L76.3866 111ZM62.7775 111H55.4809V109.31H62.7775V111ZM48.1842 111H40.8876V109.31H48.1842V111ZM33.591 111H26.2944V109.31H33.591V111ZM18.9978 111H11.7012V109.31H18.9978V111ZM84.7965 109.956L84.379 108.316C86.6754 107.739 88.9121 106.904 91.0394 105.851L91.7949 107.362C89.5682 108.475 87.2122 109.35 84.7965 109.956ZM98.0776 103.326L97.0139 102.013C98.853 100.522 100.543 98.8324 102.034 96.9933L103.356 98.057C101.795 99.9955 100.016 101.775 98.0776 103.336V103.326ZM107.382 91.7644L105.871 91.0089C106.925 88.8915 107.76 86.6449 108.337 84.3485L109.977 84.7561C109.37 87.1717 108.506 89.5277 107.392 91.7644H107.382ZM110.991 77.37L109.301 77.3203C109.311 76.9823 109.321 76.6543 109.321 76.3163V70.0535H111.011V76.3163C111.011 76.6741 111.011 77.0221 110.991 77.37ZM111.011 62.747H109.321V55.4503H111.011V62.747ZM111.011 48.1537H109.321V40.8571H111.011V48.1537ZM111.011 33.5605H109.321V26.2639H111.011V33.5605ZM111.011 18.9673H109.321V11.6707H111.011V18.9673Z" fill="white"/>
<g clip-path="url(#clip1_459_679)">
<path d="M16 41.5618C16.2948 41.5886 16.5935 41.6383 16.8883 41.6383C29.0335 41.6421 41.1748 41.6383 53.32 41.6383H54.2664V39.2364H49.4681V32H66.5629V39.2096H61.7723V41.6307H99.9961V68.2967H92.5174V65.933H97.5097V44.1167H61.7762V65.9024H85.0852V68.3311H61.7879V70.7215H66.5629V78.0038H49.4681V70.8057H54.2548V68.4038C54.0027 68.3846 53.7428 68.3502 53.4829 68.3502C41.2291 68.3502 28.9753 68.3502 16.7254 68.3502C16.4849 68.3502 16.2405 68.3999 16 68.4267C16 59.4692 16 50.5155 16 41.5618ZM59.3014 73.2V36.7886H64.123V34.4325H51.939V36.8153H56.7257V50.1292H54.2975V44.1244H18.5058V65.845H54.3479V52.6H56.7257V73.2306H51.9274V75.5713H64.1191V73.2H59.2975H59.3014Z" fill="white"/>
<path d="M89.9852 68.3005H87.5957V65.9674H89.9852V68.3005Z" fill="white"/>
<path d="M66.6063 46.5493V48.8518H64.2246V46.5493H66.6063Z" fill="white"/>
<path d="M71.501 46.5608V48.8748H69.1426V46.5608H71.501Z" fill="white"/>
<path d="M40.8222 53.7666C42.1139 53.7666 43.3164 53.7895 44.515 53.7589C45.1667 53.7398 45.5895 53.3535 45.6826 52.7148C45.7679 52.1105 45.4731 51.6553 44.8913 51.4526C44.6198 51.357 44.2978 51.3685 43.9991 51.3646C42.9634 51.357 41.9316 51.3646 40.8377 51.3646V49.001C42.3156 49.001 43.7741 48.8671 45.1939 49.0316C47.6066 49.3108 48.9371 52.3399 47.626 54.4321C47.3583 54.8604 47.3467 55.1167 47.6221 55.5527C49.038 57.8093 47.4902 60.8232 44.7943 61.0183C43.4949 61.1139 42.1837 61.0336 40.83 61.0336V58.6469C41.695 58.6469 42.5561 58.6469 43.4173 58.6469C43.7741 58.6469 44.131 58.6622 44.4801 58.624C45.2443 58.5475 45.7292 58.0235 45.6943 57.3618C45.6593 56.7193 45.1822 56.2565 44.4374 56.2297C43.4561 56.1991 42.4708 56.222 41.4855 56.2144C41.2722 56.2144 41.0588 56.18 40.8145 56.1608V53.7666H40.8222Z" fill="white"/>
<path d="M33.7086 58.6315H38.3906V61.0105H31.0205C31.0205 59.9128 30.9894 58.8457 31.0437 57.7786C31.0554 57.5377 31.3191 57.2738 31.5286 57.0863C32.8242 55.9275 34.1392 54.7877 35.4386 53.6364C35.9002 53.2272 36.2144 52.6764 35.8343 52.141C35.5822 51.7853 35.0313 51.4372 34.6202 51.441C34.2594 51.4449 33.856 51.9077 33.5728 52.2519C33.406 52.4508 33.4371 52.8103 33.3673 53.1584C32.9134 53.1584 32.479 53.1584 32.0484 53.1584C30.8963 53.1584 30.8575 53.1125 31.0786 51.9574C31.3734 50.3969 32.6225 49.1806 34.1353 48.9817C35.8382 48.7561 37.2695 49.4828 38.0027 50.9477C38.763 52.4623 38.5069 54.126 37.2889 55.2505C36.2532 56.2105 35.1788 57.1284 34.112 58.054C33.953 58.1917 33.7513 58.2797 33.5651 58.3906C33.6116 58.4709 33.6582 58.5512 33.7086 58.6315Z" fill="white"/>
<path d="M28.429 61.0105H26.0434V51.3837H23.5957V48.9856H28.429V61.0144V61.0105Z" fill="white"/>
</g>
</g>
<defs>
<clipPath id="clip0_459_679">
<rect width="111" height="111" fill="white"/>
</clipPath>
<clipPath id="clip1_459_679">
<rect width="84" height="46" fill="white" transform="translate(16 32)"/>
</clipPath>
</defs>
</svg>
