<svg width="111" height="111" viewBox="0 0 111 111" fill="none" xmlns="http://www.w3.org/2000/svg">
<g clip-path="url(#clip0_1047_343)">
<path d="M4.36405 111H0V106.626H1.68995V109.31H4.36405V111Z" fill="white"/>
<path d="M1.68995 99.8165H0V92.997H1.68995V99.8165ZM1.68995 86.1775H0V79.3581H1.68995V86.1775ZM1.68995 72.5386H0V65.7192H1.68995V72.5386ZM1.68995 58.8997H0V52.0803H1.68995V58.8997ZM1.68995 45.2608H0V38.4414H1.68995V45.2608ZM1.68995 31.6219H0V24.8025H1.68995V31.6219ZM1.68995 17.983H0V11.1636H1.68995V17.983Z" fill="white"/>
<path d="M1.68995 4.36405H0V0H4.36405V1.68995H1.68995V4.36405Z" fill="white"/>
<path d="M99.8169 1.68995H92.9975V0H99.8169V1.68995ZM86.178 1.68995H79.3586V0H86.178V1.68995ZM72.5391 1.68995H65.7197V0H72.5391V1.68995ZM58.9002 1.68995H52.0808V0H58.9002V1.68995ZM45.2613 1.68995H38.4419V0H45.2613V1.68995ZM31.6224 1.68995H24.803V0H31.6224V1.68995ZM17.9835 1.68995H11.1641V0H17.9835V1.68995Z" fill="white"/>
<path d="M111.001 4.36405H109.311V1.68995H106.627V0H111.001V4.36405Z" fill="white"/>
<path d="M76.3866 111H70.084V109.31H76.317C76.6649 109.31 77.0128 109.31 77.3608 109.3L77.4105 110.99C77.0725 111 76.7345 111.01 76.3965 111.01L76.3866 111ZM62.7775 111H55.4809V109.31H62.7775V111ZM48.1842 111H40.8876V109.31H48.1842V111ZM33.591 111H26.2944V109.31H33.591V111ZM18.9978 111H11.7012V109.31H18.9978V111ZM84.7965 109.956L84.379 108.316C86.6754 107.739 88.9121 106.904 91.0394 105.851L91.7949 107.362C89.5682 108.475 87.2122 109.35 84.7965 109.956ZM98.0776 103.326L97.0139 102.013C98.853 100.522 100.543 98.8324 102.034 96.9933L103.356 98.057C101.795 99.9955 100.016 101.775 98.0776 103.336V103.326ZM107.382 91.7644L105.871 91.0089C106.925 88.8915 107.76 86.6449 108.337 84.3485L109.977 84.7561C109.37 87.1717 108.506 89.5277 107.392 91.7644H107.382ZM110.991 77.37L109.301 77.3203C109.311 76.9823 109.321 76.6543 109.321 76.3163V70.0535H111.011V76.3163C111.011 76.6741 111.011 77.0221 110.991 77.37ZM111.011 62.747H109.321V55.4503H111.011V62.747ZM111.011 48.1537H109.321V40.8571H111.011V48.1537ZM111.011 33.5605H109.321V26.2639H111.011V33.5605ZM111.011 18.9673H109.321V11.6707H111.011V18.9673Z" fill="white"/>
</g>
<g clip-path="url(#clip1_1047_343)">
<path d="M31.2615 21C43.3091 21 55.3567 21 67.4044 21C67.5255 21.0432 67.6431 21.1044 67.7678 21.1278C69.6029 21.4735 71.1334 22.352 72.3699 23.7671C73.3943 24.9391 73.9805 26.3218 74.2691 27.8899C74.5453 27.8899 74.7858 27.8899 75.0281 27.8899C78.0961 27.8899 81.1624 27.8881 84.2304 27.8899C86.6143 27.8917 87.9986 29.2816 88.0004 31.6976C88.004 46.3866 88.0057 61.0738 88.0004 75.7628C88.0004 78.2203 86.5733 79.6372 84.136 79.6372C78.0231 79.6372 71.912 79.6372 65.7991 79.6372H64.9813C65.6744 80.811 66.2855 81.8714 66.9376 82.9084C67.0231 83.0434 67.317 83.0956 67.5166 83.0992C68.6497 83.1172 69.7829 83.0956 70.9178 83.1119C72.8812 83.1407 74.3528 84.6331 74.3457 86.5667C74.3386 88.4823 72.842 89.991 70.8804 89.9928C60.3009 90.0018 49.7213 90.0018 39.1418 89.9928C37.1802 89.9928 35.6765 88.4895 35.6658 86.5775C35.6533 84.6187 37.1392 83.1334 39.1489 83.11C40.2607 83.0974 41.3724 83.1137 42.4824 83.101C42.6677 83.0992 42.9492 83.0848 43.0223 82.9696C43.6957 81.9038 44.3336 80.8146 45.0391 79.6372C44.64 79.6372 44.3977 79.6372 44.1572 79.6372C37.9997 79.6372 31.8441 79.6336 25.6867 79.6408C24.2186 79.6408 23.0623 79.0485 22.4333 77.718C22.1322 77.0807 22.0253 76.2939 22.0236 75.5738C21.9951 60.9766 22.0004 46.3776 22.0004 31.7786C22.0004 31.5536 21.9968 31.3285 22.0129 31.1053C22.102 29.8091 22.7362 28.8873 23.8551 28.2554C24.101 28.1167 24.3593 27.8161 24.4146 27.5496C24.8867 25.247 26.0679 23.416 28.0652 22.2404C29.0398 21.6679 30.1907 21.4032 31.2615 20.9982V21ZM60.128 66.988C59.8768 66.6387 59.7182 66.4281 59.5668 66.212C57.6177 63.4413 56.1478 60.4887 56.1478 56.9799C56.1478 52.668 56.1335 48.358 56.1478 44.0462C56.1531 42.4547 57.1437 41.4231 58.7187 41.3799C62.1859 41.2826 65.4178 40.3645 68.4306 38.6469C69.3713 38.1104 70.2871 38.1302 71.21 38.6758C71.4648 38.827 71.7302 38.962 72.0687 39.1474C72.0687 35.7304 72.0794 32.4538 72.0652 29.1753C72.0509 25.8051 69.5851 23.3026 66.2427 23.299C56.9317 23.2864 47.6225 23.2936 38.3115 23.2972C38.1512 23.2972 37.9926 23.3296 37.7343 23.3584C39.7048 25.4 40.2286 27.8089 40.2179 30.477C40.1734 41.3439 40.2001 52.2125 40.2001 63.0794C40.2001 65.6323 41.5364 66.9844 44.0592 66.9862C49.1476 66.9862 54.2361 66.9862 59.3245 66.9862H60.1245L60.128 66.988ZM24.2827 71.5338H64.9546C64.1671 70.8965 63.4401 70.3492 62.7649 69.7425C62.4068 69.4202 62.0576 69.2798 61.5765 69.2816C55.754 69.296 49.9298 69.2942 44.1073 69.2852C43.555 69.2852 42.9884 69.2744 42.4521 69.1592C39.7191 68.5651 37.9338 66.2768 37.932 63.3711C37.9267 52.5906 37.9303 41.8119 37.9303 31.0315V30.1889H37.1267C33.4155 30.1889 29.7043 30.1889 25.9913 30.1889C24.5339 30.1889 24.2827 30.441 24.2827 31.9065C24.2827 44.8419 24.2827 57.7792 24.2827 70.7147V71.5338ZM58.4248 51.0801C58.4248 52.9669 58.4301 54.8518 58.423 56.7386C58.4158 58.3553 58.7134 59.9072 59.3904 61.3745C61.4607 65.8681 64.739 69.1376 69.1735 71.244C69.6136 71.4528 69.9789 71.4528 70.4207 71.244C73.3159 69.8901 75.7693 67.971 77.7451 65.4415C80.015 62.5375 81.3566 59.3419 81.1962 55.5216C81.0448 51.8903 81.1642 48.2482 81.1642 44.6115C81.1642 43.6789 81.1624 43.7041 80.2092 43.6393C76.7118 43.3999 73.3747 42.5663 70.3085 40.7966C69.929 40.5787 69.6582 40.5805 69.2804 40.793C66.1216 42.5627 62.7382 43.5493 59.1196 43.6501C58.5602 43.6663 58.4069 43.8679 58.4141 44.4098C58.439 46.6333 58.4248 48.8549 58.4248 51.0783V51.0801ZM85.6771 71.5554C85.6931 71.3232 85.7163 71.127 85.7163 70.9307C85.7181 57.8602 85.7181 44.7879 85.7163 31.7174C85.7163 30.5598 85.3457 30.1925 84.193 30.1907C81.125 30.1871 78.0587 30.1907 74.9907 30.1907C74.7965 30.1907 74.6023 30.2141 74.376 30.2267V40.1394C76.4089 40.8362 78.5059 41.2646 80.6688 41.3619C82.5022 41.4429 83.4358 42.4115 83.4376 44.255C83.4411 48.3652 83.4821 52.4754 83.4144 56.5838C83.3912 57.9376 83.2576 59.3419 82.8621 60.6255C81.5258 64.95 78.8248 68.3112 75.274 71.0099C75.0744 71.1612 74.8749 71.3124 74.556 71.5536H85.6771V71.5554ZM85.711 73.9481H24.2827C24.2827 74.5008 24.2827 75.0103 24.2827 75.5216C24.2845 77.0051 24.6177 77.3417 26.0822 77.3417C45.3669 77.3417 64.6517 77.3417 83.9346 77.3417C84.1128 77.3417 84.291 77.3489 84.4674 77.3399C85.1996 77.3003 85.67 76.8556 85.7038 76.1103C85.7341 75.4172 85.711 74.7222 85.711 73.9481ZM54.9309 87.7045C60.0853 87.7045 65.2378 87.7045 70.3922 87.7045C70.5917 87.7045 70.7931 87.7171 70.9908 87.6955C71.6251 87.6271 72.0741 87.1374 72.0652 86.5361C72.0581 85.9276 71.6037 85.4631 70.9606 85.4145C70.7842 85.4019 70.606 85.4091 70.4278 85.4091C60.1423 85.4091 49.8585 85.4091 39.573 85.4091C39.3734 85.4091 39.1721 85.4001 38.9743 85.4199C38.4006 85.4775 37.9784 85.9078 37.9356 86.4659C37.8911 87.0348 38.2902 87.5695 38.8728 87.6775C39.1097 87.7207 39.3592 87.7063 39.6032 87.7063C44.7131 87.7063 49.8211 87.7063 54.9309 87.7063V87.7045ZM64.3559 83.0776C63.6753 81.9344 63.0517 80.8596 62.3907 79.8082C62.3159 79.6876 62.0433 79.648 61.8616 79.648C57.2863 79.639 52.7092 79.639 48.1339 79.648C47.9539 79.648 47.6813 79.6894 47.6065 79.81C46.9491 80.8632 46.3255 81.938 45.6484 83.0776H64.3541H64.3559ZM37.6541 27.8593C37.4136 25.4324 34.7286 23.2468 32.1149 23.299C29.4834 23.353 26.9053 25.5332 26.7574 27.8593H37.6541Z" fill="white"/>
<path d="M48.2128 33.6582C48.2128 32.2449 48.1166 30.9379 48.236 29.6524C48.3999 27.8971 50.0194 26.6747 51.8367 26.7737C53.5257 26.8655 54.9261 28.2824 54.9867 30.0197C55.0277 31.2043 54.9938 32.3907 54.9938 33.615H57.2726C57.2726 32.8822 57.2654 32.1549 57.2726 31.4294C57.2975 29.4274 58.8084 27.8755 60.7094 27.8917C62.6015 27.9079 64.0572 29.4184 64.0874 31.4096C64.0981 32.1243 64.0892 32.8372 64.0892 33.6294C64.1765 33.6348 64.385 33.6546 64.5934 33.6564C65.9261 33.66 67.2606 33.6474 68.5933 33.6636C69.2881 33.6726 69.7674 34.1353 69.7888 34.7636C69.8102 35.4081 69.3131 35.9104 68.6004 35.9518C68.4009 35.9626 68.2013 35.9554 68 35.9554C60.0876 35.9554 52.177 35.9554 44.2646 35.9554C44.0651 35.9554 43.8638 35.9644 43.6642 35.9518C42.9551 35.9086 42.4545 35.4009 42.4794 34.76C42.5044 34.1353 42.9872 33.6726 43.682 33.6654C45.2125 33.651 46.7429 33.6618 48.211 33.6618L48.2128 33.6582ZM50.4595 31.3033C50.4595 31.7066 50.4417 32.1117 50.463 32.515C50.4969 33.1631 50.9619 33.633 51.557 33.6492C52.1414 33.6672 52.6812 33.2063 52.7115 32.5744C52.7507 31.7462 52.7543 30.9127 52.7062 30.0863C52.6688 29.4454 52.136 29.0385 51.516 29.0709C50.9245 29.1015 50.504 29.5246 50.4648 30.1601C50.4417 30.54 50.4613 30.9235 50.4595 31.3033ZM61.8123 31.8795H61.8158C61.8158 31.7228 61.8212 31.5662 61.8158 31.4096C61.7837 30.7092 61.3455 30.2249 60.7272 30.2015C60.0912 30.1763 59.5887 30.6768 59.5531 31.4006C59.5335 31.802 59.5228 32.2107 59.5674 32.6086C59.6351 33.2369 60.1731 33.6852 60.7522 33.6492C61.3223 33.6132 61.7642 33.1631 61.8105 32.551C61.8283 32.3277 61.814 32.1027 61.814 31.8795H61.8123Z" fill="white"/>
<path d="M48.6814 41.7093C47.1492 41.7093 45.6152 41.7111 44.083 41.7075C43.8407 41.7075 43.5912 41.7003 43.3561 41.6463C42.7806 41.5113 42.4991 41.1026 42.4866 40.5265C42.4741 39.9702 42.8928 39.4985 43.4701 39.4409C43.9547 39.3923 44.4464 39.4085 44.9346 39.4085C47.6891 39.4067 50.4435 39.4085 53.198 39.4085C53.3761 39.4085 53.5543 39.4031 53.7307 39.4121C54.5004 39.4463 54.9707 39.8586 54.9939 40.5139C55.0188 41.189 54.5253 41.6949 53.7449 41.7057C52.0577 41.7273 50.3687 41.7129 48.6797 41.7129L48.6814 41.7093Z" fill="white"/>
<path d="M48.1089 47.438C46.6889 47.438 45.2672 47.4434 43.8472 47.4362C42.9991 47.4326 42.486 46.9952 42.4824 46.3038C42.4789 45.6179 43.008 45.1462 43.8347 45.1426C46.721 45.1354 49.6073 45.1354 52.4936 45.1426C53.3435 45.1444 53.8406 45.5837 53.8441 46.2912C53.8477 47.0024 53.3595 47.4308 52.5043 47.4362C51.0398 47.4434 49.5735 47.438 48.1089 47.438Z" fill="white"/>
<path d="M48.1325 50.9073C49.597 50.9073 51.0634 50.9019 52.5279 50.9091C53.3421 50.9127 53.8232 51.325 53.8428 52.011C53.8641 52.7293 53.3706 53.1974 52.5386 53.201C49.6309 53.2082 46.7214 53.2082 43.8138 53.201C42.9995 53.1992 42.465 52.7095 42.4829 52.0218C42.5007 51.3538 43.0084 50.9145 43.8031 50.9109C45.2462 50.9037 46.6894 50.9091 48.1325 50.9091V50.9073Z" fill="white"/>
<path d="M48.2214 56.654C49.6859 56.654 51.1522 56.6378 52.6167 56.6612C53.504 56.6756 54.0278 57.3346 53.7998 58.1159C53.6038 58.791 53.0729 58.9585 52.4475 58.9585C50.2952 58.9567 48.1412 58.9585 45.989 58.9585C45.3012 58.9585 44.6135 58.9657 43.924 58.9567C43.0225 58.9459 42.4951 58.5228 42.4826 57.8152C42.4702 57.1059 42.9958 56.663 43.8937 56.6558C45.3369 56.6468 46.78 56.654 48.2214 56.6558V56.654Z" fill="white"/>
<path d="M66.347 58.3913C68.3763 56.0473 70.3665 53.7501 72.3548 51.4546C72.6915 51.0657 73.0229 50.6733 73.3668 50.2898C73.912 49.6813 74.5409 49.5841 75.0647 50.0179C75.5956 50.4572 75.6152 51.172 75.0718 51.8021C72.7361 54.5116 70.3914 57.2121 68.0485 59.9162C67.7706 60.2367 67.5069 60.5734 67.2058 60.8704C66.714 61.3583 66.1118 61.3799 65.5952 60.9208C65.2281 60.595 64.8914 60.2349 64.5529 59.8784C64.0148 59.3131 63.9685 58.6974 64.4139 58.2005C64.8576 57.7036 65.4491 57.6964 66.078 58.1789C66.1475 58.2311 66.2134 58.2869 66.3435 58.3913H66.347Z" fill="white"/>
</g>
<defs>
<clipPath id="clip0_1047_343">
<rect width="111" height="111" fill="white"/>
</clipPath>
<clipPath id="clip1_1047_343">
<rect width="66" height="69" fill="white" transform="translate(22 21)"/>
</clipPath>
</defs>
</svg>
