<svg width="104" height="111" viewBox="0 0 104 111" fill="none" xmlns="http://www.w3.org/2000/svg">
<g id="Group">
<path id="Vector" d="M4.08884 111H0V106.626H1.58338V109.31H4.08884V111Z" fill="#444545"/>
<path id="Vector_2" d="M1.58338 99.8165H0V92.997H1.58338V99.8165ZM1.58338 86.1775H0V79.3581H1.58338V86.1775ZM1.58338 72.5386H0V65.7192H1.58338V72.5386ZM1.58338 58.8997H0V52.0803H1.58338V58.8997ZM1.58338 45.2608H0V38.4414H1.58338V45.2608ZM1.58338 31.6219H0V24.8025H1.58338V31.6219ZM1.58338 17.983H0V11.1636H1.58338V17.983Z" fill="#444545"/>
<path id="Vector_3" d="M1.58338 4.36405H0V0H4.08884V1.68995H1.58338V4.36405Z" fill="#444545"/>
<path id="Vector_4" d="M93.5211 1.68995H87.1317V0H93.5211V1.68995ZM80.7423 1.68995H74.353V0H80.7423V1.68995ZM67.9636 1.68995H61.5742V0H67.9636V1.68995ZM55.1848 1.68995H48.7954V0H55.1848V1.68995ZM42.406 1.68995H36.0166V0H42.406V1.68995ZM29.6272 1.68995H23.2378V0H29.6272V1.68995ZM16.8484 1.68995H10.459V0H16.8484V1.68995Z" fill="#444545"/>
<path id="Vector_5" d="M104.001 4.36405H102.417V1.68995H99.9023V0H104.001V4.36405Z" fill="#444545"/>
<path id="Vector_6" d="M71.569 111H65.6639V109.31H71.5038C71.8298 109.31 72.1558 109.31 72.4818 109.3L72.5284 110.99C72.2117 111 71.895 111.01 71.5783 111.01L71.569 111ZM58.8182 111H51.9817V109.31H58.8182V111ZM45.1452 111H38.3088V109.31H45.1452V111ZM31.4723 111H24.6358V109.31H31.4723V111ZM17.7994 111H10.9629V109.31H17.7994V111ZM79.4486 109.956L79.0575 108.316C81.209 107.739 83.3046 106.904 85.2978 105.851L86.0057 107.362C83.9193 108.475 81.7119 109.35 79.4486 109.956ZM91.8921 103.326L90.8955 102.013C92.6186 100.522 94.202 98.8324 95.5991 96.9933L96.8379 98.057C95.3756 99.9955 93.7084 101.775 91.8921 103.336V103.326ZM100.61 91.7644L99.1943 91.0089C100.182 88.8915 100.964 86.6449 101.504 84.3485L103.041 84.7561C102.473 87.1717 101.662 89.5277 100.619 91.7644H100.61ZM103.991 77.37L102.408 77.3203C102.417 76.9823 102.426 76.6543 102.426 76.3163V70.0535H104.01V76.3163C104.01 76.6741 104.01 77.0221 103.991 77.37ZM104.01 62.747H102.426V55.4503H104.01V62.747ZM104.01 48.1537H102.426V40.8571H104.01V48.1537ZM104.01 33.5605H102.426V26.2639H104.01V33.5605ZM104.01 18.9673H102.426V11.6707H104.01V18.9673Z" fill="#444545"/>
</g>
</svg>
