<svg width="85" height="85" viewBox="0 0 85 85" fill="none" xmlns="http://www.w3.org/2000/svg">
<path d="M42.0778 84.1736C65.3167 84.1736 84.1555 65.3307 84.1555 42.0868C84.1555 18.8429 65.3167 0 42.0778 0C18.8389 0 0 18.8429 0 42.0868C0 65.3307 18.8389 84.1736 42.0778 84.1736Z" fill="#888888"/>
<path d="M47.3949 55.0479C47.3949 55.0479 57.8421 55.0025 58.4713 54.9515C59.1855 51.1301 60.9088 42.2795 60.9088 42.2795C60.9088 42.2795 48.9708 42.1888 47.1511 42.1888C47.1511 39.8585 46.8791 37.3355 47.2135 35.0903C47.769 31.3312 49.0728 29.0123 53.5056 28.3602C55.3989 28.0824 57.3432 28.1448 59.2649 28.0314C59.9224 27.9917 60.4269 27.986 61.3452 27.9123V16.4934C59.8827 16.2099 49.8551 14.8378 43.614 16.9016C40.2355 17.8768 37.4636 19.7875 35.4286 22.7472C33.2632 25.8882 32.4582 29.4375 32.2145 33.1285C32.0614 35.4248 32.1805 37.738 32.1521 40.0456C32.1408 40.7033 31.9594 42.1548 31.9594 42.1548L23.3772 42.2285L23.3205 54.9175L31.8347 54.9799C31.8347 54.9799 32.0444 82.4386 31.9821 82.9432C31.9707 82.9432 31.9594 82.9432 31.9481 82.9432C35.1961 83.7483 38.5916 84.1736 42.0891 84.1736C43.869 84.1736 45.6206 84.0602 47.3382 83.8447C47.3382 83.1303 47.4006 55.0479 47.4006 55.0479H47.3949Z" fill="#000D10"/>
</svg>
