<svg width="111" height="111" viewBox="0 0 111 111" fill="none" xmlns="http://www.w3.org/2000/svg">
<g clip-path="url(#clip0_1049_345)">
<path d="M4.36405 111H0V106.626H1.68995V109.31H4.36405V111Z" fill="white"/>
<path d="M1.68995 99.8165H0V92.997H1.68995V99.8165ZM1.68995 86.1775H0V79.3581H1.68995V86.1775ZM1.68995 72.5386H0V65.7192H1.68995V72.5386ZM1.68995 58.8997H0V52.0803H1.68995V58.8997ZM1.68995 45.2608H0V38.4414H1.68995V45.2608ZM1.68995 31.6219H0V24.8025H1.68995V31.6219ZM1.68995 17.983H0V11.1636H1.68995V17.983Z" fill="white"/>
<path d="M1.68995 4.36405H0V0H4.36405V1.68995H1.68995V4.36405Z" fill="white"/>
<path d="M99.8169 1.68995H92.9975V0H99.8169V1.68995ZM86.178 1.68995H79.3586V0H86.178V1.68995ZM72.5391 1.68995H65.7197V0H72.5391V1.68995ZM58.9002 1.68995H52.0808V0H58.9002V1.68995ZM45.2613 1.68995H38.4419V0H45.2613V1.68995ZM31.6224 1.68995H24.803V0H31.6224V1.68995ZM17.9835 1.68995H11.1641V0H17.9835V1.68995Z" fill="white"/>
<path d="M111.001 4.36405H109.311V1.68995H106.627V0H111.001V4.36405Z" fill="white"/>
<path d="M76.3866 111H70.084V109.31H76.317C76.6649 109.31 77.0128 109.31 77.3608 109.3L77.4105 110.99C77.0725 111 76.7345 111.01 76.3965 111.01L76.3866 111ZM62.7775 111H55.4809V109.31H62.7775V111ZM48.1842 111H40.8876V109.31H48.1842V111ZM33.591 111H26.2944V109.31H33.591V111ZM18.9978 111H11.7012V109.31H18.9978V111ZM84.7965 109.956L84.379 108.316C86.6754 107.739 88.9121 106.904 91.0394 105.851L91.7949 107.362C89.5682 108.475 87.2122 109.35 84.7965 109.956ZM98.0776 103.326L97.0139 102.013C98.853 100.522 100.543 98.8324 102.034 96.9933L103.356 98.057C101.795 99.9955 100.016 101.775 98.0776 103.336V103.326ZM107.382 91.7644L105.871 91.0089C106.925 88.8915 107.76 86.6449 108.337 84.3485L109.977 84.7561C109.37 87.1717 108.506 89.5277 107.392 91.7644H107.382ZM110.991 77.37L109.301 77.3203C109.311 76.9823 109.321 76.6543 109.321 76.3163V70.0535H111.011V76.3163C111.011 76.6741 111.011 77.0221 110.991 77.37ZM111.011 62.747H109.321V55.4503H111.011V62.747ZM111.011 48.1537H109.321V40.8571H111.011V48.1537ZM111.011 33.5605H109.321V26.2639H111.011V33.5605ZM111.011 18.9673H109.321V11.6707H111.011V18.9673Z" fill="white"/>
</g>
<g clip-path="url(#clip1_1049_345)">
<path d="M20 22.7753C20.3536 22.2167 20.6407 21.5915 21.0817 21.1121C21.7391 20.3951 22.6503 20.245 23.5989 20.245C29.7399 20.2534 35.8851 20.245 42.0261 20.245C50.4804 20.245 58.9388 20.2409 67.3931 20.2575C67.9714 20.2575 68.2835 20.1075 68.5331 19.553C69.2779 17.9065 70.3887 16.5142 71.7409 15.322C72.4649 14.6842 73.0973 14.6467 73.5633 15.2053C73.9918 15.7221 73.8462 16.3266 73.1763 16.9519C69.8354 20.0658 68.5789 23.8842 69.7438 28.3028C70.8922 32.6589 73.8129 35.3893 78.194 36.4231C84.2975 37.8655 90.4094 33.7886 91.6451 27.5233C92.835 21.4831 88.7077 15.4429 82.65 14.359C80.915 14.0506 79.2008 14.1173 77.5033 14.5925C76.9916 14.7342 76.4715 14.705 76.2302 14.2256C76.0638 13.8922 76.043 13.3794 76.1803 13.0334C76.2843 12.775 76.717 12.5749 77.0415 12.4874C83.5778 10.6574 90.476 14.0756 93.0139 20.3826C95.2898 26.0435 93.5382 32.4505 88.6661 36.1272C88.196 36.4815 88.067 36.8358 88.067 37.3819C88.0795 52.322 88.0753 67.262 88.0753 82.2021C88.0753 84.7282 86.8313 85.9705 84.3017 85.9705C64.1853 85.9705 44.0731 85.9579 23.9567 85.9913C22.0012 86.0038 20.6907 85.2868 20 83.4527C20 63.2269 20 43.0011 20 22.7753ZM22.1677 30.0453V30.9082C22.1677 47.995 22.1677 65.0819 22.1677 82.1729C22.1677 83.5277 22.4506 83.807 23.8277 83.807C43.9649 83.807 64.1063 83.807 84.2435 83.807C85.6248 83.807 85.9077 83.5277 85.9077 82.1729C85.9077 67.6664 85.9077 53.164 85.9077 38.6575C85.9077 38.399 85.9077 38.1406 85.9077 37.878C84.8509 38.1573 83.869 38.4949 82.858 38.6616C82.2505 38.7617 82.1465 38.991 82.1507 39.5412C82.1673 47.674 82.1632 55.8069 82.1632 63.9439C82.1632 65.8239 81.4267 66.5617 79.5378 66.5617C67.6136 66.5617 55.6894 66.5617 43.7652 66.5617C43.5239 66.5617 43.2826 66.57 43.0454 66.5367C42.4962 66.4617 42.1717 66.124 42.1259 65.5821C42.076 65.0027 42.3589 64.5942 42.9248 64.4566C43.2243 64.3857 43.5447 64.3899 43.8567 64.3899C55.5896 64.3899 67.3182 64.3899 79.0511 64.3899H79.9456V38.8784C76.6338 38.6533 73.7962 37.4403 71.3706 35.2309C71.1584 35.0392 70.7673 34.9725 70.4553 34.9725C56.6047 34.96 42.7542 34.96 28.8995 34.96H28.1339V64.3857H28.9744C31.866 64.3857 34.7576 64.3857 37.645 64.3857C37.9321 64.3857 38.2316 64.3899 38.5021 64.4691C39.0346 64.6192 39.2759 65.0193 39.2385 65.5696C39.2011 66.0907 38.9098 66.4116 38.4022 66.52C38.215 66.5575 38.0195 66.5575 37.8281 66.5575C34.6494 66.5575 31.4665 66.5659 28.2879 66.5575C26.7027 66.5575 25.9122 65.7405 25.9122 64.1315C25.908 61.4052 25.9122 58.6748 25.9122 55.9486C25.9122 49.0455 25.9205 42.1424 25.9039 35.2393C25.9039 34.2305 26.2034 33.4093 27.1645 33.0091C27.5931 32.8299 28.1006 32.7965 28.5749 32.7965C41.8472 32.784 55.1194 32.7882 68.3958 32.7882C68.6704 32.7882 68.9492 32.7882 69.2779 32.7882C68.7952 31.8127 68.3584 30.9332 67.9174 30.0494H22.1677V30.0453ZM22.1677 27.8151H67.2933V22.4252H66.5776C52.3485 22.4252 38.1151 22.4252 23.886 22.4252C23.6696 22.4252 23.4533 22.421 23.2369 22.4377C22.5879 22.4919 22.1968 22.8504 22.1843 23.4965C22.1552 24.9138 22.176 26.3353 22.176 27.8151H22.1677Z" fill="white"/>
<path d="M81.6607 32.1841C81.6607 32.576 81.6981 32.9678 81.6524 33.3472C81.5775 33.9599 81.0657 34.4018 80.5165 34.3268C79.9257 34.2476 79.4681 33.8932 79.543 33.2805C79.6636 32.305 79.2517 31.934 78.3655 31.6297C77.6208 31.3754 76.9509 30.8294 76.3268 30.3166C75.7027 29.8039 75.6861 29.1578 76.1438 28.6742C76.6014 28.1865 77.2047 28.2115 77.7955 28.7534C78.8731 29.7414 80.1088 30.2166 81.5692 29.8789C81.927 29.7956 82.2931 29.5955 82.576 29.3537C83.4164 28.6367 83.3832 27.6237 82.4346 27.0693C81.7189 26.6483 80.8868 26.4315 80.1171 26.1022C79.4556 25.8188 78.7608 25.5812 78.1658 25.1935C77.0341 24.4598 76.4308 23.3635 76.5723 22.0004C76.7179 20.5581 77.5417 19.5409 78.8981 19.0449C79.3973 18.8615 79.5929 18.628 79.5221 18.1195C79.4972 17.9319 79.5097 17.7318 79.5305 17.54C79.5929 16.9564 79.9257 16.6063 80.504 16.5604C81.1198 16.5104 81.6815 16.8689 81.6108 17.4358C81.4527 18.6947 82.2182 18.974 83.1335 19.2825C83.6245 19.4492 84.078 19.7619 84.4982 20.0745C85.0016 20.4455 85.0807 21.0833 84.7645 21.5502C84.4191 22.0629 83.82 22.188 83.2459 21.8128C82.3846 21.2417 81.4818 20.7748 80.425 20.9124C79.9715 20.9707 79.4764 21.15 79.1227 21.4293C78.5028 21.9212 78.5694 22.7966 79.2642 23.2885C79.7427 23.6303 80.3293 23.8262 80.8743 24.068C81.7273 24.4473 82.6509 24.7141 83.4373 25.2018C86.0917 26.8609 85.9336 30.1124 83.1627 31.5839C82.7216 31.8173 82.2348 31.959 81.669 32.1841H81.6607Z" fill="white"/>
<path d="M57.4735 76.2165C57.2779 77.4378 56.9992 77.8088 56.3127 77.8172C55.6345 77.8214 55.3599 77.4587 55.1436 76.2165C54.9023 76.2165 54.6401 76.2165 54.3822 76.2165C50.6044 76.2165 46.8224 76.2123 43.0446 76.2206C42.5037 76.2206 42.0294 76.1331 41.759 75.612C41.3762 74.8617 41.9171 74.0613 42.8449 74.053C44.7213 74.0363 46.5978 74.0488 48.4783 74.0488C50.6918 74.0488 52.901 74.0488 55.102 74.0488C55.4723 72.7149 55.7385 72.3939 56.4001 72.4523C57.0408 72.5106 57.3196 72.915 57.4485 74.0488H58.2682C65.6823 74.0488 73.0965 74.0488 80.5106 74.0488C80.7519 74.0488 80.9974 74.0196 81.2304 74.0697C81.8212 74.1905 82.1707 74.5574 82.1457 75.1827C82.1207 75.7704 81.7713 76.1081 81.2096 76.204C80.9766 76.2456 80.7311 76.2206 80.4898 76.2206C73.1006 76.2206 65.7114 76.2206 58.3223 76.2206H57.4735V76.2165Z" fill="white"/>
<path d="M49.9696 55.503C49.9571 56.1324 49.7158 56.5243 49.1791 56.6535C48.6257 56.7869 48.1639 56.5951 47.9268 56.0574C47.673 55.4863 47.4441 54.8985 47.2611 54.3024C47.1279 53.8772 46.8908 53.7647 46.4706 53.773C44.9769 53.798 43.4874 53.8022 41.9938 53.773C41.5236 53.7647 41.3031 53.9189 41.1741 54.3608C41.016 54.8902 40.7997 55.4029 40.5833 55.9115C40.2963 56.591 39.7387 56.8577 39.1438 56.6285C38.5738 56.4117 38.3241 55.8073 38.5821 55.1153C39.4517 52.7934 40.342 50.4799 41.2241 48.1663C41.7691 46.7282 42.3225 45.29 42.855 43.8435C43.1005 43.1766 43.4749 42.668 44.228 42.6638C44.9727 42.6597 45.368 43.1349 45.6176 43.8144C46.9948 47.5119 48.3969 51.201 49.7824 54.8944C49.8656 55.1195 49.9238 55.3529 49.9696 55.5071V55.503ZM42.2434 51.572H46.2168C45.5594 49.8296 44.927 48.1538 44.2363 46.3238C43.5332 48.1705 42.9049 49.8296 42.2434 51.572Z" fill="white"/>
<path d="M58.3976 47.5202C58.3976 46.6364 58.3976 45.7777 58.3976 44.919C58.3976 44.6063 58.3851 44.2895 58.435 43.9811C58.5182 43.46 58.8677 43.1765 59.3753 43.1348C59.912 43.0932 60.3114 43.3349 60.4779 43.8685C60.5403 44.0728 60.5611 44.2937 60.5611 44.5105C60.5652 48.0787 60.5611 51.6512 60.5611 55.2195C60.5611 55.8156 60.4238 56.3366 59.7789 56.5325C59.1382 56.7243 58.7179 56.4033 58.4101 55.8781C58.3976 55.8572 58.3726 55.8489 58.356 55.8322C55.6682 57.3663 53.2593 56.3366 52.0402 54.9568C50.609 53.3353 50.4051 50.9467 51.5659 49.1167C52.9347 46.9574 54.9318 46.478 58.3934 47.5243L58.3976 47.5202ZM58.3893 51.7095C58.3809 50.2214 57.1369 48.9916 55.6599 49.0083C54.1788 49.025 52.9514 50.2881 52.9805 51.7637C53.0096 53.2269 54.2162 54.4191 55.6807 54.4233C57.1702 54.4316 58.4017 53.1977 58.3934 51.7095H58.3893Z" fill="white"/>
<path d="M31.8539 81.0228C28.6045 81.0269 25.9584 78.4049 25.9376 75.1659C25.9209 71.8936 28.5754 69.2341 31.8539 69.2425C35.095 69.2508 37.737 71.8978 37.737 75.1326C37.737 78.3757 35.095 81.0144 31.8498 81.0228H31.8539ZM31.8539 78.8509C33.9051 78.8468 35.586 77.1585 35.5735 75.1159C35.561 73.065 33.8801 71.4101 31.8248 71.4143C29.7695 71.4184 28.1011 73.0984 28.1094 75.1451C28.1177 77.196 29.7944 78.8509 31.8539 78.8468V78.8509Z" fill="white"/>
<path d="M66.3329 46.7365C67.1401 47.0741 67.9805 47.3534 68.7502 47.7661C69.42 48.1287 69.5449 48.8291 69.1704 49.3668C68.8043 49.892 68.2676 49.9045 67.5728 49.5919C67.0236 49.346 66.4078 49.2251 65.8087 49.1459C65.6339 49.1209 65.4134 49.4168 65.2137 49.5669C65.3635 49.7545 65.4717 50.0254 65.6631 50.1171C66.2455 50.4006 66.8655 50.6049 67.4646 50.855C69.0581 51.5303 69.7862 52.6558 69.574 54.0814C69.3743 55.4195 68.1011 56.4867 66.5118 56.5784C65.1513 56.6576 63.9489 56.2241 62.9753 55.2403C62.4969 54.7567 62.4594 54.1273 62.8505 53.6854C63.2666 53.2144 63.9114 53.1852 64.4523 53.6771C65.0598 54.2315 65.7546 54.5483 66.5576 54.3607C66.8779 54.2857 67.1317 53.9355 67.4147 53.7104C67.2025 53.452 67.0444 53.0935 66.7698 52.9476C66.2414 52.6683 65.6506 52.5224 65.0931 52.2973C63.4496 51.6303 62.759 50.5257 63.071 49.0875C63.3581 47.7577 64.6687 46.8657 66.3287 46.7406L66.3329 46.7365Z" fill="white"/>
<path d="M31.9083 74.053C32.4991 74.0905 32.9442 74.6324 32.8943 75.2369C32.8444 75.8038 32.3326 76.2498 31.771 76.2081C31.2176 76.1665 30.7475 75.6454 30.7641 75.0993C30.7849 74.5157 31.3299 74.0155 31.9083 74.053Z" fill="white"/>
</g>
<defs>
<clipPath id="clip0_1049_345">
<rect width="111" height="111" fill="white"/>
</clipPath>
<clipPath id="clip1_1049_345">
<rect width="74" height="74" fill="white" transform="translate(20 12)"/>
</clipPath>
</defs>
</svg>
