<svg width="111" height="111" viewBox="0 0 111 111" fill="none" xmlns="http://www.w3.org/2000/svg">
<g clip-path="url(#clip0_1049_344)">
<path d="M4.36405 111H0V106.626H1.68995V109.31H4.36405V111Z" fill="white"/>
<path d="M1.68995 99.8165H0V92.997H1.68995V99.8165ZM1.68995 86.1775H0V79.3581H1.68995V86.1775ZM1.68995 72.5386H0V65.7192H1.68995V72.5386ZM1.68995 58.8997H0V52.0803H1.68995V58.8997ZM1.68995 45.2608H0V38.4414H1.68995V45.2608ZM1.68995 31.6219H0V24.8025H1.68995V31.6219ZM1.68995 17.983H0V11.1636H1.68995V17.983Z" fill="white"/>
<path d="M1.68995 4.36405H0V0H4.36405V1.68995H1.68995V4.36405Z" fill="white"/>
<path d="M99.8169 1.68995H92.9975V0H99.8169V1.68995ZM86.178 1.68995H79.3586V0H86.178V1.68995ZM72.5391 1.68995H65.7197V0H72.5391V1.68995ZM58.9002 1.68995H52.0808V0H58.9002V1.68995ZM45.2613 1.68995H38.4419V0H45.2613V1.68995ZM31.6224 1.68995H24.803V0H31.6224V1.68995ZM17.9835 1.68995H11.1641V0H17.9835V1.68995Z" fill="white"/>
<path d="M111.001 4.36405H109.311V1.68995H106.627V0H111.001V4.36405Z" fill="white"/>
<path d="M76.3866 111H70.084V109.31H76.317C76.6649 109.31 77.0128 109.31 77.3608 109.3L77.4105 110.99C77.0725 111 76.7345 111.01 76.3965 111.01L76.3866 111ZM62.7775 111H55.4809V109.31H62.7775V111ZM48.1842 111H40.8876V109.31H48.1842V111ZM33.591 111H26.2944V109.31H33.591V111ZM18.9978 111H11.7012V109.31H18.9978V111ZM84.7965 109.956L84.379 108.316C86.6754 107.739 88.9121 106.904 91.0394 105.851L91.7949 107.362C89.5682 108.475 87.2122 109.35 84.7965 109.956ZM98.0776 103.326L97.0139 102.013C98.853 100.522 100.543 98.8324 102.034 96.9933L103.356 98.057C101.795 99.9955 100.016 101.775 98.0776 103.336V103.326ZM107.382 91.7644L105.871 91.0089C106.925 88.8915 107.76 86.6449 108.337 84.3485L109.977 84.7561C109.37 87.1717 108.506 89.5277 107.392 91.7644H107.382ZM110.991 77.37L109.301 77.3203C109.311 76.9823 109.321 76.6543 109.321 76.3163V70.0535H111.011V76.3163C111.011 76.6741 111.011 77.0221 110.991 77.37ZM111.011 62.747H109.321V55.4503H111.011V62.747ZM111.011 48.1537H109.321V40.8571H111.011V48.1537ZM111.011 33.5605H109.321V26.2639H111.011V33.5605ZM111.011 18.9673H109.321V11.6707H111.011V18.9673Z" fill="white"/>
</g>
<g clip-path="url(#clip1_1049_344)">
<path d="M35.8192 22C36.9809 22.6763 37.4128 23.4229 37.1718 24.3502C36.9073 25.3613 36.1707 25.8066 34.7479 25.8066C32.1298 25.8066 29.5117 25.8066 26.8099 25.8066C26.8099 26.0677 26.8099 26.292 26.8099 26.5164C26.8099 28.9269 26.8099 31.3374 26.8099 33.7479C26.8099 35.1707 26.368 35.9073 25.3536 36.1718C24.4262 36.4128 23.6796 35.9843 23 34.8192V23.3961C23.3013 22.7667 23.7667 22.3013 24.3961 22H35.8192Z" fill="white"/>
<path d="M23 74.1641C23.6763 72.9957 24.4162 72.5671 25.3536 72.8115C26.3647 73.0727 26.8066 73.8126 26.8066 75.2354C26.8066 77.8535 26.8066 80.4749 26.8066 83.1734C27.0711 83.1734 27.2954 83.1734 27.5197 83.1734C30.0373 83.1734 32.5516 83.1734 35.0693 83.1734C36.3616 83.1734 37.2186 83.9367 37.2186 85.075C37.2186 86.2166 36.3649 86.98 35.0726 86.98C31.8988 86.98 28.7283 86.9465 25.5578 87C24.376 87.0201 23.5089 86.682 23 85.5872V74.1641Z" fill="white"/>
<path d="M86.5863 22.0001C87.6844 22.5056 88.0192 23.3761 87.9991 24.5579C87.9456 27.7719 87.9891 30.9859 87.9757 34.1999C87.969 35.7935 86.4222 36.7343 85.1099 35.9509C84.4537 35.5592 84.1691 34.9532 84.1691 34.1965C84.1691 31.6588 84.1691 29.1211 84.1691 26.5834C84.1691 26.3524 84.1691 26.1214 84.1691 25.8066H83.4627C81.474 25.8066 79.4853 25.8066 77.5 25.8066C76.0838 25.8066 75.3339 25.358 75.0728 24.3503C74.8317 23.4162 75.2569 22.6763 76.4253 21.9967H86.5796L86.5863 22.0001Z" fill="white"/>
<path d="M68.8763 60.2267V56.3967C68.1799 56.3967 67.5103 56.4 66.8441 56.3967C65.6121 56.39 64.755 55.6099 64.755 54.4984C64.755 53.3835 65.6054 52.5934 66.8374 52.5934C69.8204 52.5901 72.8034 52.5934 75.7831 52.5934C76.0141 52.5934 76.2417 52.5934 76.5163 52.5934V48.7634C76.2752 48.7634 76.0308 48.7634 75.7864 48.7634C71.7053 48.7634 67.6208 48.7634 63.5397 48.7634C61.9461 48.7634 61.2263 48.0335 61.2263 46.4265C61.2263 41.6055 61.2263 36.7812 61.2263 31.9601C61.2263 30.3397 61.9327 29.6233 63.5297 29.6233C68.3942 29.6233 73.2587 29.6233 78.1233 29.6233C79.6466 29.6233 80.3664 30.3498 80.3664 31.8831C80.3664 39.3055 80.3664 46.7312 80.3664 54.1536C80.3664 55.6769 79.6399 56.4 78.1132 56.4034C76.3422 56.4034 74.5678 56.4034 72.7565 56.4034V60.2334C73.0076 60.2334 73.2319 60.2334 73.4596 60.2334C75.0867 60.2334 76.7171 60.22 78.3442 60.2367C79.5763 60.2501 80.363 61.0469 80.3664 62.279C80.3731 67.2908 80.3731 72.3027 80.3664 77.3179C80.3664 78.5901 79.5763 79.3735 78.3041 79.3735C73.3123 79.3802 68.3205 79.3768 63.3288 79.3735C62.0197 79.3735 61.233 78.5934 61.2296 77.281C61.2229 72.3094 61.2229 67.341 61.2296 62.3694C61.2296 61.0202 62.013 60.2434 63.3623 60.2367C65.1802 60.2267 66.9948 60.2367 68.8796 60.2367L68.8763 60.2267ZM65.0664 44.9032H76.5196V33.4567H65.0664V44.8999V44.9032ZM76.543 64.0768H65.0664V75.5167H76.543V64.0768Z" fill="white"/>
<path d="M45.9365 48.78C45.6586 48.78 45.4108 48.78 45.1597 48.78C42.2638 48.78 41.3732 48.3281 41.3833 46.8617C41.3933 45.412 42.2772 44.9734 45.1932 44.9734H53.543V37.3368H49.7799C49.7799 37.9294 49.7832 38.5153 49.7799 39.1012C49.7665 40.3198 48.9596 41.1802 47.8481 41.1635C46.7634 41.1467 45.9766 40.2964 45.9733 39.1079C45.9666 36.6337 45.9666 34.1596 45.9733 31.6822C45.9733 30.4635 46.7868 29.6031 47.8983 29.6165C48.9831 29.6299 49.7631 30.4803 49.7765 31.6688C49.7832 32.2547 49.7765 32.8405 49.7765 33.4599H53.5831C53.5831 32.8807 53.5831 32.3183 53.5831 31.7558C53.5898 30.4736 54.3665 29.6064 55.4981 29.6165C56.6063 29.6232 57.3864 30.4836 57.3864 31.719C57.3897 36.7107 57.3897 41.7025 57.3864 46.6943C57.3864 48.0033 56.603 48.7733 55.2839 48.7767C53.4693 48.7834 51.6547 48.7767 49.8067 48.7767V52.5833C50.0176 52.5833 50.2419 52.5833 50.4629 52.5833C53.2349 52.5833 56.0037 52.5833 58.7758 52.5833C60.0614 52.5833 60.9318 53.3566 60.9318 54.4849C60.9318 55.6098 60.058 56.3832 58.7758 56.3899C58.3372 56.3899 57.8953 56.3899 57.3864 56.3899V57.1164C57.3864 59.5905 57.3864 62.0646 57.3864 64.5421C57.3864 65.9013 56.6197 66.6646 55.2638 66.668C54.0786 66.6713 52.8935 66.6747 51.7116 66.668C50.493 66.6613 49.6326 65.8511 49.6493 64.7396C49.6627 63.6549 50.5164 62.8748 51.7016 62.8647C52.2942 62.8581 52.8868 62.8647 53.5296 62.8647V56.4367H42.1634C42.1634 57.0494 42.1667 57.6554 42.1634 58.2613C42.15 59.48 41.3431 60.3404 40.2316 60.3237C39.1469 60.3069 38.3701 59.4566 38.3568 58.268C38.3501 57.6755 38.3568 57.0862 38.3568 56.4434H34.4229C34.4229 57.0327 34.4263 57.6386 34.4229 58.2413C34.4129 59.47 33.6194 60.327 32.5113 60.3237C31.4031 60.317 30.623 59.4599 30.6164 58.2245C30.6097 57.0394 30.6097 55.8542 30.6164 54.6724C30.623 53.36 31.3964 52.59 32.7155 52.5866C36.8837 52.5833 41.0485 52.5866 45.2167 52.5866C45.4443 52.5866 45.672 52.5866 45.9365 52.5866V48.78Z" fill="white"/>
<path d="M38.2334 79.3668C36.3954 79.3668 34.5574 79.3701 32.7194 79.3668C31.4037 79.3634 30.6203 78.59 30.6203 77.2877C30.6136 73.5882 30.6136 69.8921 30.6203 66.1927C30.6203 64.9238 31.4104 64.1437 32.6826 64.1404C36.382 64.1337 40.0782 64.1337 43.7776 64.1404C45.0532 64.1404 45.8433 64.9205 45.8466 66.186C45.8533 69.9055 45.8533 73.6251 45.8466 77.3446C45.8466 78.5733 45.0498 79.3601 43.8144 79.3668C41.9563 79.3768 40.0949 79.3668 38.2368 79.3668H38.2334ZM42.0099 67.9905H34.4737V75.5267H42.0099V67.9905Z" fill="white"/>
<path d="M36.3245 29.6165C37.5498 29.6165 38.7752 29.6099 40.0005 29.6165C41.2325 29.6266 42.0293 30.4067 42.0327 31.632C42.0427 34.1028 42.0427 36.5735 42.0327 39.0477C42.026 40.2362 41.2258 41.0296 40.034 41.033C37.5632 41.043 35.0924 41.043 32.6183 41.033C31.4265 41.0263 30.623 40.2328 30.6163 39.0477C30.6062 36.5535 30.6029 34.0626 30.6163 31.5684C30.623 30.4201 31.4298 29.6299 32.5815 29.6165C33.8269 29.6032 35.0757 29.6165 36.3211 29.6165H36.3245ZM34.4496 37.1862H38.1792V33.4566H34.4496V37.1862Z" fill="white"/>
<path d="M84.1732 83.1733C84.1732 82.872 84.1732 82.6443 84.1732 82.4133C84.1732 79.8756 84.1699 77.3379 84.1732 74.8035C84.1732 73.6116 84.96 72.7747 86.0514 72.7613C87.1763 72.7479 87.9731 73.5916 87.9765 74.8202C87.9832 78.1816 87.9832 81.5429 87.9765 84.9042C87.9765 86.2065 87.1897 86.9766 85.8673 86.9799C82.526 86.9833 79.1848 86.9833 75.8469 86.9799C74.6115 86.9799 73.7612 86.1965 73.7578 85.0816C73.7578 83.9634 74.6015 83.1767 75.8335 83.1733C78.5788 83.1666 81.3275 83.1733 84.1699 83.1733H84.1732Z" fill="white"/>
<path d="M53.5862 75.5602C53.5862 74.5089 53.5828 73.538 53.5862 72.5705C53.5929 71.3418 54.383 70.4847 55.4945 70.488C56.6027 70.488 57.3861 71.3485 57.3928 72.5805C57.3995 74.144 57.3995 75.7108 57.3928 77.2743C57.3861 78.59 56.6161 79.3601 55.3037 79.3668C54.0984 79.3734 52.8932 79.3768 51.6879 79.3668C50.5095 79.3567 49.6591 78.5599 49.6524 77.4718C49.6457 76.3871 50.4961 75.5769 51.6678 75.5602C52.2772 75.5535 52.8898 75.5602 53.5828 75.5602H53.5862Z" fill="white"/>
<path d="M34.099 48.7801C33.5701 48.7801 33.0411 48.7935 32.5121 48.7801C31.4341 48.7433 30.6172 47.9097 30.6172 46.8752C30.6172 45.8406 31.4441 45.0037 32.5222 44.9836C33.5567 44.9635 34.5945 44.9635 35.6324 44.9836C36.7171 45.0037 37.5474 45.8239 37.5675 46.8551C37.5876 47.8996 36.7305 48.7533 35.6223 48.7835C35.1135 48.7969 34.6079 48.7835 34.099 48.7835V48.7801Z" fill="white"/>
<path d="M72.7507 39.1347C72.7507 40.1625 71.8937 41.0263 70.8659 41.0363C69.8146 41.0464 68.9308 40.1558 68.9475 39.1046C68.9642 38.0767 69.838 37.2264 70.8625 37.2331C71.8903 37.2431 72.7474 38.1069 72.7474 39.1347H72.7507Z" fill="white"/>
<path d="M72.751 69.8553C72.7476 70.8831 71.8839 71.7435 70.856 71.7502C69.8048 71.7535 68.9243 70.8596 68.9477 69.8084C68.9678 68.7806 69.845 67.9335 70.8728 67.9469C71.9006 67.9603 72.7543 68.8274 72.751 69.8553Z" fill="white"/>
</g>
<defs>
<clipPath id="clip0_1049_344">
<rect width="111" height="111" fill="white"/>
</clipPath>
<clipPath id="clip1_1049_344">
<rect width="65" height="65" fill="white" transform="translate(23 22)"/>
</clipPath>
</defs>
</svg>
