<svg width="85" height="85" viewBox="0 0 85 85" fill="none" xmlns="http://www.w3.org/2000/svg">
<path d="M42.0778 84.1736C65.3167 84.1736 84.1555 65.3307 84.1555 42.0868C84.1555 18.8429 65.3167 0 42.0778 0C18.8389 0 0 18.8429 0 42.0868C0 65.3307 18.8389 84.1736 42.0778 84.1736Z" fill="#888888"/>
<path d="M47.2815 32.1987C48.3698 29.12 50.847 28.1391 53.738 27.7649C55.8694 27.4871 57.9951 27.4758 60.1151 27.9067C63.5219 28.5984 65.8687 30.5658 67.2008 33.7692C68.1418 36.0315 68.635 38.4184 68.6746 40.8338C68.8107 48.7601 68.8164 56.6865 68.8901 64.6185C68.8901 65.1855 68.7143 65.4236 68.1191 65.4179C65.0241 65.4009 61.9347 65.3896 58.8397 65.4179C57.9894 65.4293 58.0688 64.902 58.0688 64.3633C58.0688 57.673 58.0801 50.977 58.0574 44.2867C58.0574 43.4248 57.9497 42.5404 57.74 41.7069C57.3488 40.1761 56.3172 39.1895 54.8037 38.7246C53.4489 38.3107 52.0884 38.2994 50.728 38.6679C48.5682 39.2519 47.3892 40.9018 47.3098 43.5099C47.2645 45.001 47.2928 46.4922 47.2928 47.9833C47.2928 53.381 47.2928 58.7786 47.2928 64.1819C47.2928 65.4123 47.2928 65.4123 46.0344 65.4123C43.1661 65.4123 40.2978 65.3896 37.4295 65.4236C36.6926 65.4349 36.4602 65.2025 36.4659 64.4597C36.4829 52.4795 36.4829 40.4992 36.4659 28.5247C36.4659 27.7706 36.7209 27.5665 37.4408 27.5721C40.4225 27.6062 43.3985 27.6005 46.3802 27.5721C47.0718 27.5665 47.3325 27.7819 47.3042 28.485C47.2588 29.721 47.2928 30.957 47.2928 32.193L47.2815 32.1987Z" fill="#000D10"/>
<path d="M31.0807 46.5886C31.0807 52.4965 31.0807 58.3987 31.0807 64.3066C31.0807 65.4122 31.0751 65.4122 29.9527 65.4179C27.0561 65.4179 24.1594 65.3952 21.2628 65.4349C20.5032 65.4463 20.2481 65.2138 20.2481 64.4314C20.2708 52.4795 20.2708 40.5276 20.2481 28.5757C20.2481 27.7933 20.5089 27.5721 21.2685 27.5778C24.1934 27.6118 27.1184 27.6175 30.0377 27.5778C30.8427 27.5665 31.0977 27.8046 31.0977 28.621C31.0694 34.6083 31.0807 40.6013 31.0807 46.5886Z" fill="#000D10"/>
<path d="M25.69 14.0894C28.6886 14.0951 31.0864 16.5104 31.0808 19.5154C31.0751 22.5147 28.6603 24.913 25.656 24.9073C22.6629 24.9017 20.2595 22.4863 20.2651 19.4814C20.2708 16.482 22.6856 14.0837 25.69 14.0894Z" fill="#000D10"/>
</svg>
