<svg width="85" height="85" viewBox="0 0 85 85" fill="none" xmlns="http://www.w3.org/2000/svg">
<path fill-rule="evenodd" clip-rule="evenodd" d="M80.9585 25.9846C78.8441 20.8988 75.7377 16.2269 71.8377 12.3261C67.9378 8.4253 63.2782 5.31826 58.1822 3.20343C53.0918 1.09994 47.5876 0 42.0778 0C36.5679 0 31.0694 1.09994 25.979 3.20343C20.8943 5.31826 16.2234 8.4253 12.3235 12.3261C8.42349 16.2269 5.31712 20.8875 3.20274 25.9846C1.0997 31.0761 0 36.5814 0 42.0925C0 47.6035 1.0997 53.1032 3.20274 58.1946C5.31712 63.2804 8.42349 67.9523 12.3235 71.8531C16.2234 75.7539 20.883 78.861 25.979 80.9758C31.0637 83.0793 36.5736 84.1792 42.0778 84.1792C47.5819 84.1792 53.0861 83.0793 58.1822 80.9758C63.2669 78.861 67.9378 75.7539 71.8377 71.8531C75.7377 67.9523 78.8441 63.2918 80.9585 58.1946C83.0615 53.1088 84.1612 47.5978 84.1612 42.0925C84.1612 36.5871 83.0615 31.0817 80.9585 25.9846Z" fill="#888888"/>
<path fill-rule="evenodd" clip-rule="evenodd" d="M55.8467 66.9715C46.675 68.3379 20.5145 52.0883 20.5145 30.3163C20.8433 19.7082 24.6412 17.1284 29.3575 17.1284C34.0737 17.1284 39.3965 30.5545 36.721 31.7848C34.5159 32.7997 30.7236 33.1512 30.8313 37.6587C30.8937 40.607 45.751 56.9189 48.5002 56.7092C53.2165 56.3917 52.1905 50.926 55.8637 49.3895C58.647 48.2045 68.3629 54.3052 67.626 58.1833C66.8891 62.0501 62.8814 65.9282 55.8467 66.9771V66.9715Z" fill="#000D10"/>
</svg>
