<svg width="85" height="85" viewBox="0 0 85 85" fill="none" xmlns="http://www.w3.org/2000/svg">
<path d="M42.0778 84.1736C65.3167 84.1736 84.1555 65.3307 84.1555 42.0868C84.1555 18.8429 65.3167 0 42.0778 0C18.8389 0 0 18.8429 0 42.0868C0 65.3307 18.8389 84.1736 42.0778 84.1736Z" fill="#888888"/>
<path d="M29.8904 67.4364C26.4552 68.8765 22.969 69.9764 19.2164 69.8063C18.7063 69.7836 18.2074 69.6532 17.4309 69.5285C17.873 68.8992 18.1394 68.4683 18.4569 68.0714C19.5282 66.7333 20.2821 65.2592 20.7526 63.5979C21.2855 61.7269 20.968 60.026 19.8853 58.5008C16.1668 53.2676 14.0864 47.388 13.1341 41.1116C12.4425 36.5644 12.3348 32.0002 12.913 27.385C13.5649 22.1632 14.8233 17.1624 16.9717 12.3658C17.5442 11.0788 18.3662 10.0582 19.5282 9.29844C23.3885 6.77539 27.4699 4.72859 31.9254 3.47557C36.84 2.09214 41.817 1.94473 46.8564 2.56274C52.4002 3.23744 57.5586 5.01776 62.3202 7.90934C70.2279 12.7173 75.8511 19.4814 79.2862 28.0541C81.6841 34.0357 82.5003 40.3065 81.9051 46.6736C81.3213 52.9217 79.0765 58.6709 75.613 63.9041C74.5473 65.5143 73.3399 67.0281 72.1722 68.5703C71.2085 69.8404 69.9388 70.6795 68.3799 71.0764C62.6377 72.5448 56.8161 73.2139 50.8811 72.8907C46.7714 72.6639 42.6957 72.2103 38.7617 70.9743C36.4659 70.2542 34.2495 69.279 32.0104 68.3946C31.2962 68.1111 30.6103 67.7595 29.8847 67.4307L29.8904 67.4364Z" fill="#000D10"/>
<path d="M28.0254 44.3264H37.8264C38.0645 46.7133 37.5316 47.337 35.661 47.3313C32.0898 47.354 24.2955 47.32 23.689 47.32C23.2752 46.1634 23.5586 45.1258 24.2785 44.2413C26.9541 40.9642 29.6183 37.6814 32.2825 34.3929C32.5943 34.0074 32.8777 33.5991 33.3822 32.9188H23.9157V29.789C28.6773 29.789 33.5239 29.7097 38.1665 29.6927C38.4726 31.2972 37.5089 32.2441 36.721 33.2363C33.9661 36.7118 31.2055 40.1818 28.4506 43.6517C28.3599 43.7651 28.2918 43.9011 28.0197 44.3207L28.0254 44.3264Z" fill="#888888"/>
<path d="M49.2825 34.7047C49.4469 34.4099 49.5716 34.1945 49.719 33.928H52.3152V47.1839C51.6973 47.1839 50.5693 47.2463 50.1158 47.1839C49.77 46.8381 49.7077 46.7587 49.2598 46.2654C44.8837 47.8983 41.9077 47.286 39.7877 44.3604C38.0134 41.911 38.1325 38.4695 40.0711 36.1392C42.3215 33.4347 45.4279 32.9244 49.2825 34.7104V34.7047ZM45.3145 44.2923C47.5479 44.3037 49.2372 42.6368 49.1918 40.4596C49.1521 38.3674 47.4572 36.6041 45.4392 36.5474C43.2625 36.4907 41.4089 38.2937 41.4202 40.4652C41.4372 42.6708 43.0754 44.2867 45.3145 44.2923Z" fill="#888888"/>
<path d="M66.3676 33.5368C70.1032 33.5254 73.3059 36.6495 73.2266 40.4652C73.1416 44.4171 70.2903 47.2293 66.2996 47.32C62.6207 47.405 59.4293 44.1619 59.4066 40.3802C59.3839 36.6438 62.53 33.5481 66.3676 33.5368ZM66.2826 44.3037C68.6974 44.3207 70.2449 42.7899 70.2223 40.4086C70.2052 38.2427 68.5954 36.6608 66.4243 36.6608C64.1229 36.6608 62.5867 38.1917 62.564 40.4936C62.5413 42.6424 64.1455 44.2867 66.2826 44.298V44.3037Z" fill="#888888"/>
<path d="M57.5417 47.1669C57.1109 47.2236 56.8671 47.1329 56.6177 47.1442C56.1642 47.1612 55.1949 47.1442 54.5147 47.1442C54.5147 46.4412 54.4523 46.0613 54.4523 45.5283C54.4183 40.4312 54.4523 35.3341 54.4636 30.2369C54.4636 30.1406 54.4636 29.8174 54.4636 29.8174H57.5473V47.1612L57.5417 47.1669Z" fill="#888888"/>
</svg>
