<svg width="255" height="53" viewBox="0 0 255 53" fill="none" xmlns="http://www.w3.org/2000/svg">
<g clip-path="url(#clip0_1129_375)">
<path d="M51.2765 13.4546V20.4897H47.2847V1.05347H56.019C57.8832 1.05347 59.3397 1.60474 60.3936 2.71235C61.4475 3.81996 61.9745 5.34229 61.9745 7.27934C61.9745 8.64489 61.6016 9.88905 60.856 11.0068C59.7822 12.6353 58.1119 13.4546 55.855 13.4546H51.2815H51.2765ZM51.2765 10.0964H55.0049C56.2775 10.0964 57.1475 9.69686 57.6148 8.89271C57.8583 8.46281 57.9776 7.85085 57.9776 7.05681C57.9776 6.12116 57.7042 5.4485 57.1524 5.02872C56.6006 4.60894 55.7058 4.40158 54.468 4.40158H51.2715V10.1015L51.2765 10.0964Z" fill="#444545"/>
<path d="M65.857 20.4897V1.05347H75.5359C77.753 1.05347 79.3885 1.74635 80.4375 3.12707C81.1831 4.12341 81.556 5.25125 81.556 6.51059C81.556 7.61314 81.2925 8.5842 80.7705 9.42375C80.2485 10.2684 79.5178 10.8449 78.5782 11.1636C79.478 11.5682 80.0795 12.0233 80.3828 12.524C80.8053 13.227 81.0191 14.4206 81.0191 16.0947C81.0191 17.4349 81.0439 18.3655 81.0887 18.8915C81.1384 19.4175 81.3969 19.7665 81.8741 19.9435V20.4847H77.4548C77.3156 19.984 77.2112 19.4529 77.1366 18.8915C77.062 18.3301 77.0272 17.5462 77.0272 16.5296C77.0272 15.068 76.8731 14.1172 76.5699 13.6873C76.1821 13.1208 75.2824 12.8427 73.8805 12.8427H69.7892V20.4847H65.8521L65.857 20.4897ZM69.7942 9.61088H74.487C75.5458 9.61088 76.3213 9.40352 76.8184 8.98374C77.3156 8.56396 77.5641 7.88625 77.5641 6.95566C77.5641 6.28806 77.3852 5.73678 77.0322 5.30183C76.555 4.70504 75.7944 4.40158 74.7455 4.40158H69.7942V9.61088Z" fill="#444545"/>
<path d="M89.5992 1.05347V20.4897H85.6123V1.05347H89.5992Z" fill="#444545"/>
<path d="M105.403 1.05347H109.131V20.4897H105.139L97.3691 6.62186L97.3194 20.4897H93.5911V1.05347H97.8016L105.353 14.5926L105.403 1.05347Z" fill="#444545"/>
<path d="M121.957 4.46733V20.4897H117.955V4.46733H112.158V1.05347H127.698V4.46733H121.957Z" fill="#444545"/>
<path d="M134.564 1.05347V20.4897H130.577V1.05347H134.564Z" fill="#444545"/>
<path d="M150.367 1.05347H154.095V20.4897H150.103L142.333 6.62186L142.284 20.4897H138.555V1.05347H142.766L150.317 14.5926L150.367 1.05347Z" fill="#444545"/>
<path d="M167.781 13.2825V9.97486H175.76V20.4845H173.095L172.677 18.0518C171.887 18.952 171.211 19.5893 170.649 19.9686C169.565 20.6716 168.253 21.0257 166.712 21.0257C164.261 21.0257 162.228 20.176 160.617 18.4766C158.823 16.6003 157.928 14.0411 157.928 10.7942C157.928 7.92148 158.684 5.54442 160.19 3.66806C161.895 1.55906 164.266 0.50708 167.299 0.50708C169.958 0.50708 172.076 1.26572 173.652 2.78299C174.984 4.06255 175.655 5.48373 175.655 7.05158H171.663C171.663 6.49525 171.325 5.87317 170.649 5.18534C169.799 4.30532 168.75 3.86531 167.502 3.86531C165.942 3.86531 164.674 4.40141 163.695 5.47867C162.576 6.7279 162.019 8.51828 162.019 10.8448C162.019 13.1712 162.601 15.0527 163.759 16.1754C164.694 17.101 165.961 17.5612 167.552 17.5612C168.73 17.5612 169.73 17.1768 170.555 16.4131C171.38 15.6444 171.922 14.6025 172.19 13.2775H167.771L167.781 13.2825Z" fill="#444545"/>
<path d="M51.2765 44.1993V51.2344H47.2847V31.8032H56.019C57.8832 31.8032 59.3397 32.3545 60.3936 33.4621C61.4475 34.5697 61.9745 36.092 61.9745 38.0291C61.9745 39.3946 61.6016 40.6388 60.856 41.7565C59.7822 43.3851 58.1119 44.2044 55.855 44.2044H51.2765V44.1993ZM51.2765 40.8411H55.0049C56.2775 40.8411 57.1475 40.4416 57.6148 39.6374C57.8583 39.2075 57.9776 38.5955 57.9776 37.8015C57.9776 36.8659 57.7042 36.1932 57.1524 35.7734C56.6006 35.3536 55.7058 35.1463 54.468 35.1463H51.2715V40.8462L51.2765 40.8411Z" fill="#444545"/>
<path d="M67.9746 47.229L66.6473 51.2346H62.4368L69.2473 31.7983H73.8854L80.5915 51.2346H76.2765L75.0536 47.229H67.9697H67.9746ZM69.0385 43.8708H73.94L71.534 36.1782L69.0385 43.8708Z" fill="#444545"/>
<path d="M99.0196 38.1355H95.0277C94.7593 37.1898 94.4312 36.4969 94.0385 36.0467C93.3127 35.2021 92.2389 34.7773 90.8172 34.7773C89.5793 34.7773 88.5453 35.2173 87.7251 36.0973C86.6265 37.2707 86.0747 39.1015 86.0747 41.6C86.0747 43.4965 86.4376 45.029 87.1683 46.2023C88.0085 47.5426 89.2264 48.2102 90.8221 48.2102C91.9208 48.2102 92.8404 47.8966 93.5762 47.2695C94.3119 46.6424 94.7991 45.7421 95.0327 44.5738H99.0246C98.602 46.7789 97.7221 48.4985 96.3849 49.7426C94.9283 51.0981 93.0393 51.7809 90.7177 51.7809C88.1079 51.7809 86.02 50.9109 84.4541 49.1762C82.8086 47.3605 81.9834 44.8166 81.9834 41.5494C81.9834 38.2822 82.8384 35.6978 84.5435 33.8568C86.1393 32.1271 88.2123 31.2673 90.7675 31.2673C93.3226 31.2673 95.4851 32.0513 97.046 33.6191C98.3634 34.9492 99.0196 36.4564 99.0196 38.1406V38.1355Z" fill="#444545"/>
<path d="M107.207 44.6242V51.2344H103.215V31.8032H107.207V39.7082L114.5 31.8032H119.67L111.845 39.7638L120.083 51.2395H114.977L109.076 42.6871L107.207 44.6292V44.6242Z" fill="#444545"/>
<path d="M125.581 47.229L124.253 51.2346H120.043L126.853 31.7983H131.491L138.197 51.2346H133.882L132.66 47.229H125.576H125.581ZM126.644 43.8708H131.546L129.14 36.1782L126.644 43.8708Z" fill="#444545"/>
<path d="M149.437 44.0325V40.7249H157.416V51.2345H154.751L154.334 48.8018C153.543 49.7021 152.867 50.3393 152.305 50.7186C151.222 51.4216 149.909 51.7757 148.368 51.7757C145.917 51.7757 143.884 50.926 142.274 49.2266C140.479 47.3503 139.584 44.7911 139.584 41.5442C139.584 38.6715 140.34 36.2944 141.846 34.4181C143.551 32.3091 145.922 31.2571 148.955 31.2571C151.614 31.2571 153.732 32.0157 155.308 33.533C156.64 34.8126 157.311 36.2337 157.311 37.8016H153.32C153.32 37.2452 152.982 36.6232 152.305 35.9353C151.455 35.0553 150.406 34.6153 149.159 34.6153C147.598 34.6153 146.33 35.1514 145.351 36.2287C144.232 37.4779 143.675 39.2683 143.675 41.5948C143.675 43.9212 144.257 45.8027 145.415 46.9254C146.35 47.851 147.618 48.3112 149.208 48.3112C150.387 48.3112 151.386 47.9268 152.211 47.1631C153.036 46.3944 153.578 45.3525 153.847 44.0275H149.427L149.437 44.0325Z" fill="#444545"/>
<path d="M165.658 31.8032V51.2395H161.671V31.8032H165.658Z" fill="#444545"/>
<path d="M181.457 31.8032H185.185V51.2395H181.193L173.423 37.3716L173.373 51.2395H169.645V31.8032H173.856L181.407 45.3423L181.457 31.8032Z" fill="#444545"/>
<path d="M198.87 44.0325V40.7249H206.849V51.2345H204.185L203.767 48.8018C202.977 49.7021 202.301 50.3393 201.739 50.7186C200.655 51.4216 199.343 51.7757 197.802 51.7757C195.351 51.7757 193.318 50.926 191.707 49.2266C189.912 47.3503 189.018 44.7911 189.018 41.5442C189.018 38.6715 189.773 36.2944 191.279 34.4181C192.985 32.3091 195.356 31.2571 198.388 31.2571C201.048 31.2571 203.166 32.0157 204.741 33.533C206.074 34.8126 206.745 36.2337 206.745 37.8016H202.753C202.753 37.2452 202.415 36.6232 201.739 35.9353C200.889 35.0553 199.84 34.6153 198.592 34.6153C197.031 34.6153 195.763 35.1514 194.784 36.2287C193.666 37.4779 193.109 39.2683 193.109 41.5948C193.109 43.9212 193.69 45.8027 194.849 46.9254C195.783 47.851 197.051 48.3112 198.642 48.3112C199.82 48.3112 200.819 47.9268 201.644 47.1631C202.47 46.3944 203.011 45.3525 203.28 44.0275H198.861L198.87 44.0325Z" fill="#444545"/>
</g>
<path d="M33.0881 40.5631L42.0163 51.624H34.0425L29.305 45.7977C27.3961 48.0635 25.4673 49.7173 23.5136 50.7541C21.0579 52.0944 18.1497 52.767 14.7892 52.767C9.36071 52.767 5.33902 51.0121 2.72419 47.4971C0.904743 45.0492 0 42.308 0 39.2785C0 35.6724 0.755616 32.7542 2.26685 30.5238C3.77809 28.2934 6.79558 25.8608 11.3144 23.2258C9.3607 20.7526 8.0334 18.856 7.3275 17.541C6.44263 15.8316 6.0002 13.9805 6.0002 11.9929C6.0002 8.82685 6.99941 6.20197 8.99782 4.1233C11.2249 1.81199 14.1778 0.653809 17.8564 0.653809C21.5351 0.653809 24.4681 1.76142 26.5112 3.98169C28.281 5.87828 29.1708 8.27051 29.1708 11.1584C29.1708 14.3244 28.1467 17.1112 26.1036 19.5135C24.9453 20.8993 22.9469 22.5632 20.1034 24.5053L29.305 35.5662C29.8717 34.0186 30.2694 32.7694 30.4981 31.8236C30.7268 30.8779 30.9853 29.4769 31.2836 27.6309H37.1446C37.1446 29.3404 36.7916 31.2926 36.0907 33.4926C35.3848 35.6876 34.3856 38.0444 33.0931 40.5631H33.0881ZM26.1036 41.5342L14.7892 27.4944C11.5878 29.573 9.47505 31.2066 8.45098 32.385C6.90495 34.14 6.13442 36.2895 6.13442 38.8334C6.13442 41.6758 7.30264 43.8859 9.64406 45.4538C11.3939 46.6322 13.2432 47.2239 15.1969 47.2239C19.7654 47.2239 23.3993 45.3274 26.1036 41.5392V41.5342ZM16.902 20.3834C18.8556 19.0684 20.2177 17.9355 20.9932 16.9847C22.4448 15.3208 23.1756 13.5152 23.1756 11.5782C23.1756 9.64112 22.5492 8.05304 21.3015 7.10727C20.3669 6.3891 19.2235 6.03507 17.8614 6.03507C15.6343 6.03507 14.0088 6.75324 12.9897 8.18454C12.3285 9.13536 12.0004 10.2632 12.0004 11.5832C12.0004 12.9943 12.582 14.6228 13.7403 16.4739C14.5804 17.8142 15.6393 19.119 16.9119 20.3935L16.902 20.3834Z" fill="#444545"/>
<defs>
<clipPath id="clip0_1129_375">
<rect width="207.715" height="52.2548" fill="white" transform="translate(47.2847 0.512207)"/>
</clipPath>
</defs>
</svg>
