<svg width="66" height="66" viewBox="0 0 66 66" fill="none" xmlns="http://www.w3.org/2000/svg">
<path fill-rule="evenodd" clip-rule="evenodd" d="M63.26 20.3C61.61 16.33 59.18 12.68 56.13 9.63C53.08 6.58 49.44 4.15 45.46 2.5C41.48 0.86 37.18 0 32.88 0C28.58 0 24.28 0.86 20.3 2.5C16.33 4.15 12.68 6.58 9.63 9.63C6.58 12.68 4.15 16.32 2.5 20.3C0.86 24.28 0 28.58 0 32.88C0 37.18 0.86 41.48 2.5 45.46C4.15 49.43 6.58 53.08 9.63 56.13C12.68 59.18 16.32 61.61 20.3 63.26C24.27 64.9 28.58 65.76 32.88 65.76C37.18 65.76 41.48 64.9 45.46 63.26C49.43 61.61 53.08 59.18 56.13 56.13C59.18 53.08 61.61 49.44 63.26 45.46C64.9 41.49 65.76 37.18 65.76 32.88C65.76 28.58 64.9 24.28 63.26 20.3ZM40.8 49.64C34.63 50.56 17.01 39.62 17.01 24.97C17.23 17.83 19.79 16.09 22.96 16.09C26.13 16.09 29.72 25.13 27.92 25.95C26.44 26.63 23.88 26.87 23.95 29.9C23.99 31.89 34 42.86 35.85 42.72C39.02 42.51 38.33 38.83 40.81 37.79C42.68 36.99 49.23 41.1 48.73 43.71C48.23 46.31 45.54 48.92 40.8 49.63V49.64Z" fill="white"/>
</svg>
