<svg width="66" height="67" viewBox="0 0 66 67" fill="none" xmlns="http://www.w3.org/2000/svg">
<path fill-rule="evenodd" clip-rule="evenodd" d="M37.83 30.9498C36.38 30.8598 35.37 31.9898 35.38 33.8498C35.39 34.2998 35.54 34.9198 35.94 35.4498C36.8 36.5998 38.55 36.5998 39.41 35.4498C40.15 34.4498 40.15 32.7898 39.41 31.7898C39.02 31.2598 38.49 30.9898 37.84 30.9498H37.83Z" fill="white"/>
<path fill-rule="evenodd" clip-rule="evenodd" d="M54.96 30.9499C53.53 30.8699 52.54 31.9699 52.53 33.6099C52.53 34.2899 52.69 34.9199 53.09 35.4699C53.93 36.5899 55.66 36.5999 56.52 35.4899C57.29 34.4899 57.29 32.7899 56.53 31.7799C56.13 31.2499 55.61 30.9799 54.96 30.9499Z" fill="white"/>
<path fill-rule="evenodd" clip-rule="evenodd" d="M63.26 21.03C61.61 17.06 59.18 13.41 56.13 10.36C53.08 7.30998 49.44 4.87998 45.46 3.22998C41.48 1.58998 37.18 0.72998 32.88 0.72998C28.58 0.72998 24.28 1.58998 20.3 3.22998C16.33 4.87998 12.68 7.30998 9.63 10.36C6.58 13.41 4.15 17.05 2.5 21.03C0.86 25.01 0 29.31 0 33.61C0 37.91 0.86 42.21 2.5 46.19C4.15 50.16 6.58 53.81 9.63 56.86C12.68 59.91 16.32 62.34 20.3 63.99C24.27 65.63 28.58 66.49 32.88 66.49C37.18 66.49 41.48 65.63 45.46 63.99C49.43 62.34 53.08 59.91 56.13 56.86C59.18 53.81 61.61 50.17 63.26 46.19C64.9 42.22 65.76 37.91 65.76 33.61C65.76 29.31 64.9 25.01 63.26 21.03ZM20.8 35.88C22.84 33.28 24.89 30.69 26.93 28.09C27.05 27.94 27.17 27.78 27.29 27.62C27.17 27.39 26.97 27.5 26.81 27.49C25.38 27.49 23.95 27.49 22.52 27.48C22.19 27.48 21.86 27.45 21.54 27.37C20.88 27.2 20.47 26.66 20.47 26.03C20.47 25.39 20.86 24.86 21.52 24.67C21.83 24.58 22.17 24.55 22.5 24.55C24.86 24.55 27.21 24.55 29.57 24.55C29.99 24.55 30.41 24.56 30.81 24.7C31.7 25.01 32.1 25.83 31.73 26.7C31.41 27.46 30.91 28.1 30.41 28.75C28.68 30.95 26.95 33.14 25.22 35.34C25.09 35.51 24.96 35.69 24.74 35.97C26.74 35.97 28.61 35.96 30.47 35.97C31.52 35.97 32.09 36.42 32.18 37.25C32.3 38.3 31.69 38.99 30.56 39C28.42 39.02 26.29 39 24.15 39C23.53 39 22.92 39.02 22.3 38.99C21.53 38.95 20.78 38.79 20.42 38C20.05 37.21 20.31 36.5 20.82 35.85L20.8 35.88ZM35.54 51.01C34.69 53.52 31.65 55.73 26.86 55.77C20.62 55.82 4.7 42.54 6.73 28.03C7.94 20.99 10.72 19.62 13.86 20.07C16.99 20.51 19.29 29.96 17.4 30.53C15.84 31 13.27 30.88 12.92 33.89C12.68 35.86 21.07 48.13 22.92 48.24C26.09 48.47 25.92 44.73 28.52 44.05C30.49 43.52 36.39 48.5 35.54 51.01ZM42.18 39.07C41.5 39.3 40.79 39.13 40.33 38.56C40.11 38.28 40.01 38.23 39.7 38.48C38.5 39.46 37.14 39.63 35.67 39.15C33.32 38.39 32.35 36.55 32.09 34.31C31.82 31.9 32.62 29.83 34.78 28.56C36.57 27.51 38.39 27.59 40.04 29.03C40.36 28.62 40.68 28.24 41.23 28.13C42.27 27.92 43.25 28.59 43.27 29.65C43.3 32.29 43.29 34.93 43.27 37.58C43.27 38.3 42.82 38.85 42.17 39.08L42.18 39.07ZM48.05 37.45C48.05 38.62 47.01 39.41 45.9 39.13C45.23 38.96 44.73 38.25 44.73 37.43C44.73 33.93 44.73 30.43 44.73 26.93C44.73 26.31 44.73 25.7 44.73 25.08C44.75 24.06 45.39 23.4 46.37 23.39C47.37 23.39 48.05 24.04 48.05 25.09C48.06 27.16 48.05 29.23 48.05 31.3C48.05 33.35 48.06 35.4 48.05 37.44V37.45ZM55.33 39.39C51.9 39.73 49.16 37.23 49.21 33.93C49.11 30.54 51.34 28 54.5 27.9C57.86 27.8 60.33 30.06 60.43 33.36C60.53 36.7 58.48 39.07 55.32 39.39H55.33Z" fill="white"/>
</svg>
