<svg width="66" height="66" viewBox="0 0 66 66" fill="none" xmlns="http://www.w3.org/2000/svg">
<g id="Layer_1" clip-path="url(#clip0_951_377)">
<path id="Vector" d="M59.1713 65.9998H44.2175C42.0119 65.3851 41.5659 63.5476 41.2784 61.6068H40.4278C29.0898 61.6068 17.7517 61.5517 6.41542 61.6396C2.94944 61.6671 0.599186 59.8297 0.0378796 56.9676C0.0292706 56.9263 0.0120526 56.8866 0 56.847C0 39.4455 0 22.0423 0 4.6408C0.0275488 4.6098 0.0705938 4.58225 0.0809245 4.54609C0.964207 1.4102 2.81686 -0.000173292 6.0659 -0.000173292C19.6216 -0.000173292 33.1773 -0.000173292 46.7331 -0.000173292C46.969 -0.000173292 47.2066 -0.0053395 47.4424 0.00499291C49.0609 0.0755977 50.3833 1.29138 50.5589 2.89979C50.614 3.40952 50.6174 3.92959 50.6002 4.44276C50.5865 4.82162 50.6984 5.06615 51.0152 5.30035C52.0741 6.07873 52.6802 7.14125 52.7662 8.46035C52.8076 9.09924 52.7731 9.74157 52.7731 10.4459C52.9746 10.3805 53.0745 10.3546 53.1709 10.3167C56.4079 9.04585 59.3969 11.0865 59.4141 14.5806C59.4158 15.0197 59.4141 15.4588 59.4141 15.9582C59.6844 15.8532 59.8618 15.7809 60.0391 15.7154C62.9696 14.6374 65.9914 16.6712 65.9948 19.7898C66.0086 30.1016 65.9845 40.4116 65.9828 50.7234C65.9828 53.7817 65.2923 56.5973 63.5103 59.1649C62.7699 60.2309 62.2637 61.5345 61.9555 62.8037C61.5612 64.4259 60.7674 65.5159 59.1696 66.0015L59.1713 65.9998ZM63.7927 36.2253C63.7927 36.2253 63.803 36.2253 63.8081 36.2253C63.8081 33.1324 63.8081 30.0379 63.8081 26.945C63.8081 24.5824 63.8219 22.2197 63.803 19.857C63.7909 18.4105 62.6494 17.4427 61.2478 17.6424C60.1545 17.7991 59.4176 18.6998 59.4176 19.9293C59.4124 24.4825 59.4158 29.0373 59.4124 33.5905C59.4124 33.8471 59.4176 34.1106 59.359 34.3568C59.2299 34.8975 58.7426 35.2334 58.2106 35.1869C57.6717 35.1404 57.2774 34.7426 57.2274 34.1726C57.2085 33.959 57.2171 33.7438 57.2171 33.5285C57.2171 27.2774 57.2171 21.0263 57.2137 14.7752C57.2137 14.4342 57.1964 14.0846 57.119 13.754C56.8951 12.7931 56.048 12.1284 55.07 12.1077C54.0748 12.0853 53.1864 12.688 52.9229 13.63C52.8213 13.9934 52.8179 14.3946 52.8179 14.7769C52.8127 21.028 52.8145 27.2791 52.811 33.5302C52.811 33.8075 52.811 34.0951 52.7473 34.3603C52.6147 34.9096 52.2273 35.2006 51.6677 35.18C51.1099 35.1593 50.7414 34.8528 50.6467 34.2897C50.6002 34.0176 50.6106 33.7334 50.6088 33.4545C50.6088 25.4417 50.6088 17.4289 50.6054 9.41782C50.6054 9.07513 50.6037 8.72727 50.5469 8.39147C50.342 7.16019 49.1195 6.36976 47.9091 6.66423C46.7709 6.94149 46.1959 7.78358 46.1959 9.19567C46.1959 17.2946 46.1959 25.3917 46.1941 33.4906C46.1941 33.7472 46.2045 34.009 46.1666 34.2621C46.0822 34.8269 45.7258 35.1455 45.1697 35.18C44.6101 35.2161 44.2141 34.9354 44.0677 34.3895C43.9971 34.1261 43.9971 33.8385 43.9954 33.5612C43.992 27.3325 43.9937 21.1021 43.992 14.8733C43.992 14.5944 43.9971 14.3137 43.9713 14.0364C43.8714 12.998 43.0037 12.1731 41.962 12.1129C40.5776 12.0319 39.5962 13.0324 39.5945 14.553C39.5893 20.2462 39.5893 25.9376 39.5876 31.6308C39.5876 33.9074 39.5962 36.1857 39.5807 38.4622C39.5721 39.6677 38.7646 40.632 37.5955 40.663C37.0359 40.6785 36.416 40.4478 35.9133 40.1671C32.2751 38.1385 28.3873 37.2103 24.2309 37.3911C23.017 37.4445 22.0993 38.2883 22.0253 39.4076C21.9443 40.6406 22.726 41.5482 23.9795 41.791C25.0298 41.9942 26.0904 42.2026 27.0959 42.5539C29.9662 43.5544 32.2252 45.2472 33.4115 48.1936C34.0727 49.8365 35.1178 51.2779 36.3661 52.5367C37.2718 53.4494 38.1998 54.3552 39.2122 55.1405C41.6452 57.0313 43.1655 59.4491 43.7234 62.4748C43.9042 63.4581 44.1969 63.799 44.9889 63.8007C49.4793 63.8094 53.9681 63.8059 58.4585 63.8042C59.1094 63.8042 59.5278 63.4753 59.6534 62.8502C60.0805 60.7079 61.0119 58.793 62.2293 57.002C63.0936 55.7294 63.555 54.3121 63.6652 52.7864C63.7307 51.8875 63.784 50.9851 63.7875 50.0827C63.7995 45.4642 63.7927 40.8456 63.7927 36.227V36.2253ZM48.3481 4.37216C48.5203 2.82057 48.3653 2.17308 46.4765 2.17824C32.9862 2.21268 19.4942 2.19719 6.00219 2.19719C3.48492 2.19719 2.19529 3.48529 2.19529 5.99951C2.19529 20.9712 2.19529 35.9446 2.19529 50.9162C2.19529 51.1418 2.19529 51.3674 2.19529 51.76C3.71909 50.5236 5.40301 50.5976 7.08348 50.5994C15.1604 50.6097 23.2391 50.6028 31.3161 50.6028H32.1374C31.7586 49.8262 31.4177 49.1632 31.1095 48.4847C30.5585 47.2723 29.7045 46.3407 28.5646 45.6622C27.0322 44.7495 25.3845 44.1847 23.6128 43.9505C21.3383 43.6491 19.6509 41.6463 19.7731 39.4352C19.904 37.0742 21.7102 35.2936 24.0535 35.192C28.6266 34.9923 32.9174 35.9807 36.9154 38.2194C37.0497 38.2952 37.1995 38.3434 37.3527 38.4088V22.0113H36.4849C28.8797 22.0113 21.2745 21.9786 13.6711 22.0303C11.3776 22.0457 9.7781 20.4924 9.89001 18.2279C9.98643 16.2562 9.90379 14.2758 9.9124 12.3006C9.92101 10.1704 11.2864 8.79443 13.4231 8.79271C21.3296 8.78582 29.2344 8.79271 37.1409 8.78754C38.2274 8.78754 39.1589 9.12679 39.901 9.94477C40.0008 10.055 40.2074 10.1893 40.309 10.1549C41.5556 9.72435 42.754 9.87245 43.9799 10.4648C44.0006 9.00452 43.8852 7.59071 44.7409 6.35943C45.6122 5.10576 46.8312 4.49615 48.3481 4.37044V4.37216ZM37.3958 19.8088C37.3958 17.9817 37.3992 16.2441 37.3958 14.5065C37.3923 13.5818 37.5834 12.7052 38.1223 11.9493C38.446 11.4946 38.2343 11.2759 37.8538 11.1227C37.623 11.0297 37.3544 10.9952 37.1013 10.9952C29.243 10.9883 21.383 10.9883 13.5247 10.9918C12.4658 10.9918 12.1129 11.3655 12.1111 12.4452C12.1094 14.3343 12.1111 16.2234 12.1111 18.1143C12.1111 19.535 12.3849 19.8105 13.8002 19.8105C21.402 19.8105 29.0037 19.8105 36.6037 19.8105C36.8362 19.8105 37.0686 19.8105 37.3975 19.8105L37.3958 19.8088ZM40.2247 59.4095C39.6479 58.4141 38.9006 57.7632 38.1447 57.0933C36.7828 55.8861 35.457 54.6359 34.1708 53.3478C33.8058 52.9827 33.4959 52.7967 32.9742 52.7967C23.9743 52.8122 14.9745 52.8071 5.97464 52.8088C5.69571 52.8088 5.41506 52.8088 5.13785 52.8346C3.26453 52.9982 1.88537 54.846 2.25728 56.6869C2.60164 58.3917 3.91709 59.4078 5.80591 59.4078C17.0613 59.4095 28.3167 59.4078 39.5704 59.4078H40.2229L40.2247 59.4095Z" fill="#444444"/>
<path id="Vector_2" d="M25.2993 27.4893C22.8957 27.4893 20.492 27.4893 18.0884 27.4893C17.8732 27.4893 17.6562 27.4996 17.4462 27.4686C16.8814 27.386 16.5629 27.0312 16.5164 26.4802C16.4734 25.9532 16.7282 25.5571 17.2344 25.3901C17.4909 25.3057 17.7819 25.2954 18.0574 25.2954C22.8871 25.2902 27.715 25.2902 32.5446 25.2954C32.8201 25.2954 33.1111 25.304 33.3676 25.3901C33.9066 25.5692 34.139 25.9894 34.0719 26.5439C34.0064 27.0743 33.6862 27.3929 33.1541 27.4704C32.9441 27.5013 32.7254 27.491 32.5119 27.491C30.1083 27.491 27.7047 27.491 25.301 27.491L25.2993 27.4893Z" fill="#444444"/>
<path id="Vector_3" d="M25.2651 29.6918C26.961 29.6918 28.657 29.6918 30.3547 29.6918C30.5682 29.6918 30.7869 29.6918 30.9952 29.7331C31.5582 29.8434 31.8957 30.2739 31.8819 30.8284C31.8682 31.3794 31.5031 31.7893 30.9349 31.8685C30.7232 31.8978 30.5062 31.8943 30.2927 31.8943C26.9645 31.8943 23.6362 31.8943 20.308 31.8943C20.0721 31.8943 19.8328 31.8995 19.6021 31.8565C19.0408 31.7549 18.7308 31.3829 18.7136 30.8301C18.6964 30.2773 18.9857 29.8864 19.5401 29.7521C19.7656 29.697 20.0084 29.6935 20.2426 29.6918C21.9179 29.6866 23.5915 29.6901 25.2668 29.6901L25.2651 29.6918Z" fill="#444444"/>
</g>
<defs>
<clipPath id="clip0_951_377">
<rect width="66" height="66" fill="white"/>
</clipPath>
</defs>
</svg>
