<svg width="33" height="22" viewBox="0 0 33 22" fill="none" xmlns="http://www.w3.org/2000/svg">
<g id="Frame 35">
<g id="Vector">
<path d="M6.89908 16.9693C7.40711 14.025 9.36253 10.8032 13.5522 9.34818C11.9382 8.13654 11.1495 6.5533 11.3348 4.57357C11.4601 3.23468 12.0842 2.11342 13.1208 1.23743C15.269 -0.57818 18.3986 -0.367943 20.3353 1.68464C22.1279 3.58324 22.3824 7.17203 19.4493 9.35832C23.1009 10.6658 25.3127 13.1869 26.1211 17.0698C26.7423 16.4225 27.3448 15.8582 27.8753 15.2339C30.2845 12.3985 31.4241 9.1112 31.3801 5.42374C31.3726 4.78841 31.2865 4.15125 31.2061 3.51961C31.1359 2.9682 31.3034 2.6261 31.7244 2.56985C32.152 2.51268 32.427 2.77917 32.5094 3.33335C32.864 5.72157 32.762 8.09413 31.9967 10.3874C29.9757 16.4474 25.7562 20.1256 19.4296 21.4553C18.8683 21.5733 18.5062 21.3861 18.4398 20.9813C18.3715 20.5664 18.5988 20.2925 19.1003 20.2031C20.8527 19.8905 22.5115 19.3179 24.0375 18.4114C25.0526 17.8084 24.9647 18.1173 24.7242 16.8974C24.0375 13.4211 21.299 10.8669 17.7427 10.3155C13.2397 9.61651 8.91999 12.7101 8.22015 17.1371C8.13844 17.6553 8.32463 18.0488 8.77871 18.3174C10.3524 19.2506 12.0486 19.8628 13.8516 20.1985C14.3979 20.2999 14.6206 20.5655 14.5486 20.9859C14.4812 21.3797 14.135 21.5613 13.5952 21.4627C10.9381 20.9767 8.52516 19.9421 6.41444 18.2722C2.97235 15.5493 0.988872 12.0057 0.413476 7.70224C0.209515 6.17986 0.243196 4.65102 0.52762 3.13602C0.603404 2.73214 0.867244 2.53297 1.22839 2.56985C1.59047 2.60674 1.77572 2.83173 1.82156 3.17106C1.83559 3.27249 1.80004 3.38037 1.78601 3.48549C1.08337 8.78754 2.70664 13.2542 6.73442 16.8559C6.77277 16.89 6.81862 16.9149 6.90189 16.9711L6.89908 16.9693ZM16.5115 1.28722C14.3923 1.27431 12.6137 3.0143 12.6072 5.10838C12.6007 7.1831 14.3399 8.91848 16.4544 8.94614C18.5689 8.97381 20.3577 7.24027 20.3783 5.14342C20.3989 3.05672 18.6372 1.29921 16.5105 1.2863L16.5115 1.28722Z" fill="#444444"/>
<path d="M17.1374 21.0846C17.1337 21.4405 16.8567 21.7116 16.4946 21.7135C16.1167 21.7153 15.8332 21.4239 15.8472 21.0496C15.8612 20.6936 16.1457 20.4327 16.5096 20.441C16.8707 20.4493 17.1411 20.7278 17.1374 21.0846Z" fill="#444444"/>
</g>
</g>
</svg>
