<svg width="111" height="111" viewBox="0 0 111 111" fill="none" xmlns="http://www.w3.org/2000/svg">
<g id="Layer_1" clip-path="url(#clip0_1039_408)">
<g id="Group">
<path id="Vector" d="M4.36405 111H0V106.626H1.68995V109.31H4.36405V111Z" fill="white"/>
<path id="Vector_2" d="M1.68995 99.8165H0V92.997H1.68995V99.8165ZM1.68995 86.1775H0V79.3581H1.68995V86.1775ZM1.68995 72.5386H0V65.7192H1.68995V72.5386ZM1.68995 58.8997H0V52.0803H1.68995V58.8997ZM1.68995 45.2608H0V38.4414H1.68995V45.2608ZM1.68995 31.6219H0V24.8025H1.68995V31.6219ZM1.68995 17.983H0V11.1636H1.68995V17.983Z" fill="white"/>
<path id="Vector_3" d="M1.68995 4.36405H0V0H4.36405V1.68995H1.68995V4.36405Z" fill="white"/>
<path id="Vector_4" d="M99.8169 1.68995H92.9975V0H99.8169V1.68995ZM86.178 1.68995H79.3586V0H86.178V1.68995ZM72.5391 1.68995H65.7197V0H72.5391V1.68995ZM58.9002 1.68995H52.0808V0H58.9002V1.68995ZM45.2613 1.68995H38.4419V0H45.2613V1.68995ZM31.6224 1.68995H24.803V0H31.6224V1.68995ZM17.9835 1.68995H11.1641V0H17.9835V1.68995Z" fill="white"/>
<path id="Vector_5" d="M111.001 4.36405H109.311V1.68995H106.627V0H111.001V4.36405Z" fill="white"/>
<path id="Vector_6" d="M76.307 111H70.0741V109.31H76.307C76.655 109.31 77.0029 109.31 77.3508 109.29L77.4005 110.98C77.0426 110.99 76.6748 111 76.307 111ZM62.7775 111H55.4809V109.31H62.7775V111ZM48.1842 111H40.8876V109.31H48.1842V111ZM33.591 111H26.2944V109.31H33.591V111ZM18.9978 111H11.7012V109.31H18.9978V111ZM84.7965 109.956L84.389 108.316C86.6853 107.739 88.922 106.904 91.0494 105.851L91.8049 107.362C89.5781 108.475 87.2221 109.35 84.8065 109.956H84.7965ZM98.0676 103.326L97.004 102.013C98.843 100.532 100.533 98.8423 102.024 96.9933L103.336 98.057C101.776 99.9955 99.9962 101.775 98.0577 103.336L98.0676 103.326ZM107.372 91.7644L105.861 91.0089C106.915 88.8915 107.75 86.6449 108.317 84.3485L109.957 84.7561C109.351 87.1717 108.486 89.5277 107.372 91.7545V91.7644ZM110.981 77.37L109.291 77.3203C109.291 76.9823 109.301 76.6543 109.301 76.3163V70.0535H110.991V76.3163C110.991 76.6741 110.991 77.0221 110.971 77.37H110.981ZM111.001 62.747H109.311V55.4503H111.001V62.747ZM111.001 48.1537H109.311V40.8571H111.001V48.1537ZM111.001 33.5605H109.311V26.2639H111.001V33.5605ZM111.001 18.9673H109.311V11.6707H111.001V18.9673Z" fill="white"/>
</g>
<g id="Group_2">
<g id="Group_3">
<g id="Group_4">
<path id="Vector_7" d="M54.9619 70.3926C57.6977 69.7469 59.3921 67.0057 58.7464 64.2698C58.1006 61.534 55.3594 59.8397 52.6236 60.4854C49.8877 61.1311 48.1934 63.8724 48.8391 66.6082C49.4848 69.344 52.2261 71.0384 54.9619 70.3926Z" fill="white"/>
<path id="Vector_8" d="M75.8493 70.7593L70.7596 65.4409L62.28 79.0102L53.8004 72.2305L46.5933 78.4038C46.474 81.4358 46.3249 83.2749 46.0664 85.7999H74.5968C75.8195 79.8154 76.1575 74.6064 75.8493 70.7692V70.7593Z" fill="white"/>
</g>
<g id="Group_5">
<path id="Vector_9" d="M38.1239 92.1124L38.5017 90.5715C40.2513 83.5036 40.7483 76.5549 39.9232 70.4611L39.8735 70.0635H24.9821C22.3378 70.0635 20.3496 66.614 20.3496 62.0412C20.3496 59.4068 21.0355 57.0409 22.2384 55.5398L22.467 55.2515L22.2384 54.9633C21.0355 53.4622 20.3496 51.0962 20.3496 48.4619C20.3496 45.8276 21.0355 43.4616 22.2384 41.9606L22.467 41.6723L22.2384 41.384C21.0355 39.8829 20.3496 37.517 20.3496 34.8827C20.3496 30.3098 22.3378 26.8604 24.9821 26.8604H86.0291C88.6734 26.8604 90.6615 30.3098 90.6615 34.8827C90.6615 37.517 89.9756 39.8829 88.7728 41.384L88.5441 41.6723L88.7728 41.9606C89.9756 43.4616 90.6615 45.8276 90.6615 48.4619C90.6615 51.0962 89.9756 53.4622 88.7728 54.9633L88.5441 55.2515L88.7728 55.5398C89.9756 57.0409 90.6615 59.4068 90.6615 62.0412C90.6615 66.614 88.6734 70.0635 86.0291 70.0635H82.51L82.5498 70.5506C83.0369 76.6642 82.3311 83.603 80.4522 91.158L80.2137 92.1024H38.1239V92.1124ZM38.0444 57.2C42.8458 65.0334 44.0686 76.6543 41.3945 89.0903L41.2752 89.6371H78.2652L78.3448 89.2892C81.6253 75.1532 80.5715 63.5721 75.3923 56.693L75.2531 56.514H37.6169L38.0444 57.2099V57.2ZM78.6927 57.2C80.3727 60.0331 81.5358 63.4031 82.1521 67.2204L82.2118 67.5981H86.0191C86.8741 67.5981 88.1664 65.3912 88.1664 62.0611C88.1664 58.7309 86.8741 56.524 86.0191 56.524H78.2752L78.6828 57.2099L78.6927 57.2ZM28.6701 57.1502C29.2865 58.5619 29.6145 60.2518 29.6145 62.0511C29.6145 63.8504 29.2865 65.5503 28.6701 66.952L28.3918 67.5882H39.4361L39.3069 67.0315C38.3724 62.9756 36.8117 59.4864 34.6645 56.683L34.5253 56.5041H28.3818L28.6602 57.1403L28.6701 57.1502ZM24.9821 56.514C24.1271 56.514 22.8348 58.7209 22.8348 62.0511C22.8348 65.3813 24.1271 67.5882 24.9821 67.5882C25.837 67.5882 27.1293 65.3813 27.1293 62.0511C27.1293 58.7209 25.837 56.514 24.9821 56.514ZM28.6701 43.5809C29.2865 44.9925 29.6145 46.6825 29.6145 48.4818C29.6145 50.2811 29.2865 51.981 28.6701 53.3827L28.3918 54.0189H86.0291C86.884 54.0189 88.1763 51.812 88.1763 48.4818C88.1763 45.1516 86.884 42.9447 86.0291 42.9447H28.3818L28.6602 43.5809H28.6701ZM24.9821 42.9447C24.1271 42.9447 22.8348 45.1516 22.8348 48.4818C22.8348 51.812 24.1271 54.0189 24.9821 54.0189C25.837 54.0189 27.1293 51.812 27.1293 48.4818C27.1293 45.1516 25.837 42.9447 24.9821 42.9447ZM28.6701 30.0116C29.2865 31.4232 29.6145 33.1132 29.6145 34.9125C29.6145 36.7118 29.2865 38.4117 28.6701 39.8133L28.3918 40.4495H86.0291C86.884 40.4495 88.1763 38.2427 88.1763 34.9125C88.1763 31.5823 86.884 29.3754 86.0291 29.3754H28.3818L28.6602 30.0116H28.6701ZM24.9821 29.3754C24.1271 29.3754 22.8348 31.5823 22.8348 34.9125C22.8348 38.2427 24.1271 40.4495 24.9821 40.4495C25.837 40.4495 27.1293 38.2427 27.1293 34.9125C27.1293 31.5823 25.837 29.3754 24.9821 29.3754Z" fill="white"/>
<path id="Vector_10" d="M85.5721 21.8004H25.4297V24.2856H85.5721V21.8004Z" fill="white"/>
</g>
</g>
<path id="Vector_11" opacity="0.13" d="M88.7626 31.7214H26.9004V28.3812H86.675L88.7626 31.7214Z" fill="white"/>
<path id="Vector_12" opacity="0.13" d="M88.7626 45.8077H26.9004V42.4576H86.675L88.7626 45.8077Z" fill="white"/>
<path id="Vector_13" opacity="0.13" d="M88.7626 58.6315H26.9004V55.2814H86.675L88.7626 58.6315Z" fill="white"/>
<path id="Vector_14" opacity="0.13" d="M21.334 67.1309C21.334 67.1309 22.7257 71.992 26.6722 71.992H37.8955C37.8955 71.992 39.8141 78.3541 36.812 90.313C37.7762 91.6451 38.4323 92.5696 38.4323 92.5696L40.1521 88.7225L41.9116 77.4296L41.1561 71.4949L40.4901 68.8208H32.7461L24.9823 68.9003L21.334 67.1408V67.1309Z" fill="white"/>
</g>
</g>
<defs>
<clipPath id="clip0_1039_408">
<rect width="111" height="111" fill="white"/>
</clipPath>
</defs>
</svg>
