<svg width="26" height="35" viewBox="0 0 26 35" fill="none" xmlns="http://www.w3.org/2000/svg">
<g id="Frame 36">
<path id="Vector" d="M12.4405 33.7242L12.419 33.6922L12.3943 33.6626C11.7977 32.9468 8.86239 29.33 6.08074 25.0964C4.6896 22.9792 3.34706 20.7229 2.3549 18.608C1.35287 16.472 0.75 14.5658 0.75 13.1223C0.75 6.78513 6.07606 1.46265 12.9681 1.46265C19.865 1.46265 25.25 6.78987 25.25 13.1223C25.25 14.5656 24.6473 16.4677 23.6463 18.5987C22.6551 20.7088 21.3145 22.9592 19.9271 25.073C17.5886 28.6356 15.1545 31.7553 14.0912 33.118C13.9158 33.3428 13.7777 33.5199 13.6835 33.6431C13.4327 33.8779 13.1821 33.9626 12.9681 33.9626C12.8904 33.9626 12.7728 33.941 12.6572 33.8882C12.5419 33.8354 12.4728 33.7723 12.4405 33.7242ZM20.6812 13.1856C20.6812 9.06556 17.2446 5.85091 13.0319 5.85091C8.81444 5.85091 5.38268 9.13346 5.38268 13.1856C5.38268 17.2334 8.74593 20.5204 13.0319 20.5204C17.3132 20.5204 20.6812 17.3013 20.6812 13.1856Z" fill="white" stroke="#444444" stroke-width="1.5"/>
</g>
</svg>
