<svg width="28" height="29" viewBox="0 0 28 29" fill="none" xmlns="http://www.w3.org/2000/svg">
<g id="Layer_1" clip-path="url(#clip0_802_419)">
<path id="Vector" d="M21.0002 29C20.8793 28.9799 20.7585 28.9598 20.6377 28.9397C20.3698 28.8955 20.0931 28.8503 19.8232 28.797C18.506 28.5368 17.14 28.0334 15.5257 27.2155C12.6954 25.7806 10.169 23.9538 8.01683 21.7854C4.42659 18.1691 2.01523 14.4131 0.642461 10.3034C0.184547 8.93282 -0.0249247 7.67881 0.0023553 6.47102C0.0315839 5.18787 0.427144 4.15793 1.21242 3.32092C1.34005 3.18527 1.46671 3.04861 1.59434 2.91296C2.25588 2.20356 2.9408 1.46904 3.66957 0.820935C4.28239 0.276324 4.90886 0 5.53045 0C6.19199 0 6.84282 0.311493 7.46538 0.927445C8.69493 2.14227 9.94299 3.44451 11.2817 4.90953C12.1829 5.89526 12.1877 7.35023 11.2924 8.36811C10.6523 9.0956 9.95761 9.79696 9.28632 10.4752L9.11972 10.644C8.90245 10.8641 8.86933 11.061 9.00281 11.3454C9.53671 12.4848 10.2616 13.566 11.3547 14.8532C12.7947 16.5483 14.2649 17.8847 15.8501 18.9388C16.0995 19.1046 16.3626 19.2513 16.6178 19.394C16.7961 19.4934 16.9803 19.5969 17.1556 19.7034C17.2229 19.7446 17.2872 19.7647 17.3515 19.7647C17.4898 19.7647 17.5746 19.6723 17.6311 19.611C17.6399 19.602 17.6476 19.5929 17.6564 19.5839C17.8951 19.3377 18.1348 19.0915 18.3735 18.8443C18.7554 18.4494 19.1383 18.0555 19.5212 17.6617C20.0639 17.105 20.553 16.8066 21.1064 16.696C21.2837 16.6599 21.46 16.6418 21.6305 16.6418C22.2628 16.6418 22.8289 16.8859 23.3112 17.3672C24.8437 18.8956 26.0947 20.1868 27.2492 21.4307C28.2206 22.4767 28.2537 23.9598 27.3311 25.038C26.3714 26.1584 25.3416 27.1933 24.5505 27.9701C24.0019 28.5086 23.2586 28.8382 22.3427 28.9488C22.2843 28.9558 22.2336 28.9769 22.1937 28.994C22.1878 28.996 22.1829 28.999 22.1771 29.001H20.9992L21.0002 29ZM5.47199 1.18367C4.93322 1.18367 4.50843 1.55144 4.23465 1.82776C3.61403 2.45577 2.94567 3.14508 2.19158 3.93386C1.77361 4.37095 1.5047 4.78895 1.34687 5.24715C0.973718 6.32532 1.1072 7.39947 1.266 8.21538C1.60603 9.96577 2.27731 11.7513 3.31785 13.6725C4.95465 16.696 7.08054 19.4191 9.63707 21.7673C12.0591 23.992 14.7667 25.7364 17.6837 26.9512C19.0019 27.4998 20.2977 27.8224 21.3304 27.8565C21.3714 27.8565 21.4094 27.8565 21.4464 27.8565C22.5941 27.8565 23.3784 27.5842 23.9902 26.9723C24.7775 26.1845 25.5813 25.3354 26.3792 24.4472C27.0534 23.6966 27.0466 22.8807 26.3597 22.1512C25.2403 20.9635 24.0429 19.7276 22.5892 18.2635C22.3008 17.9731 21.9598 17.8194 21.6032 17.8194C21.2759 17.8194 20.9417 17.95 20.6368 18.1962C20.5247 18.2867 20.4127 18.3912 20.2724 18.5348C19.9694 18.8453 19.6673 19.1578 19.3653 19.4693C18.9805 19.8662 18.5966 20.2621 18.2108 20.657C17.9594 20.9142 17.709 21.0388 17.443 21.0388C17.2696 21.0388 17.0874 20.9876 16.8867 20.8821C16.4941 20.6751 16.0878 20.4611 15.703 20.2229C13.9648 19.1458 12.3534 17.743 10.778 15.9354C9.83095 14.8492 8.64524 13.3711 7.86874 11.5684C7.56476 10.8631 7.62711 10.5244 8.15713 9.99591L8.19025 9.96275C8.8401 9.31465 9.51236 8.64343 10.1593 7.96819C11.0381 7.04979 11.041 6.27005 10.17 5.36069C9.04567 4.18707 7.8892 2.99536 6.73272 1.81972C6.50766 1.59163 6.26604 1.41579 6.03416 1.31129C5.8471 1.22688 5.65808 1.18468 5.47394 1.18468L5.47199 1.18367Z" fill="#444444"/>
</g>
<defs>
<clipPath id="clip0_802_419">
<rect width="28" height="29" fill="white"/>
</clipPath>
</defs>
</svg>
