<svg width="26" height="24" viewBox="0 0 26 24" fill="none" xmlns="http://www.w3.org/2000/svg">
<g id="Layer_1" clip-path="url(#clip0_802_416)">
<path id="Vector" d="M13.0008 12.4615C9.33476 12.4615 6.35156 9.66606 6.35156 6.23076C6.35156 2.79547 9.33391 0 13.0008 0C16.6676 0 19.65 2.79547 19.65 6.23076C19.65 9.66606 16.6676 12.4615 13.0008 12.4615ZM13.0008 1.01958C9.93413 1.01958 7.43876 3.35711 7.43876 6.23076C7.43876 9.10441 9.93328 11.4419 13.0008 11.4419C16.0683 11.4419 18.5628 9.10441 18.5628 6.23076C18.5628 3.35711 16.0674 1.01878 13.0008 1.01878V1.01958Z" fill="#444444"/>
<path id="Vector_2" d="M26 23.9999H25.0354C25.0354 17.7811 19.636 12.7223 12.9996 12.7223C6.36314 12.7223 0.964603 17.7811 0.964603 23.9999H0C0 17.2825 5.83189 11.8176 13.0004 11.8176C20.169 11.8176 26.0008 17.2825 26.0008 23.9999H26Z" fill="#444444"/>
</g>
<defs>
<clipPath id="clip0_802_416">
<rect width="26" height="24" fill="white"/>
</clipPath>
</defs>
</svg>
