<svg width="73" height="77" viewBox="0 0 73 77" fill="none" xmlns="http://www.w3.org/2000/svg">
<g id="Layer_1" clip-path="url(#clip0_952_381)">
<path id="Vector" d="M64.3165 54.0824C64.1992 54.2282 64.0633 54.3781 63.946 54.5427C62.5301 56.5127 61.1182 58.4869 59.7187 60.4382C62.0917 64.12 61.7295 67.5707 58.7885 69.6886C55.903 71.7669 52.5299 71.0006 49.9326 67.6269C47.574 68.4058 45.1866 69.1763 42.8199 70.0051C42.6449 70.0655 42.5235 70.532 42.5214 70.809C42.4988 73.5204 40.8667 75.8611 38.3888 76.6837C34.4785 77.9811 30.4714 75.076 30.4879 70.9069C30.4899 70.2363 30.2944 69.9843 29.679 69.7927C27.4522 69.1055 25.248 68.3496 23.0541 67.6269C20.2551 71.0651 16.9189 71.7503 14.0129 69.5574C11.7449 67.8456 10.4339 63.9493 13.2679 60.4486C12.1216 58.8513 10.9073 57.2749 9.82887 55.611C9.12707 54.526 8.53229 54.072 7.07105 54.4469C4.01275 55.232 0.919459 53.0599 0.172377 49.9549C-0.570589 46.8687 1.16849 43.7033 4.1527 42.71C4.39144 42.6308 4.63635 42.5621 4.9039 42.4788V34.5424C1.28168 33.6553 -0.8155 30.1796 0.299978 26.5998C1.36606 23.1762 4.50875 21.7955 8.67635 22.9201C8.84717 22.691 9.0324 22.4494 9.21145 22.1995C10.5657 20.3128 11.9178 18.424 13.2617 16.5518C10.3105 12.8346 11.9014 8.9091 14.1838 7.30142C17.0836 5.26058 20.4197 5.99778 23.0438 9.36725C25.4044 8.59048 27.7918 7.81996 30.1606 6.99321C30.3335 6.93282 30.4529 6.46218 30.4549 6.18104C30.4755 3.57168 31.9511 1.34134 34.3015 0.42296C38.2674 -1.12849 42.5029 1.78074 42.4864 6.08525C42.4844 6.76205 42.6922 7.00779 43.2953 7.19729C45.52 7.89076 47.7263 8.64254 49.9202 9.36516C52.6924 5.93114 56.0759 5.22934 58.9593 7.42845C61.3137 9.22355 62.491 13.1303 59.7043 16.5373C60.6984 17.9242 61.7027 19.3278 62.7091 20.7314C62.7997 20.8584 62.9026 20.9771 62.9787 21.1104C63.6723 22.3141 64.3226 22.9721 66.0514 22.5452C69.1324 21.7872 72.131 24.0321 72.8204 27.1038C73.5264 30.2546 71.7564 33.3388 68.6796 34.3196C68.4861 34.38 68.2947 34.4467 68.0745 34.5195V42.4413C72.0384 43.9553 73.7733 46.9624 72.6825 50.3943C71.5959 53.8138 68.4594 55.2091 64.3206 54.0824H64.3165ZM65.8436 34.5258C61.1511 33.4054 59.3297 28.043 62.5465 24.23C61.3816 22.6077 60.2106 20.973 59.0354 19.3382C58.6753 18.8363 58.311 18.3386 57.9385 17.8263C57.5845 17.9409 57.2737 18.0533 56.9568 18.1449C53.2111 19.2382 49.3584 16.4373 49.309 12.5035C49.2987 11.633 49.0311 11.3185 48.2511 11.0874C46.0942 10.446 43.9662 9.70877 41.8196 9.00698C40.5498 11.0416 38.8231 12.189 36.4563 12.1807C34.0915 12.1724 32.3854 10.9853 31.1423 9.00489C28.7632 9.78791 26.4232 10.548 24.0955 11.3477C23.9164 11.4102 23.7477 11.7246 23.7085 11.9454C23.5912 12.6055 23.6262 13.3011 23.4513 13.9404C22.5293 17.3348 19.0017 19.1695 15.6573 18.0575C15.4083 17.9742 14.9453 17.9867 14.8279 18.1429C13.3338 20.1525 11.887 22.1975 10.4339 24.2237C13.5458 27.8702 11.9981 33.3575 7.14103 34.5549V42.4601C12.1483 44.1719 13.3441 47.9183 10.4463 52.7913C11.8849 54.7967 13.3235 56.8188 14.793 58.818C14.9082 58.9742 15.291 59.0887 15.4701 59.0179C19.4422 57.4394 23.8588 60.4757 23.6756 65.0051C23.655 65.5007 23.8876 65.6194 24.256 65.7381C26.0877 66.3275 27.9153 66.9293 29.7449 67.5249C30.2244 67.6811 30.704 67.831 31.1567 67.9747C34.0977 63.6952 38.4999 63.7077 41.869 67.981C44.0609 67.2583 46.2671 66.5045 48.4919 65.8131C49.1011 65.6236 49.3028 65.3737 49.2987 64.699C49.276 60.9921 52.6739 57.9059 56.1397 58.7389C57.7635 59.1283 58.523 58.6931 59.2515 57.3978C59.7558 56.5002 60.439 55.7068 61.0421 54.8654C61.5484 54.1574 62.0546 53.4452 62.563 52.7309C60.9947 50.89 60.5111 48.8408 61.2335 46.5896C61.9579 44.3301 63.6064 43.0327 65.8456 42.4684V34.5237L65.8436 34.5258ZM40.346 6.12689C40.3584 3.95694 38.6502 2.19724 36.518 2.18058C34.3797 2.166 32.6385 3.90488 32.6283 6.06234C32.618 8.2427 34.3097 9.98158 36.4542 9.99408C38.607 10.0066 40.3337 8.2906 40.344 6.12481L40.346 6.12689ZM59.161 12.2952C59.1651 10.1065 57.4754 8.39264 55.3144 8.38848C53.1658 8.38639 51.4411 10.1149 51.437 12.2786C51.4329 14.4298 53.172 16.1978 55.298 16.202C57.4363 16.2061 59.1569 14.4673 59.1589 12.2952H59.161ZM59.161 64.6844C59.1507 62.5144 57.4281 60.7839 55.2836 60.7964C53.1576 60.8089 51.4288 62.579 51.4411 64.7364C51.4535 66.8981 53.1823 68.6182 55.333 68.6099C57.4878 68.6015 59.1692 66.8772 59.161 64.6865V64.6844ZM32.6303 70.8923C32.6262 73.0581 34.3488 74.8115 36.481 74.8136C38.6131 74.8178 40.346 73.0664 40.346 70.9048C40.346 68.7265 38.6461 67.0022 36.4933 66.998C34.3385 66.9959 32.6324 68.714 32.6283 70.8902L32.6303 70.8923ZM66.9632 52.4081C69.1077 52.3977 70.8323 50.6442 70.82 48.4889C70.8076 46.3481 69.0418 44.5821 66.924 44.5905C64.7939 44.5988 63.0734 46.3668 63.0857 48.5284C63.0981 50.7109 64.8042 52.4185 66.9632 52.4081ZM17.7257 8.38848C15.5544 8.36557 13.838 10.0482 13.8133 12.2265C13.7886 14.4069 15.4721 16.1707 17.6063 16.1999C19.7385 16.227 21.5064 14.4923 21.5352 12.3473C21.564 10.1794 19.862 8.41347 17.7257 8.39056V8.38848ZM9.88856 48.5139C9.88856 46.3502 8.16389 44.5925 6.03584 44.5905C3.92014 44.5905 2.15842 46.3668 2.15636 48.5034C2.15636 50.6609 3.88309 52.4039 6.02555 52.4081C8.1783 52.4123 9.88856 50.688 9.88856 48.5139ZM9.88856 28.5095C9.90091 26.327 8.20917 24.5965 6.05436 24.5902C3.90161 24.5819 2.17077 26.302 2.15636 28.4637C2.14196 30.6024 3.88926 32.3912 6.00703 32.4037C8.13919 32.4183 9.87415 30.6753 9.8865 28.5095H9.88856ZM63.0857 28.4991C63.0919 30.6607 64.8289 32.4141 66.9549 32.4058C69.0686 32.3975 70.8282 30.6065 70.82 28.4741C70.8118 26.3187 69.0768 24.584 66.9323 24.5882C64.7795 24.5902 63.0816 26.3208 63.0878 28.4991H63.0857ZM17.6619 68.6078C19.8126 68.6078 21.5332 66.8772 21.5332 64.7115C21.5332 62.5582 19.7961 60.7985 17.666 60.7964C15.5277 60.7964 13.8113 62.5353 13.8113 64.7073C13.8113 66.896 15.5009 68.6078 17.6599 68.6078H17.6619Z" fill="#444444"/>
<path id="Vector_2" d="M45.0189 41.5476C43.0699 41.0687 41.8967 39.9295 41.232 38.1636C38.0687 38.8591 34.9158 38.8654 31.7401 38.1594C31.0795 39.9441 29.8796 41.0832 28.3567 41.4539C29.5174 41.9683 30.9704 42.3994 32.1929 43.1949C34.6708 44.8067 35.9468 47.2224 36.1979 50.2087C36.3358 51.8497 35.6031 52.943 34.2675 53.7156C32.7424 54.5986 31.0569 54.9339 29.3384 55.0963C26.8687 55.3295 24.4154 55.2379 22.0116 54.5507C21.7152 54.4674 21.4251 54.3633 21.139 54.2529C18.4408 53.2117 17.595 51.6769 18.2741 48.8488C19.2064 44.9671 21.6412 42.6055 25.5 41.7455C25.7223 41.6955 25.9405 41.6393 26.2121 41.5747C23.4523 40.5376 22.0651 38.5718 22.3944 36.2206C22.7669 33.5592 24.5101 32.1265 27.6734 31.9078C28.8979 28.0281 31.5364 25.754 35.6031 25.0585C32.8042 24.1005 31.3532 21.9639 31.7628 19.5295C32.1703 17.1076 34.1604 15.4041 36.5581 15.427C38.894 15.4478 40.8636 17.2033 41.2279 19.5878C41.5983 22.0118 40.1289 24.1484 37.3422 25.0606C39.318 25.3875 41.0015 26.0581 42.4195 27.3097C43.8313 28.555 44.7719 30.1044 45.2802 31.9016C48.5423 32.1806 50.2484 33.5967 50.5983 36.281C50.9008 38.5988 49.4622 40.6126 46.8011 41.556C47.5421 41.7538 48.2665 41.8871 48.9498 42.1411C52.4979 43.4614 54.8256 46.7726 54.9305 50.6065C54.9676 51.9747 54.3111 53.0201 53.1606 53.5698C51.9258 54.1592 50.5983 54.6507 49.2605 54.9047C46.406 55.4462 43.537 55.3337 40.7195 54.5444C40.1783 54.3924 39.6473 54.1842 39.141 53.9364C37.1508 52.9659 36.4922 51.6498 36.8565 49.4486C37.5275 45.3982 40.2873 42.5327 44.2903 41.7288C44.4899 41.6892 44.6854 41.6309 45.025 41.5476H45.0189ZM45.8544 52.9847C46.3154 52.9847 46.7806 53.018 47.2395 52.9784C48.8284 52.8451 50.4069 52.639 51.8393 51.856C52.4073 51.5457 52.8087 51.1458 52.7552 50.3857C52.5144 46.8955 49.7936 44.0216 46.4801 43.7988C42.8291 43.5531 39.781 45.8584 39.0587 49.4111C38.7232 51.0625 38.9949 51.5977 40.5611 52.1996C42.2631 52.8555 44.0474 53.0242 45.8544 52.9847ZM27.1012 52.9847C27.5622 52.9847 28.0397 53.0617 28.4843 52.9701C29.9825 52.6619 31.4993 52.3932 32.9462 51.9163C33.9649 51.5811 34.1028 51.1125 34.0164 50.0379C33.7468 46.7101 30.8222 43.9008 27.5087 43.7863C23.9071 43.6614 20.8076 46.1645 20.3137 49.5944C20.0873 51.175 20.3137 51.6019 21.8099 52.1829C23.5099 52.8431 25.2922 53.0221 27.1012 52.9847ZM36.4593 36.6163C37.8094 36.431 39.1801 36.2727 40.5384 36.0311C40.808 35.9832 41.0673 35.6521 41.2526 35.3939C41.8124 34.6088 42.3475 33.8029 42.8599 32.9844C42.9978 32.7637 43.1439 32.4409 43.0863 32.216C42.368 29.3984 39.5444 27.2763 36.5437 27.2597C33.4895 27.243 30.6638 29.3109 29.894 32.1723C29.8302 32.4118 29.9887 32.7637 30.1369 33.0032C30.6349 33.8029 31.2421 34.538 31.6702 35.371C31.8719 35.7646 32.0365 36.0082 32.4605 36.0665C33.7776 36.2456 35.0927 36.4268 36.4573 36.6163H36.4593ZM36.4943 17.6094C35.0681 17.6053 33.8949 18.7652 33.8702 20.2021C33.8456 21.6682 35.031 22.8948 36.4758 22.899C37.8917 22.9031 39.0772 21.7307 39.0998 20.2979C39.1245 18.8277 37.9473 17.6136 36.4922 17.6094H36.4943ZM29.7335 36.7621C29.7335 35.3002 28.6036 34.1423 27.1671 34.1277C25.71 34.1132 24.506 35.3106 24.5101 36.7704C24.5142 38.224 25.7408 39.4422 27.1774 39.4172C28.6016 39.3923 29.7376 38.2136 29.7356 36.76L29.7335 36.7621ZM45.8236 34.1277C44.3829 34.1361 43.2489 35.2835 43.2407 36.7433C43.2324 38.2323 44.4014 39.4297 45.8565 39.4172C47.2663 39.4068 48.4476 38.2157 48.4641 36.7892C48.4805 35.3335 47.2766 34.1194 45.8236 34.1277Z" fill="#444444"/>
</g>
<defs>
<clipPath id="clip0_952_381">
<rect width="73" height="77" fill="white"/>
</clipPath>
</defs>
</svg>
