<svg width="67" height="79" viewBox="0 0 67 79" fill="none" xmlns="http://www.w3.org/2000/svg">
<g id="Group 42">
<path id="Vector" d="M25.2694 38.0419C24.0782 36.1121 24.1592 35.0691 25.5774 33.19C25.6908 33.0399 25.703 32.6969 25.6077 32.5305C25.16 31.7452 24.7265 30.9335 24.1613 30.2314C21.7788 27.2728 19.9717 24.0341 19.2039 20.2821C17.3279 11.1181 22.9052 4.30185 29.5825 1.83633C37.7469 -1.17708 47.1207 2.54251 50.7086 10.2881C52.8358 14.8823 52.457 19.4846 50.587 24.0483C49.6592 26.3109 48.3363 28.3422 46.7925 30.2355C46.4259 30.6839 46.0855 31.1608 45.7755 31.6499C45.3055 32.3905 45.032 33.0236 45.808 33.8901C46.7703 34.9636 46.592 36.2745 45.6277 38.044C46.7399 39.8926 46.6933 41.5505 45.3663 42.7214C44.8619 43.1658 44.1285 43.3443 43.5207 43.6852C43.2756 43.8232 42.9758 44.0282 42.8927 44.2676C41.7663 47.5063 38.8531 49.6187 35.4536 49.6228C32.0602 49.6268 29.1125 47.5083 27.9963 44.292C27.9152 44.0586 27.664 43.7441 27.4594 43.7197C24.9615 43.4072 23.438 40.4588 25.2654 38.0419H25.2694ZM38.6363 32.3418C39.9268 32.3418 41.1403 32.3236 42.3518 32.352C42.7975 32.3621 42.9899 32.1977 43.2027 31.8061C43.7679 30.7692 44.4121 29.7748 45.0442 28.7744C46.0713 27.1551 47.2727 25.623 48.1155 23.9144C49.88 20.3328 50.4898 16.5584 49.1892 12.6603C46.6183 4.9573 37.6193 1.02464 29.8783 4.18619C24.7245 6.2905 20.1155 11.6903 21.3068 19.0808C21.8821 22.6522 23.5352 25.7001 25.709 28.535C26.5174 29.5882 27.1292 30.7895 27.8504 31.9096C27.9659 32.0902 28.1887 32.3175 28.367 32.3236C29.6291 32.3601 30.8913 32.3418 32.2344 32.3418C32.1534 31.9745 32.0926 31.6823 32.0238 31.3921C30.794 26.177 29.5643 20.9619 28.3305 15.7467C28.1827 15.1217 28.132 14.5191 28.7843 14.1396C29.4691 13.7398 29.9735 14.0929 30.4517 14.5799C31.6044 15.7549 32.7835 16.9034 33.9301 18.0844C34.4346 18.6039 34.8843 19.1782 35.3665 19.7342C37.2121 17.8916 38.8834 16.2358 40.5406 14.5637C41.0025 14.099 41.4847 13.754 42.1411 14.1213C42.7813 14.4785 42.8015 15.0406 42.6395 15.7001C41.825 19.0138 41.037 22.3336 40.2408 25.6514C39.71 27.8592 39.1812 30.065 38.6343 32.3439L38.6363 32.3418ZM39.4649 19.1011C39.4142 19.0727 39.3636 19.0442 39.3129 19.0179C38.4438 19.8884 37.5767 20.761 36.7076 21.6315C35.6886 22.6522 35.2814 22.6522 34.2583 21.6315C33.373 20.7488 32.4897 19.8641 31.6064 18.9793C31.5598 19.0098 31.5132 19.0402 31.4666 19.0706C32.5059 23.4802 33.5472 27.8897 34.5906 32.3134C34.8296 32.3256 35.0038 32.3378 35.1781 32.3418C36.2842 32.3581 36.2802 32.356 36.5395 31.2826C37.2202 28.4619 37.9049 25.6413 38.5856 22.8207C38.8834 21.5828 39.1731 20.3409 39.4649 19.1011ZM35.4941 34.6207C33.063 34.6207 30.632 34.6186 28.2009 34.6207C27.2366 34.6207 26.7341 35.0265 26.7463 35.7672C26.7584 36.4896 27.2832 36.8954 28.2414 36.8954C33.0266 36.8995 37.8138 36.8975 42.5989 36.8954C43.62 36.8954 44.1406 36.4896 44.1285 35.7286C44.1184 34.9961 43.62 34.6207 42.6354 34.6207C40.255 34.6166 37.8745 34.6207 35.4941 34.6207ZM35.486 39.1783C33.0549 39.1783 30.6239 39.1763 28.1928 39.1783C27.2325 39.1783 26.7301 39.5882 26.7463 40.3309C26.7625 41.033 27.273 41.4511 28.1725 41.4511C33.0083 41.4571 37.8462 41.4571 42.682 41.4511C43.6342 41.4511 44.1427 41.0209 44.1285 40.2761C44.1143 39.5639 43.624 39.1803 42.7023 39.1783C40.2975 39.1743 37.8908 39.1783 35.486 39.1783ZM30.3281 43.7847C30.9379 45.8383 33.1907 47.3764 35.488 47.346C37.8401 47.3135 40.0544 45.7672 40.5386 43.7847H30.3281Z" fill="#444444"/>
<path id="Vector_2" d="M14.3476 74.6231C14.2442 76.4575 13.8938 76.8775 12.0927 77.3625C11.1892 77.606 10.2897 77.8577 9.38208 78.089C7.89102 78.4725 6.94898 77.9267 6.53974 76.4088C5.12972 71.1876 3.73388 65.9643 2.33196 60.7411C1.59858 58.0077 0.863182 55.2743 0.135885 52.5389C-0.289554 50.9439 0.251361 49.9881 1.82346 49.56C2.82222 49.286 3.82504 49.0222 4.82786 48.7645C6.34121 48.3749 7.1779 48.8213 7.70869 50.2925C7.7411 50.3838 7.79175 50.4711 7.90925 50.7166C9.46109 50.2357 11.0231 49.7568 12.5789 49.2678C14.4326 48.6854 16.264 48.0198 18.14 47.5267C19.6129 47.1391 21.0472 47.4719 22.3742 48.241C24.473 49.4605 26.5961 50.6436 28.6808 51.8855C30.5507 52.9995 32.5016 53.2572 34.5883 52.6566C35.9963 52.2507 37.4326 51.9403 38.8305 51.4999C42.9856 50.1911 46.8956 53.1781 46.8916 57.4314C47.1651 57.2893 47.398 57.1777 47.6209 57.0499C51.389 54.8766 55.1471 52.683 58.9274 50.534C62.104 48.728 65.8803 50.2621 66.8142 53.6996C67.4463 56.0271 66.4374 58.4216 64.2211 59.7122C59.6081 62.3969 54.983 65.0572 50.3619 67.7257C45.9819 70.2541 41.5837 72.7562 37.222 75.3171C34.8638 76.701 32.4449 77.0439 29.791 76.3073C26.9446 75.52 24.0739 74.7854 21.1728 74.2456C18.9018 73.8215 16.5902 74.0711 14.3435 74.6231H14.3476ZM13.6365 72.3909C13.9343 72.3483 14.1348 72.33 14.3313 72.2874C17.1879 71.6807 20.0707 71.5711 22.9232 72.1859C25.5386 72.7501 28.1176 73.4847 30.7026 74.1827C32.4307 74.6474 34.0636 74.4851 35.6093 73.5942C44.7664 68.3162 53.9235 63.0341 63.0663 57.7297C63.5485 57.4496 63.9982 57.0093 64.2981 56.5385C65.0294 55.3879 64.7904 53.864 63.8321 52.9102C62.8556 51.9382 61.3929 51.7414 60.1227 52.4699C55.4307 55.1647 50.7468 57.8758 46.065 60.5889C45.83 60.7248 45.6173 60.9156 45.437 61.1205C44.5942 62.0824 43.559 62.7196 42.3252 63.0503C39.9326 63.6916 37.5441 64.347 35.1495 64.9781C33.6098 65.3839 32.0559 65.4753 30.498 65.0512C29.7038 64.834 29.3473 64.3024 29.5235 63.6124C29.6836 62.9813 30.2286 62.7703 31.0288 62.8393C32.0012 62.9245 33.0283 63.0767 33.9562 62.8677C36.6891 62.2488 39.4038 61.5243 42.0902 60.7228C44.0047 60.1526 45.0034 58.0544 44.4362 56.1469C43.8649 54.2272 41.9403 53.101 39.9731 53.5819C38.3524 53.9776 36.7398 54.4038 35.1353 54.8603C32.4246 55.6314 29.8923 55.256 27.4794 53.8234C25.4353 52.6099 23.3567 51.4553 21.3065 50.2519C20.3604 49.698 19.3556 49.4768 18.3203 49.7933C16.341 50.4001 14.3921 51.1022 12.4209 51.7333C11.1061 52.1533 9.77308 52.5206 8.4137 52.9204C10.1519 59.4099 11.8841 65.8689 13.6324 72.3909H13.6365ZM11.9854 75.037C9.8217 66.9647 7.68033 58.9777 5.52477 50.9338C4.4004 51.2381 3.36719 51.5182 2.29549 51.8063C4.46117 59.8847 6.60255 67.8677 8.75608 75.8954C9.86424 75.6012 10.863 75.3353 11.9854 75.035V75.037Z" fill="#444444"/>
<path id="Vector_3" d="M11.2225 18.543C10.4649 18.543 9.70717 18.5552 8.94949 18.5389C8.1918 18.5247 7.69141 18.0641 7.69141 17.4127C7.69141 16.7694 8.1918 16.2824 8.94746 16.2723C10.4122 16.252 11.8769 16.254 13.3416 16.2723C14.1439 16.2824 14.6544 16.7715 14.6321 17.4492C14.6119 18.0986 14.1155 18.5288 13.3457 18.541C12.6386 18.5531 11.9316 18.543 11.2246 18.543H11.2225Z" fill="#444444"/>
<path id="Vector_4" d="M17.5591 6.23992C17.549 7.2383 16.7487 7.82475 16.0275 7.44528C14.5567 6.67417 13.1163 5.83407 11.7042 4.95744C11.1998 4.64494 11.135 4.07067 11.4307 3.54104C11.7286 3.00735 12.2573 2.77196 12.782 3.05199C14.269 3.84745 15.7257 4.70379 17.1661 5.58245C17.4011 5.72652 17.4882 6.11208 17.5591 6.23789V6.23992Z" fill="#444444"/>
<path id="Vector_5" d="M54.3311 7.61557C54.0961 7.39641 53.6038 7.15087 53.5208 6.8059C53.4296 6.42847 53.5795 5.7507 53.8611 5.56604C55.2509 4.65694 56.7055 3.84119 58.1702 3.05588C58.699 2.77179 59.2277 3.00718 59.5336 3.52869C59.8193 4.01571 59.8031 4.60013 59.329 4.89437C57.8542 5.80955 56.3267 6.64357 54.8174 7.50396C54.7343 7.55063 54.6229 7.55063 54.3291 7.61557H54.3311Z" fill="#444444"/>
<path id="Vector_6" d="M59.8019 18.5432C59.0443 18.5432 58.2866 18.5594 57.5309 18.5391C56.8218 18.5208 56.3518 18.0602 56.3458 17.4271C56.3397 16.8 56.8056 16.2927 57.5066 16.2806C59.0463 16.2542 60.586 16.2522 62.1256 16.2806C62.8286 16.2948 63.2804 16.8021 63.2682 17.4372C63.2541 18.0703 62.7861 18.5208 62.075 18.5391C61.3173 18.5574 60.5616 18.5432 59.804 18.5432H59.8019Z" fill="#444444"/>
<path id="Vector_7" d="M12.2193 31.9422C11.9681 31.7108 11.4698 31.4653 11.3887 31.1223C11.2996 30.7408 11.4515 30.0631 11.7372 29.8744C13.1026 28.9734 14.5329 28.1637 15.9754 27.3906C16.5163 27.1004 17.0916 27.2688 17.4077 27.8451C17.7115 28.3991 17.6386 28.9774 17.0896 29.3123C15.6917 30.1645 14.2574 30.958 12.8332 31.7676C12.7076 31.8387 12.5455 31.8508 12.2193 31.9422Z" fill="#444444"/>
<path id="Vector_8" d="M54.3688 27.157C54.8125 27.3356 55.0819 27.4106 55.3169 27.5446C56.5223 28.2284 57.7237 28.9244 58.919 29.6266C59.6625 30.0628 59.8894 30.7244 59.5267 31.3189C59.1783 31.8912 58.5259 32.015 57.8067 31.6071C56.5345 30.8867 55.2663 30.1562 54.0082 29.4115C53.5017 29.1111 53.2039 28.6241 53.4713 28.0742C53.6537 27.6988 54.0791 27.439 54.3668 27.157H54.3688Z" fill="#444444"/>
</g>
</svg>
