<svg width="30" height="21" viewBox="0 0 30 21" fill="none" xmlns="http://www.w3.org/2000/svg">
<g id="Layer_1" clip-path="url(#clip0_802_414)">
<path id="Vector" d="M15.0023 21C10.2663 21 5.53028 21 0.79428 21C0.657567 21 0.519167 21 0.384142 20.984C0.153756 20.957 0.0305453 20.8144 0.00522816 20.5882C-0.0040548 20.5047 0.00185254 20.4203 0.00185254 20.3359C0.00185254 13.7778 0.00185254 7.22052 0.00185254 0.662394C0.00185254 0.111383 0.112404 0 0.666006 0C10.2224 0 19.7788 0 29.3352 0C29.8921 0 30.001 0.108852 30.001 0.659863C30.001 7.20702 30.001 13.7542 30.001 20.3013C30.001 20.8945 29.8981 21 29.3056 21C24.5384 21 19.7703 21 15.0031 21H15.0023ZM19.6117 9.57729C19.4758 9.69121 19.3712 9.77812 19.2674 9.86756C18.0049 10.9527 16.7433 12.0387 15.4799 13.1222C15.0622 13.4808 14.9474 13.4816 14.5356 13.1297C13.8546 12.5484 13.1778 11.9619 12.4976 11.3788C11.8039 10.7831 11.1093 10.1891 10.3937 9.57476C7.40459 13.0808 4.4332 16.5666 1.44493 20.0727H28.5596C25.5638 16.5582 22.5991 13.0816 19.6117 9.57729ZM1.67785 0.907944C6.15561 4.75236 10.5777 8.54953 15.0031 12.3492C19.4463 8.53349 23.8608 4.74308 28.3267 0.907944H1.67785ZM9.71605 8.99C6.77082 6.46108 3.85428 3.95749 0.905675 1.42605V19.3225C3.86441 15.8519 6.77757 12.4353 9.71605 8.98915V8.99ZM29.0997 19.325V1.4252C26.1393 3.96677 23.2211 6.47205 20.2885 8.99C23.2228 12.4311 26.1368 15.8494 29.0997 19.3242V19.325Z" fill="#444444"/>
</g>
<defs>
<clipPath id="clip0_802_414">
<rect width="30" height="21" fill="white"/>
</clipPath>
</defs>
</svg>
