<svg width="73" height="75" viewBox="0 0 73 75" fill="none" xmlns="http://www.w3.org/2000/svg">
<g id="Layer_1" clip-path="url(#clip0_786_523)">
<path id="Vector" d="M12.0976 50.1102C14.1878 48.9024 16.2714 47.8137 18.2325 46.5376C21.0668 44.6906 24.1966 44.2146 27.4556 44.2587C29.7515 44.2895 31.9818 44.7391 34.2142 45.3276C36.23 45.8587 38.3377 46.0703 40.417 46.3062C42.6385 46.5574 44.8753 46.6544 47.1034 46.8483C48.4888 46.9696 49.651 47.5867 50.5987 48.6843C52.5904 47.0202 54.5405 45.3915 56.4884 43.7605C58.8807 41.7571 61.2685 39.7493 63.6586 37.7437C66.0727 35.7182 69.2944 35.8879 71.1986 38.136C73.1334 40.4215 72.827 43.7143 70.4041 45.753C64.8361 50.4408 59.2331 55.0912 53.6454 59.7571C51.7346 61.3528 49.7473 62.8691 47.9263 64.5618C44.4135 67.8281 40.4367 68.6149 35.8776 67.3674C32.3079 66.3911 28.6703 65.6638 25.0787 64.7623C23.8924 64.4648 22.879 64.6279 21.8701 65.4323C22.1677 65.9238 22.496 66.4175 22.7762 66.9377C23.3168 67.9405 23.1855 68.4761 22.2465 69.0866C19.7033 70.7373 17.1535 72.3815 14.5993 74.0147C13.6538 74.6186 13.0015 74.4731 12.3931 73.5188C8.58039 67.5327 4.77208 61.5445 0.970339 55.5519C0.342187 54.5623 0.497583 53.9121 1.48468 53.273C3.96227 51.6707 6.44204 50.0706 8.92401 48.4749C10.1059 47.7145 10.6399 47.8357 11.4125 49.0369C11.6314 49.3763 11.8481 49.7179 12.0976 50.1102ZM20.3555 63.1049C22.542 61.8509 23.6232 61.7054 25.9826 62.2652C29.8237 63.1755 33.678 64.035 37.5082 64.9916C40.592 65.7607 43.2316 65.0489 45.6413 62.9991C49.9552 59.3273 54.3304 55.726 58.6793 52.096C62.0608 49.2705 65.4533 46.4604 68.8151 43.6107C70.0036 42.6035 70.1174 41.0673 69.1894 39.941C68.2811 38.839 66.6855 38.6892 65.5277 39.6545C61.03 43.4057 56.5454 47.1723 52.0673 50.9477C51.8878 51.0976 51.739 51.3907 51.7303 51.6222C51.5967 54.948 49.5985 56.9338 46.3023 56.861C40.8722 56.7398 35.4443 56.5569 30.0142 56.396C29.0117 56.3651 28.4974 55.8935 28.5061 55.0582C28.5149 54.2251 29.0621 53.7336 30.0448 53.7578C33.0739 53.8284 36.1009 53.9187 39.13 54.0047C41.612 54.0774 44.0939 54.1788 46.5781 54.2229C47.9416 54.2471 48.9375 53.3325 49.036 52.0806C49.1389 50.7648 48.3728 49.8017 47.0027 49.5482C46.6832 49.4887 46.3527 49.4733 46.0287 49.4446C42.9318 49.1669 39.8216 49.0016 36.7443 48.5829C34.107 48.2236 31.5222 47.4743 28.887 47.0753C25.7156 46.5949 22.647 46.9409 19.828 48.7107C18.0245 49.8436 16.1488 50.853 14.306 51.9219C14.0587 52.0652 13.8201 52.2283 13.5465 52.4024C15.8359 56.0015 18.0836 59.5367 20.3555 63.1116V63.1049ZM3.74778 54.981C7.1862 60.3896 10.6049 65.7651 14.0608 71.2024C16.0657 69.9086 17.9808 68.67 19.9396 67.4049C16.4793 61.9633 13.0738 56.6054 9.63095 51.1924C7.64363 52.4707 5.72197 53.7093 3.74778 54.981Z" fill="#444444"/>
<path id="Vector_2" d="M37.219 42.0282C26.407 42.1208 16.9606 32.8134 16.8796 21.9896C16.7877 9.99771 25.6234 0.635177 37.0111 0.434614C48.2653 0.236255 58.0247 9.23293 58.1363 21.1212C58.2435 32.6613 48.946 41.9291 37.219 42.0282ZM43.7413 25.9942C46.9105 28.1409 48.7052 31.1097 49.1977 34.9006C54.7394 30.411 57.0244 22.5053 54.2733 14.9809C51.5265 7.46533 44.3213 2.12948 35.0873 3.25792C27.254 4.21665 21.0841 10.3019 19.6789 18.7475C18.705 24.6013 21.7976 32.9015 25.7635 34.8036C26.2494 31.0458 28.0835 28.1189 31.1783 26.0031C27.2321 21.54 28.6876 15.8978 31.5722 13.339C34.9669 10.3283 40.3861 10.4451 43.5947 13.5594C46.3809 16.2636 47.5693 21.756 43.7391 25.9942H43.7413ZM37.4029 39.3592C40.478 39.3107 43.2795 38.6165 45.9212 37.2478C46.4378 36.9789 46.615 36.6395 46.6019 36.0907C46.5187 32.5621 44.9757 29.8843 41.9663 28.0924C41.6555 27.9073 41.1193 27.8809 40.7756 28.0131C38.5541 28.8572 36.3655 28.844 34.1461 28.0087C33.8025 27.8787 33.2663 27.9161 32.9555 28.1035C29.9264 29.9262 28.4074 32.6481 28.3286 36.2009C28.3177 36.6681 28.4643 36.9348 28.8845 37.1618C31.5832 38.6165 34.4635 39.3195 37.4029 39.3614V39.3592ZM43.4765 19.8848C43.4874 16.365 40.9398 13.7753 37.4685 13.7753C34.0498 13.7753 31.4672 16.365 31.4475 19.8077C31.43 23.2922 33.9929 25.9436 37.4313 25.9942C40.8304 26.0449 43.4634 23.3825 43.4743 19.8848H43.4765Z" fill="#444444"/>
</g>
<defs>
<clipPath id="clip0_786_523">
<rect width="71.8654" height="73.9459" fill="white" transform="translate(0.595703 0.432373)"/>
</clipPath>
</defs>
</svg>
