<svg width="111" height="111" viewBox="0 0 111 111" fill="none" xmlns="http://www.w3.org/2000/svg">
<g id="Layer_1" clip-path="url(#clip0_317_601)">
<g id="Group">
<path id="Vector" d="M4.36405 111H0V106.626H1.68995V109.31H4.36405V111Z" fill="white"/>
<path id="Vector_2" d="M1.68995 99.8165H0V92.997H1.68995V99.8165ZM1.68995 86.1775H0V79.3581H1.68995V86.1775ZM1.68995 72.5386H0V65.7192H1.68995V72.5386ZM1.68995 58.8997H0V52.0803H1.68995V58.8997ZM1.68995 45.2608H0V38.4414H1.68995V45.2608ZM1.68995 31.6219H0V24.8025H1.68995V31.6219ZM1.68995 17.983H0V11.1636H1.68995V17.983Z" fill="white"/>
<path id="Vector_3" d="M1.68995 4.36405H0V0H4.36405V1.68995H1.68995V4.36405Z" fill="white"/>
<path id="Vector_4" d="M99.8169 1.68995H92.9975V0H99.8169V1.68995ZM86.178 1.68995H79.3586V0H86.178V1.68995ZM72.5391 1.68995H65.7197V0H72.5391V1.68995ZM58.9002 1.68995H52.0808V0H58.9002V1.68995ZM45.2613 1.68995H38.4419V0H45.2613V1.68995ZM31.6224 1.68995H24.803V0H31.6224V1.68995ZM17.9835 1.68995H11.1641V0H17.9835V1.68995Z" fill="white"/>
<path id="Vector_5" d="M111.001 4.36405H109.311V1.68995H106.627V0H111.001V4.36405Z" fill="white"/>
<path id="Vector_6" d="M76.3866 111H70.084V109.31H76.317C76.6649 109.31 77.0128 109.31 77.3608 109.3L77.4105 110.99C77.0725 111 76.7345 111.01 76.3965 111.01L76.3866 111ZM62.7775 111H55.4809V109.31H62.7775V111ZM48.1842 111H40.8876V109.31H48.1842V111ZM33.591 111H26.2944V109.31H33.591V111ZM18.9978 111H11.7012V109.31H18.9978V111ZM84.7965 109.956L84.379 108.316C86.6754 107.739 88.9121 106.904 91.0394 105.851L91.7949 107.362C89.5682 108.475 87.2122 109.35 84.7965 109.956ZM98.0776 103.326L97.0139 102.013C98.853 100.522 100.543 98.8324 102.034 96.9933L103.356 98.057C101.795 99.9955 100.016 101.775 98.0776 103.336V103.326ZM107.382 91.7644L105.871 91.0089C106.925 88.8915 107.76 86.6449 108.337 84.3485L109.977 84.7561C109.37 87.1717 108.506 89.5277 107.392 91.7644H107.382ZM110.991 77.37L109.301 77.3203C109.311 76.9823 109.321 76.6543 109.321 76.3163V70.0535H111.011V76.3163C111.011 76.6741 111.011 77.0221 110.991 77.37ZM111.011 62.747H109.321V55.4503H111.011V62.747ZM111.011 48.1537H109.321V40.8571H111.011V48.1537ZM111.011 33.5605H109.321V26.2639H111.011V33.5605ZM111.011 18.9673H109.321V11.6707H111.011V18.9673Z" fill="white"/>
</g>
<g id="Group_2">
<g id="Group_3">
<path id="Vector_7" d="M38.4612 93.524L38.7395 92.1223C39.9722 85.9589 40.6581 80.1236 40.7874 74.7556V74.3182H27.0789C22.8341 74.3182 19.5039 68.8805 19.5039 61.9418C19.5039 57.3689 21.0149 53.2037 23.4405 51.0565L23.8083 50.7384L23.4405 50.4203C21.0149 48.273 19.5039 44.1078 19.5039 39.535C19.5039 32.5962 22.8341 27.1586 27.0789 27.1586H78.2943C82.5391 27.1586 85.8693 32.5962 85.8693 39.535C85.8693 44.1078 84.3583 48.273 81.9327 50.4203L81.5649 50.7384L81.9327 51.0565C84.3583 53.2037 85.8693 57.3689 85.8693 61.9418C85.8693 66.5146 84.2788 70.9184 81.714 72.996L81.555 73.1253V73.3241C81.5351 79.2091 80.8193 85.6905 79.4375 92.5796L79.2487 93.524H38.4612ZM43.1533 73.1451C43.1533 73.1451 43.1533 73.1849 43.1533 73.2048C43.1334 78.6027 42.5568 84.4778 41.4136 90.6709L41.3242 91.1779H77.35L77.4195 90.83C80.6006 74.0398 79.5966 60.2916 74.6063 52.1102L74.477 51.9014H38.7694L39.0875 52.5277C41.7814 57.7865 43.1433 64.6854 43.1433 73.0457C43.1433 73.0855 43.1433 73.1153 43.1433 73.1352L43.1533 73.1451ZM32.0692 52.5874C33.7194 54.9235 34.6638 58.3332 34.6638 61.9418C34.6638 65.5503 33.7194 68.96 32.0692 71.2961L31.592 71.9721H40.8172V71.5347C40.6482 63.4229 39.0775 56.8818 36.1549 52.1102L36.0257 51.9014H31.592L32.0692 52.5774V52.5874ZM27.0888 51.9114C24.5638 51.9114 21.8599 55.9474 21.8599 61.9418C21.8599 67.9361 24.5638 71.9721 27.0888 71.9721C29.6138 71.9721 32.3177 67.9361 32.3177 61.9418C32.3177 55.9474 29.6138 51.9114 27.0888 51.9114ZM77.4891 52.5377C79.6562 56.7526 80.9684 62.071 81.4058 68.3238L81.5251 69.9839L82.2309 68.4729C83.0958 66.6239 83.5531 64.3673 83.5531 61.9418C83.5531 55.9375 80.8491 51.9114 78.3242 51.9114H77.181L77.4991 52.5377H77.4891ZM32.0692 30.1707C33.7194 32.5068 34.6638 35.9165 34.6638 39.525C34.6638 43.1336 33.7194 46.5433 32.0692 48.8794L31.592 49.5554H78.3043C80.8293 49.5554 83.5332 45.5194 83.5332 39.525C83.5332 33.5307 80.8293 29.4947 78.3043 29.4947H31.592L32.0692 30.1707ZM27.0888 29.4947C24.5638 29.4947 21.8599 33.5307 21.8599 39.525C21.8599 45.5194 24.5638 49.5554 27.0888 49.5554C29.6138 49.5554 32.3177 45.5194 32.3177 39.525C32.3177 33.5307 29.6138 29.4947 27.0888 29.4947Z" fill="white"/>
<g id="Group_4">
<path id="Vector_8" d="M55.5678 69.7714C58.1253 69.0703 59.6301 66.4288 58.9291 63.8714C58.228 61.3139 55.5865 59.8091 53.029 60.5101C50.4716 61.2112 48.9668 63.8527 49.6678 66.4102C50.3689 68.9676 53.0104 70.4724 55.5678 69.7714Z" fill="white"/>
<path id="Vector_9" d="M75.1036 71.7633L70.3022 66.7432L62.2998 79.547L54.2973 73.1451L46.8218 79.547C46.7124 82.41 46.5434 83.5632 46.2949 85.949H73.9306C75.0837 80.2926 75.4019 75.3818 75.1136 71.7633H75.1036Z" fill="white"/>
</g>
</g>
<path id="Vector_10" opacity="0.13" d="M38.4619 93.524L38.7403 92.1223C39.9729 85.959 40.6589 80.1237 40.7881 74.7556V74.3182H27.0796C25.0914 74.3182 23.312 73.1352 21.9799 71.157H21.9004C21.9004 71.157 22.9641 76.1672 28.1134 76.1672H39.0087C39.0087 76.1672 39.3069 83.593 37.11 91.7644C37.7064 92.8878 38.4719 93.5439 38.4719 93.5439C38.4719 93.5439 38.4719 93.5439 38.4719 93.524H38.442H38.4619Z" fill="white"/>
<g id="Group_5">
<path id="Vector_11" opacity="0.13" d="M36.1547 52.1102L36.0254 51.9015H31.5918L32.069 52.5775C32.4069 53.0646 32.7251 53.5914 33.0034 54.168H37.278C36.9301 53.4523 36.5622 52.7663 36.1547 52.1102Z" fill="white"/>
<path id="Vector_12" opacity="0.13" d="M74.4673 51.9015H38.7695L39.0876 52.5278C39.356 53.0546 39.6145 53.6014 39.8531 54.168H75.6999C75.352 53.4523 74.9842 52.7564 74.5866 52.1102L74.4573 51.9015H74.4673Z" fill="white"/>
<path id="Vector_13" opacity="0.13" d="M78.3034 51.9015H77.1602L77.4783 52.5278C77.7467 53.0546 78.0051 53.6014 78.2537 54.168H81.554C80.6096 52.7266 79.4366 51.9015 78.3034 51.9015Z" fill="white"/>
</g>
<path id="Vector_14" opacity="0.13" d="M78.304 29.4946H31.5918L32.069 30.1706C32.4567 30.7174 32.8046 31.3337 33.1128 31.9898H81.7138C80.7396 30.3993 79.5069 29.4946 78.314 29.4946H78.304Z" fill="white"/>
</g>
</g>
<defs>
<clipPath id="clip0_317_601">
<rect width="111" height="111" fill="white"/>
</clipPath>
</defs>
</svg>
