<svg width="112" height="112" viewBox="0 0 112 112" fill="none" xmlns="http://www.w3.org/2000/svg">
<g id="Layer_1" clip-path="url(#clip0_1039_345)">
<g id="Group">
<path id="Vector" d="M4.39 111.66H0V107.26H1.7V109.96H4.39V111.66Z" fill="white"/>
<path id="Vector_2" d="M1.7 100.41H0V93.55H1.7V100.41ZM1.7 86.69H0V79.83H1.7V86.69ZM1.7 72.97H0V66.11H1.7V72.97ZM1.7 59.25H0V52.39H1.7V59.25ZM1.7 45.53H0V38.67H1.7V45.53ZM1.7 31.81H0V24.95H1.7V31.81ZM1.7 18.09H0V11.23H1.7V18.09Z" fill="white"/>
<path id="Vector_3" d="M1.7 4.39H0V0H4.39V1.7H1.7V4.39Z" fill="white"/>
<path id="Vector_4" d="M100.41 1.7H93.5505V0H100.41V1.7ZM86.6905 1.7H79.8305V0H86.6905V1.7ZM72.9705 1.7H66.1105V0H72.9705V1.7ZM59.2505 1.7H52.3905V0H59.2505V1.7ZM45.5305 1.7H38.6705V0H45.5305V1.7ZM31.8105 1.7H24.9505V0H31.8105V1.7ZM18.0905 1.7H11.2305V0H18.0905V1.7Z" fill="white"/>
<path id="Vector_5" d="M111.66 4.39H109.96V1.7H107.26V0H111.66V4.39Z" fill="white"/>
<path id="Vector_6" d="M76.7595 111.66H70.4895V109.96H76.7595C77.1095 109.96 77.4595 109.96 77.8095 109.94L77.8595 111.64C77.4995 111.65 77.1295 111.66 76.7595 111.66ZM63.1495 111.66H55.8095V109.96H63.1495V111.66ZM48.4695 111.66H41.1295V109.96H48.4695V111.66ZM33.7895 111.66H26.4495V109.96H33.7895V111.66ZM19.1095 111.66H11.7695V109.96H19.1095V111.66ZM85.2995 110.61L84.8795 108.96C87.1895 108.38 89.4395 107.54 91.5795 106.48L92.3395 108C90.0995 109.12 87.7295 110 85.2995 110.61ZM98.6495 103.94L97.5795 102.62C99.4295 101.13 101.13 99.43 102.63 97.57L103.96 98.64C102.39 100.59 100.6 102.38 98.6495 103.95V103.94ZM108.01 92.31L106.49 91.55C107.55 89.42 108.39 87.16 108.97 84.85L110.62 85.26C110.01 87.69 109.14 90.06 108.02 92.31H108.01ZM111.64 77.83L109.94 77.78C109.95 77.44 109.96 77.11 109.96 76.77V70.47H111.66V76.77C111.66 77.13 111.66 77.48 111.64 77.83ZM111.66 63.12H109.96V55.78H111.66V63.12ZM111.66 48.44H109.96V41.1H111.66V48.44ZM111.66 33.76H109.96V26.42H111.66V33.76ZM111.66 19.08H109.96V11.74H111.66V19.08Z" fill="white"/>
</g>
<g id="Group_2">
<g id="Group_3">
<path id="Vector_7" opacity="0.13" d="M68.0298 81.7101C64.5098 85.4701 59.5098 87.8301 53.9498 87.8301C48.3898 87.8301 43.2798 85.4301 39.7598 81.6001L29.5098 81.5601C34.1598 90.3001 43.3598 96.2401 53.9498 96.2401C64.5398 96.2401 73.5998 90.3801 78.2798 81.7601L68.0298 81.7201V81.7101Z" fill="#4D4D4F"/>
<path id="Vector_8" d="M53.9504 46.9401C61.9861 46.9401 68.5004 40.4258 68.5004 32.3901C68.5004 24.3543 61.9861 17.8401 53.9504 17.8401C45.9146 17.8401 39.4004 24.3543 39.4004 32.3901C39.4004 40.4258 45.9146 46.9401 53.9504 46.9401Z" stroke="white" stroke-width="2" stroke-miterlimit="10"/>
<path id="Vector_9" d="M61.2794 86.2579C71.0455 82.2126 75.6832 71.0163 71.6379 61.2502C67.5927 51.4842 56.3964 46.8465 46.6303 50.8917C36.8642 54.937 32.2266 66.1333 36.2718 75.8994C40.3171 85.6654 51.5134 90.3031 61.2794 86.2579Z" stroke="white" stroke-width="2" stroke-miterlimit="10"/>
<path id="Vector_10" d="M53.9492 47.81C53.1492 47.81 52.3492 47.86 51.5592 47.95L51.7292 49.43C51.9492 49.41 52.1592 49.38 52.3792 49.37C52.3792 49.37 52.4692 49.37 52.5092 49.36C52.5292 49.36 52.5392 49.36 52.5592 49.36C52.5692 49.36 52.5892 49.36 52.5992 49.36C52.5992 49.36 52.6192 49.36 52.6292 49.36C52.6392 49.36 52.6492 49.36 52.6592 49.36C52.6592 49.36 52.6792 49.36 52.6892 49.36C52.6892 49.36 52.7092 49.36 52.7192 49.36C52.7192 49.36 52.7392 49.36 52.7492 49.36C52.7492 49.36 52.7592 49.36 52.7692 49.36C52.7692 49.36 52.7792 49.36 52.7892 49.36C52.7892 49.36 52.7992 49.36 52.8092 49.36C52.8092 49.36 52.8192 49.36 52.8292 49.36C52.8292 49.36 52.8392 49.36 52.8492 49.36H52.8692H52.8792V47.87L53.9492 47.81ZM47.6492 48.78C43.8092 50 40.4292 52.3 37.8692 55.44L39.0192 56.38C39.3092 56.02 39.6192 55.68 39.9292 55.34C39.9292 55.34 39.9892 55.28 40.0192 55.25C40.0192 55.25 40.0392 55.23 40.0492 55.22C40.0492 55.22 40.0492 55.21 40.0592 55.2C40.0592 55.2 40.0792 55.18 40.0892 55.17C40.0892 55.17 40.0892 55.16 40.0992 55.15C40.0992 55.15 40.0992 55.15 40.1092 55.13C40.1092 55.13 40.1092 55.12 40.1192 55.11C40.1192 55.11 40.1192 55.1 40.1292 55.09C40.1292 55.09 40.1292 55.08 40.1392 55.07C40.1392 55.07 40.1392 55.07 40.1492 55.06C40.1492 55.06 40.1492 55.06 40.1592 55.05C40.1592 55.05 40.1592 55.05 40.1692 55.04C40.1692 55.04 40.1692 55.04 40.1792 55.03C40.1792 55.03 40.1792 55.02 40.1892 55.01C40.1892 55.01 40.1892 55.01 40.1992 55.01C40.1992 55.01 40.1992 55.01 40.2092 55.01C40.2092 55.01 40.2192 55.01 40.2292 55C40.2292 55 40.2292 55 40.2392 55C40.2392 55 40.2492 55 40.2592 54.99C40.2592 54.99 40.2692 54.99 40.2792 54.98C40.2792 54.98 40.3092 54.95 40.3292 54.94C40.3292 54.94 40.3392 54.94 40.3492 54.93C40.3492 54.93 40.3792 54.9 40.3992 54.89C40.3992 54.89 40.4092 54.89 40.4192 54.88C40.4192 54.88 40.4292 54.88 40.4392 54.87C40.4392 54.87 40.4592 54.85 40.4692 54.84C41.7592 53.73 43.1992 52.78 44.7592 52.04C44.7592 52.04 44.7892 52.03 44.7992 52.02C44.7992 52.02 44.8292 52.01 44.8392 52C44.8392 52 44.8492 52 44.8592 52C44.8592 52 44.8692 52 44.8792 52C44.8792 52 44.8892 52 44.8992 52C44.8992 52 44.9092 52 44.9192 52C44.9192 52 44.9292 52 44.9392 52C44.9392 52 44.9392 52 44.9492 52C44.9492 52 44.9592 52 44.9692 52C44.9692 52 44.9692 52 44.9792 52C44.9792 52 44.9792 52 44.9892 52C44.9892 52 44.9892 52 44.9992 52C44.9992 52 44.9992 52 45.0092 52C45.0092 52 45.0092 52 45.0192 52C45.0192 52 45.0192 52 45.0292 52C45.0292 52 45.0392 52 45.0492 52C45.0492 52 45.0792 51.99 45.0892 51.98C45.0892 51.98 45.0992 51.98 45.1092 51.98C45.4892 51.83 45.8792 51.69 46.2692 51.57L45.8192 50.15L47.6492 48.78ZM37.3792 56.06C37.1392 56.38 36.9092 56.71 36.6892 57.04L37.9192 57.87C37.9792 57.79 38.0292 57.7 38.0892 57.62C38.0892 57.62 38.0992 57.6 38.1092 57.6C38.1092 57.6 38.1092 57.59 38.1092 57.58C38.2392 57.39 38.3792 57.21 38.5092 57.02L37.3192 56.13L37.3792 56.06ZM36.6792 57.05C36.2392 57.71 35.8292 58.41 35.4692 59.12L36.7892 59.8C36.7892 59.8 36.7892 59.79 36.7892 59.78C36.7892 59.77 36.7992 59.76 36.8092 59.75C37.1392 59.12 37.4992 58.51 37.8892 57.92L36.6492 57.1L36.6792 57.05ZM33.9992 62.83C33.4692 64.68 33.1992 66.61 33.1992 68.55C33.1992 70.63 33.5092 72.69 34.1092 74.66L35.5292 74.22C35.4392 73.91 35.3492 73.6 35.2692 73.29C35.2692 73.29 35.2592 73.23 35.2492 73.2C35.2292 73.11 35.2092 73.02 35.1892 72.93C35.1892 72.93 35.1892 72.89 35.1792 72.87C35.1692 72.81 35.1492 72.75 35.1392 72.69C35.1392 72.69 35.1292 72.63 35.1192 72.6C35.1192 72.6 35.1192 72.56 35.1092 72.53C35.1092 72.53 35.1092 72.52 35.1092 72.51C35.0692 72.31 35.0292 72.1 34.9892 71.9C34.9892 71.9 34.9892 71.89 34.9892 71.88C34.9892 71.88 34.9892 71.87 34.9892 71.86C34.9892 71.86 34.9892 71.83 34.9892 71.82C34.9892 71.81 34.9892 71.79 34.9892 71.78C34.9892 71.72 34.9692 71.67 34.9592 71.61V71.59C34.9592 71.59 34.9592 71.58 34.9592 71.57C34.9592 71.57 34.9592 71.51 34.9492 71.48C34.9492 71.48 34.9492 71.47 34.9492 71.46C34.9492 71.46 34.9492 71.45 34.9492 71.44V71.42C34.9492 71.39 34.9492 71.35 34.9392 71.32C34.9392 71.32 34.9392 71.31 34.9392 71.3C34.9392 71.29 34.9392 71.27 34.9392 71.26V71.24C34.9392 71.24 34.9392 71.23 34.9392 71.22C34.9392 71.22 34.9392 71.21 34.9392 71.2C34.9392 71.2 34.9392 71.19 34.9392 71.18C34.9392 71.18 34.9392 71.17 34.9392 71.16C34.9392 71.16 34.9392 71.15 34.9392 71.14C34.9392 71.14 34.9392 71.13 34.9392 71.12C34.9392 71.12 34.9392 71.11 34.9392 71.1V71.08C34.9392 71.08 34.9392 71.07 34.9392 71.06C34.9392 71.06 34.9392 71.03 34.9392 71.02C34.9392 71.02 34.9392 71 34.9392 70.99C34.9392 70.99 34.9392 70.99 34.9392 70.98C34.9392 70.98 34.9392 70.98 34.9392 70.97V70.95V70.93C34.9392 70.93 34.9392 70.92 34.9392 70.91C34.9392 70.91 34.9392 70.9 34.9392 70.89C34.9392 70.89 34.9392 70.88 34.9392 70.87C34.9392 70.87 34.9392 70.86 34.9392 70.85C34.9392 70.85 34.9392 70.84 34.9392 70.83C34.9392 70.83 34.9392 70.82 34.9392 70.81C34.9392 70.81 34.9392 70.8 34.9392 70.79V70.77V70.75V70.73C34.9392 70.73 34.9392 70.73 34.9392 70.72C34.9392 70.72 34.9392 70.72 34.9392 70.71C34.9392 70.71 34.9392 70.71 34.9392 70.7C34.9392 70.7 34.9392 70.7 34.9392 70.69C34.9392 70.69 34.9392 70.69 34.9392 70.68C34.9392 70.68 34.9392 70.68 34.9392 70.67C34.9392 70.67 34.9392 70.67 34.9392 70.66C34.9392 70.66 34.9392 70.65 34.9392 70.64V70.62V70.6C34.9392 70.6 34.9392 70.59 34.9392 70.58C34.9392 70.58 34.9392 70.57 34.9392 70.56C34.9392 70.56 34.9392 70.55 34.9392 70.54C34.9392 70.54 34.9392 70.53 34.9392 70.52C34.9392 70.52 34.9392 70.51 34.9392 70.5C34.9392 70.5 34.9392 70.49 34.9392 70.48C34.9392 70.48 34.9392 70.47 34.9392 70.46C34.9392 70.46 34.9392 70.45 34.9392 70.44V70.42V70.4C34.9392 70.4 34.9392 70.39 34.9392 70.38C34.9392 70.38 34.9392 70.38 34.9392 70.37C34.9392 70.37 34.9392 70.37 34.9392 70.36C34.9392 70.36 34.9392 70.36 34.9392 70.35C34.9392 70.35 34.9392 70.35 34.9392 70.34C34.9392 70.34 34.9392 70.34 34.9392 70.33C34.9392 70.33 34.9392 70.33 34.9392 70.32C34.9392 70.32 34.9392 70.32 34.9392 70.31C34.9392 70.31 34.9392 70.3 34.9392 70.29C34.9392 70.29 34.9392 70.28 34.9392 70.27C34.9392 70.27 34.9392 70.27 34.9392 70.26C34.9392 70.26 34.9392 70.26 34.9392 70.25C34.9392 70.25 34.9392 70.24 34.9392 70.23C34.9392 70.23 34.9392 70.22 34.9392 70.21C34.9392 70.21 34.9392 70.2 34.9392 70.19C34.9392 70.19 34.9392 70.18 34.9392 70.17C34.9392 70.17 34.9392 70.16 34.9392 70.15C34.9392 70.15 34.9392 70.14 34.9392 70.13C34.9392 70.13 34.9392 70.13 34.9392 70.12C34.9392 70.12 34.9392 70.12 34.9392 70.11C34.9392 70.11 34.9392 70.11 34.9392 70.1C34.9392 70.1 34.9392 70.1 34.9392 70.09C34.9392 70.09 34.9392 70.09 34.9392 70.08C34.9392 70.08 34.9392 70.08 34.9392 70.07C34.9392 70.07 34.9392 70.07 34.9392 70.06C34.9392 70.06 34.9392 70.06 34.9392 70.05C34.9392 70.05 34.9392 70.05 34.9392 70.04C34.9392 70.04 34.9392 70.04 34.9392 70.03C34.9392 70.03 34.9392 70.02 34.9392 70.01C34.9392 70.01 34.9392 70 34.9392 69.99C34.9392 69.99 34.9392 69.98 34.9392 69.97C34.9392 69.97 34.9392 69.96 34.9392 69.95C34.9392 69.95 34.9392 69.94 34.9392 69.93C34.9392 69.93 34.9392 69.92 34.9392 69.91C34.9392 69.91 34.9392 69.9 34.9392 69.89C34.9392 69.89 34.9392 69.88 34.9392 69.87C34.9392 69.87 34.9392 69.87 34.9392 69.86C34.9392 69.86 34.9392 69.86 34.9392 69.85C34.9392 69.85 34.9392 69.85 34.9392 69.84C34.9392 69.84 34.9392 69.84 34.9392 69.83C34.9392 69.83 34.9392 69.83 34.9392 69.82C34.9392 69.82 34.9392 69.82 34.9392 69.81C34.9392 69.81 34.9392 69.81 34.9392 69.8C34.9392 69.8 34.9392 69.8 34.9392 69.79C34.9392 69.79 34.9392 69.79 34.9392 69.78C34.9392 69.78 34.9392 69.78 34.9392 69.77C34.9392 69.77 34.9392 69.77 34.9392 69.76C34.9392 69.76 34.9392 69.76 34.9392 69.75C34.9392 69.75 34.9392 69.75 34.9392 69.74C34.9392 69.74 34.9392 69.74 34.9392 69.73C34.9392 69.73 34.9392 69.73 34.9392 69.72C34.9392 69.72 34.9392 69.72 34.9392 69.71C34.9392 69.71 34.9392 69.71 34.9392 69.7C34.9392 69.7 34.9392 69.7 34.9392 69.69C34.9392 69.69 34.9392 69.69 34.9392 69.68C34.9392 69.68 34.9392 69.68 34.9392 69.67C34.9392 69.67 34.9392 69.67 34.9392 69.66C34.9392 69.66 34.9392 69.66 34.9392 69.65C34.9392 69.65 34.9392 69.65 34.9392 69.64C34.9392 69.64 34.9392 69.64 34.9392 69.63C34.9392 69.63 34.9392 69.63 34.9392 69.62C34.9392 69.62 34.9392 69.62 34.9392 69.61C34.9392 69.61 34.9392 69.61 34.9392 69.6C34.9392 69.6 34.9392 69.6 34.9392 69.59C34.9392 69.59 34.9392 69.59 34.9392 69.58C34.9392 69.58 34.9392 69.58 34.9392 69.57C34.9392 69.57 34.9392 69.57 34.9392 69.56C34.9392 69.56 34.9392 69.56 34.9392 69.55C34.9392 69.55 34.9392 69.55 34.9392 69.54C34.9392 69.54 34.9392 69.54 34.9392 69.53C34.9392 69.53 34.9392 69.53 34.9392 69.52C34.9392 69.52 34.9392 69.52 34.9392 69.51C34.9392 69.51 34.9392 69.51 34.9392 69.5C34.9392 69.5 34.9392 69.5 34.9392 69.49C34.9392 69.49 34.9392 69.49 34.9392 69.48C34.9392 69.48 34.9392 69.48 34.9392 69.47C34.9392 69.47 34.9392 69.47 34.9392 69.46C34.9392 69.46 34.9392 69.46 34.9392 69.45C34.9392 69.45 34.9392 69.45 34.9392 69.44C34.9392 69.44 34.9392 69.44 34.9392 69.43C34.9392 69.43 34.9392 69.43 34.9392 69.42C34.9392 69.42 34.9392 69.42 34.9392 69.41C34.9392 69.41 34.9392 69.41 34.9392 69.4V69.38C34.9392 69.38 34.9392 69.38 34.9392 69.37V69.36V69.34C34.9392 69.34 34.9392 69.34 34.9392 69.33C34.9392 69.33 34.9392 69.33 34.9392 69.32C34.9392 69.32 34.9392 69.32 34.9392 69.31C34.9392 69.31 34.9392 69.31 34.9392 69.3C34.9392 69.3 34.9392 69.3 34.9392 69.29C34.9392 69.29 34.9392 69.29 34.9392 69.28C34.9392 69.28 34.9392 69.27 34.9392 69.26C34.9392 69.26 34.9392 69.25 34.9392 69.24C34.9392 69.24 34.9392 69.23 34.9392 69.22C34.9392 69.22 34.9392 69.22 34.9392 69.21C34.9392 69.21 34.9392 69.21 34.9392 69.2C34.9392 69.2 34.9392 69.19 34.9392 69.18V69.17C34.9392 69.17 34.9392 69.16 34.9392 69.15C34.9392 69.15 34.9392 69.15 34.9392 69.14C34.9392 69.14 34.9392 69.13 34.9392 69.12C34.9392 69.12 34.9392 69.11 34.9392 69.1C34.9392 69.1 34.9392 69.09 34.9392 69.08C34.9392 69.08 34.9392 69.07 34.9392 69.06C34.9392 69.06 34.9392 69.05 34.9392 69.04C34.9392 69.04 34.9392 69.03 34.9392 69.02C34.9392 69.02 34.9392 69.02 34.9392 69.01C34.9392 69.01 34.9392 69 34.9392 68.99C34.9392 68.99 34.9392 68.98 34.9392 68.97C34.9392 68.97 34.9392 68.96 34.9392 68.95C34.9392 68.95 34.9392 68.95 34.9392 68.94C34.9392 68.94 34.9392 68.93 34.9392 68.92C34.9392 68.92 34.9392 68.91 34.9392 68.9C34.9392 68.9 34.9392 68.89 34.9392 68.88C34.9392 68.88 34.9392 68.87 34.9392 68.86C34.9392 68.86 34.9392 68.86 34.9392 68.85C34.9392 68.85 34.9392 68.85 34.9392 68.84C34.9392 68.84 34.9392 68.83 34.9392 68.82C34.9392 68.82 34.9392 68.82 34.9392 68.81C34.9392 68.81 34.9392 68.8 34.9392 68.79C34.9392 68.79 34.9392 68.78 34.9392 68.77V68.75V68.73C34.9392 68.73 34.9392 68.72 34.9392 68.71C34.9392 68.71 34.9392 68.69 34.9392 68.68C34.9392 68.68 34.9392 68.67 34.9392 68.66C34.9392 68.66 34.9392 68.64 34.9392 68.63C34.9392 68.63 34.9392 68.62 34.9392 68.61C35.0492 68 35.1892 67.4 35.3592 66.81L33.9292 66.4L33.9992 62.83ZM35.7692 74.93L34.3692 75.42C34.4992 75.8 34.6492 76.17 34.7992 76.54L36.1692 75.97C36.1692 75.97 36.1692 75.96 36.1692 75.95C36.1692 75.95 36.1692 75.93 36.1592 75.92C36.1592 75.92 36.1592 75.9 36.1492 75.89C36.0592 75.66 35.9692 75.43 35.8892 75.19L35.7692 74.93ZM36.1692 75.98L34.7992 76.55C35.1092 77.28 35.4592 78.01 35.8492 78.71L37.1392 77.98C37.1392 77.98 37.1392 77.97 37.1392 77.96C36.7892 77.33 36.4792 76.69 36.1992 76.02L36.1692 75.98ZM39.2692 81.02L38.1392 81.98C40.7592 85.06 44.1892 87.3 48.0492 88.44L48.4692 87.02C48.4692 87.02 48.4592 87.02 48.4492 87.02C48.4492 87.02 48.4392 87.02 48.4292 87.02C48.4292 87.02 48.4292 87.02 48.4192 87.02C48.4192 87.02 48.4192 87.02 48.4092 87.02C48.4092 87.02 48.4092 87.02 48.3992 87.02C48.3992 87.02 48.3992 87.02 48.3892 87.02C48.3892 87.02 48.3892 87.02 48.3792 87.02C48.3792 87.02 48.3792 87.02 48.3692 87.02C48.3692 87.02 48.3592 87.02 48.3492 87.02C48.3492 87.02 48.3392 87.02 48.3292 87.02C48.3292 87.02 48.3192 87.02 48.3092 87.02C48.3092 87.02 48.2992 87.02 48.2892 87.02C48.2892 87.02 48.2792 87.02 48.2692 87.02C48.2692 87.02 48.2592 87.02 48.2492 87.02C48.2492 87.02 48.2392 87.02 48.2292 87.02C48.2292 87.02 48.2192 87.02 48.2092 87.02C48.2092 87.02 48.1992 87.02 48.1892 87.02C48.1892 87.02 48.1792 87.02 48.1692 87.02C48.1692 87.02 48.1592 87.02 48.1492 87.02C48.1492 87.02 48.1392 87.02 48.1292 87.02C48.1292 87.02 48.1192 87.02 48.1092 87.02C48.1092 87.02 48.0992 87.02 48.0892 87.02C48.0892 87.02 48.0792 87.02 48.0692 87.02C48.0692 87.02 48.0592 87.02 48.0492 87.02C48.0492 87.02 48.0392 87.02 48.0292 87.02C48.0292 87.02 48.0192 87.02 48.0092 87.02C48.0092 87.02 47.9992 87.02 47.9892 87.02C47.9892 87.02 47.9492 87 47.9292 87C47.9292 87 47.8992 86.99 47.8892 86.98C47.8892 86.98 47.8892 86.98 47.8792 86.98C47.8792 86.98 47.8692 86.98 47.8592 86.98C47.6492 86.9 47.4492 86.81 47.2392 86.72C47.2392 86.72 47.1992 86.7 47.1792 86.69C46.6092 86.44 46.0592 86.16 45.5292 85.85C45.5292 85.85 45.4992 85.84 45.4892 85.83C45.4892 85.83 45.4492 85.81 45.4292 85.8C45.4292 85.8 45.4192 85.8 45.4092 85.79C45.4092 85.79 45.3992 85.79 45.3892 85.78C45.3892 85.78 45.3792 85.78 45.3692 85.77C45.3692 85.77 45.3592 85.77 45.3492 85.76C45.3492 85.76 45.3392 85.76 45.3292 85.75C45.3292 85.75 45.3192 85.75 45.3092 85.74C45.3092 85.74 45.2992 85.74 45.2892 85.73C45.2892 85.73 45.2792 85.73 45.2692 85.72C45.2692 85.72 45.2592 85.72 45.2492 85.71C45.2492 85.71 45.2292 85.7 45.2092 85.69C45.2092 85.69 45.1992 85.69 45.1892 85.68C45.1892 85.68 45.1792 85.68 45.1692 85.67C45.1692 85.67 45.1592 85.67 45.1492 85.66C45.1492 85.66 45.1392 85.66 45.1292 85.65C45.1292 85.65 45.1192 85.65 45.1092 85.64C45.1092 85.64 45.0992 85.64 45.0892 85.63C45.0892 85.63 45.0792 85.63 45.0692 85.62C45.0692 85.62 45.0592 85.62 45.0492 85.61C45.0492 85.61 45.0392 85.61 45.0292 85.6C45.0292 85.6 45.0192 85.6 45.0092 85.59C45.0092 85.59 44.9992 85.59 44.9892 85.58C44.9892 85.58 44.9792 85.58 44.9692 85.57C44.9692 85.57 44.9592 85.57 44.9492 85.56C44.9492 85.56 44.9392 85.56 44.9292 85.55C44.9292 85.55 44.9192 85.55 44.9092 85.54C44.9092 85.54 44.8992 85.54 44.8892 85.53C44.8892 85.53 44.8792 85.53 44.8692 85.52C44.8692 85.52 44.8592 85.52 44.8492 85.51C44.8492 85.51 44.8392 85.51 44.8292 85.5C44.8292 85.5 44.8192 85.5 44.8092 85.49C44.8092 85.49 44.7992 85.49 44.7892 85.48C44.7892 85.48 44.7792 85.48 44.7692 85.47C44.7692 85.47 44.7592 85.47 44.7492 85.46C44.7492 85.46 44.7392 85.46 44.7292 85.45C44.7292 85.45 44.7192 85.45 44.7092 85.44C44.7092 85.44 44.6992 85.44 44.6892 85.43C44.6892 85.43 44.6792 85.43 44.6692 85.42C44.6692 85.42 44.6692 85.42 44.6592 85.42C44.6592 85.42 44.6492 85.42 44.6392 85.41C44.6392 85.41 44.6292 85.41 44.6192 85.4C44.6192 85.4 44.6092 85.4 44.5992 85.39C44.5992 85.39 44.5892 85.39 44.5792 85.38C44.5792 85.38 44.5692 85.38 44.5592 85.37C44.5592 85.37 44.5492 85.37 44.5392 85.36C44.5392 85.36 44.5292 85.36 44.5192 85.35C44.5192 85.35 44.5092 85.35 44.4992 85.34C44.4992 85.34 44.4892 85.34 44.4792 85.33C44.4792 85.33 44.4692 85.33 44.4592 85.32C44.4592 85.32 44.4492 85.32 44.4392 85.31C44.4392 85.31 44.4292 85.31 44.4192 85.3C44.4192 85.3 44.4092 85.3 44.3992 85.29C44.3992 85.29 44.3892 85.29 44.3792 85.28C44.3792 85.28 44.3692 85.28 44.3592 85.27C44.3592 85.27 44.3492 85.27 44.3392 85.26C44.3392 85.26 44.3292 85.26 44.3192 85.25C44.3192 85.25 44.2992 85.23 44.2892 85.22C44.2892 85.22 44.2792 85.22 44.2692 85.21C44.2692 85.21 44.2592 85.21 44.2492 85.2C44.2492 85.2 44.2392 85.2 44.2292 85.19C44.2292 85.19 44.1992 85.16 44.1792 85.15C43.3392 84.44 42.5492 83.67 41.8392 82.83L39.2692 81.02ZM49.1792 87.22L48.8092 88.66C49.1992 88.76 49.5892 88.85 49.9792 88.92L50.2592 87.46C50.1192 87.43 49.9892 87.41 49.8492 87.38C49.8492 87.38 49.8292 87.38 49.8092 87.38C49.8092 87.38 49.8092 87.38 49.7992 87.38C49.7992 87.38 49.7892 87.38 49.7792 87.38C49.7792 87.38 49.7592 87.38 49.7492 87.38C49.7392 87.38 49.7192 87.38 49.7092 87.38C49.6992 87.38 49.6892 87.38 49.6792 87.38C49.6792 87.38 49.6692 87.38 49.6592 87.38C49.6592 87.38 49.6492 87.38 49.6392 87.38C49.6392 87.38 49.6292 87.38 49.6192 87.38C49.5692 87.37 49.5192 87.35 49.4592 87.34L49.1792 87.22ZM50.2792 87.47L49.9992 88.93C50.7792 89.08 51.5792 89.19 52.3792 89.25L52.4892 87.77C52.4892 87.77 52.4792 87.77 52.4692 87.77C52.4592 87.77 52.4492 87.77 52.4292 87.77C52.4292 87.77 52.3992 87.77 52.3892 87.77C52.2592 87.76 52.1192 87.74 51.9892 87.73C51.9892 87.73 51.9592 87.73 51.9392 87.73C51.9392 87.73 51.9192 87.73 51.8992 87.73C51.8992 87.73 51.8792 87.73 51.8692 87.73C51.8692 87.73 51.8592 87.73 51.8492 87.73C51.8492 87.73 51.8292 87.73 51.8192 87.73C51.8092 87.73 51.7992 87.73 51.7892 87.73C51.4292 87.68 51.0692 87.62 50.7092 87.55L50.2792 87.47ZM66.2792 83.35C66.2792 83.35 66.2692 83.35 66.2592 83.36C66.2592 83.36 66.2492 83.36 66.2392 83.37C66.2392 83.37 66.2292 83.37 66.2192 83.38C66.2192 83.38 66.2092 83.38 66.1992 83.39C66.1992 83.39 66.1892 83.39 66.1792 83.4C66.1792 83.4 66.1692 83.4 66.1592 83.41C66.1592 83.41 66.1492 83.41 66.1392 83.42C66.1392 83.42 66.1292 83.42 66.1192 83.43C66.1192 83.43 66.0792 83.46 66.0592 83.48C66.0592 83.48 66.0492 83.48 66.0392 83.49C66.0392 83.49 66.0292 83.49 66.0192 83.5C63.3492 85.53 60.1292 86.88 56.6192 87.28L56.7892 88.76C60.7992 88.3 64.5492 86.68 67.6592 84.09L66.7092 82.95L66.2792 83.35ZM67.6492 82.09C67.6492 82.09 67.6492 82.09 67.6392 82.1C67.6392 82.1 67.6392 82.1 67.6292 82.11C67.6292 82.11 67.6292 82.11 67.6192 82.12C67.6192 82.12 67.6192 82.12 67.6092 82.13C67.6092 82.13 67.6092 82.13 67.5992 82.14C67.5992 82.14 67.5992 82.14 67.5892 82.15C67.5892 82.15 67.5792 82.16 67.5692 82.17C67.5692 82.17 67.5592 82.18 67.5492 82.19C67.5392 82.19 67.5292 82.21 67.5192 82.22C67.4492 82.28 67.3792 82.35 67.3092 82.41L68.2992 83.51C68.5992 83.24 68.8892 82.97 69.1692 82.68L68.1092 81.64L67.6492 82.09ZM69.1292 80.41C69.1292 80.41 69.0592 80.5 69.0292 80.54C69.0292 80.54 69.0292 80.54 69.0192 80.55C69.0192 80.55 69.0092 80.57 68.9992 80.57C68.6092 81.05 68.1992 81.5 67.7692 81.94L68.8292 82.98C69.3892 82.41 69.9192 81.81 70.4092 81.18L69.2392 80.26L69.1292 80.41ZM74.5792 66.32L73.0992 66.48C73.0992 66.48 73.0992 66.53 73.0992 66.56C73.1392 66.99 73.1692 67.41 73.1792 67.85C73.1792 67.85 73.1792 67.94 73.1792 67.98C73.1792 67.98 73.1792 68.01 73.1792 68.02C73.1792 68.02 73.1792 68.03 73.1792 68.04V68.05V68.06C73.1792 68.06 73.1792 68.07 73.1792 68.08V68.1V68.12V68.14V68.15C73.1792 68.15 73.1792 68.16 73.1792 68.17V68.18C73.1792 68.18 73.1792 68.18 73.1792 68.19C73.1792 68.19 73.1792 68.2 73.1792 68.21C73.1792 68.21 73.1792 68.22 73.1792 68.23C73.1792 68.23 73.1792 68.24 73.1792 68.25C73.1792 68.25 73.1792 68.27 73.1792 68.28C73.1792 68.28 73.1792 68.29 73.1792 68.3C73.1792 68.3 73.1792 68.32 73.1792 68.33C73.1792 68.33 73.1792 68.34 73.1792 68.35C73.1792 68.35 73.1792 68.37 73.1792 68.38C73.1792 68.38 73.1792 68.39 73.1792 68.4C73.1792 68.4 73.1792 68.42 73.1792 68.43C73.1792 68.43 73.1792 68.45 73.1792 68.46C73.1792 68.46 73.1792 68.48 73.1792 68.49C73.1792 68.49 73.1792 68.51 73.1792 68.52C73.1792 68.53 73.1792 68.54 73.1792 68.56C73.1792 68.56 73.1792 68.58 73.1792 68.59C73.1792 68.6 73.1792 68.61 73.1792 68.63C73.1792 68.64 73.1792 68.65 73.1792 68.67C73.1792 68.68 73.1792 68.69 73.1792 68.71C73.1792 68.71 73.1792 68.74 73.1792 68.75C73.1792 68.75 73.1792 68.77 73.1792 68.79C73.1792 68.8 73.1792 68.81 73.1792 68.83C73.1792 68.84 73.1792 68.85 73.1792 68.87C73.1792 68.87 73.1792 68.9 73.1792 68.91C73.1792 68.91 73.1792 68.98 73.1692 69.01C73.1692 69.01 73.1692 69.03 73.1692 69.05C73.1692 69.05 73.1692 69.09 73.1692 69.1C73.0492 70.21 72.8292 71.29 72.5192 72.34C72.5192 72.34 72.5192 72.37 72.5092 72.39C72.5092 72.39 72.4892 72.45 72.4892 72.47C72.4892 72.47 72.4892 72.49 72.4792 72.5C72.4792 72.5 72.4792 72.52 72.4692 72.53V72.55V72.57C72.4692 72.57 72.4692 72.59 72.4592 72.6C72.4592 72.6 72.4592 72.61 72.4592 72.62C72.4592 72.62 72.4592 72.63 72.4592 72.64C72.4592 72.64 72.4592 72.64 72.4592 72.65C72.4592 72.65 72.4592 72.66 72.4592 72.67C72.4592 72.67 72.4592 72.69 72.4592 72.7C72.4592 72.7 72.4592 72.72 72.4592 72.73C72.4592 72.73 72.4592 72.75 72.4592 72.76C72.1792 73.56 71.8392 74.34 71.4592 75.09L72.7792 75.76C74.2792 72.83 75.0292 69.66 75.0292 66.35C75.0292 65.61 74.9892 64.86 74.9092 64.13L74.5792 66.32ZM74.2692 64.34L72.8192 64.64C72.8392 64.75 72.8692 64.87 72.8892 64.98C72.8892 64.98 72.8892 64.99 72.8892 65V65.02C72.9092 65.15 72.9292 65.28 72.9492 65.42L74.4192 65.21C74.3592 64.82 74.2892 64.42 74.2092 64.03L74.2692 64.34ZM73.6492 62.01L72.2392 62.48C72.2892 62.63 72.3392 62.79 72.3892 62.94V62.96C72.3892 62.96 72.3892 62.96 72.3892 62.97C72.3892 62.97 72.3892 62.97 72.3892 62.98C72.3892 62.98 72.3892 63 72.3892 63.01C72.3892 63.01 72.3892 63.03 72.3892 63.04C72.3892 63.04 72.3892 63.06 72.3892 63.07C72.3892 63.07 72.3892 63.08 72.3892 63.09C72.3892 63.09 72.3892 63.1 72.3892 63.11C72.3892 63.11 72.3892 63.12 72.3892 63.13C72.3892 63.13 72.3892 63.13 72.3892 63.14C72.3892 63.14 72.3892 63.15 72.3892 63.16C72.3892 63.17 72.3892 63.19 72.3992 63.2C72.4692 63.49 72.5392 63.79 72.5992 64.09L74.0492 63.79C73.8892 63.01 73.6792 62.23 73.4292 61.47L73.6492 62.01ZM63.5292 50.13L62.8392 51.45C63.8892 52 64.8792 52.64 65.7992 53.36C65.7992 53.36 65.8092 53.36 65.8192 53.37C65.8192 53.37 65.8292 53.37 65.8392 53.38C65.8392 53.38 65.8492 53.38 65.8592 53.39C65.8592 53.39 65.8692 53.39 65.8792 53.4C65.8792 53.4 65.8892 53.4 65.8992 53.41C65.8992 53.41 65.9092 53.41 65.9192 53.42C65.9192 53.42 65.9292 53.42 65.9392 53.43C65.9392 53.43 65.9392 53.43 65.9592 53.44C65.9592 53.44 65.9592 53.44 65.9692 53.45C65.9692 53.45 65.9792 53.45 65.9892 53.46C65.9892 53.46 65.9992 53.46 66.0092 53.47C66.0092 53.47 66.0192 53.47 66.0292 53.48C66.0292 53.48 66.0392 53.49 66.0492 53.49C67.6492 54.91 69.0092 56.59 70.0692 58.46L71.3592 57.73C69.3792 54.21 66.4392 51.37 62.8592 49.5L63.5292 50.13ZM61.7092 49.29L61.1492 50.67C61.4092 50.78 61.6692 50.89 61.9192 51C61.9192 51 61.9392 51 61.9492 51.01C61.9492 51.01 61.9492 51.01 61.9592 51.01C61.9592 51.01 61.9592 51.01 61.9792 51.01C61.9792 51.01 61.9992 51.01 61.9992 51.02L62.6392 49.68C62.2792 49.51 61.9092 49.35 61.5392 49.2L61.7092 49.29ZM59.4192 48.52L59.0292 49.95C59.7092 50.14 60.3692 50.36 61.0092 50.61C61.0092 50.61 61.0292 50.61 61.0392 50.62C61.0392 50.62 61.0492 50.62 61.0592 50.62L61.6192 49.24C60.8792 48.94 60.1192 48.68 59.3492 48.47L59.4192 48.52ZM53.9292 47.79V49.28H53.9392H53.9492C53.9492 49.28 53.9492 49.28 53.9592 49.28C53.9592 49.28 53.9592 49.28 53.9692 49.28C53.9692 49.28 53.9692 49.28 53.9792 49.28C53.9792 49.28 53.9792 49.28 53.9892 49.28C53.9892 49.28 53.9992 49.28 54.0092 49.28C54.0092 49.28 54.0192 49.28 54.0292 49.28C54.0292 49.28 54.0392 49.28 54.0492 49.28C54.2492 49.28 54.4492 49.29 54.6392 49.3C54.6392 49.3 54.6492 49.3 54.6592 49.3C54.6592 49.3 54.6692 49.3 54.6792 49.3C54.6792 49.3 54.6792 49.3 54.6892 49.3C54.6892 49.3 54.6892 49.3 54.6992 49.3C54.7592 49.3 54.8292 49.3 54.8892 49.31L54.9992 47.83C54.4892 47.79 53.9692 47.77 53.4492 47.77L53.9292 47.79Z" fill="white"/>
<path id="Vector_11" d="M81.6193 68.5701C81.6193 83.8501 69.2293 96.2401 53.9493 96.2401C38.6693 96.2401 26.2793 83.8501 26.2793 68.5701" stroke="white" stroke-width="2" stroke-miterlimit="10"/>
<path id="Vector_12" d="M84.0193 39.04C74.2293 44.93 62.7593 48.31 50.4993 48.31C41.9393 48.31 33.7693 46.66 26.2793 43.66" stroke="white" stroke-width="2" stroke-miterlimit="10"/>
<path id="Vector_13" d="M58.3865 69.6115C58.965 67.1604 57.447 64.7045 54.9959 64.1259C52.5448 63.5474 50.0889 65.0655 49.5104 67.5165C48.9319 69.9676 50.4499 72.4236 52.9009 73.0021C55.352 73.5806 57.808 72.0626 58.3865 69.6115Z" fill="white"/>
<path id="Vector_14" d="M53.9498 34.25C54.9771 34.25 55.8098 33.4173 55.8098 32.39C55.8098 31.3628 54.9771 30.53 53.9498 30.53C52.9226 30.53 52.0898 31.3628 52.0898 32.39C52.0898 33.4173 52.9226 34.25 53.9498 34.25Z" fill="white"/>
<path id="Vector_15" d="M17.3301 70.3001L32.1601 67.4001" stroke="white" stroke-width="2" stroke-miterlimit="10"/>
</g>
<path id="Vector_16" opacity="0.13" d="M72.1597 68.57C72.1597 64.74 70.9697 61.18 68.9397 58.24C69.1997 58.86 69.3497 59.92 69.4497 60.28C69.9897 62.35 70.3097 64.49 70.3397 66.63C70.5197 76.88 63.3697 84.86 53.6797 86.76C53.7697 86.76 53.8597 86.76 53.9497 86.76C63.9897 86.76 72.1597 78.59 72.1597 68.55V68.57Z" fill="#4D4D4F"/>
<path id="Vector_17" opacity="0.13" d="M64.4105 24.5601C65.0305 26.0201 65.5005 27.5501 65.7605 29.1201C67.0605 36.9401 62.2405 43.8301 54.8105 45.9901C61.9305 45.5501 67.5805 39.6201 67.5805 32.3901C67.5805 28.7201 66.1205 25.3901 63.7605 22.9401C63.6505 22.8801 63.5705 22.8501 63.5705 22.8501C63.9305 23.0301 64.2705 24.2301 64.4105 24.5701V24.5601Z" fill="#4D4D4F"/>
</g>
</g>
<defs>
<clipPath id="clip0_1039_345">
<rect width="111.66" height="111.66" fill="white"/>
</clipPath>
</defs>
</svg>
