<svg width="111" height="111" viewBox="0 0 111 111" fill="none" xmlns="http://www.w3.org/2000/svg">
<g clip-path="url(#clip0_1046_512)">
<path d="M4.36405 111H0V106.626H1.68995V109.31H4.36405V111Z" fill="white"/>
<path d="M1.68995 99.8165H0V92.997H1.68995V99.8165ZM1.68995 86.1775H0V79.3581H1.68995V86.1775ZM1.68995 72.5386H0V65.7192H1.68995V72.5386ZM1.68995 58.8997H0V52.0803H1.68995V58.8997ZM1.68995 45.2608H0V38.4414H1.68995V45.2608ZM1.68995 31.6219H0V24.8025H1.68995V31.6219ZM1.68995 17.983H0V11.1636H1.68995V17.983Z" fill="white"/>
<path d="M1.68995 4.36405H0V0H4.36405V1.68995H1.68995V4.36405Z" fill="white"/>
<path d="M99.8169 1.68995H92.9975V0H99.8169V1.68995ZM86.178 1.68995H79.3586V0H86.178V1.68995ZM72.5391 1.68995H65.7197V0H72.5391V1.68995ZM58.9002 1.68995H52.0808V0H58.9002V1.68995ZM45.2613 1.68995H38.4419V0H45.2613V1.68995ZM31.6224 1.68995H24.803V0H31.6224V1.68995ZM17.9835 1.68995H11.1641V0H17.9835V1.68995Z" fill="white"/>
<path d="M111.001 4.36405H109.311V1.68995H106.627V0H111.001V4.36405Z" fill="white"/>
<path d="M76.307 111H70.0741V109.31H76.307C76.655 109.31 77.0029 109.31 77.3508 109.29L77.4005 110.98C77.0426 110.99 76.6748 111 76.307 111ZM62.7775 111H55.4809V109.31H62.7775V111ZM48.1842 111H40.8876V109.31H48.1842V111ZM33.591 111H26.2944V109.31H33.591V111ZM18.9978 111H11.7012V109.31H18.9978V111ZM84.7965 109.956L84.379 108.316C86.6754 107.739 88.9121 106.904 91.0394 105.851L91.7949 107.362C89.5682 108.475 87.2122 109.35 84.7965 109.956ZM98.0676 103.326L97.004 102.013C98.843 100.532 100.533 98.8423 102.024 96.9933L103.346 98.057C101.786 99.9955 100.006 101.775 98.0676 103.336V103.326ZM107.372 91.7644L105.861 91.0089C106.915 88.8915 107.75 86.6449 108.327 84.3485L109.967 84.7561C109.36 87.1717 108.496 89.5277 107.382 91.7644H107.372ZM110.981 77.37L109.291 77.3203C109.301 76.9823 109.311 76.6543 109.311 76.3163V70.0535H111.001V76.3163C111.001 76.6741 111.001 77.0221 110.981 77.37ZM111.001 62.747H109.311V55.4503H111.001V62.747ZM111.001 48.1537H109.311V40.8571H111.001V48.1537ZM111.001 33.5605H109.311V26.2639H111.001V33.5605ZM111.001 18.9673H109.311V11.6707H111.001V18.9673Z" fill="white"/>
<g clip-path="url(#clip1_1046_512)">
<path d="M14.6914 71.5152C14.6914 59.1081 14.6914 46.701 14.6914 34.2939C14.748 34.1242 14.8108 33.9578 14.8582 33.7866C15.5423 31.2942 17.117 29.7535 19.5701 29.1708C19.9573 29.0782 20.3628 29.0656 20.8035 29.0106C20.8035 28.6431 20.802 28.3322 20.8035 28.0212C20.8296 24.5205 23.2521 21.9951 26.6754 21.9213C27.8477 21.8962 29.0214 21.8977 30.1937 21.9244C30.642 21.9354 30.8456 21.7988 31.0109 21.3433C31.7852 19.2184 33.5634 17.9777 35.7794 17.9636C37.6923 17.951 39.6052 17.9557 41.5166 17.9636C42.3736 17.9667 42.8571 18.3907 42.8724 19.11C42.8878 19.8608 42.3889 20.3099 41.4967 20.3146C39.7368 20.3225 37.9769 20.3162 36.217 20.3178C33.9996 20.3178 32.9804 21.3512 32.9789 23.6127C32.9758 28.2191 32.9789 32.8254 32.9789 37.4318C32.9789 37.7129 32.9789 37.994 32.9789 38.3003H74.7554V37.4569C74.7554 32.8505 74.7569 28.2442 74.7554 23.6379C74.7538 21.359 73.7423 20.3178 71.5417 20.3178C63.3559 20.3178 55.1687 20.3178 46.9829 20.3178C46.7274 20.3178 46.4687 20.3413 46.2193 20.3005C45.5765 20.1953 45.1986 19.7775 45.2077 19.1242C45.2169 18.4724 45.6041 18.0688 46.2499 17.9746C46.3999 17.9526 46.556 17.9636 46.709 17.9636C55.0998 17.9636 63.4891 17.9604 71.8799 17.9651C74.1922 17.9667 75.9245 19.1839 76.757 21.4171C76.9039 21.8129 77.0784 21.9307 77.4656 21.9244C78.6638 21.904 79.8636 21.8977 81.0619 21.9229C84.4821 21.9967 86.9047 24.5205 86.9337 28.0228C86.9368 28.3526 86.9337 28.6808 86.9337 29.0263C87.1878 29.0562 87.3362 29.0766 87.4847 29.0923C89.9424 29.3451 91.6426 30.655 92.6082 32.9746C92.7857 33.4018 92.9005 33.8557 93.0459 34.297V71.5184C93.0046 71.5812 92.9449 71.6393 92.9265 71.7084C92.0649 75.0034 89.9225 76.7011 86.6047 76.7058C83.7751 76.7089 80.9456 76.7058 78.116 76.7058C77.7915 76.7058 77.4656 76.7058 77.0539 76.7058C77.0539 77.0969 77.0539 77.4031 77.0539 77.7094C77.0539 80.9007 77.0631 84.092 77.0509 87.2833C77.0386 90.8672 74.9099 93.0424 71.4177 93.0439C59.7183 93.0471 48.0174 93.0471 36.318 93.0439C32.8289 93.0439 30.6956 90.8641 30.6849 87.2848C30.6742 84.0935 30.6818 80.9022 30.6818 77.7109C30.6818 77.4047 30.6818 77.0984 30.6818 76.7058C30.3207 76.7058 30.0467 76.7058 29.7728 76.7058C26.7902 76.7058 23.8076 76.7184 20.8265 76.7011C17.8531 76.6838 15.5668 74.8212 14.8383 71.8623C14.8092 71.7414 14.7419 71.6315 14.6929 71.5168L14.6914 71.5152ZM77.0524 31.4669C77.0524 34.0928 77.0585 36.6308 77.0493 39.1672C77.0447 40.3231 76.6499 40.7189 75.5205 40.7189C61.0864 40.722 46.6508 40.722 32.2168 40.7189C31.0843 40.7189 30.691 40.3247 30.6864 39.1703C30.6757 36.8931 30.6849 34.6158 30.6818 32.3386C30.6818 32.0606 30.6573 31.781 30.642 31.4638C30.3574 31.4496 30.1324 31.4277 29.9075 31.4277C26.9233 31.4261 23.9392 31.4198 20.9566 31.4277C18.5234 31.4339 16.9915 33.0045 16.99 35.4984C16.9869 47.0936 16.9854 58.6872 16.99 70.2824C16.99 72.7528 18.5509 74.339 20.9765 74.3437C23.9606 74.3516 26.9448 74.3469 29.9274 74.3437C30.1508 74.3437 30.3758 74.3202 30.6298 74.306V54.0699C30.3023 54.0699 30.0269 54.0699 29.7529 54.0699C27.661 54.0699 25.5705 54.0777 23.4786 54.0652C22.643 54.0604 22.1395 53.6003 22.1303 52.8951C22.1212 52.1758 22.6124 51.7345 23.4495 51.7157C23.6025 51.7125 23.7556 51.7157 23.9086 51.7157C43.8779 51.7157 63.8472 51.7157 83.8149 51.7157C84.095 51.7157 84.3811 51.6921 84.6551 51.7392C85.1907 51.8303 85.5182 52.1727 85.584 52.7334C85.6483 53.2878 85.4371 53.7275 84.9259 53.9317C84.652 54.0416 84.3306 54.0652 84.0307 54.0667C81.9908 54.0777 79.9508 54.073 77.9094 54.073H77.0906V74.3092C77.3508 74.3249 77.5758 74.3485 77.7992 74.3485C80.8078 74.3516 83.818 74.3579 86.8266 74.3485C89.1833 74.339 90.7412 72.7277 90.7427 70.2918C90.7473 58.6966 90.7473 47.103 90.7427 35.5079C90.7427 33.0139 89.2078 31.4386 86.7807 31.4324C83.7966 31.4245 80.8124 31.4292 77.8298 31.4324C77.6048 31.4324 77.3814 31.4528 77.0493 31.4701L77.0524 31.4669ZM74.7232 54.1374H33.0615V76.4278C33.7792 75.6473 34.3225 75.0254 34.8994 74.438C39.1369 70.1238 45.5199 70.1269 49.7697 74.4474C50.6527 75.3457 51.5081 76.2723 52.4171 77.2272C54.1449 75.4525 55.793 73.7422 57.458 72.0508C62.1087 67.3235 69.3395 67.2842 74.0438 71.9518C74.2289 72.1356 74.4263 72.3083 74.7248 72.5879V54.139L74.7232 54.1374ZM42.5342 90.6882C43.0025 90.6882 43.226 90.6882 43.4494 90.6882C52.7829 90.6882 62.1164 90.6882 71.4514 90.6882C73.6321 90.6882 74.7477 89.548 74.7538 87.31C74.7615 84.6668 74.7615 82.0236 74.7538 79.3804C74.7508 78.2575 75.0079 77.0089 74.6161 76.0462C74.2228 75.0835 73.1791 74.3909 72.3971 73.604C68.6539 69.8442 62.8448 69.8819 59.1322 73.6826C56.1175 76.7702 53.1058 79.8594 50.088 82.9439C49.4498 83.5957 48.7749 83.6711 48.2761 83.1795C47.7328 82.644 47.7925 81.9702 48.475 81.2713C49.2493 80.4782 50.0421 79.7039 50.8011 78.9469C49.7375 77.8225 48.7948 76.7184 47.745 75.7368C44.6277 72.8219 40.0169 72.8329 36.9011 75.7572C35.66 76.9225 34.4954 78.1727 33.314 79.4024C33.1518 79.572 32.9972 79.8437 32.9957 80.0699C32.9789 82.6864 32.9437 85.3044 33.0156 87.9209C33.06 89.537 34.2934 90.6489 35.8865 90.6819C36.8292 90.7007 37.7764 90.7243 38.7161 90.6678C39.0543 90.6473 39.4537 90.4809 39.697 90.2421C40.9152 89.0517 42.0905 87.8141 43.2826 86.5938C43.8595 86.0017 44.4227 85.3939 45.0226 84.827C45.523 84.3543 46.1673 84.3637 46.611 84.7909C47.087 85.2479 47.1023 85.9075 46.6355 86.476C46.4718 86.6755 46.282 86.853 46.1014 87.0383C44.9675 88.1989 43.8335 89.3595 42.5342 90.6913V90.6882ZM23.145 29.0263H30.6727C30.6727 27.528 30.6864 26.0737 30.6482 24.621C30.6451 24.5001 30.3023 24.2928 30.1126 24.2881C28.9174 24.2582 27.7191 24.2535 26.5239 24.2849C25.6027 24.3085 24.7885 24.654 24.1228 25.3277C23.1205 26.3454 22.9904 27.6081 23.1434 29.0263H23.145ZM84.5403 29.0719C84.9382 26.6862 83.896 24.6948 81.9296 24.4294C80.364 24.219 78.748 24.387 77.0631 24.387C77.0631 25.8162 77.0493 27.2705 77.0876 28.7248C77.0907 28.8457 77.435 29.0483 77.6278 29.0562C78.569 29.0907 79.5101 29.0719 80.4528 29.0719C81.8209 29.0719 83.189 29.0719 84.5403 29.0719Z" fill="white"/>
<path d="M83.5158 40.9044C81.6549 40.9044 80.1766 39.3794 80.1797 37.4649C80.1828 35.5693 81.6947 34.0145 83.5311 34.0208C85.3629 34.0271 86.8933 35.6054 86.8887 37.4775C86.8825 39.3668 85.369 40.9044 83.5173 40.9028L83.5158 40.9044ZM83.5082 38.5439C84.0927 38.5517 84.587 38.0554 84.584 37.4681C84.5809 36.8823 84.0667 36.342 83.502 36.3923C82.9037 36.4472 82.5165 36.7849 82.4828 37.4367C82.4522 38.0507 82.9129 38.536 83.5082 38.5439Z" fill="white"/>
<path d="M83.563 42.1481C85.3963 42.167 86.9175 43.7626 86.8853 45.6331C86.8532 47.5162 85.3014 49.0678 83.4788 49.0411C81.6347 49.0144 80.161 47.4549 80.1779 45.5467C80.1932 43.648 81.7067 42.1293 83.563 42.1481ZM83.5523 46.6791C84.1261 46.6587 84.6112 46.1215 84.5806 45.5405C84.55 44.9531 84.0205 44.4474 83.4543 44.5165C82.8468 44.5903 82.4902 44.9546 82.481 45.6033C82.4718 46.2001 82.983 46.7011 83.5523 46.6806V46.6791Z" fill="white"/>
<path d="M50.8214 62.6278C50.7999 65.4077 48.6009 67.6174 45.8723 67.6032C43.133 67.5891 40.9706 65.304 41.0043 62.4645C41.038 59.6988 43.26 57.5001 45.9932 57.5283C48.6957 57.5566 50.8413 59.8229 50.8214 62.6278ZM45.8799 65.2475C47.3475 65.2616 48.5121 64.0963 48.5259 62.6011C48.5396 61.0934 47.4057 59.8983 45.9473 59.8841C44.4843 59.87 43.3136 61.04 43.2998 62.532C43.286 64.035 44.4261 65.2333 45.8799 65.2475Z" fill="white"/>
</g>
</g>
<defs>
<clipPath id="clip0_1046_512">
<rect width="111" height="111" fill="white"/>
</clipPath>
<clipPath id="clip1_1046_512">
<rect width="78.3529" height="75.0882" fill="white" transform="translate(14.6914 17.9558)"/>
</clipPath>
</defs>
</svg>
