<svg width="56" height="56" viewBox="0 0 56 56" fill="none" xmlns="http://www.w3.org/2000/svg">
<g id="Group">
<path id="Vector" d="M28.1624 55.095C43.4183 55.095 55.7857 42.7879 55.7857 27.6064C55.7857 12.4248 43.4183 0.117676 28.1624 0.117676C12.9065 0.117676 0.539185 12.4248 0.539185 27.6064C0.539185 42.7879 12.9065 55.095 28.1624 55.095Z" fill="#027BB5"/>
<path id="Vector_2" d="M31.5823 21.1482C32.2968 19.1374 33.923 18.4967 35.8209 18.2523C37.2201 18.0709 38.6156 18.0635 40.0073 18.3449C42.2439 18.7967 43.7845 20.0817 44.659 22.174C45.2767 23.6516 45.6005 25.2106 45.6265 26.7881C45.7158 31.9652 45.7196 37.1422 45.7679 42.323C45.7679 42.6933 45.6526 42.8488 45.2618 42.8451C43.23 42.834 41.2019 42.8266 39.1701 42.8451C38.6119 42.8525 38.664 42.5081 38.664 42.1563C38.664 37.7866 38.6714 33.4131 38.6565 29.0434C38.6565 28.4805 38.5858 27.9028 38.4481 27.3584C38.1914 26.3586 37.5141 25.7142 36.5205 25.4106C35.6311 25.1402 34.738 25.1328 33.8449 25.3735C32.427 25.755 31.653 26.8326 31.6009 28.536C31.5711 29.51 31.5898 30.4839 31.5898 31.4579C31.5898 34.9833 31.5898 38.5087 31.5898 42.0378C31.5898 42.8414 31.5898 42.8414 30.7636 42.8414C28.8806 42.8414 26.9977 42.8266 25.1147 42.8488C24.6309 42.8562 24.4783 42.7044 24.4821 42.2193C24.4932 34.3945 24.4932 26.5697 24.4821 18.7485C24.4821 18.256 24.6495 18.1227 25.1221 18.1264C27.0795 18.1486 29.0332 18.1449 30.9906 18.1264C31.4446 18.1227 31.6158 18.2634 31.5972 18.7226C31.5674 19.5299 31.5898 20.3372 31.5898 21.1445L31.5823 21.1482Z" fill="white"/>
<path id="Vector_3" d="M20.9468 30.5469C20.9468 34.4056 20.9468 38.2606 20.9468 42.1193C20.9468 42.8414 20.9431 42.8415 20.2063 42.8452C18.3047 42.8452 16.4031 42.8303 14.5015 42.8563C14.0028 42.8637 13.8354 42.7118 13.8354 42.2008C13.8503 34.3945 13.8503 26.5882 13.8354 18.7819C13.8354 18.2709 14.0066 18.1264 14.5052 18.1301C16.4254 18.1524 18.3456 18.1561 20.2621 18.1301C20.7905 18.1227 20.958 18.2783 20.958 18.8115C20.9394 22.7221 20.9468 26.6363 20.9468 30.5469Z" fill="white"/>
<path id="Vector_4" d="M17.4079 9.32032C19.3764 9.32402 20.9505 10.9016 20.9468 12.8643C20.9431 14.8232 19.3578 16.3897 17.3855 16.386C15.4207 16.3823 13.8428 14.8047 13.8466 12.842C13.8503 10.8831 15.4356 9.31662 17.4079 9.32032Z" fill="white"/>
</g>
</svg>
