<svg width="152" height="81" viewBox="0 0 152 81" fill="none" xmlns="http://www.w3.org/2000/svg">
<g clip-path="url(#clip0_1_961)">
<path d="M62.5742 0L80.4868 51.77H122.888L104.804 0H62.5742Z" fill="#FCAF17"/>
<path d="M104.804 0L122.888 51.77H152V0H104.804Z" fill="#19468D"/>
<path d="M93.6044 13.8258C93.5845 13.0912 93.8006 12.3698 94.2209 11.7675C94.4219 11.4861 94.6904 11.2599 95.0017 11.1099C95.313 10.96 95.657 10.8913 96.0019 10.9098H97.2691C97.5607 10.9219 97.8432 11.0149 98.0851 11.1784C98.327 11.342 98.5188 11.5696 98.6391 11.8359C98.8137 12.5193 98.8943 13.2236 98.8788 13.9288V29.1955C98.9149 29.9762 98.7246 30.7508 98.3309 31.4256C98.1289 31.7435 97.8424 31.9986 97.5036 32.1622C97.1647 32.3259 96.787 32.3917 96.4129 32.3519C95.754 32.4026 95.0957 32.2467 94.5292 31.9059C94.211 31.6639 93.9592 31.3449 93.7975 30.9789C93.6358 30.613 93.5694 30.2117 93.6044 29.813V13.8258ZM93.6044 48.4422V35.9542C94.4231 37.5475 95.6985 38.8593 97.2669 39.7212C98.8353 40.5832 100.625 40.9559 102.407 40.7915H103.811C105.989 40.7784 108.077 39.9171 109.633 38.3899C111.235 36.039 111.94 33.1901 111.62 30.3621V12.9338C111.711 11.0983 111.526 9.25958 111.072 7.47901C110.746 6.56563 110.22 5.73701 109.533 5.0542C108.845 4.3714 108.013 3.85171 107.099 3.53357C104.816 2.61358 102.312 2.39854 99.9063 2.91606C99.0909 3.10314 98.2984 3.37921 97.5431 3.7394C96.8185 4.08892 96.1398 4.52682 95.5224 5.04311C94.6546 5.90365 93.9162 6.88588 93.3304 7.95916V3.43054H80.8635V48.7508L93.6044 48.4422Z" fill="white"/>
<path d="M127.546 13.826C127.526 13.0914 127.742 12.37 128.162 11.7677C128.363 11.4863 128.632 11.2601 128.943 11.1102C129.254 10.9602 129.598 10.8915 129.943 10.91H131.245C131.964 10.91 132.444 11.3558 132.581 11.8361C132.772 12.5163 132.853 13.2231 132.82 13.929V29.1957C132.856 29.9764 132.666 30.751 132.272 31.4258C132.07 31.7437 131.784 31.9988 131.445 32.1624C131.106 32.3261 130.728 32.3919 130.354 32.3521C129.695 32.4028 129.037 32.2469 128.471 31.9061C128.152 31.6641 127.901 31.3451 127.739 30.9791C127.577 30.6131 127.511 30.2119 127.546 29.8132V13.826ZM127.546 48.4424V35.9544C128.362 37.5419 129.632 38.8498 131.194 39.7114C132.755 40.5729 134.538 40.949 136.314 40.7916H137.752C139.932 40.7858 142.023 39.9235 143.575 38.3901C145.188 36.0437 145.905 33.1944 145.595 30.3623V12.934C145.668 11.099 145.484 9.26287 145.047 7.47922C144.71 6.56711 144.176 5.74071 143.483 5.05881C142.791 4.37691 141.956 3.85617 141.04 3.53378C139.604 2.94888 138.069 2.64601 136.519 2.64175C135.622 2.63741 134.726 2.72948 133.848 2.91627C133.04 3.0926 132.258 3.36916 131.519 3.73961C130.784 4.0891 130.093 4.52689 129.464 5.04331C128.596 5.90386 127.858 6.88609 127.272 7.95937V3.43075H114.805V48.751L127.546 48.4424Z" fill="white"/>
<path d="M80.4867 51.8386L62.5741 0H27.982L0 81H22.6733L25.8585 71.291H61.4439L55.005 51.8386H32.2974L45.2781 12.5222L64.6976 71.291H152V51.8386H80.4867Z" fill="#00A84F"/>
<path d="M65.7593 74.5156L67.8828 80.9997H152V74.5156H65.7593Z" fill="#00A84F"/>
<path d="M73.5684 67.9287H71.1709V54.9947H74.5959C75.1887 54.951 75.784 54.951 76.3768 54.9947C76.8925 55.103 77.3815 55.3129 77.8153 55.6122C78.3186 55.9576 78.7206 56.4315 78.9798 56.9846C79.2903 57.5405 79.4552 58.1659 79.4593 58.8028C79.4617 59.4323 79.3212 60.0541 79.0483 60.6212C78.809 61.1953 78.4183 61.6933 77.9181 62.062C77.4862 62.4488 76.9501 62.6995 76.3768 62.7826C75.7955 62.8279 75.2115 62.8279 74.6301 62.7826H73.6711L73.5684 67.9287ZM73.5684 60.7927H74.4931C74.921 60.7886 75.3467 60.731 75.7604 60.6212C76.1135 60.531 76.4268 60.3257 76.6509 60.0378C76.8832 59.7596 77.0052 59.4055 76.9933 59.043C77.0133 58.6771 76.8934 58.3175 76.658 58.037C76.4226 57.7566 76.0893 57.5765 75.7261 57.5334C75.3274 57.4951 74.926 57.4951 74.5274 57.5334H73.5684V60.7927Z" fill="white"/>
<path d="M80.8635 67.9287V54.9947H84.5625C85.1946 54.9877 85.8258 55.0452 86.4462 55.1662C86.9881 55.2834 87.4935 55.5307 87.919 55.8867C88.3841 56.2819 88.7581 56.7735 89.0149 57.3276C89.2573 57.8793 89.3854 58.4746 89.3917 59.0773C89.3778 59.5915 89.2854 60.1006 89.1177 60.5868C88.9443 61.0517 88.6891 61.4816 88.3642 61.8562C88.061 62.1669 87.715 62.4325 87.3367 62.6452C86.9338 62.8444 86.5083 62.9942 86.0695 63.0912L89.4944 67.8257H86.5832L83.1582 62.9197V67.8257L80.8635 67.9287ZM83.261 61.0672H84.5282C84.9365 61.1344 85.353 61.1344 85.7612 61.0672C86.016 60.9972 86.2507 60.8677 86.4462 60.6897C86.6372 60.5099 86.7879 60.2916 86.8883 60.0491C86.9887 59.8066 87.0364 59.5455 87.0285 59.2831C87.0338 59.0062 86.9747 58.7319 86.8558 58.4818C86.7369 58.2317 86.5615 58.0127 86.3435 57.8423C85.9057 57.5585 85.392 57.4149 84.8707 57.4306H83.261V61.0672Z" fill="white"/>
<path d="M91.1384 67.9291V54.9951H93.5359V67.8261L91.1384 67.9291Z" fill="white"/>
<path d="M96.2415 67.9291V54.9951H98.9129L104.256 64.361V54.9951H106.653V67.8261H104.016L98.6389 58.4602V67.7917L96.2415 67.9291Z" fill="white"/>
<path d="M110.387 67.9291V57.431H108.023V54.9951H115.113V57.328H112.716V67.8261L110.387 67.9291Z" fill="white"/>
<path d="M130.697 64.4296H133.437C132.977 65.5919 132.146 66.569 131.074 67.2085C130.051 67.8707 128.866 68.2386 127.649 68.272C126.769 68.2793 125.898 68.1031 125.09 67.7546C124.282 67.4061 123.555 66.8931 122.956 66.248C122.336 65.6295 121.844 64.8944 121.508 64.0849C121.172 63.2754 120.999 62.4073 120.999 61.5307C120.999 60.654 121.172 59.786 121.508 58.9765C121.844 58.1669 122.336 57.4318 122.956 56.8134C123.544 56.2244 124.244 55.7599 125.015 55.4475C125.786 55.1351 126.612 54.9812 127.443 54.995C128.742 54.983 130.016 55.3528 131.108 56.0585C132.196 56.7197 133.038 57.7199 133.505 58.9061H130.8C130.397 58.4168 129.895 58.0191 129.327 57.7396C128.735 57.4693 128.093 57.3289 127.443 57.3279C126.886 57.3136 126.334 57.4233 125.824 57.6487C125.315 57.8741 124.862 58.2098 124.498 58.6316C124.097 59.0381 123.782 59.5207 123.57 60.0509C123.358 60.5811 123.255 61.1484 123.265 61.7193C123.26 62.2875 123.37 62.8508 123.587 63.3755C123.805 63.9001 124.126 64.3753 124.532 64.7725C124.905 65.1838 125.36 65.5123 125.867 65.7368C126.374 65.9614 126.923 66.0769 127.477 66.0763C128.08 66.0739 128.675 65.9454 129.224 65.6989C129.802 65.3886 130.304 64.9554 130.697 64.4296Z" fill="white"/>
<path d="M139.704 58.0483C140.345 58.0507 140.979 58.1826 141.567 58.4361C142.156 58.6896 142.687 59.0594 143.129 59.5235C143.607 59.9991 143.983 60.5664 144.236 61.1913C144.489 61.8162 144.614 62.4858 144.602 63.1601C144.569 64.4575 144.028 65.6899 143.095 66.5908C142.623 67.075 142.058 67.4583 141.434 67.7178C140.81 67.9772 140.14 68.1074 139.465 68.1003C138.119 68.074 136.837 67.5271 135.885 66.574C134.934 65.621 134.388 64.336 134.361 62.9886C134.348 62.3079 134.479 61.632 134.745 61.0054C135.01 60.3787 135.405 59.8154 135.903 59.352C136.412 58.8831 137.013 58.5252 137.667 58.3008C138.321 58.0764 139.015 57.9904 139.704 58.0483ZM139.704 60.2781C139.337 60.2756 138.974 60.3578 138.643 60.5183C138.294 60.6714 137.98 60.893 137.718 61.1702C137.457 61.4297 137.252 61.7403 137.117 62.0827C136.981 62.4251 136.918 62.7919 136.93 63.1601C136.926 63.9106 137.208 64.6343 137.718 65.1841C137.974 65.4517 138.283 65.6632 138.625 65.8049C138.967 65.9467 139.334 66.0157 139.704 66.0076C140.08 66.0205 140.454 65.9537 140.803 65.8118C141.151 65.67 141.465 65.456 141.725 65.1841C141.984 64.9158 142.187 64.5989 142.322 64.2514C142.457 63.9039 142.522 63.5329 142.513 63.1601C142.524 62.4082 142.241 61.6818 141.725 61.1358C141.454 60.8479 141.124 60.6222 140.757 60.4741C140.391 60.3261 139.996 60.2592 139.602 60.2781H139.704Z" fill="white"/>
<path d="M146.486 67.9291V65.6304H148.781V67.9291H146.486Z" fill="white"/>
<path d="M5.06885 13.8262V4.22015H9.9323C10.3958 4.17917 10.8623 4.25134 11.2918 4.4306C11.7213 4.60986 12.101 4.89082 12.3983 5.24934C12.7196 5.70622 12.8921 6.2515 12.8921 6.81038C12.8921 7.36927 12.7196 7.91434 12.3983 8.37122C12.1415 8.77411 11.7547 9.07679 11.3023 9.22891C11.6628 9.34188 11.9758 9.57106 12.1928 9.88076C12.4649 10.4338 12.5832 11.0501 12.5353 11.6648C12.5118 12.122 12.5118 12.5801 12.5353 13.0372C12.5367 13.1516 12.5738 13.2626 12.6413 13.3549C12.7089 13.4471 12.8035 13.5159 12.912 13.5517V13.8262H10.72C10.7005 13.5635 10.7005 13.2999 10.72 13.0372C10.6954 12.6488 10.6954 12.2591 10.72 11.8707C10.776 11.3885 10.6928 10.9004 10.4803 10.4641C10.3205 10.1897 9.87521 10.0525 9.14455 10.0525H7.08957V13.8262H5.06885ZM7.05533 8.43991H9.41855C9.83048 8.47276 10.2413 8.36395 10.583 8.13126C10.7201 8.00724 10.8258 7.85216 10.8913 7.67917C10.9568 7.50618 10.9803 7.32009 10.9598 7.13621C10.9724 6.98751 10.9546 6.83783 10.9075 6.69626C10.8604 6.5547 10.7849 6.42424 10.6858 6.31286C10.546 6.15432 10.3707 6.03127 10.1742 5.95374C9.97775 5.87622 9.76573 5.8464 9.55555 5.86684H7.05533V8.43991Z" fill="#00A84F"/>
<path d="M9.10773 18.2151C7.30296 18.2218 5.53685 17.6914 4.03341 16.6913C2.52998 15.6911 1.35697 14.2663 0.663182 12.5974C-0.0306046 10.9285 -0.213904 9.09066 0.13653 7.31724C0.486965 5.54381 1.35534 3.91472 2.63152 2.63639C3.90769 1.35806 5.53414 0.488058 7.30457 0.137032C9.07501 -0.213994 10.9096 -0.0302476 12.5757 0.664711C14.2418 1.35967 15.6643 2.53462 16.6628 4.0406C17.6612 5.54658 18.1907 7.31567 18.1839 9.12349C18.1749 11.5319 17.2157 13.8391 15.5156 15.5421C13.8154 17.2451 11.5121 18.206 9.10773 18.2151ZM9.10773 1.43864C7.59037 1.43864 6.10708 1.88933 4.84544 2.73376C3.5838 3.57818 2.60047 4.77829 2.0198 6.18252C1.43913 7.58674 1.2872 9.13205 1.58322 10.6228C1.87924 12.1135 2.60993 13.4828 3.68287 14.5575C4.7558 15.6323 6.12281 16.3642 7.61101 16.6607C9.09922 16.9572 10.6418 16.8049 12.0437 16.2233C13.4455 15.6416 14.6437 14.6566 15.4867 13.3929C16.3297 12.1291 16.7797 10.6434 16.7797 9.12349C16.7797 7.08533 15.9714 5.13064 14.5326 3.68944C13.0938 2.24825 11.1425 1.43864 9.10773 1.43864Z" fill="#00A84F"/>
</g>
<defs>
<clipPath id="clip0_1_961">
<rect width="152" height="81" fill="white"/>
</clipPath>
</defs>
</svg>
