<svg width="152" height="81" viewBox="0 0 152 81" fill="none" xmlns="http://www.w3.org/2000/svg">
<g clip-path="url(#clip0_155_426)">
<path d="M80.8513 3.28083H93.3083V7.79257C94.0305 6.53881 94.7707 5.55917 95.4974 4.8896C96.076 4.3863 96.7489 3.94591 97.5384 3.56394C98.3144 3.18646 99.1218 2.90785 99.8799 2.74608C100.66 2.57981 101.553 2.48094 102.549 2.48094C103.666 2.48094 104.751 2.63823 105.81 2.93481L104.783 0.00488281H64.7071L80.8513 46.7535V3.28083Z" fill="white"/>
<path d="M111.601 19.4893V30.481C111.601 34.404 110.955 37.0778 109.605 38.5068C108.273 39.9404 106.33 40.7313 103.778 40.893L102.37 40.9425C98.1395 40.9425 95.2103 39.3292 93.5954 36.0982V48.5998H81.4928L81.8517 49.6379H122.152L121.788 48.5998H114.791V28.5981L111.601 19.4893Z" fill="white"/>
<path d="M106.905 0L108.309 4.01293C109.654 4.86225 110.578 6.04411 111.063 7.58546C111.417 8.65049 111.601 10.4615 111.601 13.0319V13.4274L114.791 22.5362V3.28044H127.257V7.79218C127.974 6.53842 128.732 5.55878 129.45 4.88921C130.02 4.38591 130.702 3.94552 131.491 3.56355C132.263 3.18607 133.043 2.90746 133.833 2.74569C134.609 2.57942 135.497 2.48055 136.488 2.48055C138.063 2.48055 139.57 2.77265 141.028 3.36583C143.06 4.21065 144.392 5.60821 145.025 7.58996C145.379 8.65498 145.567 10.466 145.567 13.0364V30.4902C145.567 34.4132 144.899 37.087 143.567 38.516C142.235 39.9495 140.297 40.7404 137.731 40.9022L136.313 40.9516C132.083 40.9516 129.167 39.3384 127.544 36.1073V48.609H123.919L124.282 49.647H152.009V0H106.914H106.905Z" fill="white"/>
<path d="M130.325 32.6382C131.258 32.6382 131.904 32.3236 132.258 31.708C132.644 31.1148 132.801 30.3554 132.801 29.4701V14.2138C132.801 13.2926 132.734 12.596 132.577 12.1062C132.411 11.6164 131.953 11.3153 131.213 11.185L129.935 11.0547C129.127 11.0547 128.535 11.3513 128.145 11.904C127.741 12.4747 127.539 13.1533 127.539 13.9577V30.0992C127.539 31.0609 127.849 31.7619 128.468 32.1798C128.876 32.4764 129.504 32.6337 130.329 32.6337L130.325 32.6382Z" fill="white"/>
<path d="M96.3855 32.6382C97.3096 32.6382 97.9645 32.3236 98.3144 31.708C98.6778 31.1148 98.8572 30.3554 98.8572 29.4701V14.2138C98.8572 13.2926 98.772 12.596 98.6195 12.1062C98.4625 11.6164 98.0139 11.3153 97.2648 11.185L95.9953 11.0547C95.1923 11.0547 94.5868 11.3513 94.1965 11.904C93.8017 12.4747 93.5909 13.1533 93.5909 13.9577V30.0992C93.5909 31.0609 93.9004 31.7619 94.5105 32.1798C94.9366 32.4764 95.5467 32.6337 96.3811 32.6337L96.3855 32.6382Z" fill="white"/>
<path d="M65.7478 74.5156L67.8965 81.0001H152V74.5156H65.7478Z" fill="white"/>
<path d="M139.592 60.293C139.225 60.293 138.861 60.3649 138.52 60.5087C138.188 60.6659 137.883 60.8951 137.61 61.1603C137.08 61.6905 136.825 62.3601 136.825 63.1645C136.825 63.9689 137.08 64.6205 137.61 65.1732C138.143 65.7214 138.798 66.0045 139.592 66.0045C140.386 66.0045 141.073 65.7349 141.602 65.1957C142.131 64.6474 142.4 63.9734 142.4 63.1645C142.4 62.3556 142.131 61.6905 141.598 61.1288C141.05 60.5761 140.391 60.293 139.597 60.293H139.592Z" fill="white"/>
<path d="M75.7196 57.538C75.3742 57.4661 74.9705 57.4302 74.513 57.4302H73.5396V60.8005H74.4726C74.9257 60.8005 75.3473 60.7376 75.7376 60.6342C76.1323 60.5264 76.4329 60.3287 76.6482 60.05C76.868 59.7624 76.9712 59.4299 76.9712 59.0659C76.9712 58.248 76.5629 57.7313 75.7151 57.538H75.7196Z" fill="white"/>
<path d="M87.1628 59.3041C87.1628 58.6884 86.9206 58.2076 86.4586 57.8526C86.0548 57.574 85.5749 57.4302 85.0007 57.4302H83.3723V61.2184H84.6553C85.1891 61.2184 85.5883 61.178 85.8664 61.0881C86.1311 61.0027 86.3688 60.8634 86.5617 60.6971C86.952 60.3017 87.1583 59.8433 87.1583 59.3086L87.1628 59.3041Z" fill="white"/>
<path d="M80.4835 51.8359L62.5853 0.00488281H27.9732L0 81.0004H22.6576L25.8694 71.2804H61.4549L55.0134 51.8359H32.293L45.2793 12.511L64.6892 71.2804H152V51.8359H80.4835ZM78.9404 60.8414C78.6892 61.4076 78.3079 61.8884 77.7965 62.2929C77.4063 62.6389 76.8994 62.8591 76.2579 62.9894C75.8138 63.0838 75.2262 63.1287 74.5085 63.1287H73.5351V67.955H71.1487V55.1118H74.4726C75.2128 55.1118 75.8138 55.1523 76.2669 55.2197C76.7244 55.2961 77.191 55.4983 77.6799 55.8174C78.1644 56.1409 78.5591 56.5993 78.8686 57.1835C79.1692 57.7632 79.3262 58.3743 79.3262 59.0304C79.3262 59.6865 79.2006 60.2662 78.9404 60.8414ZM86.7456 67.9505L83.3768 63.0209V67.9505H80.9859V55.1073H84.6956C85.4448 55.1073 86.0728 55.1658 86.5797 55.2646C87.0776 55.3815 87.5576 55.6286 88.0241 55.9926C88.4906 56.3791 88.8495 56.8554 89.1186 57.4261C89.3833 58.0058 89.5134 58.581 89.5134 59.1697C89.5134 59.6595 89.4147 60.1628 89.2263 60.6796C89.0334 61.2009 88.7867 61.6188 88.4906 61.9603C88.1766 62.2839 87.8312 62.549 87.4499 62.7557C87.0552 62.9579 86.6335 63.0973 86.1939 63.1961L89.6569 67.9505H86.7501H86.7456ZM93.5999 67.9505H91.2045V55.1073H93.5999V67.9505ZM106.631 67.9505L103.989 67.964L98.6239 58.617V67.955H96.2375V55.1118H98.902L104.236 64.4858V55.1118H106.631V67.955V67.9505ZM115.123 57.4306H112.727V67.9505H110.372V57.4306H108.008V55.1073H115.118V57.4306H115.123ZM124.493 64.6386C125.341 65.5059 126.324 65.9373 127.463 65.9373C128.073 65.9373 128.656 65.816 129.19 65.5643C129.719 65.3127 130.213 64.9442 130.675 64.4454H133.42C132.944 65.5913 132.15 66.5125 131.034 67.2225C129.935 67.9191 128.746 68.2696 127.485 68.2696C125.669 68.2696 124.099 67.5955 122.793 66.2654C121.488 64.9397 120.837 63.3624 120.837 61.5334C120.837 59.7045 121.488 58.1361 122.775 56.824C124.067 55.5163 125.615 54.8692 127.418 54.8692C128.732 54.8692 129.957 55.2242 131.083 55.9342C132.218 56.6487 133.016 57.6014 133.487 58.7967H130.791C130.379 58.3024 129.885 57.898 129.289 57.6239C128.696 57.3363 128.073 57.1925 127.423 57.1925C126.27 57.1925 125.274 57.6328 124.466 58.4956C123.641 59.3629 123.228 60.3965 123.228 61.6053C123.228 62.8141 123.659 63.7668 124.498 64.6386H124.493ZM143.212 66.7776C142.208 67.7708 140.992 68.2696 139.588 68.2696C138.184 68.2696 137.004 67.7663 136.004 66.7597C134.994 65.7621 134.488 64.5577 134.488 63.1737C134.488 61.7896 134.99 60.5313 136.004 59.5292C137.004 58.5451 138.238 58.0463 139.696 58.0463C141.153 58.0463 142.279 58.5451 143.257 59.5382C144.235 60.5448 144.711 61.7491 144.711 63.1692C144.711 64.5892 144.213 65.78 143.212 66.7776ZM148.775 67.9505H146.451V65.6317H148.775V67.9505Z" fill="white"/>
<path d="M5.06897 13.8628V4.25677H9.93242C10.3959 4.21579 10.8624 4.28796 11.2919 4.46722C11.7214 4.64648 12.1011 4.92744 12.3984 5.28596C12.7197 5.74284 12.8922 6.28812 12.8922 6.84701C12.8922 7.40589 12.7197 7.95096 12.3984 8.40785C12.1416 8.81073 11.7548 9.11341 11.3024 9.26553C11.6629 9.3785 11.976 9.60768 12.1929 9.91738C12.465 10.4704 12.5833 11.0868 12.5354 11.7014C12.512 12.1586 12.512 12.6167 12.5354 13.0738C12.5368 13.1882 12.5739 13.2992 12.6414 13.3915C12.709 13.4837 12.8036 13.5526 12.9121 13.5883V13.8628H10.7202C10.7007 13.6002 10.7007 13.3365 10.7202 13.0738C10.6955 12.6854 10.6955 12.2957 10.7202 11.9073C10.7761 11.4251 10.6929 10.937 10.4804 10.5008C10.3206 10.2263 9.87533 10.0891 9.14467 10.0891H7.08969V13.8628H5.06897ZM7.05545 8.47653H9.41867C9.8306 8.50938 10.2414 8.40057 10.5832 8.16788C10.7202 8.04386 10.8259 7.88879 10.8914 7.71579C10.9569 7.5428 10.9804 7.35671 10.9599 7.17283C10.9725 7.02413 10.9547 6.87445 10.9076 6.73288C10.8605 6.59132 10.785 6.46087 10.6859 6.34948C10.5461 6.19094 10.3708 6.06789 10.1743 5.99037C9.97787 5.91284 9.76585 5.88303 9.55567 5.90347H7.05545V8.47653Z" fill="white"/>
<path d="M9.10773 18.2517C7.30296 18.2585 5.53685 17.728 4.03341 16.7279C2.52998 15.7278 1.35697 14.3029 0.663182 12.634C-0.0306046 10.9651 -0.213904 9.12728 0.13653 7.35386C0.486965 5.58043 1.35534 3.95134 2.63152 2.67301C3.90769 1.39468 5.53414 0.524679 7.30457 0.173653C9.07501 -0.177373 10.9096 0.00637345 12.5757 0.701332C14.2418 1.39629 15.6643 2.57125 16.6628 4.07722C17.6612 5.5832 18.1907 7.35229 18.1839 9.16011C18.1749 11.5685 17.2157 13.8757 15.5156 15.5787C13.8154 17.2818 11.5121 18.2426 9.10773 18.2517ZM9.10773 1.47526C7.59037 1.47526 6.10708 1.92595 4.84544 2.77038C3.5838 3.6148 2.60047 4.81491 2.0198 6.21914C1.43913 7.62337 1.2872 9.16867 1.58322 10.6594C1.87924 12.1501 2.60993 13.5194 3.68287 14.5942C4.7558 15.6689 6.12281 16.4008 7.61101 16.6973C9.09922 16.9939 10.6418 16.8416 12.0437 16.2599C13.4455 15.6783 14.6437 14.6933 15.4867 13.4295C16.3297 12.1657 16.7797 10.68 16.7797 9.16011C16.7797 7.12195 15.9714 5.16726 14.5326 3.72606C13.0938 2.28487 11.1425 1.47526 9.10773 1.47526Z" fill="white"/>
</g>
<defs>
<clipPath id="clip0_155_426">
<rect width="152" height="81" fill="white"/>
</clipPath>
</defs>
</svg>
