<svg width="196" height="187" viewBox="0 0 196 187" fill="none" xmlns="http://www.w3.org/2000/svg">
<path d="M50.4634 90.5658L64.1781 104.743L70.2588 95.7749L100.101 126.436L129.645 94.8848L136.651 104.446L150.068 90.2362L138.204 74.3451C136.651 72.301 133.313 72.5978 131.496 74.0484L100.134 109.061L67.8464 74.3451C64.806 72.301 62.9884 72.8945 61.7656 74.3451L50.4964 90.5329L50.4634 90.5658Z" fill="#C4882D"/>
<path d="M99.5058 0L92.7971 17.9351L99.5058 24.3311V0Z" fill="#C4882D"/>
<path d="M79.3798 54.3989L73.2991 71.4439L99.5057 98.3795V75.4991L79.3798 54.3989Z" fill="#C4882D"/>
<path d="M85.7911 37.0239L80.3052 52.0907L99.5058 72.6304V51.4973L85.7911 37.0239Z" fill="#C4882D"/>
<path d="M92.2023 19.6826L86.6833 34.7165L99.5058 48.6294V26.6391L92.2023 19.6826Z" fill="#C4882D"/>
<path d="M100.993 0L107.404 17.9351L100.993 24.3311V0Z" fill="#C4882D"/>
<path d="M120.788 54.3989L127.2 71.1801L100.993 98.3795V75.4991L120.788 54.3989Z" fill="#C4882D"/>
<path d="M114.41 36.7275L119.896 52.0911L100.993 72.334V51.4976L114.41 36.7275Z" fill="#C4882D"/>
<path d="M108.329 19.6826L113.518 34.4527L100.993 48.3327V26.3424L108.329 19.6826Z" fill="#C4882D"/>
<path d="M14.7393 141.008H24.1908C25.5458 141.008 24.8848 142.36 24.5213 143.019L22.4724 148.954C20.126 155.581 28.5531 153.932 30.2385 148.954C28.5531 147.668 28.1896 146.316 28.1896 144.965C28.1896 140.349 34.9313 140.019 34.9313 144.305C34.9313 146.613 33.9398 149.284 32.2214 150.932C27.8591 156.57 18.4075 157.888 15.3672 152.91C14.0122 151.262 14.7062 148.921 15.3672 146.316C16.0612 144.338 17.0526 143.019 14.3757 141.701C14.3757 141.701 14.3757 141.008 14.7062 141.008H14.7393Z" fill="#C4882D"/>
<path d="M38.0378 141.009H46.4649C47.1589 141.009 47.1589 141.371 46.8284 142.031L44.449 148.987C43.4576 152.614 44.449 152.317 45.4735 152.614C45.8039 152.614 45.8039 152.943 45.4735 153.306C44.7795 154.295 43.094 155.284 41.4417 155.944C38.4013 156.603 36.0219 154.295 36.3854 151.295C36.7159 149.976 37.0133 148.328 38.0378 146.646C38.6987 144.338 39.7232 143.02 37.7073 141.998C37.7073 141.668 37.7073 141.371 38.0378 140.976V141.009Z" fill="#C4882D"/>
<path d="M52.8761 141.008H60.3118C61.3363 141.371 60.9728 141.701 60.9728 142.03C60.9728 143.349 63.3191 141.701 64.0131 141.701C67.0204 140.382 70.4243 140.711 71.4488 143.019C71.7793 143.679 71.7793 144.668 71.4488 145.657C70.7548 147.305 70.0939 148.954 69.7634 150.965C69.4329 151.624 69.4329 152.284 70.4574 152.284C72.1428 151.624 71.7793 152.613 71.4488 152.943C69.1024 157.262 61.6668 157.262 62.3277 152.284L64.7071 145.986C66.0621 142.36 60.6423 144.008 59.2873 147.009C58.2959 149.976 57.2714 152.943 55.9165 155.943H49.1748L53.2066 144.668C53.5701 143.712 53.5701 142.69 52.1821 142.03C52.1821 141.404 52.5456 141.008 52.8431 141.008H52.8761Z" fill="#C4882D"/>
<path d="M101.423 139.492H104.463C107.867 139.492 108.891 137.876 110.213 136.591C110.874 135.964 113.584 134.019 112.89 136.261L111.866 138.536C111.866 139.195 112.196 139.492 112.56 139.492H113.551C115.567 139.789 114.212 142.393 112.56 142.063H110.874C109.883 144.965 108.858 147.536 107.834 150.141C107.173 152.086 107.834 151.756 109.189 152.086C110.213 152.086 109.883 152.712 109.519 153.042C106.182 158.185 98.7458 156.273 100.762 150.141L103.802 142.063H101.423C100.431 142.393 99.4068 140.118 101.423 139.492Z" fill="#C4882D"/>
<path d="M94.0201 151.295C95.375 147.965 96.6969 144.998 98.0519 142.03C98.0519 141.404 98.0519 140.712 97.3909 140.712H92.0042C90.9797 142.69 89.9883 140.712 87.9724 140.382C87.2784 140.382 86.287 140.052 85.593 140.052C83.5441 140.052 82.2221 140.382 80.8672 141.404C77.1328 143.349 75.1169 147.009 75.1169 150.339V150.998C75.1169 154.625 78.1573 157.625 84.5685 155.284C84.899 154.954 85.2295 154.954 85.593 154.625C85.9235 154.625 86.6175 154.625 86.9149 154.954C90.2857 156.932 94.3175 154.625 95.7055 153.306C96.069 152.943 96.069 152.613 95.7055 152.284C94.7141 152.284 93.6566 152.284 94.0201 151.295ZM87.2454 151.295C86.9149 151.954 86.2539 152.613 85.593 152.943C83.9076 153.932 81.2307 153.306 81.5282 150.306C81.5282 148.327 82.2222 146.316 84.5685 143.679C84.899 143.316 85.2295 143.019 85.593 143.019C87.2454 141.997 89.2943 141.997 89.9883 144.668L87.2784 151.295H87.2454Z" fill="#C4882D"/>
<path d="M181.034 142.03C181.365 141.404 181.365 140.712 180.704 140.712H174.986C174.292 142.69 173.301 140.712 171.252 140.382C170.261 140.382 169.567 140.052 168.906 140.052C166.857 140.052 165.204 140.382 163.849 141.404C160.479 143.349 158.099 147.009 158.099 150.339V150.998C158.43 154.625 161.139 157.625 167.881 155.284C168.212 154.954 168.542 154.954 168.906 154.625C169.236 154.625 169.567 154.625 170.261 154.954C173.301 156.932 177.663 154.625 178.688 153.306C179.051 152.943 179.051 152.613 178.688 152.284C177.663 152.284 177.002 152.284 177.333 151.295C178.357 147.965 179.712 144.998 181.034 142.03ZM170.228 151.295C169.897 151.954 169.203 152.613 168.873 152.943C166.824 153.932 164.147 153.306 164.477 150.306C164.808 148.327 165.469 146.316 167.485 143.679C167.815 143.316 168.146 143.019 168.84 143.019C170.525 141.997 172.541 141.997 172.871 144.668L170.161 151.295H170.228Z" fill="#C4882D"/>
<path d="M135.495 142.03C135.825 141.404 135.825 140.712 135.164 140.712H129.778C128.786 142.69 127.762 140.712 125.746 140.382C124.721 140.382 124.027 140.052 123.399 140.052C121.351 140.052 119.996 140.382 118.343 141.404C114.972 143.349 112.626 147.009 112.626 150.339V150.998C112.956 154.625 115.633 157.625 122.375 155.284C122.738 154.954 123.069 154.954 123.399 154.625C123.73 154.625 124.06 154.625 124.721 154.954C128.092 156.932 132.157 154.625 133.148 153.306C133.512 152.943 133.512 152.613 133.148 152.284C132.157 152.284 131.496 152.284 131.794 151.295C132.785 147.965 134.14 144.998 135.495 142.03ZM124.721 151.295C124.358 151.954 124.027 152.613 123.399 152.943C121.351 153.932 118.674 153.306 119.004 150.306C119.302 148.327 119.996 146.316 122.045 143.679C122.375 143.316 122.738 143.019 123.399 143.019C125.052 141.997 127.101 141.997 127.431 144.668L124.754 151.295H124.721Z" fill="#C4882D"/>
<path d="M156.414 143.349C155.389 140.712 152.349 139.723 147.326 140.712V140.052L149.011 135.733C149.342 134.777 149.011 134.415 147.987 134.415H142.269L135.164 154.295C134.47 155.284 135.164 155.614 135.825 155.614L141.245 153.965C143.591 155.284 145.607 155.943 147.326 155.943C154.728 156.273 159.124 148.327 156.414 143.349ZM147.326 152.943C146.962 152.943 146.962 153.306 146.665 153.306C145.31 153.635 142.633 153.306 143.955 149.976L145.64 144.998C145.971 144.009 146.665 143.349 147.326 143.019C149.342 142.36 151.358 143.019 151.358 145.327C150.697 149.976 149.011 151.921 147.326 152.943Z" fill="#C4882D"/>
<path d="M43.7548 135.074C45.1098 135.074 46.4317 136.392 46.4317 137.711C46.4317 139.03 45.0767 140.382 43.7548 140.382C42.4329 140.382 41.0449 139.03 41.0449 137.711C41.0449 136.392 42.3999 135.074 43.7548 135.074Z" fill="#C4882D"/>
<path d="M0 171.603H0.231332C0.231332 171.603 1.02447 170.054 1.78456 169.988C2.11504 169.988 4.5936 169.988 7.2374 169.988V184.758C7.2374 184.758 6.84083 186.176 5.48588 186.044V186.538H11.7319V186.011C11.7319 186.011 9.68291 186.077 9.61681 185.121V169.988H14.1113C14.1113 169.988 15.6315 170.186 15.7306 171.867H16.0611V168.702H0.727044L0 171.57V171.603ZM37.575 185.879C36.9471 185.813 36.881 184.428 36.881 184.428V170.054C36.881 169.427 38.6655 169.098 38.6655 169.098V168.801H32.3865V169.295C34.0059 169.164 34.4685 170.12 34.4685 170.12V176.12H23.7611V170.087C23.7611 169.46 25.5457 169.131 25.5457 169.131V168.834H19.2997V169.328C20.886 169.197 21.3487 170.153 21.3487 170.153V184.923C21.3156 186.34 19.6963 186.11 19.6963 186.11V186.505H26.1736V185.978C26.1736 185.978 25.083 185.978 24.4551 185.978C23.7942 185.912 23.7611 184.527 23.7611 184.527V177.175H34.4685V184.923C34.4355 186.34 32.8161 186.11 32.8161 186.11V186.505H39.3265V185.978C39.3265 185.978 38.2359 185.978 37.608 185.978L37.575 185.879ZM58.5932 185.879C56.9077 185.186 50.4635 168.405 50.4635 168.405H50.0339L44.9776 181.527C43.3252 186.011 42.2347 185.978 42.2347 185.978H40.9128V186.439H46.5969V185.879H45.5394C44.9446 185.813 45.3742 184.164 45.3742 184.164L47.1257 179.483H52.876L55.3876 185.813L55.1232 186.044V186.439H60.3447V185.978C59.4524 186.044 58.6262 185.846 58.6262 185.846L58.5932 185.879ZM47.1918 178.659L49.6373 172.164L52.215 178.659H47.1918ZM76.571 169.295C76.571 169.295 78.7852 169.164 79.0165 170.12V182.912L64.6078 168.471H64.2773L64.2112 168.702V185.022C64.2112 185.022 63.9138 186.11 62.2945 186.011V186.439H68.1108V185.978H66.855C66.855 185.978 65.8636 185.582 65.7975 184.593V172.362L80.5367 186.67V170.186C80.5367 170.186 80.5367 169.559 81.5612 169.394L82.5526 169.262V168.735H76.571V169.262V169.295ZM97.424 177.67V178.131C97.424 178.131 99.4068 178.065 99.4068 179.153V184.692C99.4068 184.692 97.0604 187.165 91.5415 184.758C91.5415 184.758 85.0642 181.263 87.3775 174.307C87.5097 173.911 87.9393 172.889 88.6994 171.933C88.8647 171.735 89.0629 171.504 89.2612 171.34C89.6908 170.944 91.2771 169.889 92.566 169.691C94.5488 169.197 97.1596 169.262 100.332 170.977C100.332 170.977 101.257 171.933 101.291 173.153L101.786 173.252V169.262C101.786 169.262 99.7703 168.966 98.878 168.768C97.9858 168.57 88.2367 167.087 85.5269 173.779C85.5269 173.779 81.7925 181.89 90.5831 185.846C91.0788 186.077 93.0947 186.637 94.2844 186.736C96.4986 186.901 99.9686 186.934 101.753 185.648V179.549C101.753 179.549 101.753 179.252 101.852 179.087C101.985 178.823 102.183 178.461 102.645 178.395H103.571V177.768H97.49L97.424 177.67Z" fill="#C4882D"/>
<path d="M167.352 169.263C167.352 169.263 169.6 169.131 169.798 170.087V182.879L155.389 168.438H155.059L154.993 168.669V184.989C154.993 184.989 154.728 186.077 153.076 185.978V186.407H158.892V185.945H157.636C157.636 185.945 156.678 185.549 156.579 184.56V172.329L171.318 186.637V170.153C171.318 170.153 171.318 169.526 172.343 169.362L173.334 169.23V168.702H167.352V169.23V169.263ZM189.659 177.637V178.098C189.659 178.098 191.642 178.032 191.642 179.12V184.659C191.642 184.659 189.329 187.132 183.777 184.725C183.777 184.725 177.333 181.23 179.613 174.274C179.778 173.779 180.34 172.362 181.464 171.307C181.893 170.911 183.48 169.856 184.768 169.658C186.751 169.164 189.362 169.23 192.535 170.944C192.535 170.944 193.427 171.9 193.493 173.12L193.989 173.219V169.23C193.989 169.23 191.973 168.933 191.08 168.735C190.188 168.537 180.439 167.054 177.729 173.746C177.729 173.746 173.995 181.857 182.786 185.813C183.281 186.044 185.264 186.604 186.487 186.703C188.701 186.868 192.171 186.901 193.956 185.615V179.318C193.956 179.318 194.088 178.461 194.881 178.362H195.773V177.736H189.692L189.659 177.637ZM124.688 185.516H121.185C119.764 185.253 119.863 183.406 119.863 183.406V170.021C119.863 169.362 121.813 169.23 121.813 169.23V168.801H115.435V169.296C117.517 169.164 117.616 170.318 117.616 170.318V184.066C117.55 186.044 115.864 186.143 115.864 186.143V186.571H126.671C127.299 186.176 127.497 183.34 127.497 183.34H126.968C126.902 185.286 124.688 185.516 124.688 185.516ZM139.626 168.504C134.041 168.504 129.513 172.659 129.513 177.736C129.513 182.813 134.041 187 139.626 187C145.211 187 149.705 182.846 149.705 177.736C149.705 172.626 145.211 168.504 139.626 168.504ZM139.626 185.846C135.395 185.846 131.992 182.187 131.992 177.67C131.992 173.153 135.395 169.493 139.626 169.493C143.856 169.493 147.226 173.186 147.226 177.67C147.226 182.154 143.823 185.846 139.626 185.846Z" fill="#C4882D"/>
</svg>
