<svg width="190" height="186" viewBox="0 0 190 186" fill="none" xmlns="http://www.w3.org/2000/svg">
<path d="M150.393 98.6322C148.212 99.8191 146.625 100.643 146.493 99.951C146.427 99.6873 149.534 97.0168 150.591 94.8078C151.219 93.555 152.343 92.5989 153.665 93.0605C149.864 87.9833 148.047 92.8297 147.22 94.2474C146.692 95.2035 145.304 98.0388 145.138 97.9399C144.874 97.808 146.196 94.61 145.865 92.4011C145.634 90.9834 147.253 90.1922 147.98 89.9614C144.808 87.8844 143.222 88.7086 142.891 91.412C139.553 91.1813 138.132 92.9616 138.826 95.0716C139.553 97.1486 140.512 99.5224 140.512 100.676C139.752 102.753 136.612 104.006 135.588 105.193C135.257 105.556 135.852 108.952 137.471 111.193C132.118 109.248 134.828 93.3902 122.6 91.6758C126.136 90.1922 131.093 91.8406 133.241 97.0168C131.589 78.0266 107.96 65.8611 93.7495 60.9817C85.2232 58.0474 75.1438 55.0473 75.6064 51.7504C75.8378 49.9371 78.2172 48.0578 82.0176 47.0688C82.3812 45.6511 82.9099 44.4642 83.2735 43.9367C81.4889 43.64 77.358 44.2005 76.3666 44.5302C76.9284 41.7278 78.9442 38.9584 81.0592 36.7165C79.1425 36.0571 76.0031 33.1888 75.1438 31.2437C78.5808 31.0459 81.3898 30.6502 85.2233 27.2874C84.9919 30.6502 80.167 32.2987 78.2833 32.4965C79.6382 34.079 82.7777 35.6945 84.2649 35.8923C82.976 37.4089 81.1253 39.1562 79.9026 41.6948C82.1828 41.53 86.0825 41.6948 86.0825 41.6948C86.0825 41.6948 84.0996 47.7282 84.6614 51.9152C87.4043 50.2338 89.189 49.4096 93.4191 48.8161C93.4191 48.8161 93.9478 52.179 95.5341 56.0363C103.598 41.6289 129.54 48.4864 118.238 57.5529C120.617 57.8496 127.392 53.6626 126.632 48.4205C130.102 49.4425 130.234 54.1241 128.879 57.2562C131.258 54.7176 136.48 52.3108 131.325 44.0686C130.895 43.4092 132.845 40.9695 131.985 39.9145C130.697 38.6617 132.448 38.0353 130.135 34.5076C130.135 36.3539 129.705 37.7715 129.275 38.5298C128.218 37.9364 126.896 38.1672 125.905 38.5298C125.905 37.4418 125.508 35.167 124.351 34.2438C122.633 52.3438 106.308 32.6613 98.2771 47.893C98.0127 43.5411 101.912 34.9362 89.883 41.53C96.7899 33.4526 95.7654 31.1448 86.2477 30.9799C86.1816 30.914 86.1486 30.881 86.1155 30.8151C89.3211 29.9579 94.9723 28.2435 96.6907 25.9686C93.1877 24.6169 91.8328 21.9794 91.8658 21.9794C95.8646 23.1663 98.7728 23.3971 107.464 23.0674C105.448 23.5619 103.069 24.8477 101.945 25.573C93.0225 32.1009 101.284 41.7937 111.265 36.3868C110.273 37.244 109.877 40.3101 111.727 40.1453C114.305 39.8815 118.998 39.0573 121.278 40.1453C119.394 35.0681 112.322 39.387 115.495 35.3978C113.908 34.5735 109.447 32.7273 103.432 35.101C106.869 32.5295 110.306 32.1668 112.917 32.4306C112.355 29.3974 114.338 24.6499 118.899 22.6388C119.857 22.2431 124.186 20.7925 123.922 26.7599C125.244 25.54 125.673 23.7267 125.64 21.6497C126.169 21.8475 127.326 22.6717 126.863 24.5839C127.689 24.485 128.615 23.0674 128.747 21.9135C129.176 22.2102 129.771 23.6608 129.474 24.8147C130.564 24.4521 130.961 23.0674 131.06 22.1113C132.052 23.463 132.514 25.5071 132.349 27.2874C133.539 25.8697 134.067 23.3311 132.977 21.5508C133.638 20.5617 134.167 20.0342 133.572 19.0452C133.274 18.3528 132.382 17.5286 132.283 16.8033C132.382 16.7044 132.448 16.5725 132.547 16.4736C133.671 17.1989 136.249 18.4187 137.802 16.4406C140.71 21.287 145.436 18.4847 144.411 15.5175C146.229 14.7592 148.278 13.4075 148.377 10.5721C148.476 7.70383 146.196 5.06631 141.834 6.28616C137.471 7.50601 137.967 11.1656 138.727 11.9568C140.247 13.4404 141.801 11.8909 141.933 11.5942C142.329 10.8688 142.065 10.2754 141.801 9.94572C141.503 9.649 140.677 9.55009 141.04 9.91275C141.239 10.1435 141.834 11.3634 140.479 11.5942C138.826 11.8249 138.727 8.39617 141.767 7.60492C143.519 7.27523 146.163 7.67086 146.659 10.1106C147.22 12.847 143.552 14.7262 143.255 14.8581C142.924 14.99 143.089 15.3526 143.222 15.9131C143.684 17.9242 140.875 18.6166 138.628 15.9131C138.364 15.5504 137.967 14.924 137.736 15.2867C136.414 17.1 134.001 16.1439 133.076 15.2537C133.539 13.4734 133.407 10.9678 131.721 10.3084C130.862 9.97869 129.639 10.2095 128.317 10.704C128.648 9.25337 130.399 8.65993 131.424 6.8796C132.349 5.29709 131.82 2.32988 128.681 3.28598C126.764 -0.175757 122.402 -0.472478 120.65 1.34082C118.469 3.58271 118.899 6.12132 120.254 7.20929C121.675 8.33024 124.087 7.57195 124.252 5.79163C124.351 5.16522 124.087 4.57177 123.724 4.50584C123.492 4.4399 123.36 4.57177 123.492 4.80256C124.153 5.89053 123.195 6.48397 122.897 6.64882C122.005 7.07742 120.617 6.41804 120.749 4.50584C120.948 1.07706 126.07 0.945188 127.293 4.27505C127.293 4.27505 127.557 5.13225 128.383 4.80256C130.366 3.97833 130.829 6.38507 127.954 9.31931C127.094 10.1765 126.731 10.9348 126.665 11.5942C125.343 12.3854 124.186 13.3745 123.459 14.4625C121.84 15.4845 119.13 16.3417 117.213 16.7044C117.907 16.1109 119.064 13.2426 117.511 10.737C116.684 11.8249 114.206 12.847 113.214 13.0448C113.214 11.8909 112.157 9.18743 109.117 9.41821C109.745 10.5392 109.513 11.792 109.05 12.0557C103.498 9.55009 99.1693 9.41821 98.5083 9.84681C99.2354 10.3084 100.458 12.6492 99.731 13.935C97.5499 13.8031 91.304 11.6931 89.189 4.76959C89.0899 4.37396 88.4289 4.30802 88.3297 4.76959C87.6688 7.60492 89.6516 12.3854 92.8572 14.5943C88.8915 13.935 81.9846 10.1765 77.2588 4.37396C76.8953 3.9124 76.1352 4.07724 76.2343 4.63771C77.1597 9.81384 84.8928 16.7373 94.3444 18.2209C75.9369 25.2103 74.7141 6.48397 58.1574 10.3413C66.7828 9.94572 69.8231 17.9901 75.3751 21.32C67.8402 19.4078 60.3385 8.29727 49.0693 14.99C61.363 12.6162 61.0655 20.6606 73.8549 26.661C62.5857 27.3863 61.9909 17.9242 51.9775 19.9353C58.6531 20.8255 61.2969 27.683 67.6751 32.1338C58.8514 35.0351 53.4977 40.3101 51.1513 46.2775C48.871 45.6181 47.1195 44.2994 46.6569 43.8708C46.2272 43.0466 44.641 40.6069 45.7315 38.0682C46.8221 35.4637 49.3007 35.6285 50.953 35.2659C52.0767 35.0681 51.7792 33.024 50.7547 31.7382C50.3251 33.3537 46.723 33.7163 46.9212 32.991C47.6813 30.4194 49.3337 29.8919 49.9285 29.2326C50.4903 28.5732 52.3079 26.3643 48.5405 25.2433C49.4328 26.661 45.6654 31.1448 45.2028 30.9799C44.7401 30.848 45.5993 28.0457 46.1942 25.8368C46.8551 23.6608 44.2113 23.2322 41.6997 24.2872C44.4096 25.0125 42.9556 30.6502 42.2285 30.7491C41.5015 30.848 40.7413 28.5732 40.0804 26.2654C39.7499 25.0455 37.1061 25.0125 35.652 26.9247C37.3044 26.7929 39.783 29.9249 39.5516 34.7384C39.4525 36.222 39.4195 36.5187 39.4195 37.5737C39.1881 39.2881 36.3791 41.0354 34.3632 39.7497C33.7022 41.2992 35.3215 44.1345 36.5113 42.9147C38.0314 41.3651 40.0804 41.6619 40.3778 42.0575C41.204 45.3544 40.1134 46.1127 40.7083 49.6733C41.204 50.1019 42.1955 50.5305 42.7903 50.7943C39.0229 55.9374 46.8221 62.9268 42.8894 68.3997C50.92 60.4212 42.5259 57.2892 46.723 52.5416C48.4745 53.7615 49.3998 54.7835 49.9616 55.5748C50.7547 62.2675 54.9187 68.7294 62.057 72.9164C72.2026 78.8179 87.2391 82.5764 97.1533 87.9173C100.822 90.0603 103.961 92.9946 101.615 98.0388C102.738 98.1707 103.003 98.0388 104.325 97.4454C104.325 100.413 101.549 103.709 98.0126 103.709C98.8718 104.962 101.846 106.545 103.631 106.413C101.549 108.787 96.129 108.292 93.5182 107.534C93.6173 108.589 95.4018 110.798 97.583 111.721C94.3443 112.743 89.5195 111.886 87.4375 111.062C87.0079 112.051 87.834 114.161 89.0568 114.82C87.5035 115.479 82.0176 115.315 79.6051 113.468C79.6051 115.249 80.4974 115.809 80.9601 116.205C77.424 116.963 71.5085 116.666 68.5673 116.04C88.528 122.864 114.107 112.248 106.374 95.665C112.587 104.764 108.522 116.205 91.0396 120.062C74.0202 123.821 60.008 117.952 54.8196 110.072C52.0436 105.787 51.8122 98.7311 55.3483 97.4124C58.3226 101.006 65.7913 97.9729 69.4926 106.413C70.0214 103.545 69.8892 100.907 66.7167 97.3465C74.2184 99.2587 77.8536 97.0827 83.1082 99.3246C79.2086 95.3024 74.582 95.9288 71.6077 93.588C79.9026 95.5661 83.7361 90.357 88.7263 95.731C87.5366 87.6865 79.2417 90.423 72.3017 88.4778C75.0446 86.6315 77.7215 87.6536 80.2992 83.6643C74.7142 85.4776 74.3176 83.1039 68.0716 83.8951C69.4927 82.6753 70.2197 82.3126 70.2197 79.6421C68.0716 82.1478 50.4573 80.1367 49.3007 89.8955C50.4573 88.4119 56.8024 85.2798 60.702 88.28C53.5307 87.6865 46.1281 93.4891 45.1367 101.995C42.7903 121.711 63.0154 132.821 85.2563 133.151C102.441 133.349 121.311 128.205 129.342 113.303C131.291 114.886 133.737 116.831 133.241 116.468C136.083 125.139 124.583 121.842 120.882 131.766C126.433 124.348 137.769 131.469 137.24 117.458C140.677 113.27 140.38 109.512 141.734 106.907C141.9 106.578 143.618 107.468 143.618 108.853C143.519 112.248 149.005 113.007 148.509 109.347C145.502 110.237 143.882 105.424 145.799 103.38C147.088 101.995 153.433 100.61 154.193 102.028C155.449 99.951 152.343 97.6432 150.162 98.7971L150.393 98.6322ZM114.47 14.5943C115.726 14.2647 116.552 15.6493 116.552 16.5395C115.528 16.8692 114.47 17.3308 113.148 17.1989C113.016 16.2758 113.347 14.8911 114.47 14.5943ZM110.108 15.0559C110.703 16.1769 110.273 17.133 109.811 17.1C106.836 17.2978 104.92 15.9131 101.251 16.2428C107.299 11.4953 109.778 14.3965 110.141 15.0559H110.108ZM142.428 98.1377C142.098 97.6432 139.917 93.9506 142.594 92.5659C142.792 94.5111 142.858 98.0058 142.428 98.1377Z" fill="#C4882D"/>
<path d="M172.733 149.635C163.546 149.635 156.11 155.702 156.11 167.373C156.11 179.044 163.546 184.978 172.733 184.978C181.92 184.978 189.356 179.044 189.356 167.373C189.356 155.702 181.887 149.635 172.733 149.635ZM172.7 180.066C168.139 180.066 164.438 175.846 164.471 167.406C164.471 158.933 168.205 154.482 172.766 154.482C177.327 154.482 180.995 158.998 180.962 167.439C180.962 175.879 177.227 180.066 172.7 180.066ZM61.1977 184.418H52.7046L49.7303 176.175L43.4182 158.735L38.0976 173.373C39.6178 172.681 43.286 171.263 44.9384 170.768C44.9384 170.768 47.5491 173.834 49.6972 176.175C47.9788 176.241 41.3032 176.802 36.4452 177.824L34.0658 184.418H27.6876L38.7915 153.723C39.783 151.119 37.9323 150.097 37.9323 150.097H48.7388L61.1647 184.385L61.1977 184.418ZM25.5064 174.098C25.5064 180.593 20.318 185.044 10.9326 185.044C7.13209 185.044 3.16635 184.22 0.357318 183.231V175.219C0.357318 175.219 1.31569 176.868 3.29854 177.989C4.98396 178.945 7.36343 179.736 10.3708 179.736C14.8983 179.736 16.848 177.23 16.848 175.252C16.848 172.153 13.6094 171.098 9.31321 169.45C6.40503 168.329 3.92649 167.175 2.57154 165.691C1.05136 163.977 0.29126 162.46 0.29126 159.724C0.29126 156.625 1.7784 153.526 4.78572 151.811C7.33037 150.361 10.6351 149.668 14.2373 149.668C18.0708 149.668 20.7807 150.064 22.6974 150.459V156.625C22.6974 156.625 19.3596 154.943 14.4686 154.943C10.3707 154.943 8.1896 156.658 8.1896 158.57C8.1896 160.35 11.5274 161.735 15.8897 163.251C22.0365 165.394 25.5064 168.362 25.5064 174.098ZM153.433 183.297C151.054 184.45 147.815 185.044 144.213 185.044C138.562 185.044 134.001 183.395 131.093 180.033C128.416 176.967 127.061 172.747 127.061 167.406C127.061 162.065 128.449 158.108 131.291 154.91C134.332 151.416 138.562 149.668 143.949 149.668C147.914 149.668 150.393 150.13 153.07 150.954L151.979 157.647C151.483 157.02 149.501 154.976 145.337 154.976C141.933 154.976 139.388 156.328 137.703 159.031C136.348 161.207 135.654 164.01 135.654 167.406C135.654 175.549 139.124 179.67 145.072 179.67C149.633 179.67 152.111 178.153 152.574 177.857L153.499 183.297H153.433ZM123.79 177.989L122.699 184.45H99.6981V153.987C99.6981 153.987 99.632 150.888 97.8143 150.163H122.038V156.625C121.212 155.306 119.262 155.273 119.262 155.273H107.795V164.175H119.13V169.318H107.795V179.373H119.196C120.353 179.307 122.534 179.011 123.79 178.022V177.989ZM83.7031 166.318C85.719 166.021 87.3383 165.131 88.5611 163.68C89.7178 162.262 90.5439 160.515 90.5439 158.603C90.5439 155.702 89.3212 153.625 87.4044 152.174C85.6198 150.822 83.1413 150.163 79.9687 150.163H64.139C65.9896 151.646 66.0558 153.987 66.0558 153.987V184.45H78.9443C82.7778 184.45 85.3885 184.45 88.1315 183.165C91.0066 181.813 93.1216 179.044 93.1216 175.681C93.1216 169.812 89.3542 167.01 83.7361 166.318H83.7031ZM74.0863 155.273H77.0275C80.894 155.273 82.8108 156.954 82.8108 159.493C82.8108 162.46 80.6627 164.175 76.8292 164.175H74.0863V155.273ZM78.1181 179.34H74.0863V169.285H77.6884C81.8194 169.285 84.8267 171.296 84.8267 174.56C84.8267 178.022 81.9846 179.34 78.1511 179.34H78.1181Z" fill="#D71920"/>
</svg>
