<svg width="253" height="96" viewBox="0 0 253 96" fill="none" xmlns="http://www.w3.org/2000/svg">
<path d="M226.331 32.2354C229.602 36.2246 231.982 40.5435 232.213 45.7526C232.544 52.808 230.396 58.8413 226 64.0834C221.473 69.4903 215.227 74.007 209.212 77.6007C204.255 80.5679 198.571 82.7768 193.184 84.8868C189.086 86.5023 184.856 87.5243 180.626 88.8101C167.242 92.8653 153.494 94.7775 139.581 95.7006C134.161 96.0633 128.708 95.8325 123.289 95.8655C121.273 95.8655 119.29 95.7336 118.067 95.7006C122.033 95.2061 126.759 94.7775 131.418 93.9862C138.16 92.8323 144.902 91.5795 151.577 90.0629C156.766 88.876 161.921 87.3265 167.01 85.711C174.744 83.2384 182.245 80.1063 189.45 76.4138C199.43 71.2706 208.816 65.2703 216.582 57.028C220.316 53.0388 223.489 48.6209 225.306 43.4118C226.562 39.7853 227.025 36.0927 226.298 32.2683L226.331 32.2354Z" fill="#ED1C24"/>
<path d="M195.927 7.80518C198.207 8.36565 200.487 8.79425 202.702 9.48659C207.725 11.0361 212.748 12.5197 217.672 14.366C227.586 18.0915 236.939 22.8061 244.606 30.29C247.877 33.488 250.521 37.1146 251.975 41.4665C254.156 47.9944 252.769 54.0606 249.1 59.7313C245.862 64.7426 241.367 68.501 236.476 71.7979C230.693 75.7213 224.249 78.3917 217.738 80.9304C214.202 82.315 206.535 84.9196 206.271 84.9196C212.418 82.4469 218.498 79.7105 224.017 76.0509C229.867 72.1276 235.121 67.5779 238.756 61.4787C242.392 55.3794 243.614 48.8186 241.532 41.9281C239.715 35.8947 235.98 31.0483 231.42 26.8283C225.471 21.3554 218.597 17.2013 211.195 13.9704C206.172 11.7944 201.049 9.91519 195.894 7.87112L195.927 7.80518Z" fill="#ED1C24"/>
<path d="M58.4826 87.8873C57.0285 87.5576 48.1387 85.2168 41.7275 83.0408C35.9111 81.0957 30.3261 78.7878 24.8733 75.9195C19.2221 72.9523 13.8685 69.7214 9.30792 65.2046C5.17699 61.1165 1.97139 56.8305 0.946914 51.0609C0.352059 47.7311 0.616439 44.4342 1.7731 41.2691C4.28471 34.4775 9.5062 29.6311 15.1904 25.444C21.2711 20.9603 27.9467 17.5974 34.9528 14.861C37.861 13.7071 40.8021 12.685 43.7433 11.63C43.7433 11.63 43.7434 11.63 43.7764 11.63C43.7764 11.63 43.7764 11.63 43.8095 11.63C43.8095 11.63 43.8756 11.63 43.9086 11.63C43.9086 11.63 43.9747 11.63 44.0078 11.5971C44.4704 11.4322 45.4288 11.1685 46.3872 11.1025C44.6687 11.8608 42.9502 12.5532 41.2648 13.3444C32.3089 17.5974 23.9479 22.7406 17.6358 30.5542C14.5294 34.4116 12.2822 38.7305 11.4891 43.6759C10.6298 48.885 11.5221 53.8303 13.9345 58.5119C17.8672 66.1937 24.1792 71.6006 31.2514 76.1833C38.621 80.9638 57.6564 87.4257 58.4826 87.9532V87.8873Z" fill="#ED1C24"/>
<path d="M22.0313 52.4784C22.0313 52.4784 32.8378 11.5968 126.858 0.057705C126.858 0.057705 93.6781 -1.03027 61.8204 10.377C26.5918 23.0041 18.2308 39.8513 22.0313 52.4784Z" fill="#ED1C24"/>
<path fill-rule="evenodd" clip-rule="evenodd" d="M109.111 33.5542L108.516 35.2356H109.739C109.739 35.2356 106.93 43.2141 106.534 44.2361C106.17 45.2582 105.476 45.456 104.782 45.2252C104.121 45.0274 103.758 44.4669 104.22 43.1482C104.716 41.8294 107.69 33.5542 107.69 33.5542H98.7013C99.164 32.8948 99.4614 32.2025 99.4614 31.7079C99.4614 30.2903 98.3048 29.1693 96.8837 29.1693C95.4627 29.1693 94.339 30.3232 94.339 31.7079C94.339 32.4662 94.7357 33.1256 95.2644 33.5542H85.4493L84.8544 35.2356H86.0771C86.0771 35.2356 83.2681 43.2141 82.9046 44.2361C82.5411 45.2582 81.8471 45.456 81.1531 45.2252C80.4591 45.0274 80.0956 44.4669 80.5913 43.1482C81.087 41.8294 84.0613 33.5542 84.0613 33.5542H74.0148L73.3539 35.2356H74.8741L72.3955 42.0932C71.338 45.0604 72.2633 47.533 75.2706 47.6979C78.311 47.8627 80.9548 46.7748 82.1776 46.3462L81.7149 47.7638H92.1909L92.7528 46.0824H90.836L94.4052 36.2247C95.4957 35.928 96.355 35.4994 97.082 35.0378L97.0159 35.1697H98.503L96.0575 42.0272C94.967 44.9944 95.9253 47.4671 98.9326 47.6319C101.94 47.7968 104.617 46.7088 105.806 46.2802L105.344 47.6979H115.82L116.415 46.0165H114.498L119.059 33.4223H109.144L109.111 33.5542ZM95.066 34.5103L95.3636 33.719C95.3636 33.719 95.4957 33.9169 95.5618 33.9498C95.5618 33.9498 95.4296 34.2795 95.066 34.5103ZM213.938 33.3564L209.476 45.9505H211.426L210.864 47.599H198.901L199.463 45.9835H200.884L204.751 35.0048H203.131L203.759 33.3894H213.938V33.3564ZM197.579 45.9505H198.604L198.009 47.599H188.26C188.26 47.599 191.532 38.4666 191.895 37.3456C192.292 36.2247 192.292 35.1367 191.432 35.0708C190.474 35.0378 189.251 36.2906 188.69 37.8402C188.095 39.4556 185.781 45.9505 185.781 45.9505H187.103L186.575 47.599H175.173L175.801 45.9505H176.826L182.741 29.3671H180.527L181.287 27.7187H192.292L190.045 34.0158C190.045 34.0158 193.217 32.2684 197.117 32.3343C200.686 32.4333 201.479 34.6422 200.587 37.2138L197.546 45.9176L197.579 45.9505ZM208.122 52.0498C208.122 54.2257 206.37 55.9731 204.222 55.9731C202.074 55.9731 200.322 54.2257 200.322 52.0498C200.322 49.9068 202.074 48.1595 204.222 48.1595C206.403 48.1595 208.155 49.9068 208.155 52.0498H208.122ZM205.18 28.6089C205.18 26.4659 206.899 24.6855 209.08 24.6855C211.228 24.6855 213.012 26.4329 213.012 28.5759C213.012 30.7189 211.261 32.4662 209.113 32.4992C206.932 32.4992 205.213 30.7518 205.213 28.6089H205.18ZM169.258 33.4223L168.828 34.7411C168.828 34.7411 166.878 31.7409 160.203 34.7081C157.427 35.928 155.84 38.2028 155.047 40.4777C153.858 44.0713 155.146 47.1374 157.955 47.7968C161.425 48.621 164.664 46.511 164.664 46.511C163.045 55.017 160.004 55.2478 160.004 55.2478C162.186 52.874 160.996 49.7749 159.112 48.8848C157.46 48.1265 155.51 48.3902 154.254 49.8738C152.965 51.3574 152.932 53.929 155.047 55.6434C155.873 56.3028 157.261 56.9622 158.782 57.16C164.334 57.8194 170.249 54.7862 172.298 49.3463L177.949 33.3894H169.258V33.4223ZM168.167 36.6863C168.167 36.6863 166.515 41.6975 165.722 43.6097C165.226 44.7307 164.367 45.3241 163.871 45.3901C163.408 45.423 162.879 45.3571 163.144 44.0383C163.375 42.7196 164.201 40.0491 165.028 37.8402C165.49 36.6533 166.217 35.6312 167.043 35.4334C167.671 35.2686 168.531 35.6312 168.2 36.7192L168.167 36.6863ZM155.411 29.466L148.9 47.6979H139.548L136.276 34.0487L133.071 43.1811C131.914 46.2143 129.634 47.9287 126.428 47.8298C123.19 47.6649 120.248 44.2691 122.595 40.7414C124.346 38.2028 127.353 38.8622 128.543 39.7194C129.7 40.5436 131.187 42.1591 130.163 45.0274C130.163 45.0274 130.989 43.8735 131.683 42.0272L136.21 29.565H134.426L134.954 27.9165H144.406L148.768 43.0493L153.593 29.532H152.139L152.701 27.8506H157.228L156.667 29.466H155.477H155.411ZM67.2401 46.2473H68.8264L68.1324 47.8957H56.2023L56.764 46.2473H58.5486L61.1263 38.8622H57.3919C55.4421 44.3351 52.3026 47.8957 44.8009 47.8957C40.5047 47.8957 37.7287 45.7198 37.894 43.0822C38.0261 40.4777 39.7116 38.6644 42.2562 38.6974C44.6026 38.6974 45.8914 40.181 46.3541 41.7305C46.7837 43.1811 46.4202 44.6977 45.8253 45.5549C45.8253 45.5549 46.2219 45.1922 47.5108 42.0932L52.0052 29.6309H49.6258L50.2207 27.9824H61.2915L58.0199 37.1478H61.7212L64.365 29.5979H62.6135L63.2083 27.9495H75.1384L74.5767 29.565H73.0895L67.1741 46.1813L67.2401 46.2473ZM78.3111 32.3343C78.3111 32.3343 79.7651 29.1364 83.0699 28.1473C85.6146 27.389 87.7296 28.7407 89.7785 28.8067C91.8605 28.9056 93.3145 27.9495 93.3145 27.9495C91.9265 30.2243 90.3072 32.3673 87.5643 32.4662C84.8544 32.5651 82.3759 30.0595 78.3111 32.3014V32.3343Z" fill="#ED1C24"/>
<path fill-rule="evenodd" clip-rule="evenodd" d="M108.45 64.6769H109.111L106.897 70.7762H106.236C106.864 68.6002 105.674 67.9409 105.079 67.9409H104.848L102.832 73.5785H103.923L103.493 74.7325H95.165L95.5947 73.6115H96.8174L100.882 62.0724H99.6595L100.089 60.9185H107.062H108.351H113.44L111.689 66.0286H111.061C111.623 62.3032 110.003 62.0724 108.318 62.0724H107.987H106.93L105.046 67.4463H105.278C105.906 67.4463 107.525 66.7869 108.45 64.7429V64.6769Z" fill="#ED1C24"/>
<path fill-rule="evenodd" clip-rule="evenodd" d="M122.859 65.27C121.9 64.4128 120.347 64.0501 118.662 64.0831C116.976 64.0831 115.126 64.4458 113.539 65.303C111.92 66.1931 110.4 67.7756 109.838 69.2922C109.243 70.8747 109.408 72.3583 110.268 73.3804C111.127 74.4024 112.845 74.7321 114.63 74.7321C116.382 74.7321 118.364 74.4024 120.017 73.3474C121.636 72.3254 122.958 70.8417 123.553 69.2592C124.115 67.7427 123.817 66.1602 122.859 65.27ZM118.893 66.1931L116.481 72.5561C116.15 73.4133 116.018 74.2046 114.795 74.2046C113.672 74.2046 114.002 73.4133 114.333 72.5561L116.745 66.1931C117.043 65.4348 117.439 64.5776 118.464 64.5776C119.488 64.5776 119.158 65.4348 118.893 66.1931Z" fill="#ED1C24"/>
<path fill-rule="evenodd" clip-rule="evenodd" d="M137.169 65.2373C136.243 64.3801 134.657 64.0174 132.971 64.0504C131.286 64.0504 129.435 64.413 127.849 65.2702C126.23 66.1604 124.743 67.7429 124.148 69.2595C123.52 70.842 123.718 72.3256 124.577 73.3476C125.47 74.3697 127.188 74.6994 128.94 74.6994C130.691 74.6994 132.674 74.3697 134.326 73.3147C135.979 72.2926 137.268 70.809 137.862 69.2265C138.457 67.7099 138.127 66.1274 137.169 65.2373ZM133.203 66.1604L130.79 72.5234C130.46 73.3806 130.328 74.1719 129.138 74.1719C128.014 74.1719 128.345 73.3806 128.642 72.5234L131.055 66.1604C131.319 65.4021 131.716 64.5449 132.773 64.5449C133.798 64.5449 133.467 65.4021 133.203 66.1604Z" fill="#ED1C24"/>
<path fill-rule="evenodd" clip-rule="evenodd" d="M149.594 60.7864C149.594 60.7864 148.206 64.6108 147.909 65.435C147.182 64.8086 145.199 63.8855 141.927 65.435C140.011 66.2922 138.887 67.8747 138.358 69.4572C137.532 71.9629 138.424 74.1059 140.374 74.5344C142.786 75.0949 145.034 73.6443 145.034 73.6443C144.968 74.0069 144.902 74.3366 144.835 74.6663H152.007L152.403 73.5124H151.114L155.278 61.9073H156.534L156.931 60.7534H149.627L149.594 60.7864ZM147.446 66.7867C147.446 66.7867 146.323 70.2485 145.728 71.6002C145.397 72.3915 144.802 72.7871 144.472 72.8201C144.174 72.853 143.811 72.8201 143.943 71.8969C144.108 70.9738 144.67 69.1275 145.265 67.578C145.595 66.7538 146.091 66.0284 146.653 65.8966C147.083 65.7977 147.711 66.0614 147.446 66.7867Z" fill="#ED1C24"/>
</svg>
