<svg width="252" height="51" viewBox="0 0 252 51" fill="none" xmlns="http://www.w3.org/2000/svg">
<path d="M241.546 1.90536L239.96 2.56475L238.605 3.58678L237.58 4.90554L236.919 6.48805L236.655 8.23541L236.919 9.98276L237.58 11.5653L238.605 12.884L239.96 13.9061L241.546 14.5654L243.264 14.7962L245.016 14.5654L246.602 13.9061L247.957 12.884L248.982 11.5653L249.642 9.98276L249.874 8.23541L249.642 6.48805L248.982 4.90554L247.957 3.58678L246.602 2.56475L245.016 1.90536L243.264 1.64161L241.546 1.90536ZM241.083 0.289885L243.264 -0.00683594L245.479 0.289885L247.428 1.11411L249.081 2.3999L250.403 4.08132L251.229 6.02648L251.526 8.23541L251.229 10.4443L250.403 12.3895L249.081 14.0709L247.428 15.3567L245.479 16.1809L243.264 16.4776H243.165L241.083 16.1809L239.133 15.3567L237.448 14.0709L236.126 12.3895L235.3 10.4443L235.002 8.23541L235.3 6.02648L236.126 4.08132L237.448 2.3999L239.133 1.11411L241.083 0.289885Z" fill="#ED1C24"/>
<path d="M240.687 9.09272V13.7743H239.199V2.82861H244.289C246.073 2.82861 247.891 3.48799 247.891 5.79582C247.891 7.37833 247.065 8.00474 246.371 8.40037C246.999 8.66412 247.627 8.92787 247.66 10.4774L247.759 12.4556C247.759 13.049 247.858 13.2798 248.288 13.5435V13.7743H246.503C246.272 13.1149 246.239 11.4335 246.239 11.0379C246.239 10.1477 246.073 9.09272 244.289 9.09272H240.687ZM240.687 4.1144V7.80693H244.124C245.214 7.80693 246.371 7.54318 246.371 5.9277C246.371 4.31222 245.115 4.1144 244.388 4.1144H240.687Z" fill="#ED1C24"/>
<path d="M67.4849 9.61989H60.578L58.0994 2.30078L55.8852 9.61989H48.5156L54.5963 13.774L52.5144 20.5986L58.0994 16.4774L64.2132 20.5326L61.9329 13.774L67.4849 9.61989Z" fill="#ED1C24"/>
<path d="M87.7761 8.92773C76.9695 8.92773 68.2119 16.5765 68.2119 26.0057C68.2119 35.4348 76.9695 43.0836 87.7761 43.0836C98.5826 43.0836 107.34 35.4348 107.34 26.0057C107.34 16.5765 98.5826 8.92773 87.7761 8.92773ZM87.7761 39.1273C83.0172 39.1273 79.1507 33.2588 79.1507 26.0386C79.1507 18.8184 83.0172 12.9499 87.7761 12.9499C92.5349 12.9499 96.4015 18.8184 96.4015 26.0386C96.4015 33.2588 92.5349 39.1273 87.7761 39.1273Z" fill="#ED1C24"/>
<path d="M178.326 8.92773C167.52 8.92773 158.729 16.5765 158.729 26.0057C158.729 35.4348 167.487 43.0836 178.326 43.0836C189.166 43.0836 197.89 35.4348 197.89 26.0057C197.89 16.5765 189.133 8.92773 178.326 8.92773ZM178.326 39.1273C173.567 39.1273 169.701 33.2588 169.701 26.0386C169.701 18.8184 173.567 12.9499 178.326 12.9499C183.085 12.9499 186.918 18.8184 186.918 26.0386C186.918 33.2588 183.052 39.1273 178.326 39.1273Z" fill="#ED1C24"/>
<path d="M150.632 8.86182C147.691 8.86182 145.312 11.2356 145.312 14.1698V41.9627H155.953V14.1698C155.953 11.2356 153.574 8.86182 150.632 8.86182Z" fill="#ED1C24"/>
<path d="M141.544 19.1149C141.776 9.61987 127.664 9.65283 127.664 9.65283H115.536C112.76 9.94955 110.678 12.0266 110.678 14.9608V42.0943H120.857V14.4333C120.857 13.4113 121.782 13.6091 121.782 13.6091H123.996C131.531 13.8399 131.399 19.5765 131.399 19.5765C131.498 25.412 125.054 25.5439 125.054 25.5439H123.17C121.286 25.6758 122.575 27.1923 122.575 27.1923V27.4561L130.275 42.0943H141.511L132.522 27.9176C142.569 26.8956 141.478 19.082 141.478 19.082" fill="#ED1C24"/>
<path d="M227.765 9.29053C226.278 9.29053 225.088 10.4774 225.088 11.961V25.9399L214.48 12.1259C214.48 12.1259 212.828 8.73006 206.846 9.42241C206.846 9.42241 201.195 10.1477 201.096 17.5328V42.0287H206.615V17.8954L224.692 42.0287H230.409V11.994C230.409 10.5434 229.219 9.3235 227.765 9.3235" fill="#ED1C24"/>
<path d="M25.746 1.11402C11.9652 1.11402 0.795166 12.2575 0.795166 26.0056C0.795166 26.5661 0.861257 27.1265 0.894304 27.654C1.05954 28.5772 1.29088 29.6651 1.75355 30.4234C1.75355 30.4234 2.67888 26.8958 3.17459 26.5331C3.0424 26.599 3.57117 31.0828 3.57117 31.0828L6.74372 32.5994L3.90164 33.6544C3.90164 33.6544 3.30678 34.6435 3.76944 37.3139C3.76944 37.3139 3.83553 37.7425 4.19905 38.5338C8.52827 45.9188 16.5258 50.8642 25.713 50.8642C39.4938 50.8642 50.6638 39.7207 50.6638 25.9726C50.6638 12.2246 39.4938 1.08105 25.713 1.08105L25.746 1.11402ZM12.0313 45.0287C11.2051 44.4352 9.58581 42.589 9.58581 42.589L7.86732 42.8198C7.86732 42.3912 7.99952 41.7648 8.13171 41.1383C7.47076 40.446 6.67761 39.4899 5.95056 38.2041C5.95056 38.2041 6.87591 38.9294 8.52829 39.5888C8.85876 38.4679 9.15617 37.5777 9.15617 37.5777C9.55274 38.1052 10.0154 39.1272 10.412 40.2152C11.4034 40.446 12.5601 40.6438 13.8489 40.6768C13.8489 40.6768 12.6262 41.6329 11.106 42.0945C11.6347 43.677 12.0313 45.0287 12.0313 45.0287ZM10.2467 24.1593C9.15618 26.9947 8.16476 29.4344 8.16476 29.4344C7.83429 27.8189 7.60295 26.0386 7.43772 24.3571C4.69478 24.7198 3.70336 25.3132 3.70336 25.3132C4.4304 23.8626 5.7523 22.412 7.20638 21.1262C7.07419 18.5546 7.07419 16.6424 7.07419 16.6424C7.80124 17.2688 8.72657 18.159 9.68495 19.1481C11.6347 17.6974 13.2541 16.7413 13.2541 16.7413C12.7914 17.7304 12.1305 19.3129 11.4365 21.0273C12.9897 22.7087 14.2455 24.1264 14.2455 24.1264C12.6923 24.0934 11.4034 24.1264 10.2467 24.1923V24.1593ZM20.194 42.3912L21.2846 44.8638L18.9713 43.3802L16.9223 44.9957L17.5172 42.4241C16.5919 41.8966 15.5343 41.2373 15.2369 40.9076C15.2369 40.9076 16.2614 40.9735 17.8807 40.9076L18.4425 38.5338L19.467 40.8087C20.3262 40.7098 21.2846 40.6108 22.3421 40.446C22.3421 40.446 21.3177 41.501 20.194 42.3912ZM23.0361 18.2249L19.5 22.5768L19.3348 17.2029C16.9884 16.6754 14.4438 16.016 14.4438 16.016C15.964 15.2247 17.6494 14.5324 19.2687 13.906L19.1696 8.92767C19.1696 8.92767 20.6898 10.6421 22.5404 12.785C25.4155 11.8619 27.6297 11.3344 27.6297 11.3344C26.8696 12.6861 25.7791 14.2027 24.8537 15.4226C26.3409 17.1699 27.7619 18.8513 28.4559 19.8404L23.0692 18.1919L23.0361 18.2249ZM38.0397 15.8512L33.413 19.7415L34.5697 13.873L29.3482 11.0047C31.4963 10.6091 33.38 10.3124 35.0654 10.1146L36.4203 4.27905L39.1633 9.7519C42.3358 9.55408 43.9552 9.68596 43.9552 9.68596C42.435 11.1036 40.8487 13.2136 40.8487 13.2136L43.7899 18.8843L38.0066 15.8841L38.0397 15.8512Z" fill="#ED1C24"/>
</svg>
