<svg width="56" height="55" viewBox="0 0 56 55" fill="none" xmlns="http://www.w3.org/2000/svg">
<g id="Group">
<path id="Vector" fill-rule="evenodd" clip-rule="evenodd" d="M53.6869 16.9717C52.2988 13.6499 50.2596 10.5985 47.6993 8.05071C45.139 5.50292 42.0801 3.47358 38.7347 2.0923C35.3929 0.718417 31.7795 0 28.1624 0C24.5453 0 20.9357 0.718417 17.5939 2.0923C14.2559 3.47358 11.1896 5.50292 8.6293 8.05071C6.06905 10.5985 4.02977 13.6425 2.64172 16.9717C1.26112 20.2971 0.539185 23.8929 0.539185 27.4924C0.539185 31.0919 1.26112 34.684 2.64172 38.0094C4.02977 41.3312 6.06905 44.3826 8.6293 46.9304C11.1896 49.4782 14.2485 51.5075 17.5939 52.8888C20.9319 54.2627 24.5491 54.9811 28.1624 54.9811C31.7758 54.9811 35.3892 54.2627 38.7347 52.8888C42.0727 51.5075 45.139 49.4782 47.6993 46.9304C50.2596 44.3826 52.2988 41.3386 53.6869 38.0094C55.0675 34.6877 55.7894 31.0882 55.7894 27.4924C55.7894 23.8966 55.0675 20.3008 53.6869 16.9717Z" fill="#00C65B"/>
<path id="Vector_2" fill-rule="evenodd" clip-rule="evenodd" d="M37.2015 43.7421C31.1804 44.6346 14.0066 34.0213 14.0066 19.8011C14.2224 12.8724 16.7157 11.1875 19.8118 11.1875C22.908 11.1875 26.4023 19.9566 24.6458 20.7602C23.1982 21.4231 20.7087 21.6527 20.7794 24.5967C20.8203 26.5224 30.5738 37.1764 32.3787 37.0394C35.4748 36.832 34.8012 33.2621 37.2127 32.2586C39.0398 31.4846 45.4181 35.4692 44.9344 38.0022C44.4506 40.5278 41.8196 43.0608 37.2015 43.7458V43.7421Z" fill="white"/>
</g>
</svg>
