<svg width="111" height="111" viewBox="0 0 111 111" fill="none" xmlns="http://www.w3.org/2000/svg">
<g clip-path="url(#clip0_204_92)">
<path d="M4.36405 111H0V106.626H1.68995V109.31H4.36405V111Z" fill="#444545"/>
<path d="M1.68995 99.8165H0V92.997H1.68995V99.8165ZM1.68995 86.1775H0V79.3581H1.68995V86.1775ZM1.68995 72.5386H0V65.7192H1.68995V72.5386ZM1.68995 58.8997H0V52.0803H1.68995V58.8997ZM1.68995 45.2608H0V38.4414H1.68995V45.2608ZM1.68995 31.6219H0V24.8025H1.68995V31.6219ZM1.68995 17.983H0V11.1636H1.68995V17.983Z" fill="#444545"/>
<path d="M1.68995 4.36405H0V0H4.36405V1.68995H1.68995V4.36405Z" fill="#444545"/>
<path d="M99.8165 1.68995H92.9971V0H99.8165V1.68995ZM86.1776 1.68995H79.3582V0H86.1776V1.68995ZM72.5387 1.68995H65.7192V0H72.5387V1.68995ZM58.8998 1.68995H52.0803V0H58.8998V1.68995ZM45.2609 1.68995H38.4414V0H45.2609V1.68995ZM31.622 1.68995H24.8025V0H31.622V1.68995ZM17.9831 1.68995H11.1636V0H17.9831V1.68995Z" fill="#444545"/>
<path d="M111 4.36405H109.31V1.68995H106.626V0H111V4.36405Z" fill="#444545"/>
<path d="M76.3858 111H70.0833V109.31H76.3162C76.6642 109.31 77.0121 109.31 77.36 109.3L77.4097 110.99C77.0717 111 76.7338 111.01 76.3958 111.01L76.3858 111ZM62.7767 111H55.4801V109.31H62.7767V111ZM48.1835 111H40.8869V109.31H48.1835V111ZM33.5903 111H26.2937V109.31H33.5903V111ZM18.9971 111H11.7004V109.31H18.9971V111ZM84.7958 109.956L84.3783 108.316C86.6746 107.739 88.9113 106.904 91.0387 105.851L91.7942 107.362C89.5674 108.475 87.2115 109.35 84.7958 109.956ZM98.0769 103.326L97.0132 102.013C98.8522 100.522 100.542 98.8324 102.033 96.9933L103.355 98.057C101.795 99.9955 100.015 101.775 98.0769 103.336V103.326ZM107.382 91.7644L105.871 91.0089C106.924 88.8915 107.759 86.6449 108.336 84.3485L109.976 84.7561C109.37 87.1717 108.505 89.5277 107.391 91.7644H107.382ZM110.99 77.37L109.3 77.3203C109.31 76.9823 109.32 76.6543 109.32 76.3163V70.0535H111.01V76.3163C111.01 76.6741 111.01 77.0221 110.99 77.37ZM111.01 62.747H109.32V55.4503H111.01V62.747ZM111.01 48.1537H109.32V40.8571H111.01V48.1537ZM111.01 33.5605H109.32V26.2639H111.01V33.5605ZM111.01 18.9673H109.32V11.6707H111.01V18.9673Z" fill="#444545"/>
<g clip-path="url(#clip1_204_92)">
<path d="M40.6389 75.3083C41.4517 70.5338 44.5804 65.3093 51.2838 62.9497C48.7015 60.9849 47.4396 58.4175 47.736 55.2071C47.9366 53.036 48.9351 51.2177 50.5937 49.7972C54.0307 46.8529 59.0381 47.1939 62.1368 50.5224C65.005 53.6012 65.4122 59.4208 60.7192 62.9662C66.5618 65.0865 70.1007 69.1746 71.394 75.4713C72.388 74.4216 73.3521 73.5065 74.2009 72.4942C78.0555 67.8961 79.8788 62.5654 79.8085 56.5858C79.7965 55.5555 79.6588 54.5223 79.5301 53.498C79.4178 52.6038 79.6857 52.0491 80.3594 51.9579C81.0435 51.8651 81.4836 52.2973 81.6153 53.196C82.1827 57.0688 82.0195 60.9161 80.795 64.6349C77.5615 74.462 70.8102 80.4267 60.6877 82.5829C59.7896 82.7743 59.2102 82.4707 59.1039 81.8143C58.9947 81.1414 59.3584 80.6973 60.1608 80.5523C62.9646 80.0454 65.6187 79.1168 68.0603 77.6469C69.6845 76.669 69.5438 77.1699 69.1591 75.1917C68.0603 69.5544 63.6787 65.4125 57.9887 64.5183C50.7838 63.3849 43.8723 68.4016 42.7526 75.5804C42.6219 76.4208 42.9197 77.0588 43.6463 77.4944C46.1642 79.0076 48.8782 80.0005 51.7628 80.5448C52.6371 80.7093 52.9933 81.1399 52.8781 81.8218C52.7703 82.4603 52.2164 82.7548 51.3527 82.5948C47.1013 81.8068 43.2406 80.1291 39.8634 77.4211C34.3561 73.0056 31.1825 67.2592 30.2619 60.2806C29.9356 57.8119 29.9895 55.3327 30.4445 52.876C30.5658 52.221 30.9879 51.898 31.5658 51.9579C32.1451 52.0177 32.4415 52.3825 32.5148 52.9328C32.5373 53.0973 32.4804 53.2722 32.458 53.4427C31.3337 62.0406 33.931 69.2838 40.3754 75.1244C40.4368 75.1797 40.5101 75.2201 40.6434 75.3113L40.6389 75.3083ZM56.0187 49.8779C52.6281 49.857 49.7823 52.6786 49.7719 56.0744C49.7614 59.4388 52.5442 62.2529 55.9274 62.2978C59.3105 62.3426 62.1727 59.5315 62.2057 56.1312C62.2386 52.7474 59.4198 49.8973 56.0172 49.8764L56.0187 49.8779Z" fill="#444444"/>
<path d="M48.5474 43.5274C48.8902 41.5386 49.2569 39.5065 49.5728 37.4655C49.6162 37.1843 49.4979 36.7746 49.3018 36.5773C47.9216 35.1821 46.5055 33.8214 45.0894 32.4607C44.7211 32.1078 44.4696 31.7206 44.6343 31.2047C44.799 30.6918 45.2061 30.5213 45.7271 30.4511C47.6911 30.1834 49.6476 29.8589 51.6117 29.5987C51.9979 29.5479 52.17 29.3819 52.3227 29.0694C53.182 27.3094 54.0652 25.5615 54.914 23.7985C55.14 23.326 55.4484 23.003 55.9783 23C56.5082 22.997 56.8256 23.3051 57.0561 23.7821C57.9064 25.5465 58.7926 27.293 59.6459 29.0559C59.8135 29.4029 60.0171 29.5449 60.4138 29.5972C62.4003 29.8604 64.3838 30.1445 66.3568 30.4929C66.716 30.5557 67.1906 30.8892 67.2954 31.2032C67.4002 31.5187 67.225 32.0764 66.9735 32.3366C65.5918 33.7601 64.1562 35.1328 62.7191 36.5025C62.4048 36.8015 62.303 37.0752 62.3853 37.5163C62.7431 39.4407 63.0455 41.3756 63.3853 43.3046C63.4706 43.7905 63.4242 44.2152 63.0096 44.5202C62.568 44.8447 62.1219 44.7341 61.6743 44.4963C59.9602 43.5887 58.2357 42.7035 56.5307 41.7794C56.143 41.5685 55.8436 41.5655 55.4574 41.7734C53.7134 42.7139 51.959 43.6365 50.1985 44.5442C49.3318 44.9912 48.486 44.4828 48.5459 43.5289L48.5474 43.5274ZM63.8029 32.2185C62.6428 32.042 61.333 31.7475 60.0111 31.6682C58.8585 31.5994 58.2268 31.1015 57.7956 30.0653C57.2896 28.8451 56.64 27.6863 55.9888 26.3734C55.4229 27.5143 54.9274 28.5311 54.4185 29.5404C53.2957 31.7624 53.8362 31.3587 51.2614 31.7564C50.1806 31.9239 49.0997 32.0779 48.1207 32.223C48.965 33.1291 49.7375 34.1295 50.682 34.9279C51.7045 35.7907 51.9994 36.6924 51.6476 37.9798C51.3212 39.1716 51.2135 40.4231 50.9904 41.7644C52.414 41.0198 53.7448 40.3693 55.0292 39.6351C55.7104 39.2463 56.2747 39.2478 56.9528 39.6321C58.2387 40.3618 59.5665 41.0153 60.9961 41.7629C60.7192 40.139 60.4827 38.6348 60.1983 37.1395C60.0785 36.5085 60.2102 36.0375 60.6713 35.5694C61.7431 34.4794 62.7641 33.3385 63.8059 32.2185H63.8029Z" fill="#444444"/>
<path d="M46.6582 38.5121C46.5624 38.6512 46.4022 38.9786 46.1597 39.2239C45.1103 40.278 44.0221 41.2948 42.9832 42.3595C42.796 42.5509 42.6628 42.9232 42.7002 43.1849C42.9188 44.6951 43.2317 46.1934 43.4308 47.7051C43.4787 48.067 43.299 48.5425 43.064 48.8371C42.7661 49.2094 42.2916 49.1272 41.8754 48.9074C40.5236 48.1941 39.1629 47.4943 37.8201 46.7631C37.4803 46.5777 37.2198 46.5672 36.874 46.7541C35.5507 47.4749 34.2035 48.1507 32.8741 48.8625C32.4385 49.0958 32.0224 49.1855 31.6062 48.87C31.205 48.5649 31.1152 48.1672 31.2095 47.6663C31.4924 46.1665 31.7514 44.6607 31.9745 43.1505C32.0104 42.9068 31.8847 42.5569 31.7095 42.3774C30.6691 41.3143 29.5973 40.281 28.5225 39.2523C28.1377 38.8829 27.8698 38.4837 28.0659 37.9409C28.2605 37.4011 28.7305 37.268 29.2515 37.1992C30.7455 36.9974 32.2379 36.7865 33.7259 36.5413C33.9265 36.5084 34.1615 36.2931 34.2603 36.1017C34.913 34.8412 35.5432 33.5702 36.1555 32.2887C36.4085 31.7579 36.6734 31.2719 37.3501 31.2794C37.9908 31.2869 38.2572 31.7504 38.4997 32.2603C39.103 33.5223 39.7392 34.7679 40.344 36.0284C40.5057 36.3664 40.6928 36.5353 41.1015 36.5832C42.5984 36.7611 44.0864 36.9989 45.5774 37.2217C46.272 37.3248 46.6552 37.7136 46.6582 38.5136V38.5121ZM41.0491 46.1007C40.8754 45.045 40.7916 44.0985 40.5521 43.1953C40.3066 42.2683 40.5985 41.6462 41.2826 41.0451C41.9817 40.4306 42.5895 39.7143 43.2676 39.013C42.2661 38.871 41.3096 38.711 40.347 38.6078C39.5776 38.5256 39.0327 38.2385 38.7153 37.4714C38.3336 36.5503 37.8381 35.6755 37.3321 34.6602C36.8531 35.6277 36.3815 36.4471 36.0342 37.3159C35.684 38.1936 35.0882 38.5555 34.1735 38.6272C33.2499 38.699 32.3367 38.8859 31.4326 39.022C32.19 39.8085 32.8801 40.5786 33.6301 41.2874C34.1391 41.7688 34.3037 42.2713 34.1526 42.9606C33.9355 43.9594 33.8038 44.9762 33.6151 46.1112C34.6451 45.5699 35.5702 45.1183 36.4609 44.6069C37.0701 44.257 37.6091 44.257 38.2183 44.6069C39.106 45.1168 40.0281 45.5684 41.0491 46.1022V46.1007Z" fill="#444444"/>
<path d="M69.6411 49.0824C68.8881 49.0929 68.3836 48.4933 68.4974 47.8129C68.7504 46.2847 69.0049 44.758 69.2938 43.2373C69.3671 42.85 69.2848 42.5973 69.0049 42.3297C67.9271 41.3039 66.8762 40.2497 65.8014 39.2195C65.4301 38.8636 65.1966 38.4718 65.3717 37.9589C65.5454 37.4461 65.981 37.2771 66.4825 37.2083C67.9974 36.999 69.5123 36.7926 71.0198 36.5414C71.2368 36.5055 71.4883 36.2708 71.5961 36.0614C72.2787 34.7441 72.9389 33.4148 73.5751 32.0735C73.8012 31.5965 74.1155 31.2825 74.6454 31.2825C75.1754 31.2825 75.4912 31.595 75.7188 32.0705C76.3565 33.4103 77.0346 34.7321 77.6798 36.0674C77.834 36.3859 78.0166 36.5339 78.3968 36.5788C79.8923 36.7582 81.3893 36.9601 82.8683 37.2412C83.2515 37.3145 83.6886 37.6375 83.8967 37.9709C84.1572 38.3881 83.8952 38.8292 83.5389 39.1716C82.4686 40.2049 81.4162 41.259 80.3354 42.2803C80.0195 42.5779 79.9222 42.8515 80.0091 43.2941C80.298 44.7715 80.56 46.2563 80.7531 47.7471C80.798 48.091 80.6168 48.5441 80.3893 48.8237C80.0869 49.1945 79.6199 49.1332 79.2007 48.9119C77.8475 48.1987 76.4867 47.5019 75.1469 46.7662C74.7802 46.5658 74.5017 46.5763 74.1425 46.7722C72.8191 47.4929 71.4779 48.1822 70.1411 48.876C69.9525 48.9732 69.7459 49.036 69.6411 49.0779V49.0824ZM80.5764 39.0101C79.542 38.8651 78.542 38.7036 77.5376 38.59C76.831 38.5107 76.355 38.2161 76.0601 37.5343C75.6544 36.5967 75.1619 35.6981 74.6454 34.6603C74.1754 35.6024 73.7038 36.3979 73.376 37.2487C73.0167 38.1832 72.391 38.5615 71.4285 38.6303C70.5243 38.6946 69.6306 38.8875 68.7369 39.0221C69.5243 39.837 70.2503 40.6295 71.0258 41.3727C71.4838 41.8123 71.5976 42.2848 71.4779 42.8874C71.2758 43.9147 71.1186 44.9494 70.9195 46.1128C71.9689 45.5625 72.909 45.0945 73.8221 44.5801C74.388 44.2616 74.8969 44.2571 75.4628 44.5741C76.3774 45.0855 77.316 45.555 78.3669 46.1068C78.1678 44.9449 78.0106 43.9117 77.81 42.8844C77.6918 42.2818 77.8055 41.8123 78.2681 41.3727C79.0465 40.634 79.7725 39.84 80.5764 39.0116V39.0101Z" fill="#444444"/>
<path d="M57.0202 81.9818C57.0142 82.559 56.5711 82.9986 55.9918 83.0016C55.387 83.0045 54.9334 82.532 54.9559 81.9249C54.9783 81.3478 55.4334 80.9246 56.0157 80.9381C56.5936 80.9515 57.0262 81.4016 57.0202 81.9803V81.9818Z" fill="#444444"/>
</g>
</g>
<defs>
<clipPath id="clip0_204_92">
<rect width="111" height="111" fill="white"/>
</clipPath>
<clipPath id="clip1_204_92">
<rect width="56" height="60" fill="white" transform="translate(28 23)"/>
</clipPath>
</defs>
</svg>
