<svg width="111" height="111" viewBox="0 0 111 111" fill="none" xmlns="http://www.w3.org/2000/svg">
<g clip-path="url(#clip0_204_72)">
<path d="M4.36405 111H0V106.626H1.68995V109.31H4.36405V111Z" fill="#444545"/>
<path d="M1.68995 99.8165H0V92.997H1.68995V99.8165ZM1.68995 86.1775H0V79.3581H1.68995V86.1775ZM1.68995 72.5386H0V65.7192H1.68995V72.5386ZM1.68995 58.8997H0V52.0803H1.68995V58.8997ZM1.68995 45.2608H0V38.4414H1.68995V45.2608ZM1.68995 31.6219H0V24.8025H1.68995V31.6219ZM1.68995 17.983H0V11.1636H1.68995V17.983Z" fill="#444545"/>
<path d="M1.68995 4.36405H0V0H4.36405V1.68995H1.68995V4.36405Z" fill="#444545"/>
<path d="M99.8165 1.68995H92.9971V0H99.8165V1.68995ZM86.1776 1.68995H79.3582V0H86.1776V1.68995ZM72.5387 1.68995H65.7192V0H72.5387V1.68995ZM58.8998 1.68995H52.0803V0H58.8998V1.68995ZM45.2609 1.68995H38.4414V0H45.2609V1.68995ZM31.622 1.68995H24.8025V0H31.622V1.68995ZM17.9831 1.68995H11.1636V0H17.9831V1.68995Z" fill="#444545"/>
<path d="M111 4.36405H109.31V1.68995H106.626V0H111V4.36405Z" fill="#444545"/>
<path d="M76.3858 111H70.0833V109.31H76.3162C76.6642 109.31 77.0121 109.31 77.36 109.3L77.4097 110.99C77.0717 111 76.7338 111.01 76.3958 111.01L76.3858 111ZM62.7767 111H55.4801V109.31H62.7767V111ZM48.1835 111H40.8869V109.31H48.1835V111ZM33.5903 111H26.2937V109.31H33.5903V111ZM18.9971 111H11.7004V109.31H18.9971V111ZM84.7958 109.956L84.3783 108.316C86.6746 107.739 88.9113 106.904 91.0387 105.851L91.7942 107.362C89.5674 108.475 87.2115 109.35 84.7958 109.956ZM98.0769 103.326L97.0132 102.013C98.8522 100.522 100.542 98.8324 102.033 96.9933L103.355 98.057C101.795 99.9955 100.015 101.775 98.0769 103.336V103.326ZM107.382 91.7644L105.871 91.0089C106.924 88.8915 107.759 86.6449 108.336 84.3485L109.976 84.7561C109.37 87.1717 108.505 89.5277 107.391 91.7644H107.382ZM110.99 77.37L109.3 77.3203C109.31 76.9823 109.32 76.6543 109.32 76.3163V70.0535H111.01V76.3163C111.01 76.6741 111.01 77.0221 110.99 77.37ZM111.01 62.747H109.32V55.4503H111.01V62.747ZM111.01 48.1537H109.32V40.8571H111.01V48.1537ZM111.01 33.5605H109.32V26.2639H111.01V33.5605ZM111.01 18.9673H109.32V11.6707H111.01V18.9673Z" fill="#444545"/>
<g clip-path="url(#clip1_204_72)">
<path d="M59.5175 49.8515C62.45 50.7374 64.9525 52.2058 67.1257 54.3314C68.436 52.538 69.2507 50.6022 69.6574 48.5011C70.3235 45.0509 69.8221 41.7604 68.2334 38.6195C68.0658 38.2873 67.8676 37.8098 67.99 37.5337C68.1634 37.1454 68.5745 36.7384 68.9753 36.5989C69.5116 36.4119 69.9591 36.783 70.2287 37.2806C71.2024 39.0826 71.8626 40.9924 72.1497 43.0116C73.2953 51.0567 68.9884 58.6415 61.4822 61.8314C51.0712 66.258 38.8879 59.7748 36.9713 48.7873C35.3126 39.2868 41.1791 30.56 50.7185 28.4373C54.9234 27.5011 58.9709 28.0864 62.8071 30.0337C63.6102 30.4421 63.8798 31.0447 63.5723 31.6832C63.2458 32.3592 62.5535 32.562 61.7504 32.1492C59.5612 31.0274 57.2336 30.445 54.7762 30.3875C46.824 30.2019 39.9635 36.2221 39.1619 44.0313C38.7902 47.6497 39.6487 50.9474 41.6324 53.9848C41.6965 54.0826 41.7767 54.1703 41.8102 54.2134C43.033 53.3304 44.1684 52.3812 45.4277 51.6377C46.6681 50.9057 48.0352 50.3807 49.3805 49.7508C47.098 47.8798 45.9233 45.4306 46.2221 42.4191C46.4349 40.2719 47.4143 38.4598 49.0861 37.0476C52.5171 34.1511 57.6475 34.479 60.6558 37.7451C63.5606 40.899 63.8652 46.2748 59.516 49.8529L59.5175 49.8515ZM65.5035 56.2024C59.8236 49.8831 49.0336 49.9996 43.5126 56.2039C49.4432 62.5576 60.0203 62.2283 65.5035 56.2024ZM60.4445 43.2949C60.4561 40.0965 57.7466 37.4157 54.5037 37.4157C51.2884 37.4157 48.6007 40.0433 48.5643 43.2216C48.5264 46.41 51.2228 49.1123 54.4672 49.1382C57.7014 49.1641 60.4328 46.4934 60.4445 43.2935V43.2949Z" fill="#444444"/>
<path d="M62.9135 74.0743C64.4482 71.7963 66.4975 70.1726 69.0671 69.186C65.9087 65.3016 65.862 61.5796 68.9053 58.8601C71.6236 56.4324 75.7468 56.5374 78.3762 59.083C80.6689 61.3021 81.6366 65.6784 77.9521 69.1702C80.5158 70.1741 82.5753 71.7776 84.1319 74.0974C85.228 72.6218 85.948 71.0398 86.2876 69.3097C87.7159 62.0226 83.0796 55.3452 75.6871 54.0135C75.2994 53.943 74.8986 53.9387 74.5109 53.8639C73.7573 53.7186 73.3405 53.1779 73.4527 52.5307C73.565 51.8778 74.1305 51.4521 74.8636 51.524C77.9666 51.8231 80.7942 52.8586 83.1874 54.8447C88.0031 58.8442 89.9401 63.9828 88.5686 70.0231C87.1854 76.1108 83.2137 80.0341 77.0455 81.56C68.2713 83.7316 59.3222 77.5993 58.2115 68.7402C58.1095 67.9205 58.0833 67.0863 58.0833 66.2594C58.0833 65.5216 58.6794 64.9665 59.3411 64.9996C60.0057 65.0326 60.4576 65.5461 60.4474 66.304C60.4109 69.0408 61.1397 71.5533 62.6905 73.8284C62.7444 73.9061 62.8173 73.9708 62.9106 74.0729L62.9135 74.0743ZM64.5692 75.9957C69.4052 80.7733 77.6285 80.8164 82.4062 76.0518C81.0857 73.0633 77.5323 70.8025 73.7355 70.7493C69.6836 70.6932 66.6607 72.5441 64.5692 75.9957ZM69.035 63.9166C69.035 66.373 71.0187 68.3447 73.4965 68.3505C75.9859 68.3562 77.9856 66.4018 77.9972 63.954C78.0089 61.4444 76.0311 59.4857 73.4979 59.4943C70.9939 59.5029 69.0365 61.4444 69.035 63.9166Z" fill="#444444"/>
<path d="M24.8798 74.0872C26.4393 71.7832 28.4711 70.1739 31.0989 69.1687C29.1736 67.4127 28.2801 65.3086 28.6868 62.7789C28.9564 61.1006 29.8047 59.7171 31.1383 58.6385C33.9207 56.3863 37.993 56.6509 40.4868 59.2238C42.7474 61.5565 43.4659 65.8336 39.9154 69.1615C42.4734 70.1739 44.5401 71.7631 46.1026 74.0972C46.9727 72.964 47.6286 71.7703 47.9405 70.4587C48.2582 69.1169 48.3981 67.7291 48.541 66.3527C48.6241 65.5531 48.9957 65.0225 49.688 64.998C50.3818 64.9721 50.9036 65.5388 50.9342 66.3513C51.2301 74.0196 45.2732 80.8465 37.5441 81.8504C29.4272 82.9045 21.6907 77.4395 20.2332 69.2995C18.7174 60.8432 24.8054 52.7104 33.5038 51.6174C33.7983 51.58 34.0941 51.5124 34.3871 51.5196C35.0284 51.5383 35.5254 52.0201 35.572 52.6183C35.6187 53.2123 35.2164 53.7128 34.5489 53.8551C33.4426 54.0924 32.2999 54.219 31.2287 54.5627C23.2109 57.127 19.8586 66.9697 24.648 73.8096C24.7034 73.8887 24.7719 73.9592 24.8798 74.0857V74.0872ZM44.3885 76.0301C42.8188 72.8115 38.9374 70.5507 35.2397 70.7319C31.3598 70.9232 28.4827 72.718 26.5442 76.0143C31.6178 80.9299 39.8338 80.6567 44.3871 76.0301H44.3885ZM35.4919 59.4942C32.9908 59.4913 31.0159 61.4314 31.01 63.8964C31.0042 66.3585 32.9777 68.3388 35.4496 68.3518C37.9726 68.3647 39.9752 66.393 39.9694 63.9021C39.965 61.4357 37.9959 59.497 35.4919 59.4942Z" fill="#444444"/>
<path d="M29.5496 34.4846C29.3004 34.6687 29.159 34.7967 28.9972 34.8859C28.4288 35.2009 27.8895 35.1433 27.4595 34.6558C27.0544 34.1956 27.0135 33.6304 27.4246 33.186C28.2408 32.3044 29.1007 31.4602 29.9883 30.6491C30.4839 30.1961 31.1091 30.2723 31.6484 30.7828C32.3961 31.4933 33.1278 32.2195 33.8507 32.9544C34.3987 33.511 34.4498 34.1539 34.0213 34.6544C33.5738 35.1764 32.9106 35.1994 32.2431 34.7133C32.1717 34.6615 32.1032 34.604 31.9195 34.4588C31.9195 34.8442 31.9195 35.1002 31.9195 35.3562C31.9195 38.7474 31.9239 42.1371 31.9152 45.5283C31.9137 46.3221 31.4225 46.8068 30.6996 46.7895C30.0116 46.7723 29.5729 46.2962 29.5482 45.5369C29.5423 45.3658 29.5482 45.1961 29.5482 45.0249C29.5482 41.7804 29.5482 38.5359 29.5482 35.2929V34.4846H29.5496Z" fill="#444444"/>
<path d="M77.0849 34.4846C76.8342 34.6687 76.6942 34.7967 76.5325 34.8859C75.964 35.2009 75.4248 35.1433 74.9948 34.6558C74.5896 34.1956 74.5488 33.6304 74.9598 33.186C75.776 32.3044 76.6374 31.4602 77.5236 30.6491C78.0191 30.1961 78.6444 30.2723 79.1837 30.7828C79.9314 31.4933 80.663 32.2195 81.386 32.9544C81.934 33.511 81.985 34.1539 81.5565 34.6544C81.109 35.1764 80.4459 35.1994 79.7783 34.7133C79.7069 34.6615 79.6384 34.604 79.4548 34.4588C79.4548 34.8442 79.4548 35.1002 79.4548 35.3562C79.4548 38.7474 79.4591 42.1371 79.4504 45.5283C79.4489 46.3221 78.9578 46.8068 78.2348 46.7895C77.5469 46.7723 77.1082 46.2962 77.0849 45.5355C77.079 45.3643 77.0849 45.1946 77.0849 45.0235C77.0849 41.779 77.0849 38.5345 77.0849 35.2915C77.0849 35.0585 77.0849 34.8255 77.0849 34.4832V34.4846Z" fill="#444444"/>
<path d="M67.442 34.0101C67.4434 34.6644 66.9406 35.1851 66.2905 35.2009C65.6376 35.2153 65.0487 34.6342 65.0648 33.9885C65.0808 33.3485 65.6099 32.8524 66.2731 32.8552C66.9479 32.8581 67.4391 33.3442 67.4405 34.0101H67.442Z" fill="#444444"/>
</g>
</g>
<defs>
<clipPath id="clip0_204_72">
<rect width="111" height="111" fill="white"/>
</clipPath>
<clipPath id="clip1_204_72">
<rect width="69" height="54" fill="white" transform="translate(20 28)"/>
</clipPath>
</defs>
</svg>
