<svg width="23" height="23" viewBox="0 0 23 23" fill="none" xmlns="http://www.w3.org/2000/svg">
<g clip-path="url(#clip0_155_417)">
<path d="M14.1725 0C12.5001 7.5591e-05 10.8622 0.472653 9.44984 1.36263C8.03748 2.2526 6.90887 3.52328 6.19564 5.02645C5.48241 6.52962 5.21396 8.20333 5.4216 9.85236C5.62924 11.5014 6.30442 13.0578 7.36838 14.3399L0 21.8063L1.21731 23L8.57764 15.5416C9.67068 16.4322 10.9631 17.0486 12.346 17.339C13.7289 17.6294 15.1618 17.5853 16.524 17.2103C17.8861 16.8353 19.1377 16.1405 20.1731 15.1843C21.2085 14.2282 21.9975 13.0387 22.4736 11.7162C22.9497 10.3937 23.0989 8.97684 22.9087 7.58502C22.7186 6.19319 22.1945 4.86716 21.3808 3.71867C20.5671 2.57019 19.4875 1.63288 18.233 0.98571C16.9785 0.338541 15.5859 0.000477531 14.1725 0ZM14.1725 15.83C12.7661 15.83 11.3914 15.4156 10.2221 14.6392C9.05282 13.8628 8.14146 12.7593 7.60329 11.4682C7.06512 10.1771 6.92431 8.75635 7.19866 7.38572C7.47302 6.01508 8.15021 4.75608 9.14462 3.7679C10.139 2.77973 11.406 2.10677 12.7853 1.83413C14.1646 1.56149 15.5942 1.70142 16.8935 2.23622C18.1927 2.77101 19.3032 3.67666 20.0845 4.83863C20.8658 6.0006 21.2829 7.36671 21.2829 8.7642C21.2807 10.6375 20.5309 12.4335 19.1979 13.7581C17.8649 15.0828 16.0576 15.8279 14.1725 15.83Z" fill="white"/>
</g>
<defs>
<clipPath id="clip0_155_417">
<rect width="23" height="23" fill="white"/>
</clipPath>
</defs>
</svg>
