<svg width="112" height="112" viewBox="0 0 112 112" fill="none" xmlns="http://www.w3.org/2000/svg">
<g clip-path="url(#clip0_26_267)">
<path d="M4.39 111.66H0V107.26H1.7V109.96H4.39V111.66Z" fill="#444545"/>
<path d="M1.7 100.41H0V93.55H1.7V100.41ZM1.7 86.69H0V79.83H1.7V86.69ZM1.7 72.97H0V66.11H1.7V72.97ZM1.7 59.25H0V52.39H1.7V59.25ZM1.7 45.53H0V38.67H1.7V45.53ZM1.7 31.81H0V24.95H1.7V31.81ZM1.7 18.09H0V11.23H1.7V18.09Z" fill="#444545"/>
<path d="M1.7 4.39H0V0H4.39V1.7H1.7V4.39Z" fill="#444545"/>
<path d="M100.41 1.7H93.55V0H100.41V1.7ZM86.69 1.7H79.83V0H86.69V1.7ZM72.97 1.7H66.11V0H72.97V1.7ZM59.25 1.7H52.39V0H59.25V1.7ZM45.53 1.7H38.67V0H45.53V1.7ZM31.81 1.7H24.95V0H31.81V1.7ZM18.09 1.7H11.23V0H18.09V1.7Z" fill="#444545"/>
<path d="M111.66 4.39H109.96V1.7H107.26V0H111.66V4.39Z" fill="#444545"/>
<path d="M76.76 111.66H70.49V109.96H76.76C77.11 109.96 77.46 109.96 77.81 109.94L77.86 111.64C77.5 111.65 77.13 111.66 76.76 111.66ZM63.15 111.66H55.81V109.96H63.15V111.66ZM48.47 111.66H41.13V109.96H48.47V111.66ZM33.79 111.66H26.45V109.96H33.79V111.66ZM19.11 111.66H11.77V109.96H19.11V111.66ZM85.3 110.61L84.88 108.96C87.19 108.38 89.44 107.54 91.58 106.48L92.34 108C90.1 109.12 87.73 110 85.3 110.61ZM98.65 103.94L97.58 102.62C99.43 101.13 101.13 99.43 102.63 97.57L103.96 98.64C102.39 100.59 100.6 102.38 98.65 103.95V103.94ZM108.01 92.31L106.49 91.55C107.55 89.42 108.39 87.16 108.97 84.85L110.62 85.26C110.01 87.69 109.14 90.06 108.02 92.31H108.01ZM111.64 77.83L109.94 77.78C109.95 77.44 109.96 77.11 109.96 76.77V70.47H111.66V76.77C111.66 77.13 111.66 77.48 111.64 77.83ZM111.66 63.12H109.96V55.78H111.66V63.12ZM111.66 48.44H109.96V41.1H111.66V48.44ZM111.66 33.76H109.96V26.42H111.66V33.76ZM111.66 19.08H109.96V11.74H111.66V19.08Z" fill="#444545"/>
<path opacity="0.13" d="M68.03 81.71C64.51 85.47 59.51 87.83 53.95 87.83C48.39 87.83 43.28 85.43 39.76 81.6L29.51 81.56C34.16 90.3 43.36 96.24 53.95 96.24C64.54 96.24 73.6 90.38 78.28 81.76L68.03 81.72V81.71Z" fill="#4D4D4F"/>
<path d="M53.9501 46.94C61.9859 46.94 68.5001 40.4257 68.5001 32.39C68.5001 24.3543 61.9859 17.84 53.9501 17.84C45.9144 17.84 39.4001 24.3543 39.4001 32.39C39.4001 40.4257 45.9144 46.94 53.9501 46.94Z" stroke="#4D4D4F" stroke-width="2" stroke-miterlimit="10"/>
<path d="M61.2785 86.2577C71.0445 82.2125 75.6822 71.0162 71.637 61.2501C67.5917 51.484 56.3954 46.8464 46.6293 50.8916C36.8633 54.9368 32.2256 66.1331 36.2708 75.8992C40.3161 85.6653 51.5124 90.3029 61.2785 86.2577Z" stroke="#4D4D4F" stroke-width="2" stroke-miterlimit="10"/>
<path d="M53.9502 47.81C53.1502 47.81 52.3502 47.86 51.5602 47.95L51.7302 49.43C51.9502 49.41 52.1602 49.38 52.3802 49.37C52.3802 49.37 52.4702 49.37 52.5102 49.36C52.5302 49.36 52.5402 49.36 52.5602 49.36C52.5702 49.36 52.5902 49.36 52.6002 49.36C52.6002 49.36 52.6202 49.36 52.6302 49.36C52.6402 49.36 52.6502 49.36 52.6602 49.36C52.6602 49.36 52.6802 49.36 52.6902 49.36C52.6902 49.36 52.7102 49.36 52.7202 49.36C52.7202 49.36 52.7402 49.36 52.7502 49.36C52.7502 49.36 52.7602 49.36 52.7702 49.36C52.7702 49.36 52.7802 49.36 52.7902 49.36C52.7902 49.36 52.8002 49.36 52.8102 49.36C52.8102 49.36 52.8202 49.36 52.8302 49.36C52.8302 49.36 52.8402 49.36 52.8502 49.36H52.8702H52.8802V47.87L53.9502 47.81ZM47.6502 48.78C43.8102 50 40.4302 52.3 37.8702 55.44L39.0202 56.38C39.3102 56.02 39.6202 55.68 39.9302 55.34C39.9302 55.34 39.9902 55.28 40.0202 55.25C40.0202 55.25 40.0402 55.23 40.0502 55.22C40.0502 55.22 40.0502 55.21 40.0602 55.2C40.0602 55.2 40.0802 55.18 40.0902 55.17C40.0902 55.17 40.0902 55.16 40.1002 55.15C40.1002 55.15 40.1002 55.15 40.1102 55.13C40.1102 55.13 40.1102 55.12 40.1202 55.11C40.1202 55.11 40.1202 55.1 40.1302 55.09C40.1302 55.09 40.1302 55.08 40.1402 55.07C40.1402 55.07 40.1402 55.07 40.1502 55.06C40.1502 55.06 40.1502 55.06 40.1602 55.05C40.1602 55.05 40.1602 55.05 40.1702 55.04C40.1702 55.04 40.1702 55.04 40.1802 55.03C40.1802 55.03 40.1802 55.02 40.1902 55.01C40.1902 55.01 40.1902 55.01 40.2002 55.01C40.2002 55.01 40.2002 55.01 40.2102 55.01C40.2102 55.01 40.2202 55.01 40.2302 55C40.2302 55 40.2302 55 40.2402 55C40.2402 55 40.2502 55 40.2602 54.99C40.2602 54.99 40.2702 54.99 40.2802 54.98C40.2802 54.98 40.3102 54.95 40.3302 54.94C40.3302 54.94 40.3402 54.94 40.3502 54.93C40.3502 54.93 40.3802 54.9 40.4002 54.89C40.4002 54.89 40.4102 54.89 40.4202 54.88C40.4202 54.88 40.4302 54.88 40.4402 54.87C40.4402 54.87 40.4602 54.85 40.4702 54.84C41.7602 53.73 43.2002 52.78 44.7602 52.04C44.7602 52.04 44.7902 52.03 44.8002 52.02C44.8002 52.02 44.8302 52.01 44.8402 52C44.8402 52 44.8502 52 44.8602 52C44.8602 52 44.8702 52 44.8802 52C44.8802 52 44.8902 52 44.9002 52C44.9002 52 44.9102 52 44.9202 52C44.9202 52 44.9302 52 44.9402 52C44.9402 52 44.9402 52 44.9502 52C44.9502 52 44.9602 52 44.9702 52C44.9702 52 44.9702 52 44.9802 52C44.9802 52 44.9802 52 44.9902 52C44.9902 52 44.9902 52 45.0002 52C45.0002 52 45.0002 52 45.0102 52C45.0102 52 45.0102 52 45.0202 52C45.0202 52 45.0202 52 45.0302 52C45.0302 52 45.0402 52 45.0502 52C45.0502 52 45.0802 51.99 45.0902 51.98C45.0902 51.98 45.1002 51.98 45.1102 51.98C45.4902 51.83 45.8802 51.69 46.2702 51.57L45.8202 50.15L47.6502 48.78ZM37.3802 56.06C37.1402 56.38 36.9102 56.71 36.6902 57.04L37.9202 57.87C37.9802 57.79 38.0302 57.7 38.0902 57.62C38.0902 57.62 38.1002 57.6 38.1102 57.6C38.1102 57.6 38.1102 57.59 38.1102 57.58C38.2402 57.39 38.3802 57.21 38.5102 57.02L37.3202 56.13L37.3802 56.06ZM36.6802 57.05C36.2402 57.71 35.8302 58.41 35.4702 59.12L36.7902 59.8C36.7902 59.8 36.7902 59.79 36.7902 59.78C36.7902 59.77 36.8002 59.76 36.8102 59.75C37.1402 59.12 37.5002 58.51 37.8902 57.92L36.6502 57.1L36.6802 57.05ZM34.0002 62.83C33.4702 64.68 33.2002 66.61 33.2002 68.55C33.2002 70.63 33.5102 72.69 34.1102 74.66L35.5302 74.22C35.4402 73.91 35.3502 73.6 35.2702 73.29C35.2702 73.29 35.2602 73.23 35.2502 73.2C35.2302 73.11 35.2102 73.02 35.1902 72.93C35.1902 72.93 35.1902 72.89 35.1802 72.87C35.1702 72.81 35.1502 72.75 35.1402 72.69C35.1402 72.69 35.1302 72.63 35.1202 72.6C35.1202 72.6 35.1202 72.56 35.1102 72.53C35.1102 72.53 35.1102 72.52 35.1102 72.51C35.0702 72.31 35.0302 72.1 34.9902 71.9C34.9902 71.9 34.9902 71.89 34.9902 71.88C34.9902 71.88 34.9902 71.87 34.9902 71.86C34.9902 71.86 34.9902 71.83 34.9902 71.82C34.9902 71.81 34.9902 71.79 34.9902 71.78C34.9902 71.72 34.9702 71.67 34.9602 71.61V71.59C34.9602 71.59 34.9602 71.58 34.9602 71.57C34.9602 71.57 34.9602 71.51 34.9502 71.48C34.9502 71.48 34.9502 71.47 34.9502 71.46C34.9502 71.46 34.9502 71.45 34.9502 71.44V71.42C34.9502 71.39 34.9502 71.35 34.9402 71.32C34.9402 71.32 34.9402 71.31 34.9402 71.3C34.9402 71.29 34.9402 71.27 34.9402 71.26V71.24C34.9402 71.24 34.9402 71.23 34.9402 71.22C34.9402 71.22 34.9402 71.21 34.9402 71.2C34.9402 71.2 34.9402 71.19 34.9402 71.18C34.9402 71.18 34.9402 71.17 34.9402 71.16C34.9402 71.16 34.9402 71.15 34.9402 71.14C34.9402 71.14 34.9402 71.13 34.9402 71.12C34.9402 71.12 34.9402 71.11 34.9402 71.1V71.08C34.9402 71.08 34.9402 71.07 34.9402 71.06C34.9402 71.06 34.9402 71.03 34.9402 71.02C34.9402 71.02 34.9402 71 34.9402 70.99C34.9402 70.99 34.9402 70.99 34.9402 70.98C34.9402 70.98 34.9402 70.98 34.9402 70.97V70.95V70.93C34.9402 70.93 34.9402 70.92 34.9402 70.91C34.9402 70.91 34.9402 70.9 34.9402 70.89C34.9402 70.89 34.9402 70.88 34.9402 70.87C34.9402 70.87 34.9402 70.86 34.9402 70.85C34.9402 70.85 34.9402 70.84 34.9402 70.83C34.9402 70.83 34.9402 70.82 34.9402 70.81C34.9402 70.81 34.9402 70.8 34.9402 70.79V70.77V70.75V70.73C34.9402 70.73 34.9402 70.73 34.9402 70.72C34.9402 70.72 34.9402 70.72 34.9402 70.71C34.9402 70.71 34.9402 70.71 34.9402 70.7C34.9402 70.7 34.9402 70.7 34.9402 70.69C34.9402 70.69 34.9402 70.69 34.9402 70.68C34.9402 70.68 34.9402 70.68 34.9402 70.67C34.9402 70.67 34.9402 70.67 34.9402 70.66C34.9402 70.66 34.9402 70.65 34.9402 70.64V70.62V70.6C34.9402 70.6 34.9402 70.59 34.9402 70.58C34.9402 70.58 34.9402 70.57 34.9402 70.56C34.9402 70.56 34.9402 70.55 34.9402 70.54C34.9402 70.54 34.9402 70.53 34.9402 70.52C34.9402 70.52 34.9402 70.51 34.9402 70.5C34.9402 70.5 34.9402 70.49 34.9402 70.48C34.9402 70.48 34.9402 70.47 34.9402 70.46C34.9402 70.46 34.9402 70.45 34.9402 70.44V70.42V70.4C34.9402 70.4 34.9402 70.39 34.9402 70.38C34.9402 70.38 34.9402 70.38 34.9402 70.37C34.9402 70.37 34.9402 70.37 34.9402 70.36C34.9402 70.36 34.9402 70.36 34.9402 70.35C34.9402 70.35 34.9402 70.35 34.9402 70.34C34.9402 70.34 34.9402 70.34 34.9402 70.33C34.9402 70.33 34.9402 70.33 34.9402 70.32C34.9402 70.32 34.9402 70.32 34.9402 70.31C34.9402 70.31 34.9402 70.3 34.9402 70.29C34.9402 70.29 34.9402 70.28 34.9402 70.27C34.9402 70.27 34.9402 70.27 34.9402 70.26C34.9402 70.26 34.9402 70.26 34.9402 70.25C34.9402 70.25 34.9402 70.24 34.9402 70.23C34.9402 70.23 34.9402 70.22 34.9402 70.21C34.9402 70.21 34.9402 70.2 34.9402 70.19C34.9402 70.19 34.9402 70.18 34.9402 70.17C34.9402 70.17 34.9402 70.16 34.9402 70.15C34.9402 70.15 34.9402 70.14 34.9402 70.13C34.9402 70.13 34.9402 70.13 34.9402 70.12C34.9402 70.12 34.9402 70.12 34.9402 70.11C34.9402 70.11 34.9402 70.11 34.9402 70.1C34.9402 70.1 34.9402 70.1 34.9402 70.09C34.9402 70.09 34.9402 70.09 34.9402 70.08C34.9402 70.08 34.9402 70.08 34.9402 70.07C34.9402 70.07 34.9402 70.07 34.9402 70.06C34.9402 70.06 34.9402 70.06 34.9402 70.05C34.9402 70.05 34.9402 70.05 34.9402 70.04C34.9402 70.04 34.9402 70.04 34.9402 70.03C34.9402 70.03 34.9402 70.02 34.9402 70.01C34.9402 70.01 34.9402 70 34.9402 69.99C34.9402 69.99 34.9402 69.98 34.9402 69.97C34.9402 69.97 34.9402 69.96 34.9402 69.95C34.9402 69.95 34.9402 69.94 34.9402 69.93C34.9402 69.93 34.9402 69.92 34.9402 69.91C34.9402 69.91 34.9402 69.9 34.9402 69.89C34.9402 69.89 34.9402 69.88 34.9402 69.87C34.9402 69.87 34.9402 69.87 34.9402 69.86C34.9402 69.86 34.9402 69.86 34.9402 69.85C34.9402 69.85 34.9402 69.85 34.9402 69.84C34.9402 69.84 34.9402 69.84 34.9402 69.83C34.9402 69.83 34.9402 69.83 34.9402 69.82C34.9402 69.82 34.9402 69.82 34.9402 69.81C34.9402 69.81 34.9402 69.81 34.9402 69.8C34.9402 69.8 34.9402 69.8 34.9402 69.79C34.9402 69.79 34.9402 69.79 34.9402 69.78C34.9402 69.78 34.9402 69.78 34.9402 69.77C34.9402 69.77 34.9402 69.77 34.9402 69.76C34.9402 69.76 34.9402 69.76 34.9402 69.75C34.9402 69.75 34.9402 69.75 34.9402 69.74C34.9402 69.74 34.9402 69.74 34.9402 69.73C34.9402 69.73 34.9402 69.73 34.9402 69.72C34.9402 69.72 34.9402 69.72 34.9402 69.71C34.9402 69.71 34.9402 69.71 34.9402 69.7C34.9402 69.7 34.9402 69.7 34.9402 69.69C34.9402 69.69 34.9402 69.69 34.9402 69.68C34.9402 69.68 34.9402 69.68 34.9402 69.67C34.9402 69.67 34.9402 69.67 34.9402 69.66C34.9402 69.66 34.9402 69.66 34.9402 69.65C34.9402 69.65 34.9402 69.65 34.9402 69.64C34.9402 69.64 34.9402 69.64 34.9402 69.63C34.9402 69.63 34.9402 69.63 34.9402 69.62C34.9402 69.62 34.9402 69.62 34.9402 69.61C34.9402 69.61 34.9402 69.61 34.9402 69.6C34.9402 69.6 34.9402 69.6 34.9402 69.59C34.9402 69.59 34.9402 69.59 34.9402 69.58C34.9402 69.58 34.9402 69.58 34.9402 69.57C34.9402 69.57 34.9402 69.57 34.9402 69.56C34.9402 69.56 34.9402 69.56 34.9402 69.55C34.9402 69.55 34.9402 69.55 34.9402 69.54C34.9402 69.54 34.9402 69.54 34.9402 69.53C34.9402 69.53 34.9402 69.53 34.9402 69.52C34.9402 69.52 34.9402 69.52 34.9402 69.51C34.9402 69.51 34.9402 69.51 34.9402 69.5C34.9402 69.5 34.9402 69.5 34.9402 69.49C34.9402 69.49 34.9402 69.49 34.9402 69.48C34.9402 69.48 34.9402 69.48 34.9402 69.47C34.9402 69.47 34.9402 69.47 34.9402 69.46C34.9402 69.46 34.9402 69.46 34.9402 69.45C34.9402 69.45 34.9402 69.45 34.9402 69.44C34.9402 69.44 34.9402 69.44 34.9402 69.43C34.9402 69.43 34.9402 69.43 34.9402 69.42C34.9402 69.42 34.9402 69.42 34.9402 69.41C34.9402 69.41 34.9402 69.41 34.9402 69.4V69.38C34.9402 69.38 34.9402 69.38 34.9402 69.37V69.36V69.34C34.9402 69.34 34.9402 69.34 34.9402 69.33C34.9402 69.33 34.9402 69.33 34.9402 69.32C34.9402 69.32 34.9402 69.32 34.9402 69.31C34.9402 69.31 34.9402 69.31 34.9402 69.3C34.9402 69.3 34.9402 69.3 34.9402 69.29C34.9402 69.29 34.9402 69.29 34.9402 69.28C34.9402 69.28 34.9402 69.27 34.9402 69.26C34.9402 69.26 34.9402 69.25 34.9402 69.24C34.9402 69.24 34.9402 69.23 34.9402 69.22C34.9402 69.22 34.9402 69.22 34.9402 69.21C34.9402 69.21 34.9402 69.21 34.9402 69.2C34.9402 69.2 34.9402 69.19 34.9402 69.18V69.17C34.9402 69.17 34.9402 69.16 34.9402 69.15C34.9402 69.15 34.9402 69.15 34.9402 69.14C34.9402 69.14 34.9402 69.13 34.9402 69.12C34.9402 69.12 34.9402 69.11 34.9402 69.1C34.9402 69.1 34.9402 69.09 34.9402 69.08C34.9402 69.08 34.9402 69.07 34.9402 69.06C34.9402 69.06 34.9402 69.05 34.9402 69.04C34.9402 69.04 34.9402 69.03 34.9402 69.02C34.9402 69.02 34.9402 69.02 34.9402 69.01C34.9402 69.01 34.9402 69 34.9402 68.99C34.9402 68.99 34.9402 68.98 34.9402 68.97C34.9402 68.97 34.9402 68.96 34.9402 68.95C34.9402 68.95 34.9402 68.95 34.9402 68.94C34.9402 68.94 34.9402 68.93 34.9402 68.92C34.9402 68.92 34.9402 68.91 34.9402 68.9C34.9402 68.9 34.9402 68.89 34.9402 68.88C34.9402 68.88 34.9402 68.87 34.9402 68.86C34.9402 68.86 34.9402 68.86 34.9402 68.85C34.9402 68.85 34.9402 68.85 34.9402 68.84C34.9402 68.84 34.9402 68.83 34.9402 68.82C34.9402 68.82 34.9402 68.82 34.9402 68.81C34.9402 68.81 34.9402 68.8 34.9402 68.79C34.9402 68.79 34.9402 68.78 34.9402 68.77V68.75V68.73C34.9402 68.73 34.9402 68.72 34.9402 68.71C34.9402 68.71 34.9402 68.69 34.9402 68.68C34.9402 68.68 34.9402 68.67 34.9402 68.66C34.9402 68.66 34.9402 68.64 34.9402 68.63C34.9402 68.63 34.9402 68.62 34.9402 68.61C35.0502 68 35.1902 67.4 35.3602 66.81L33.9302 66.4L34.0002 62.83ZM35.7702 74.93L34.3702 75.42C34.5002 75.8 34.6502 76.17 34.8002 76.54L36.1702 75.97C36.1702 75.97 36.1702 75.96 36.1702 75.95C36.1702 75.95 36.1702 75.93 36.1602 75.92C36.1602 75.92 36.1602 75.9 36.1502 75.89C36.0602 75.66 35.9702 75.43 35.8902 75.19L35.7702 74.93ZM36.1702 75.98L34.8002 76.55C35.1102 77.28 35.4602 78.01 35.8502 78.71L37.1402 77.98C37.1402 77.98 37.1402 77.97 37.1402 77.96C36.7902 77.33 36.4802 76.69 36.2002 76.02L36.1702 75.98ZM39.2702 81.02L38.1402 81.98C40.7602 85.06 44.1902 87.3 48.0502 88.44L48.4702 87.02C48.4702 87.02 48.4602 87.02 48.4502 87.02C48.4502 87.02 48.4402 87.02 48.4302 87.02C48.4302 87.02 48.4302 87.02 48.4202 87.02C48.4202 87.02 48.4202 87.02 48.4102 87.02C48.4102 87.02 48.4102 87.02 48.4002 87.02C48.4002 87.02 48.4002 87.02 48.3902 87.02C48.3902 87.02 48.3902 87.02 48.3802 87.02C48.3802 87.02 48.3802 87.02 48.3702 87.02C48.3702 87.02 48.3602 87.02 48.3502 87.02C48.3502 87.02 48.3402 87.02 48.3302 87.02C48.3302 87.02 48.3202 87.02 48.3102 87.02C48.3102 87.02 48.3002 87.02 48.2902 87.02C48.2902 87.02 48.2802 87.02 48.2702 87.02C48.2702 87.02 48.2602 87.02 48.2502 87.02C48.2502 87.02 48.2402 87.02 48.2302 87.02C48.2302 87.02 48.2202 87.02 48.2102 87.02C48.2102 87.02 48.2002 87.02 48.1902 87.02C48.1902 87.02 48.1802 87.02 48.1702 87.02C48.1702 87.02 48.1602 87.02 48.1502 87.02C48.1502 87.02 48.1402 87.02 48.1302 87.02C48.1302 87.02 48.1202 87.02 48.1102 87.02C48.1102 87.02 48.1002 87.02 48.0902 87.02C48.0902 87.02 48.0802 87.02 48.0702 87.02C48.0702 87.02 48.0602 87.02 48.0502 87.02C48.0502 87.02 48.0402 87.02 48.0302 87.02C48.0302 87.02 48.0202 87.02 48.0102 87.02C48.0102 87.02 48.0002 87.02 47.9902 87.02C47.9902 87.02 47.9502 87 47.9302 87C47.9302 87 47.9002 86.99 47.8902 86.98C47.8902 86.98 47.8902 86.98 47.8802 86.98C47.8802 86.98 47.8702 86.98 47.8602 86.98C47.6502 86.9 47.4502 86.81 47.2402 86.72C47.2402 86.72 47.2002 86.7 47.1802 86.69C46.6102 86.44 46.0602 86.16 45.5302 85.85C45.5302 85.85 45.5002 85.84 45.4902 85.83C45.4902 85.83 45.4502 85.81 45.4302 85.8C45.4302 85.8 45.4202 85.8 45.4102 85.79C45.4102 85.79 45.4002 85.79 45.3902 85.78C45.3902 85.78 45.3802 85.78 45.3702 85.77C45.3702 85.77 45.3602 85.77 45.3502 85.76C45.3502 85.76 45.3402 85.76 45.3302 85.75C45.3302 85.75 45.3202 85.75 45.3102 85.74C45.3102 85.74 45.3002 85.74 45.2902 85.73C45.2902 85.73 45.2802 85.73 45.2702 85.72C45.2702 85.72 45.2602 85.72 45.2502 85.71C45.2502 85.71 45.2302 85.7 45.2102 85.69C45.2102 85.69 45.2002 85.69 45.1902 85.68C45.1902 85.68 45.1802 85.68 45.1702 85.67C45.1702 85.67 45.1602 85.67 45.1502 85.66C45.1502 85.66 45.1402 85.66 45.1302 85.65C45.1302 85.65 45.1202 85.65 45.1102 85.64C45.1102 85.64 45.1002 85.64 45.0902 85.63C45.0902 85.63 45.0802 85.63 45.0702 85.62C45.0702 85.62 45.0602 85.62 45.0502 85.61C45.0502 85.61 45.0402 85.61 45.0302 85.6C45.0302 85.6 45.0202 85.6 45.0102 85.59C45.0102 85.59 45.0002 85.59 44.9902 85.58C44.9902 85.58 44.9802 85.58 44.9702 85.57C44.9702 85.57 44.9602 85.57 44.9502 85.56C44.9502 85.56 44.9402 85.56 44.9302 85.55C44.9302 85.55 44.9202 85.55 44.9102 85.54C44.9102 85.54 44.9002 85.54 44.8902 85.53C44.8902 85.53 44.8802 85.53 44.8702 85.52C44.8702 85.52 44.8602 85.52 44.8502 85.51C44.8502 85.51 44.8402 85.51 44.8302 85.5C44.8302 85.5 44.8202 85.5 44.8102 85.49C44.8102 85.49 44.8002 85.49 44.7902 85.48C44.7902 85.48 44.7802 85.48 44.7702 85.47C44.7702 85.47 44.7602 85.47 44.7502 85.46C44.7502 85.46 44.7402 85.46 44.7302 85.45C44.7302 85.45 44.7202 85.45 44.7102 85.44C44.7102 85.44 44.7002 85.44 44.6902 85.43C44.6902 85.43 44.6802 85.43 44.6702 85.42C44.6702 85.42 44.6702 85.42 44.6602 85.42C44.6602 85.42 44.6502 85.42 44.6402 85.41C44.6402 85.41 44.6302 85.41 44.6202 85.4C44.6202 85.4 44.6102 85.4 44.6002 85.39C44.6002 85.39 44.5902 85.39 44.5802 85.38C44.5802 85.38 44.5702 85.38 44.5602 85.37C44.5602 85.37 44.5502 85.37 44.5402 85.36C44.5402 85.36 44.5302 85.36 44.5202 85.35C44.5202 85.35 44.5102 85.35 44.5002 85.34C44.5002 85.34 44.4902 85.34 44.4802 85.33C44.4802 85.33 44.4702 85.33 44.4602 85.32C44.4602 85.32 44.4502 85.32 44.4402 85.31C44.4402 85.31 44.4302 85.31 44.4202 85.3C44.4202 85.3 44.4102 85.3 44.4002 85.29C44.4002 85.29 44.3902 85.29 44.3802 85.28C44.3802 85.28 44.3702 85.28 44.3602 85.27C44.3602 85.27 44.3502 85.27 44.3402 85.26C44.3402 85.26 44.3302 85.26 44.3202 85.25C44.3202 85.25 44.3002 85.23 44.2902 85.22C44.2902 85.22 44.2802 85.22 44.2702 85.21C44.2702 85.21 44.2602 85.21 44.2502 85.2C44.2502 85.2 44.2402 85.2 44.2302 85.19C44.2302 85.19 44.2002 85.16 44.1802 85.15C43.3402 84.44 42.5502 83.67 41.8402 82.83L39.2702 81.02ZM49.1802 87.22L48.8102 88.66C49.2002 88.76 49.5902 88.85 49.9802 88.92L50.2602 87.46C50.1202 87.43 49.9902 87.41 49.8502 87.38C49.8502 87.38 49.8302 87.38 49.8102 87.38C49.8102 87.38 49.8102 87.38 49.8002 87.38C49.8002 87.38 49.7902 87.38 49.7802 87.38C49.7802 87.38 49.7602 87.38 49.7502 87.38C49.7402 87.38 49.7202 87.38 49.7102 87.38C49.7002 87.38 49.6902 87.38 49.6802 87.38C49.6802 87.38 49.6702 87.38 49.6602 87.38C49.6602 87.38 49.6502 87.38 49.6402 87.38C49.6402 87.38 49.6302 87.38 49.6202 87.38C49.5702 87.37 49.5202 87.35 49.4602 87.34L49.1802 87.22ZM50.2802 87.47L50.0002 88.93C50.7802 89.08 51.5802 89.19 52.3802 89.25L52.4902 87.77C52.4902 87.77 52.4802 87.77 52.4702 87.77C52.4602 87.77 52.4502 87.77 52.4302 87.77C52.4302 87.77 52.4002 87.77 52.3902 87.77C52.2602 87.76 52.1202 87.74 51.9902 87.73C51.9902 87.73 51.9602 87.73 51.9402 87.73C51.9402 87.73 51.9202 87.73 51.9002 87.73C51.9002 87.73 51.8802 87.73 51.8702 87.73C51.8702 87.73 51.8602 87.73 51.8502 87.73C51.8502 87.73 51.8302 87.73 51.8202 87.73C51.8102 87.73 51.8002 87.73 51.7902 87.73C51.4302 87.68 51.0702 87.62 50.7102 87.55L50.2802 87.47ZM66.2802 83.35C66.2802 83.35 66.2702 83.35 66.2602 83.36C66.2602 83.36 66.2502 83.36 66.2402 83.37C66.2402 83.37 66.2302 83.37 66.2202 83.38C66.2202 83.38 66.2102 83.38 66.2002 83.39C66.2002 83.39 66.1902 83.39 66.1802 83.4C66.1802 83.4 66.1702 83.4 66.1602 83.41C66.1602 83.41 66.1502 83.41 66.1402 83.42C66.1402 83.42 66.1302 83.42 66.1202 83.43C66.1202 83.43 66.0802 83.46 66.0602 83.48C66.0602 83.48 66.0502 83.48 66.0402 83.49C66.0402 83.49 66.0302 83.49 66.0202 83.5C63.3502 85.53 60.1302 86.88 56.6202 87.28L56.7902 88.76C60.8002 88.3 64.5502 86.68 67.6602 84.09L66.7102 82.95L66.2802 83.35ZM67.6502 82.09C67.6502 82.09 67.6502 82.09 67.6402 82.1C67.6402 82.1 67.6402 82.1 67.6302 82.11C67.6302 82.11 67.6302 82.11 67.6202 82.12C67.6202 82.12 67.6202 82.12 67.6102 82.13C67.6102 82.13 67.6102 82.13 67.6002 82.14C67.6002 82.14 67.6002 82.14 67.5902 82.15C67.5902 82.15 67.5802 82.16 67.5702 82.17C67.5702 82.17 67.5602 82.18 67.5502 82.19C67.5402 82.19 67.5302 82.21 67.5202 82.22C67.4502 82.28 67.3802 82.35 67.3102 82.41L68.3002 83.51C68.6002 83.24 68.8902 82.97 69.1702 82.68L68.1102 81.64L67.6502 82.09ZM69.1302 80.41C69.1302 80.41 69.0602 80.5 69.0302 80.54C69.0302 80.54 69.0302 80.54 69.0202 80.55C69.0202 80.55 69.0102 80.57 69.0002 80.57C68.6102 81.05 68.2002 81.5 67.7702 81.94L68.8302 82.98C69.3902 82.41 69.9202 81.81 70.4102 81.18L69.2402 80.26L69.1302 80.41ZM74.5802 66.32L73.1002 66.48C73.1002 66.48 73.1002 66.53 73.1002 66.56C73.1402 66.99 73.1702 67.41 73.1802 67.85C73.1802 67.85 73.1802 67.94 73.1802 67.98C73.1802 67.98 73.1802 68.01 73.1802 68.02C73.1802 68.02 73.1802 68.03 73.1802 68.04V68.05V68.06C73.1802 68.06 73.1802 68.07 73.1802 68.08V68.1V68.12V68.14V68.15C73.1802 68.15 73.1802 68.16 73.1802 68.17V68.18C73.1802 68.18 73.1802 68.18 73.1802 68.19C73.1802 68.19 73.1802 68.2 73.1802 68.21C73.1802 68.21 73.1802 68.22 73.1802 68.23C73.1802 68.23 73.1802 68.24 73.1802 68.25C73.1802 68.25 73.1802 68.27 73.1802 68.28C73.1802 68.28 73.1802 68.29 73.1802 68.3C73.1802 68.3 73.1802 68.32 73.1802 68.33C73.1802 68.33 73.1802 68.34 73.1802 68.35C73.1802 68.35 73.1802 68.37 73.1802 68.38C73.1802 68.38 73.1802 68.39 73.1802 68.4C73.1802 68.4 73.1802 68.42 73.1802 68.43C73.1802 68.43 73.1802 68.45 73.1802 68.46C73.1802 68.46 73.1802 68.48 73.1802 68.49C73.1802 68.49 73.1802 68.51 73.1802 68.52C73.1802 68.53 73.1802 68.54 73.1802 68.56C73.1802 68.56 73.1802 68.58 73.1802 68.59C73.1802 68.6 73.1802 68.61 73.1802 68.63C73.1802 68.64 73.1802 68.65 73.1802 68.67C73.1802 68.68 73.1802 68.69 73.1802 68.71C73.1802 68.71 73.1802 68.74 73.1802 68.75C73.1802 68.75 73.1802 68.77 73.1802 68.79C73.1802 68.8 73.1802 68.81 73.1802 68.83C73.1802 68.84 73.1802 68.85 73.1802 68.87C73.1802 68.87 73.1802 68.9 73.1802 68.91C73.1802 68.91 73.1802 68.98 73.1702 69.01C73.1702 69.01 73.1702 69.03 73.1702 69.05C73.1702 69.05 73.1702 69.09 73.1702 69.1C73.0502 70.21 72.8302 71.29 72.5202 72.34C72.5202 72.34 72.5202 72.37 72.5102 72.39C72.5102 72.39 72.4902 72.45 72.4902 72.47C72.4902 72.47 72.4902 72.49 72.4802 72.5C72.4802 72.5 72.4802 72.52 72.4702 72.53V72.55V72.57C72.4702 72.57 72.4702 72.59 72.4602 72.6C72.4602 72.6 72.4602 72.61 72.4602 72.62C72.4602 72.62 72.4602 72.63 72.4602 72.64C72.4602 72.64 72.4602 72.64 72.4602 72.65C72.4602 72.65 72.4602 72.66 72.4602 72.67C72.4602 72.67 72.4602 72.69 72.4602 72.7C72.4602 72.7 72.4602 72.72 72.4602 72.73C72.4602 72.73 72.4602 72.75 72.4602 72.76C72.1802 73.56 71.8402 74.34 71.4602 75.09L72.7802 75.76C74.2802 72.83 75.0302 69.66 75.0302 66.35C75.0302 65.61 74.9902 64.86 74.9102 64.13L74.5802 66.32ZM74.2702 64.34L72.8202 64.64C72.8402 64.75 72.8702 64.87 72.8902 64.98C72.8902 64.98 72.8902 64.99 72.8902 65V65.02C72.9102 65.15 72.9302 65.28 72.9502 65.42L74.4202 65.21C74.3602 64.82 74.2902 64.42 74.2102 64.03L74.2702 64.34ZM73.6502 62.01L72.2402 62.48C72.2902 62.63 72.3402 62.79 72.3902 62.94V62.96C72.3902 62.96 72.3902 62.96 72.3902 62.97C72.3902 62.97 72.3902 62.97 72.3902 62.98C72.3902 62.98 72.3902 63 72.3902 63.01C72.3902 63.01 72.3902 63.03 72.3902 63.04C72.3902 63.04 72.3902 63.06 72.3902 63.07C72.3902 63.07 72.3902 63.08 72.3902 63.09C72.3902 63.09 72.3902 63.1 72.3902 63.11C72.3902 63.11 72.3902 63.12 72.3902 63.13C72.3902 63.13 72.3902 63.13 72.3902 63.14C72.3902 63.14 72.3902 63.15 72.3902 63.16C72.3902 63.17 72.3902 63.19 72.4002 63.2C72.4702 63.49 72.5402 63.79 72.6002 64.09L74.0502 63.79C73.8902 63.01 73.6802 62.23 73.4302 61.47L73.6502 62.01ZM63.5302 50.13L62.8402 51.45C63.8902 52 64.8802 52.64 65.8002 53.36C65.8002 53.36 65.8102 53.36 65.8202 53.37C65.8202 53.37 65.8302 53.37 65.8402 53.38C65.8402 53.38 65.8502 53.38 65.8602 53.39C65.8602 53.39 65.8702 53.39 65.8802 53.4C65.8802 53.4 65.8902 53.4 65.9002 53.41C65.9002 53.41 65.9102 53.41 65.9202 53.42C65.9202 53.42 65.9302 53.42 65.9402 53.43C65.9402 53.43 65.9402 53.43 65.9602 53.44C65.9602 53.44 65.9602 53.44 65.9702 53.45C65.9702 53.45 65.9802 53.45 65.9902 53.46C65.9902 53.46 66.0002 53.46 66.0102 53.47C66.0102 53.47 66.0202 53.47 66.0302 53.48C66.0302 53.48 66.0402 53.49 66.0502 53.49C67.6502 54.91 69.0102 56.59 70.0702 58.46L71.3602 57.73C69.3802 54.21 66.4402 51.37 62.8602 49.5L63.5302 50.13ZM61.7102 49.29L61.1502 50.67C61.4102 50.78 61.6702 50.89 61.9202 51C61.9202 51 61.9402 51 61.9502 51.01C61.9502 51.01 61.9502 51.01 61.9602 51.01C61.9602 51.01 61.9602 51.01 61.9802 51.01C61.9802 51.01 62.0002 51.01 62.0002 51.02L62.6402 49.68C62.2802 49.51 61.9102 49.35 61.5402 49.2L61.7102 49.29ZM59.4202 48.52L59.0302 49.95C59.7102 50.14 60.3702 50.36 61.0102 50.61C61.0102 50.61 61.0302 50.61 61.0402 50.62C61.0402 50.62 61.0502 50.62 61.0602 50.62L61.6202 49.24C60.8802 48.94 60.1202 48.68 59.3502 48.47L59.4202 48.52ZM53.9302 47.79V49.28H53.9402H53.9502C53.9502 49.28 53.9502 49.28 53.9602 49.28C53.9602 49.28 53.9602 49.28 53.9702 49.28C53.9702 49.28 53.9702 49.28 53.9802 49.28C53.9802 49.28 53.9802 49.28 53.9902 49.28C53.9902 49.28 54.0002 49.28 54.0102 49.28C54.0102 49.28 54.0202 49.28 54.0302 49.28C54.0302 49.28 54.0402 49.28 54.0502 49.28C54.2502 49.28 54.4502 49.29 54.6402 49.3C54.6402 49.3 54.6502 49.3 54.6602 49.3C54.6602 49.3 54.6702 49.3 54.6802 49.3C54.6802 49.3 54.6802 49.3 54.6902 49.3C54.6902 49.3 54.6902 49.3 54.7002 49.3C54.7602 49.3 54.8302 49.3 54.8902 49.31L55.0002 47.83C54.4902 47.79 53.9702 47.77 53.4502 47.77L53.9302 47.79Z" fill="#4D4D4F"/>
<path d="M81.62 68.57C81.62 83.85 69.23 96.24 53.95 96.24C38.67 96.24 26.28 83.85 26.28 68.57" stroke="#4D4D4F" stroke-width="2" stroke-miterlimit="10"/>
<path d="M84.02 39.04C74.23 44.93 62.76 48.31 50.5 48.31C41.94 48.31 33.77 46.66 26.28 43.66" stroke="#4D4D4F" stroke-width="2" stroke-miterlimit="10"/>
<path d="M58.3875 69.6114C58.966 67.1603 57.448 64.7043 54.9969 64.1258C52.5458 63.5473 50.0899 65.0653 49.5113 67.5164C48.9328 69.9675 50.4509 72.4234 52.9019 73.0019C55.353 73.5805 57.809 72.0624 58.3875 69.6114Z" fill="#4D4D4F"/>
<path d="M53.9501 34.25C54.9773 34.25 55.8101 33.4172 55.8101 32.39C55.8101 31.3627 54.9773 30.53 53.9501 30.53C52.9228 30.53 52.0901 31.3627 52.0901 32.39C52.0901 33.4172 52.9228 34.25 53.9501 34.25Z" fill="#4D4D4F"/>
<path d="M17.3301 70.3L32.1601 67.4" stroke="#4D4D4F" stroke-width="2" stroke-miterlimit="10"/>
<path opacity="0.13" d="M72.1602 68.57C72.1602 64.74 70.9702 61.18 68.9402 58.24C69.2002 58.86 69.3502 59.92 69.4502 60.28C69.9902 62.35 70.3102 64.49 70.3402 66.63C70.5202 76.88 63.3702 84.86 53.6802 86.76C53.7702 86.76 53.8602 86.76 53.9502 86.76C63.9902 86.76 72.1602 78.59 72.1602 68.55V68.57Z" fill="#4D4D4F"/>
<path opacity="0.13" d="M64.4101 24.56C65.0301 26.02 65.5001 27.55 65.7601 29.12C67.0601 36.94 62.2401 43.83 54.8101 45.99C61.9301 45.55 67.5801 39.62 67.5801 32.39C67.5801 28.72 66.1201 25.39 63.7601 22.94C63.6501 22.88 63.5701 22.85 63.5701 22.85C63.9301 23.03 64.2701 24.23 64.4101 24.57V24.56Z" fill="#4D4D4F"/>
</g>
<defs>
<clipPath id="clip0_26_267">
<rect width="111.66" height="111.66" fill="white"/>
</clipPath>
</defs>
</svg>
