<svg width="111" height="111" viewBox="0 0 111 111" fill="none" xmlns="http://www.w3.org/2000/svg">
<g clip-path="url(#clip0_26_247)">
<path d="M4.36405 111H0V106.626H1.68995V109.31H4.36405V111Z" fill="#444545"/>
<path d="M1.68995 99.8165H0V92.997H1.68995V99.8165ZM1.68995 86.1776H0V79.3581H1.68995V86.1776ZM1.68995 72.5387H0V65.7192H1.68995V72.5387ZM1.68995 58.8998H0V52.0803H1.68995V58.8998ZM1.68995 45.2609H0V38.4414H1.68995V45.2609ZM1.68995 31.622H0V24.8025H1.68995V31.622ZM1.68995 17.9831H0V11.1636H1.68995V17.9831Z" fill="#444545"/>
<path d="M1.68995 4.36405H0V0H4.36405V1.68995H1.68995V4.36405Z" fill="#444545"/>
<path d="M99.8165 1.68995H92.997V0H99.8165V1.68995ZM86.1775 1.68995H79.3581V0H86.1775V1.68995ZM72.5386 1.68995H65.7192V0H72.5386V1.68995ZM58.8997 1.68995H52.0803V0H58.8997V1.68995ZM45.2608 1.68995H38.4414V0H45.2608V1.68995ZM31.6219 1.68995H24.8025V0H31.6219V1.68995ZM17.983 1.68995H11.1636V0H17.983V1.68995Z" fill="#444545"/>
<path d="M111 4.36405H109.31V1.68995H106.626V0H111V4.36405Z" fill="#444545"/>
<path d="M76.3063 111H70.0734V109.31H76.3063C76.6542 109.31 77.0022 109.31 77.3501 109.29L77.3998 110.98C77.0419 110.99 76.6741 111 76.3063 111ZM62.7767 111H55.4801V109.31H62.7767V111ZM48.1835 111H40.8869V109.31H48.1835V111ZM33.5903 111H26.2937V109.31H33.5903V111ZM18.9971 111H11.7004V109.31H18.9971V111ZM84.7958 109.956L84.3882 108.316C86.6846 107.739 88.9213 106.904 91.0486 105.851L91.8041 107.362C89.5774 108.475 87.2214 109.35 84.8057 109.956H84.7958ZM98.0669 103.326L97.0032 102.013C98.8423 100.532 100.532 98.8423 102.023 96.9933L103.336 98.057C101.775 99.9954 99.9954 101.775 98.057 103.336L98.0669 103.326ZM107.372 91.7644L105.861 91.0089C106.914 88.8915 107.749 86.6448 108.316 84.3485L109.956 84.7561C109.35 87.1717 108.485 89.5277 107.372 91.7544V91.7644ZM110.98 77.37L109.29 77.3203C109.29 76.9823 109.3 76.6542 109.3 76.3162V70.0535H110.99V76.3162C110.99 76.6741 110.99 77.022 110.97 77.37H110.98ZM111 62.7469H109.31V55.4503H111V62.7469ZM111 48.1537H109.31V40.8571H111V48.1537ZM111 33.5605H109.31V26.2638H111V33.5605ZM111 18.9672H109.31V11.6706H111V18.9672Z" fill="#444545"/>
<path d="M54.9616 70.3925C57.6975 69.7468 59.3918 67.0056 58.7461 64.2697C58.1004 61.5339 55.3591 59.8396 52.6233 60.4853C49.8875 61.131 48.1931 63.8723 48.8388 66.6081C49.4846 69.3439 52.2258 71.0383 54.9616 70.3925Z" fill="#4D4D4F"/>
<path d="M75.8491 70.7593L70.7593 65.4409L62.2798 79.0102L53.8002 72.2305L46.593 78.4038C46.4737 81.4358 46.3246 83.2749 46.0662 85.7998H74.5965C75.8193 79.8154 76.1572 74.6064 75.8491 70.7692V70.7593Z" fill="#4D4D4F"/>
<path d="M38.1234 92.1123L38.5012 90.5715C40.2508 83.5035 40.7478 76.5548 39.9227 70.461L39.873 70.0634H24.9816C22.3373 70.0634 20.3491 66.6139 20.3491 62.0411C20.3491 59.4068 21.035 57.0408 22.2379 55.5398L22.4665 55.2515L22.2379 54.9632C21.035 53.4621 20.3491 51.0962 20.3491 48.4618C20.3491 45.8275 21.035 43.4616 22.2379 41.9605L22.4665 41.6722L22.2379 41.3839C21.035 39.8829 20.3491 37.5169 20.3491 34.8826C20.3491 30.3098 22.3373 26.8603 24.9816 26.8603H86.0286C88.6729 26.8603 90.661 30.3098 90.661 34.8826C90.661 37.5169 89.9751 39.8829 88.7723 41.3839L88.5436 41.6722L88.7723 41.9605C89.9751 43.4616 90.661 45.8275 90.661 48.4618C90.661 51.0962 89.9751 53.4621 88.7723 54.9632L88.5436 55.2515L88.7723 55.5398C89.9751 57.0408 90.661 59.4068 90.661 62.0411C90.661 66.6139 88.6729 70.0634 86.0286 70.0634H82.5095L82.5493 70.5505C83.0364 76.6642 82.3306 83.6029 80.4517 91.158L80.2132 92.1024H38.1234V92.1123ZM38.0439 57.1999C42.8454 65.0333 44.0681 76.6542 41.394 89.0903L41.2747 89.637H78.2648L78.3443 89.2891C81.6248 75.1531 80.571 63.572 75.3918 56.6929L75.2527 56.514H37.6164L38.0439 57.2098V57.1999ZM78.6922 57.1999C80.3722 60.033 81.5353 63.403 82.1516 67.2203L82.2113 67.5981H86.0186C86.8736 67.5981 88.1659 65.3912 88.1659 62.061C88.1659 58.7308 86.8736 56.5239 86.0186 56.5239H78.2747L78.6823 57.2098L78.6922 57.1999ZM28.6696 57.1502C29.286 58.5618 29.614 60.2517 29.614 62.051C29.614 63.8503 29.286 65.5502 28.6696 66.9519L28.3913 67.5881H39.4356L39.3064 67.0314C38.372 62.9756 36.8112 59.4863 34.664 56.683L34.5248 56.504H28.3814L28.6597 57.1402L28.6696 57.1502ZM24.9816 56.514C24.1267 56.514 22.8343 58.7208 22.8343 62.051C22.8343 65.3812 24.1267 67.5881 24.9816 67.5881C25.8365 67.5881 27.1288 65.3812 27.1288 62.051C27.1288 58.7208 25.8365 56.514 24.9816 56.514ZM28.6696 43.5809C29.286 44.9925 29.614 46.6824 29.614 48.4817C29.614 50.281 29.286 51.9809 28.6696 53.3826L28.3913 54.0188H86.0286C86.8835 54.0188 88.1758 51.8119 88.1758 48.4817C88.1758 45.1515 86.8835 42.9447 86.0286 42.9447H28.3814L28.6597 43.5809H28.6696ZM24.9816 42.9447C24.1267 42.9447 22.8343 45.1515 22.8343 48.4817C22.8343 51.8119 24.1267 54.0188 24.9816 54.0188C25.8365 54.0188 27.1288 51.8119 27.1288 48.4817C27.1288 45.1515 25.8365 42.9447 24.9816 42.9447ZM28.6696 30.0116C29.286 31.4232 29.614 33.1131 29.614 34.9124C29.614 36.7117 29.286 38.4116 28.6696 39.8133L28.3913 40.4495H86.0286C86.8835 40.4495 88.1758 38.2426 88.1758 34.9124C88.1758 31.5822 86.8835 29.3753 86.0286 29.3753H28.3814L28.6597 30.0116H28.6696ZM24.9816 29.3753C24.1267 29.3753 22.8343 31.5822 22.8343 34.9124C22.8343 38.2426 24.1267 40.4495 24.9816 40.4495C25.8365 40.4495 27.1288 38.2426 27.1288 34.9124C27.1288 31.5822 25.8365 29.3753 24.9816 29.3753Z" fill="#4D4D4F"/>
<path d="M85.5714 21.8004H25.429V24.2856H85.5714V21.8004Z" fill="#4D4D4F"/>
<path opacity="0.13" d="M88.7623 31.7214H26.9001V28.3812H86.6747L88.7623 31.7214Z" fill="#4D4D4F"/>
<path opacity="0.13" d="M88.7623 45.8076H26.9001V42.4576H86.6747L88.7623 45.8076Z" fill="#4D4D4F"/>
<path opacity="0.13" d="M88.7623 58.6314H26.9001V55.2813H86.6747L88.7623 58.6314Z" fill="#4D4D4F"/>
<path opacity="0.13" d="M21.3333 67.1308C21.3333 67.1308 22.725 71.9919 26.6715 71.9919H37.8948C37.8948 71.9919 39.8134 78.3541 36.8112 90.313C37.7755 91.6451 38.4316 92.5696 38.4316 92.5696L40.1514 88.7225L41.9109 77.4296L41.1554 71.4949L40.4893 68.8208H32.7454L24.9816 68.9003L21.3333 67.1408V67.1308Z" fill="#4D4D4F"/>
</g>
<defs>
<clipPath id="clip0_26_247">
<rect width="111" height="111" fill="white"/>
</clipPath>
</defs>
</svg>
