<svg width="112" height="112" viewBox="0 0 112 112" fill="none" xmlns="http://www.w3.org/2000/svg">
<g clip-path="url(#clip0_26_288)">
<path d="M4.39 111.66H0V107.26H1.7V109.96H4.39V111.66Z" fill="#444545"/>
<path d="M1.7 100.41H0V93.55H1.7V100.41ZM1.7 86.69H0V79.83H1.7V86.69ZM1.7 72.97H0V66.11H1.7V72.97ZM1.7 59.25H0V52.39H1.7V59.25ZM1.7 45.53H0V38.67H1.7V45.53ZM1.7 31.81H0V24.95H1.7V31.81ZM1.7 18.09H0V11.23H1.7V18.09Z" fill="#444545"/>
<path d="M1.7 4.39H0V0H4.39V1.7H1.7V4.39Z" fill="#444545"/>
<path d="M100.41 1.7H93.55V0H100.41V1.7ZM86.69 1.7H79.83V0H86.69V1.7ZM72.97 1.7H66.11V0H72.97V1.7ZM59.25 1.7H52.39V0H59.25V1.7ZM45.53 1.7H38.67V0H45.53V1.7ZM31.81 1.7H24.95V0H31.81V1.7ZM18.09 1.7H11.23V0H18.09V1.7Z" fill="#444545"/>
<path d="M111.66 4.39H109.96V1.7H107.26V0H111.66V4.39Z" fill="#444545"/>
<path d="M76.84 111.66H70.5V109.96H76.77C77.12 109.96 77.47 109.96 77.82 109.95L77.87 111.65C77.53 111.66 77.19 111.67 76.85 111.67L76.84 111.66ZM63.15 111.66H55.81V109.96H63.15V111.66ZM48.47 111.66H41.13V109.96H48.47V111.66ZM33.79 111.66H26.45V109.96H33.79V111.66ZM19.11 111.66H11.77V109.96H19.11V111.66ZM85.3 110.61L84.89 108.96C87.2 108.38 89.45 107.54 91.59 106.48L92.35 108C90.11 109.12 87.74 110 85.31 110.61H85.3ZM98.66 103.94L97.59 102.62C99.44 101.13 101.14 99.43 102.64 97.57L103.96 98.64C102.39 100.59 100.6 102.38 98.65 103.95L98.66 103.94ZM108.02 92.31L106.5 91.55C107.56 89.42 108.4 87.16 108.97 84.85L110.62 85.26C110.01 87.69 109.14 90.06 108.02 92.3V92.31ZM111.65 77.83L109.95 77.78C109.95 77.44 109.96 77.11 109.96 76.77V70.47H111.66V76.77C111.66 77.13 111.66 77.48 111.64 77.83H111.65ZM111.67 63.12H109.97V55.78H111.67V63.12ZM111.67 48.44H109.97V41.1H111.67V48.44ZM111.67 33.76H109.97V26.42H111.67V33.76ZM111.67 19.08H109.97V11.74H111.67V19.08Z" fill="#444545"/>
<path d="M66.72 21.93H30.22C27.2708 21.93 24.88 24.3208 24.88 27.27V82.68C24.88 85.6292 27.2708 88.02 30.22 88.02H66.72C69.6692 88.02 72.06 85.6292 72.06 82.68V27.27C72.06 24.3208 69.6692 21.93 66.72 21.93Z" fill="white" stroke="#4D4D4F" stroke-width="2.11" stroke-miterlimit="10"/>
<path d="M72.06 63.98H24.88V74.77H72.06V63.98Z" fill="#4D4D4F"/>
<path d="M70.79 74.44C74.62 78.21 78.45 81.98 82.28 85.75C84.3 87.74 86.33 89.74 88.54 91.46C89.73 92.39 91.05 93.27 92.5 93.27C93.95 93.27 95.48 92.05 95.47 90.42C95.47 89.14 94.58 88.12 93.76 87.25C87.66 80.82 81.29 74.72 74.67 68.98C73.46 70.76 72.24 72.54 70.8 74.44H70.79Z" fill="white"/>
<path d="M92.5 93.82C90.89 93.82 89.48 92.89 88.2 91.89C85.97 90.14 83.9 88.11 81.9 86.14L70.41 74.83C70.21 74.64 70.19 74.33 70.36 74.11C71.8 72.21 73.03 70.41 74.22 68.67C74.31 68.54 74.45 68.46 74.6 68.44C74.76 68.42 74.91 68.47 75.03 68.57C81.64 74.3 88.08 80.46 94.16 86.88C95.06 87.83 96.01 88.96 96.02 90.42C96.02 91.27 95.68 92.09 95.04 92.73C94.36 93.41 93.41 93.82 92.5 93.82ZM71.52 74.39L82.67 85.36C84.65 87.31 86.7 89.32 88.88 91.03C90 91.91 91.22 92.72 92.5 92.73C93.13 92.73 93.79 92.44 94.26 91.96C94.69 91.53 94.92 90.98 94.92 90.43C94.92 89.36 94.14 88.46 93.36 87.63C87.44 81.39 81.19 75.39 74.77 69.8C73.76 71.28 72.71 72.8 71.52 74.39Z" fill="#4D4D4F"/>
<path d="M55.84 81.09C42.36 81.09 31.4 70.13 31.4 56.65C31.4 43.17 42.36 32.21 55.84 32.21C69.32 32.21 80.28 43.17 80.28 56.65C80.28 70.13 69.32 81.09 55.84 81.09ZM55.84 33.31C42.97 33.31 32.5 43.78 32.5 56.65C32.5 69.52 42.97 79.99 55.84 79.99C68.71 79.99 79.18 69.52 79.18 56.65C79.18 43.78 68.71 33.31 55.84 33.31ZM55.84 75.34C45.53 75.34 37.15 66.95 37.15 56.65C37.15 46.35 45.54 37.96 55.84 37.96C66.14 37.96 74.53 46.35 74.53 56.65C74.53 66.95 66.14 75.34 55.84 75.34ZM38.24 56.65C38.24 66.35 46.13 74.25 55.84 74.25C65.55 74.25 73.44 66.36 73.44 56.65C73.44 46.94 65.55 39.05 55.84 39.05C46.13 39.05 38.24 46.94 38.24 56.65Z" fill="#4D4D4F"/>
<path d="M73.87 75.12C73.87 75.12 73.84 75.12 73.82 75.12C73.72 75.09 73.67 74.99 73.69 74.89L74.11 73.42C74.14 73.32 74.24 73.27 74.34 73.29C74.44 73.32 74.49 73.42 74.47 73.52L74.05 74.99C74.03 75.07 73.95 75.12 73.87 75.12Z" fill="#4D4D4F"/>
<path d="M75.88 77.7H75.8601C75.7601 77.69 75.69 77.59 75.7 77.49C75.92 75.77 76.2001 74.04 76.5101 72.33C76.5301 72.23 76.6201 72.17 76.7201 72.18C76.8201 72.2 76.8901 72.29 76.8701 72.39C76.5601 74.09 76.29 75.82 76.07 77.53C76.06 77.62 75.98 77.69 75.89 77.69L75.88 77.7Z" fill="#4D4D4F"/>
<path d="M78.4901 80.2C78.3901 80.2 78.3101 80.12 78.3101 80.02C78.3101 79.16 78.4401 77.72 78.5601 76.45C78.6301 75.67 78.6901 75 78.7101 74.58C78.7101 74.48 78.8001 74.4 78.9001 74.41C79.0001 74.41 79.0801 74.5 79.0701 74.6C79.0501 75.03 78.9901 75.7 78.9201 76.49C78.8001 77.75 78.6701 79.19 78.6701 80.03C78.6701 80.13 78.5901 80.21 78.4901 80.21V80.2Z" fill="#4D4D4F"/>
<path d="M81.16 82.66C81.06 82.66 80.98 82.58 80.98 82.48L80.84 76.38C80.84 76.28 80.92 76.2 81.02 76.19C81.12 76.19 81.2 76.27 81.2 76.37L81.34 82.47C81.34 82.57 81.26 82.66 81.16 82.66Z" fill="#4D4D4F"/>
<path d="M83.71 85.36C83.61 85.36 83.53 85.28 83.53 85.18L83.29 78.79C83.29 78.69 83.36 78.6 83.47 78.6C83.57 78.6 83.66 78.67 83.66 78.78L83.9 85.17C83.9 85.27 83.82 85.36 83.72 85.36H83.71Z" fill="#4D4D4F"/>
<path d="M86.29 87.64C86.19 87.64 86.11 87.56 86.11 87.47L85.79 81.5C85.79 81.4 85.86 81.31 85.96 81.31C86.06 81.29 86.15 81.38 86.15 81.48L86.47 87.45C86.47 87.55 86.4 87.64 86.3 87.64C86.3 87.64 86.3 87.64 86.29 87.64Z" fill="#4D4D4F"/>
<path d="M88.86 89.74C88.77 89.74 88.69 89.67 88.68 89.57L88.23 83.76C88.23 83.66 88.3 83.57 88.4 83.56C88.5 83.54 88.59 83.63 88.6 83.73L89.05 89.54C89.05 89.64 88.98 89.73 88.88 89.74C88.88 89.74 88.88 89.74 88.87 89.74H88.86Z" fill="#4D4D4F"/>
<path d="M91.28 91.63C91.19 91.63 91.11 91.56 91.1 91.47L90.5801 86.37C90.5701 86.27 90.64 86.18 90.74 86.17C90.84 86.16 90.9301 86.23 90.9401 86.33L91.46 91.43C91.47 91.53 91.4001 91.62 91.3001 91.63C91.3001 91.63 91.29 91.63 91.28 91.63Z" fill="#4D4D4F"/>
<path d="M93.66 91.36C93.57 91.36 93.49 91.3 93.48 91.21L93.11 88.93C93.09 88.83 93.16 88.74 93.26 88.72C93.36 88.7 93.45 88.77 93.47 88.87L93.84 91.15C93.86 91.25 93.79 91.34 93.69 91.36C93.69 91.36 93.67 91.36 93.66 91.36Z" fill="#4D4D4F"/>
<g opacity="0.13">
<path d="M72.74 62.43C72.14 62.94 71.86 63.75 71.35 64.35C71.26 64.52 70.03 65.9 69.34 66.56C68.74 67.1 68.17 67.57 67.58 68.01C67.48 68.03 67.37 68.07 67.27 68.13C64.28 70.29 62.04 71.08 58.26 71.78C56.47 72.12 54.4 72.4 51.58 71.7C49.6 71.24 48.65 70.7 46.58 69.31C45.7 68.69 43.75 66.97 42.42 65.37C40.99 63.41 40.5 61.71 40.21 60.93C39.91 60.13 39.69 59.31 39.45 58.49C39.1 57.36 39 56.97 39 56.01C38.78 55.4 38.58 54.78 38.4 54.16C38.22 54.08 38.03 54.04 37.84 54.05C37.52 56.52 37.57 59 37.88 61.45C38.42 63.58 39.08 65.88 41.11 68.17C42.75 69.98 43.88 70.6 44.58 71.19C46.23 72.38 47.98 73.46 49.92 74.09C50.98 74.4 52.08 74.53 53.18 74.66C53.18 74.66 53.18 74.66 53.2 74.66C54.39 74.88 55.6 74.88 56.8 74.75C57.74 74.67 58.65 74.4 59.55 74.15C61.43 73.69 63.31 73.11 65.03 72.2C65.73 71.77 65.97 71.6 66.3 71.36C68.41 70.04 70.59 68.22 71.71 66.94C72 66.34 72.28 65.74 72.54 65.12C72.87 64.21 73.2 63.29 73.52 62.38C73.27 62.28 72.97 62.29 72.72 62.44L72.74 62.43Z" fill="#4D4D4F"/>
</g>
<g opacity="0.13">
<path d="M76.64 70.23C75.73 69.97 75.12 70.6 74.67 71.29C74.65 71.31 74.63 71.33 74.61 71.36C73.82 72.29 73.59 72.21 72.28 73.39C72.28 73.39 72.27 73.39 72.26 73.4C72 73.58 71.69 73.71 71.53 73.99C70.43 75.35 72.11 77.24 73.61 76.35C74.65 75.78 75.55 74.96 76.26 74.02C76.72 73.52 77.17 72.99 77.52 72.4C78.02 71.58 77.55 70.45 76.63 70.21L76.64 70.23Z" fill="#4D4D4F"/>
</g>
<path d="M70.79 74.44C74.62 78.21 78.45 81.98 82.28 85.75C84.3 87.74 86.33 89.74 88.54 91.46C89.73 92.39 91.05 93.27 92.5 93.27C93.95 93.27 95.48 92.05 95.47 90.42C95.47 89.14 94.58 88.12 93.76 87.25C87.66 80.82 81.29 74.72 74.67 68.98C73.46 70.76 72.24 72.54 70.8 74.44H70.79Z" fill="white"/>
<path d="M92.5 93.82C90.89 93.82 89.48 92.89 88.2 91.89C85.97 90.14 83.9 88.11 81.9 86.14L70.41 74.83C70.21 74.64 70.19 74.33 70.36 74.11C71.8 72.21 73.03 70.41 74.22 68.67C74.31 68.54 74.45 68.46 74.6 68.44C74.76 68.42 74.91 68.47 75.03 68.57C81.64 74.3 88.08 80.46 94.16 86.88C95.06 87.83 96.01 88.96 96.02 90.42C96.02 91.27 95.68 92.09 95.04 92.73C94.36 93.41 93.41 93.82 92.5 93.82ZM71.52 74.39L82.67 85.36C84.65 87.31 86.7 89.32 88.88 91.03C90 91.91 91.22 92.72 92.5 92.73C93.13 92.73 93.79 92.44 94.26 91.96C94.69 91.53 94.92 90.98 94.92 90.43C94.92 89.36 94.14 88.46 93.36 87.63C87.44 81.39 81.19 75.39 74.77 69.8C73.76 71.28 72.71 72.8 71.52 74.39Z" fill="#4D4D4F" stroke="#4D4D4F" stroke-width="0.63" stroke-miterlimit="10"/>
<path d="M55.8401 32.76C42.6501 32.76 31.9501 43.46 31.9501 56.65C31.9501 69.84 42.6501 80.54 55.8401 80.54C69.0301 80.54 79.7301 69.84 79.7301 56.65C79.7301 43.46 69.0301 32.76 55.8401 32.76ZM55.8401 74.79C45.8201 74.79 37.7001 66.67 37.7001 56.65C37.7001 46.63 45.8201 38.51 55.8401 38.51C65.8601 38.51 73.9801 46.63 73.9801 56.65C73.9801 66.67 65.8601 74.79 55.8401 74.79ZM55.8401 74.79C45.8201 74.79 37.7001 66.67 37.7001 56.65C37.7001 46.63 45.8201 38.51 55.8401 38.51C65.8601 38.51 73.9801 46.63 73.9801 56.65C73.9801 66.67 65.8601 74.79 55.8401 74.79Z" fill="white"/>
<path d="M55.84 81.09C42.36 81.09 31.4 70.13 31.4 56.65C31.4 43.17 42.36 32.21 55.84 32.21C69.32 32.21 80.28 43.17 80.28 56.65C80.28 70.13 69.32 81.09 55.84 81.09ZM55.84 33.31C42.97 33.31 32.5 43.78 32.5 56.65C32.5 69.52 42.97 79.99 55.84 79.99C68.71 79.99 79.18 69.52 79.18 56.65C79.18 43.78 68.71 33.31 55.84 33.31ZM55.84 75.34C45.53 75.34 37.15 66.95 37.15 56.65C37.15 46.35 45.54 37.96 55.84 37.96C66.14 37.96 74.53 46.35 74.53 56.65C74.53 66.95 66.14 75.34 55.84 75.34ZM38.24 56.65C38.24 66.35 46.13 74.25 55.84 74.25C65.55 74.25 73.44 66.36 73.44 56.65C73.44 46.94 65.55 39.05 55.84 39.05C46.13 39.05 38.24 46.94 38.24 56.65Z" fill="#4D4D4F" stroke="#4D4D4F" stroke-width="0.63" stroke-miterlimit="10"/>
<path d="M73.87 75.12C73.87 75.12 73.84 75.12 73.82 75.12C73.72 75.09 73.67 74.99 73.69 74.89L74.11 73.42C74.14 73.32 74.24 73.27 74.34 73.29C74.44 73.32 74.49 73.42 74.47 73.52L74.05 74.99C74.03 75.07 73.95 75.12 73.87 75.12Z" fill="#4D4D4F"/>
<path d="M75.88 77.7H75.8601C75.7601 77.69 75.69 77.59 75.7 77.49C75.92 75.77 76.2001 74.04 76.5101 72.33C76.5301 72.23 76.6201 72.17 76.7201 72.18C76.8201 72.2 76.8901 72.29 76.8701 72.39C76.5601 74.09 76.29 75.82 76.07 77.53C76.06 77.62 75.98 77.69 75.89 77.69L75.88 77.7Z" fill="#4D4D4F"/>
<path d="M78.4901 80.2C78.3901 80.2 78.3101 80.12 78.3101 80.02C78.3101 79.16 78.4401 77.72 78.5601 76.45C78.6301 75.67 78.6901 75 78.7101 74.58C78.7101 74.48 78.8001 74.4 78.9001 74.41C79.0001 74.41 79.0801 74.5 79.0701 74.6C79.0501 75.03 78.9901 75.7 78.9201 76.49C78.8001 77.75 78.6701 79.19 78.6701 80.03C78.6701 80.13 78.5901 80.21 78.4901 80.21V80.2Z" fill="#4D4D4F"/>
<path d="M81.16 82.66C81.06 82.66 80.98 82.58 80.98 82.48L80.84 76.38C80.84 76.28 80.92 76.2 81.02 76.19C81.12 76.19 81.2 76.27 81.2 76.37L81.34 82.47C81.34 82.57 81.26 82.66 81.16 82.66Z" fill="#4D4D4F"/>
<path d="M83.71 85.36C83.61 85.36 83.53 85.28 83.53 85.18L83.29 78.79C83.29 78.69 83.36 78.6 83.47 78.6C83.57 78.6 83.66 78.67 83.66 78.78L83.9 85.17C83.9 85.27 83.82 85.36 83.72 85.36H83.71Z" fill="#4D4D4F"/>
<path d="M86.29 87.64C86.19 87.64 86.11 87.56 86.11 87.47L85.79 81.5C85.79 81.4 85.86 81.31 85.96 81.31C86.06 81.29 86.15 81.38 86.15 81.48L86.47 87.45C86.47 87.55 86.4 87.64 86.3 87.64C86.3 87.64 86.3 87.64 86.29 87.64Z" fill="#4D4D4F"/>
<path d="M88.86 89.74C88.77 89.74 88.69 89.67 88.68 89.57L88.23 83.76C88.23 83.66 88.3 83.57 88.4 83.56C88.5 83.54 88.59 83.63 88.6 83.73L89.05 89.54C89.05 89.64 88.98 89.73 88.88 89.74C88.88 89.74 88.88 89.74 88.87 89.74H88.86Z" fill="#4D4D4F"/>
<path d="M91.28 91.63C91.19 91.63 91.11 91.56 91.1 91.47L90.5801 86.37C90.5701 86.27 90.64 86.18 90.74 86.17C90.84 86.16 90.9301 86.23 90.9401 86.33L91.46 91.43C91.47 91.53 91.4001 91.62 91.3001 91.63C91.3001 91.63 91.29 91.63 91.28 91.63Z" fill="#4D4D4F"/>
<path d="M93.66 91.36C93.57 91.36 93.49 91.3 93.48 91.21L93.11 88.93C93.09 88.83 93.16 88.74 93.26 88.72C93.36 88.7 93.45 88.77 93.47 88.87L93.84 91.15C93.86 91.25 93.79 91.34 93.69 91.36C93.69 91.36 93.67 91.36 93.66 91.36Z" fill="#4D4D4F"/>
<g opacity="0.13">
<path d="M72.74 62.43C72.14 62.94 71.86 63.75 71.35 64.35C71.26 64.52 70.03 65.9 69.34 66.56C68.74 67.1 68.17 67.57 67.58 68.01C67.48 68.03 67.37 68.07 67.27 68.13C64.28 70.29 62.04 71.08 58.26 71.78C56.47 72.12 54.4 72.4 51.58 71.7C49.6 71.24 48.65 70.7 46.58 69.31C45.7 68.69 43.75 66.97 42.42 65.37C40.99 63.41 40.5 61.71 40.21 60.93C39.91 60.13 39.69 59.31 39.45 58.49C39.1 57.36 39 56.97 39 56.01C38.78 55.4 38.58 54.78 38.4 54.16C38.22 54.08 38.03 54.04 37.84 54.05C37.52 56.52 37.57 59 37.88 61.45C38.42 63.58 39.08 65.88 41.11 68.17C42.75 69.98 43.88 70.6 44.58 71.19C46.23 72.38 47.98 73.46 49.92 74.09C50.98 74.4 52.08 74.53 53.18 74.66C53.18 74.66 53.18 74.66 53.2 74.66C54.39 74.88 55.6 74.88 56.8 74.75C57.74 74.67 58.65 74.4 59.55 74.15C61.43 73.69 63.31 73.11 65.03 72.2C65.73 71.77 65.97 71.6 66.3 71.36C68.41 70.04 70.59 68.22 71.71 66.94C72 66.34 72.28 65.74 72.54 65.12C72.87 64.21 73.2 63.29 73.52 62.38C73.27 62.28 72.97 62.29 72.72 62.44L72.74 62.43Z" fill="#4D4D4F"/>
</g>
<g opacity="0.13">
<path d="M76.64 70.23C75.73 69.97 75.12 70.6 74.67 71.29C74.65 71.31 74.63 71.33 74.61 71.36C73.82 72.29 73.59 72.21 72.28 73.39C72.28 73.39 72.27 73.39 72.26 73.4C72 73.58 71.69 73.71 71.53 73.99C70.43 75.35 72.11 77.24 73.61 76.35C74.65 75.78 75.55 74.96 76.26 74.02C76.72 73.52 77.17 72.99 77.52 72.4C78.02 71.58 77.55 70.45 76.63 70.21L76.64 70.23Z" fill="#4D4D4F"/>
</g>
<path opacity="0.31" d="M52.27 44.22L59.1 44.28L57.53 58.31L53.79 58.26L52.27 44.22Z" fill="#4D4D4F"/>
<path d="M57.53 58.86L53.8 58.81C53.52 58.81 53.29 58.6 53.26 58.32L51.74 44.28C51.72 44.12 51.77 43.97 51.88 43.85C51.98 43.74 52.13 43.67 52.29 43.67L59.11 43.73C59.27 43.73 59.41 43.8 59.52 43.91C59.62 44.03 59.67 44.18 59.65 44.34L58.08 58.37C58.05 58.65 57.81 58.86 57.53 58.86ZM54.29 57.72L57.04 57.76L58.49 44.83L52.89 44.78L54.29 57.73V57.72Z" fill="#4D4D4F"/>
<path opacity="0.31" d="M56.6101 61.86C55.8501 61.6 54.9601 61.72 54.3101 62.2C53.6601 62.68 53.2801 63.5 53.3301 64.3C53.4101 65.39 54.3501 66.36 55.4401 66.48C56.5301 66.59 57.6501 65.84 57.9501 64.78C58.2501 63.72 57.8001 62.27 56.6001 61.86H56.6101Z" fill="#4D4D4F"/>
<path d="M55.6601 67.05C55.5701 67.05 55.4801 67.05 55.3901 67.04C54.0301 66.9 52.8901 65.72 52.7901 64.36C52.7201 63.38 53.1901 62.37 53.9901 61.78C54.7801 61.19 55.8601 61.03 56.8001 61.36C58.2801 61.87 58.8701 63.63 58.4901 64.95C58.1401 66.18 56.9301 67.06 55.6701 67.06L55.6601 67.05ZM55.8001 62.28C55.3801 62.28 54.9601 62.41 54.6401 62.65C54.1401 63.02 53.8401 63.66 53.8901 64.27C53.9501 65.11 54.6801 65.85 55.5101 65.94C56.3401 66.03 57.2101 65.44 57.4401 64.63C57.6701 63.81 57.3201 62.68 56.4401 62.38C56.2401 62.31 56.0201 62.28 55.8101 62.28H55.8001Z" fill="#4D4D4F"/>
<g opacity="0.13">
<path d="M66.09 78.33C65.64 78.91 64.15 79.38 63.97 79.47C60.65 80.66 58.96 80.92 55.58 81.03C53.07 80.85 52.02 80.77 49.35 79.95C46.37 78.89 43.3 77.25 41.57 75.83C38.89 73.57 37.79 72.25 36.78 70.62C36.42 70.1 36.13 69.54 35.84 68.98C35.67 68.63 35.45 68.25 35.04 68.16C34.21 67.9 33.43 68.89 33.87 69.64C33.87 69.66 33.89 69.69 33.9 69.71C34.24 70.63 34.77 71.45 35.31 72.27C35.85 73.09 36.33 73.95 36.96 74.71C38.05 76.22 41.13 78.45 41.75 78.85C43.46 80.11 45.25 81.26 47.25 81.99C47.14 81.95 47.04 81.9 46.93 81.86C48.15 82.41 49.43 82.85 50.75 83.09C53.03 83.52 53.52 83.58 55.67 83.75C59.07 83.75 62.44 83.07 65.58 81.76C66.48 81.41 67.43 81.05 68.1 80.33C69.37 78.98 67.46 77.07 66.11 78.34L66.09 78.33Z" fill="#4D4D4F"/>
</g>
</g>
<defs>
<clipPath id="clip0_26_288">
<rect width="111.66" height="111.66" fill="white"/>
</clipPath>
</defs>
</svg>
