<svg width="566" height="147" viewBox="0 0 566 147" fill="none" xmlns="http://www.w3.org/2000/svg">
<g clip-path="url(#clip0_204_179)">
<path d="M541.672 112.427L566 143.476H544.272L531.363 127.121C526.162 133.482 520.906 138.124 515.582 141.034C508.891 144.797 500.966 146.685 491.809 146.685C477.017 146.685 466.059 141.758 458.934 131.891C453.976 125.02 451.51 117.325 451.51 108.821C451.51 98.6985 453.569 90.5068 457.687 84.2458C461.805 77.9849 470.028 71.1561 482.341 63.7593C477.017 56.8169 473.401 51.493 471.477 47.8017C469.066 43.0031 467.86 37.807 467.86 32.2275C467.86 23.3401 470.583 15.9717 476.029 10.1367C482.097 3.64861 490.143 0.397461 500.167 0.397461C510.191 0.397461 518.183 3.50664 523.751 9.73919C528.573 15.0631 530.998 21.7784 530.998 29.8849C530.998 38.7724 528.207 46.595 522.64 53.3386C519.484 57.2287 514.038 61.8995 506.29 67.3512L531.363 98.4004C532.908 94.0561 533.991 90.5494 534.614 87.8945C535.237 85.2396 535.942 81.307 536.755 76.1251H552.725C552.725 80.9237 551.763 86.4038 549.853 92.5796C547.93 98.7411 545.207 105.357 541.685 112.427H541.672ZM522.64 115.153L491.809 75.7417C483.086 81.5768 477.329 86.1625 474.538 89.4704C470.326 94.3968 468.226 100.431 468.226 107.572C468.226 115.551 471.409 121.755 477.789 126.156C482.558 129.464 487.597 131.125 492.92 131.125C505.369 131.125 515.271 125.801 522.64 115.167V115.153ZM497.566 55.7805C502.89 52.0893 506.601 48.9091 508.715 46.2401C512.67 41.5692 514.661 36.5008 514.661 31.0633C514.661 25.6258 512.955 21.1679 509.554 18.513C507.008 16.497 503.892 15.5032 500.181 15.5032C494.112 15.5032 489.683 17.5192 486.906 21.537C485.104 24.2061 484.21 27.372 484.21 31.0775C484.21 35.0385 485.795 39.61 488.951 44.8061C491.24 48.5684 494.126 52.2313 497.593 55.8089L497.566 55.7805Z" fill="white"/>
<path d="M97.5844 36.3305V56.0787H86.707V1.51904H110.507C115.587 1.51904 119.556 3.06653 122.427 6.17571C125.299 9.28489 126.735 13.5582 126.735 18.9957C126.735 22.829 125.719 26.3215 123.687 29.459C120.761 34.0305 116.21 36.3305 110.06 36.3305H97.5979H97.5844ZM97.5844 26.9036H107.744C111.211 26.9036 113.582 25.782 114.855 23.5246C115.519 22.3179 115.844 20.6 115.844 18.3711C115.844 15.7446 115.099 13.8564 113.596 12.678C112.092 11.4996 109.654 10.9176 106.281 10.9176H97.5708V26.9177L97.5844 26.9036Z" fill="white"/>
<path d="M137.314 56.0787V1.51904H163.688C169.73 1.51904 174.186 3.46405 177.044 7.33988C179.076 10.1367 180.092 13.3027 180.092 16.8378C180.092 19.9328 179.374 22.6586 177.952 25.0153C176.53 27.3863 174.538 29.0047 171.978 29.8992C174.43 31.0349 176.069 32.3127 176.895 33.7182C178.047 35.6916 178.629 39.0421 178.629 43.7414C178.629 47.5036 178.697 50.1159 178.819 51.5924C178.954 53.0689 179.659 54.0485 180.959 54.5454V56.0645H168.917C168.538 54.659 168.253 53.1683 168.05 51.5924C167.847 50.0165 167.752 47.816 167.752 44.9623C167.752 40.8594 167.332 38.1903 166.506 36.9835C165.449 35.3934 162.997 34.6126 159.177 34.6126H148.029V56.0645H137.301L137.314 56.0787ZM148.043 25.5406H160.83C163.715 25.5406 165.828 24.9585 167.183 23.7802C168.538 22.6018 169.215 20.6994 169.215 18.0871C169.215 16.2131 168.727 14.6656 167.765 13.4447C166.465 11.7694 164.392 10.9176 161.534 10.9176H148.043V25.5406Z" fill="white"/>
<path d="M202.009 1.51904V56.0787H191.146V1.51904H202.009Z" fill="white"/>
<path d="M245.072 1.51904H255.231V56.0787H244.354L223.181 17.1501L223.046 56.0787H212.887V1.51904H224.36L244.936 39.5248L245.072 1.51904Z" fill="white"/>
<path d="M290.179 11.1021V56.0787H279.275V11.1021H263.48V1.51904H305.825V11.1021H290.179Z" fill="white"/>
<path d="M324.532 1.51904V56.0787H313.668V1.51904H324.532Z" fill="white"/>
<path d="M367.594 1.51904H377.753V56.0787H366.876L345.704 17.1501L345.568 56.0787H335.409V1.51904H346.882L367.458 39.5248L367.594 1.51904Z" fill="white"/>
<path d="M415.045 35.8478V26.5629H436.786V56.0646H429.525L428.388 49.2358C426.234 51.7628 424.392 53.5517 422.861 54.6165C419.908 56.5899 416.332 57.5837 412.133 57.5837C405.454 57.5837 399.914 55.1986 395.525 50.4283C390.635 45.1612 388.197 37.9774 388.197 28.8628C388.197 20.7989 390.256 14.1262 394.36 8.85906C399.007 2.93885 405.468 -0.0141602 413.731 -0.0141602C420.978 -0.0141602 426.749 2.11541 431.043 6.37456C434.673 9.96644 436.502 13.9558 436.502 18.357H425.624C425.624 16.7953 424.703 15.049 422.861 13.1182C420.545 10.6479 417.686 9.41275 414.286 9.41275C410.033 9.41275 406.579 10.9176 403.91 13.9416C400.862 17.4483 399.345 22.4741 399.345 29.0048C399.345 35.5355 400.93 40.8168 404.086 43.9686C406.633 46.5667 410.087 47.8586 414.422 47.8586C417.632 47.8586 420.355 46.7796 422.604 44.6359C424.852 42.4779 426.329 39.5533 427.06 35.8336H415.018L415.045 35.8478Z" fill="white"/>
<path d="M10.8773 122.635V142.383H0V87.8379H23.8001C28.8798 87.8379 32.8487 89.3854 35.7204 92.4946C38.5921 95.6037 40.028 99.8771 40.028 105.315C40.028 109.148 39.0121 112.64 36.9802 115.778C34.0543 120.349 29.5029 122.649 23.3531 122.649H10.8773V122.635ZM10.8773 113.208H21.0367C24.5045 113.208 26.875 112.087 28.1483 109.829C28.812 108.623 29.1371 106.905 29.1371 104.676C29.1371 102.049 28.3921 100.161 26.8885 98.9827C25.3849 97.8043 22.9467 97.2222 19.5738 97.2222H10.8638V113.222L10.8773 113.208Z" fill="white"/>
<path d="M56.3779 131.139L52.7611 142.383H41.2878L59.8456 87.8237H72.4839L90.7572 142.383H78.9994L75.6672 131.139H56.3643H56.3779ZM59.2767 121.712H72.6329L66.0767 100.118L59.2767 121.712Z" fill="white"/>
<path d="M140.972 105.613H130.094C129.363 102.958 128.469 101.013 127.399 99.7493C125.421 97.3784 122.495 96.1858 118.621 96.1858C115.248 96.1858 112.431 97.421 110.196 99.8913C107.202 103.185 105.698 108.324 105.698 115.338C105.698 120.662 106.687 124.963 108.678 128.257C110.968 132.019 114.286 133.893 118.635 133.893C121.628 133.893 124.134 133.013 126.139 131.253C128.144 129.492 129.471 126.965 130.108 123.686H140.985C139.834 129.876 137.436 134.703 133.792 138.195C129.823 142 124.676 143.917 118.35 143.917C111.239 143.917 105.549 141.475 101.282 136.605C96.7987 131.508 94.55 124.367 94.55 115.196C94.55 106.024 96.8799 98.7697 101.526 93.6019C105.874 88.7465 111.523 86.333 118.486 86.333C125.448 86.333 131.341 88.5336 135.594 92.9347C139.184 96.6685 140.972 100.899 140.972 105.627V105.613Z" fill="white"/>
<path d="M163.282 123.828V142.383H152.404V87.8379H163.282V110.028L183.154 87.8379H197.241L175.92 110.184L198.366 142.398H184.454L168.375 118.39L163.282 123.842V123.828Z" fill="white"/>
<path d="M213.347 131.139L209.73 142.383H198.257L216.815 87.8237H229.453L247.727 142.383H235.969L232.637 131.139H213.334H213.347ZM216.246 121.712H229.602L223.046 100.118L216.246 121.712Z" fill="white"/>
<path d="M278.354 122.167V112.882H300.095V142.383H292.834L291.696 135.555C289.543 138.082 287.7 139.871 286.17 140.935C283.217 142.909 279.641 143.903 275.441 143.903C268.763 143.903 263.223 141.517 258.834 136.747C253.944 131.48 251.506 124.296 251.506 115.182C251.506 107.118 253.565 100.445 257.669 95.1779C262.315 89.2577 268.777 86.3047 277.04 86.3047C284.287 86.3047 290.057 88.4343 294.351 92.6934C297.982 96.2853 299.81 100.275 299.81 104.676H288.933C288.933 103.114 288.012 101.368 286.17 99.4371C283.853 96.9667 280.995 95.7316 277.595 95.7316C273.342 95.7316 269.888 97.2365 267.219 100.26C264.171 103.767 262.654 108.793 262.654 115.324C262.654 121.854 264.239 127.136 267.395 130.287C269.942 132.886 273.396 134.177 277.731 134.177C280.941 134.177 283.664 133.098 285.912 130.955C288.161 128.797 289.637 125.872 290.369 122.152H278.327L278.354 122.167Z" fill="white"/>
<path d="M322.554 87.8379V142.398H311.69V87.8379H322.554Z" fill="white"/>
<path d="M365.603 87.8379H375.762V142.398H364.885L343.713 103.469L343.577 142.398H333.418V87.8379H344.891L365.467 125.844L365.603 87.8379Z" fill="white"/>
<path d="M413.054 122.167V112.882H434.795V142.383H427.534L426.396 135.555C424.243 138.082 422.4 139.871 420.87 140.935C417.917 142.909 414.341 143.903 410.141 143.903C403.463 143.903 397.923 141.517 393.534 136.747C388.644 131.48 386.206 124.296 386.206 115.182C386.206 107.118 388.265 100.445 392.369 95.1779C397.015 89.2577 403.477 86.3047 411.74 86.3047C418.987 86.3047 424.757 88.4343 429.051 92.6934C432.682 96.2853 434.51 100.275 434.51 104.676H423.633C423.633 103.114 422.712 101.368 420.87 99.4371C418.553 96.9667 415.695 95.7316 412.295 95.7316C408.042 95.7316 404.588 97.2365 401.919 100.26C398.871 103.767 397.354 108.793 397.354 115.324C397.354 121.854 398.939 127.136 402.095 130.287C404.642 132.886 408.096 134.177 412.431 134.177C415.641 134.177 418.364 133.098 420.612 130.955C422.861 128.797 424.337 125.872 425.069 122.152H413.027L413.054 122.167Z" fill="white"/>
</g>
<defs>
<clipPath id="clip0_204_179">
<rect width="566" height="146.685" fill="white"/>
</clipPath>
</defs>
</svg>
