<svg width="1296" height="368" viewBox="0 0 1296 368" fill="none" xmlns="http://www.w3.org/2000/svg">
<g clip-path="url(#clip0_39_148)">
<path d="M291.865 91.6151V136.73H264.157V4.15735H291.865V58.0486L342.357 4.15735H378.224L323.885 58.5105L380.995 136.884H345.59L304.642 78.5272L291.712 91.7691L291.865 91.6151Z" fill="#444545"/>
<path d="M483.056 38.4937L449.19 135.036C443.032 153.513 437.798 165.061 433.796 169.526C429.793 173.992 422.251 176.301 411.167 176.301H402.393C401.007 175.993 400.237 175.993 399.622 175.993V155.361C399.622 155.361 401.931 155.669 404.394 155.669C409.782 155.669 413.63 154.899 415.631 153.359C418.402 151.511 420.403 147.2 421.327 140.887L385.152 38.4937H413.938L435.027 111.016L455.655 38.4937H483.056ZM460.119 1.23179H471.972C471.049 8.31464 468.74 13.7038 465.199 17.5531C461.659 21.4025 457.194 23.4042 452.114 23.4042C449.959 23.4042 447.958 23.0962 445.803 22.6343C443.648 22.1724 441.493 21.4025 438.876 20.6326C436.259 19.8628 434.104 19.0929 432.103 18.477C428.562 17.2452 426.099 16.6293 424.714 16.6293C421.943 16.6293 419.788 17.7071 418.248 19.8628C417.325 21.2485 416.555 22.7883 416.247 24.79H404.394C405.01 21.5565 405.471 19.4008 405.779 18.323C406.549 15.5515 407.78 13.0879 409.474 10.7782C411.629 8.00669 413.938 5.85104 416.709 4.31129C419.48 2.77154 422.712 1.84769 426.407 1.84769C429.178 1.84769 431.641 2.15564 433.796 2.92552C436.259 4.00334 438.26 4.92719 439.799 5.54309C445.341 7.54477 449.19 8.46862 451.191 8.46862C453.962 8.46862 456.117 7.69874 457.348 6.31297C458.58 4.92719 459.503 3.07949 459.965 1.07782L460.119 1.23179Z" fill="#444545"/>
<path d="M577.266 11.8561V38.3398H593.429V56.8167H577.266V110.092C577.266 113.326 577.881 115.635 578.959 116.559C580.037 117.483 583.115 118.099 587.887 118.099L593.429 117.791V137.346C591.582 137.654 589.273 137.654 586.964 137.654H577.881C567.26 137.654 560.025 135.806 556.176 131.956C552.944 128.877 551.25 123.642 551.25 116.251V56.9707H538.012V38.4937H551.25V11.8561H577.112H577.266Z" fill="#444545"/>
<path d="M698.107 68.6728V136.73H672.245V76.8335C672.245 71.4444 671.475 67.287 670.09 64.6695C667.473 60.0502 662.701 57.5866 655.62 57.5866C649.77 57.5866 644.844 59.5883 640.996 63.5917C637.147 67.595 635.3 73.1381 635.3 80.2209V136.73H609.439V4.15735H635.3V51.1197C637.147 46.9624 640.688 43.267 646.076 40.3414C651.464 37.4159 657.467 35.8762 664.086 35.8762C674.246 35.8762 682.251 38.6477 688.255 44.0368C694.874 49.8879 698.107 58.2025 698.107 68.8268V68.6728Z" fill="#444545"/>
<path d="M813.56 38.4937V136.884H788.776V122.872C782.156 133.958 772.151 139.501 758.45 139.501C748.136 139.501 739.978 136.576 734.128 130.725C727.816 124.566 724.738 115.481 724.738 103.163V38.4937H750.599V99.4678C750.599 106.397 752.447 111.324 755.987 114.249C758.758 116.405 762.606 117.637 767.686 117.637C772.766 117.637 777.23 116.097 780.925 113.018C785.389 109.014 787.698 103.009 787.698 95.0025V38.4937H813.56Z" fill="#444545"/>
<path d="M912.234 64.3615V117.637C912.234 122.872 912.696 126.567 913.773 128.723C914.851 130.879 916.236 132.11 918.237 132.726V136.73H890.221C889.143 133.496 888.527 131.187 888.373 130.263C888.22 129.339 888.066 127.491 888.066 125.028C884.063 129.185 880.215 132.418 876.674 134.42C870.825 137.808 864.051 139.501 856.354 139.501C848.042 139.501 841.269 137.346 835.727 132.88C829.415 127.645 826.337 120.254 826.337 110.708C826.337 101.623 829.108 94.2326 834.495 88.6896C839.267 83.7624 846.041 80.6829 854.815 79.2971L878.06 75.9096C881.6 75.2937 883.909 74.3699 885.295 73.1381C886.68 71.9063 887.296 70.2126 887.296 68.0569C887.296 63.2837 885.295 60.0502 881.292 58.3565C878.675 57.2787 874.981 56.6628 870.209 56.6628C864.359 56.6628 860.203 58.2025 857.74 61.282C856.047 63.2837 854.815 66.3632 854.353 70.3665H829.261C830.647 56.6628 835.727 47.1163 844.809 41.8812C851.428 38.0318 860.819 36.0301 873.288 36.0301C883.294 36.0301 891.606 37.7239 898.072 40.9573C907.616 45.7305 912.388 53.5833 912.388 64.3615H912.234ZM881.908 0L902.998 26.9456H881.908L870.055 11.8561L858.664 26.9456H837.574L858.664 0H881.908ZM887.142 101.315V88.8435C885.757 90.0753 883.909 90.9992 881.446 91.769C878.983 92.5389 874.981 93.3088 869.285 94.2326C863.59 95.1565 859.587 96.3883 857.124 98.236C853.738 100.546 852.044 104.241 852.044 109.168C852.044 113.172 853.43 116.251 856.047 118.407C858.202 120.1 860.819 121.024 863.743 121.024C869.747 121.024 875.135 119.177 879.907 115.635C884.679 112.094 886.988 107.321 886.988 101.469L887.142 101.315ZM882.986 147.816V169.218H859.741V147.816H882.986Z" fill="#444545"/>
<path d="M963.957 11.8561V38.3398H980.12V56.8167H963.957V110.092C963.957 113.326 964.572 115.635 965.65 116.559C966.728 117.483 969.806 118.099 974.578 118.099L980.12 117.791V137.346C978.273 137.654 975.964 137.654 973.655 137.654H964.572C953.951 137.654 946.716 135.806 942.867 131.956C939.635 128.877 937.941 123.642 937.941 116.251V56.9707H924.703V38.4937H937.941V11.8561H963.803H963.957Z" fill="#444545"/>
<path d="M118.224 238.353H90.5153C88.668 231.886 86.3589 227.113 83.5881 224.033C78.5081 218.182 71.1191 215.411 61.2671 215.411C52.6466 215.411 45.5655 218.49 39.8698 224.495C32.1729 232.502 28.4784 244.974 28.4784 262.065C28.4784 274.999 30.9414 285.469 36.0214 293.476C41.871 302.561 50.3376 307.18 61.4211 307.18C69.1179 307.18 75.4294 305.024 80.5093 300.713C85.5892 296.402 88.9759 290.243 90.6692 282.236H118.378C115.453 297.326 109.296 309.028 100.059 317.496C89.8995 326.735 76.8148 331.354 60.8053 331.354C42.6407 331.354 28.1706 325.503 17.3949 313.647C6.00355 301.329 0.307861 283.93 0.307861 261.603C0.307861 239.277 6.15749 221.724 18.0107 209.098C29.0942 197.242 43.4104 191.391 61.2671 191.391C79.1239 191.391 94.0558 196.78 104.831 207.404C113.914 216.489 118.532 226.805 118.532 238.199L118.224 238.353Z" fill="#444545"/>
<path d="M234.909 278.541C234.909 295.478 229.829 308.566 219.823 317.65C210.74 326.119 199.041 330.276 184.725 330.276C170.409 330.276 159.017 326.119 149.781 317.65C139.621 308.258 134.387 295.324 134.387 278.541C134.387 261.757 139.467 248.669 149.473 239.431C158.556 231.116 170.255 226.959 184.571 226.959C198.887 226.959 210.587 231.116 219.669 239.431C229.829 248.669 234.755 261.757 234.755 278.541H234.909ZM196.27 190.929L217.36 217.874H196.27L184.417 202.785L173.026 217.874H151.936L173.026 190.929H196.27ZM208.277 278.541C208.277 270.38 206.892 263.913 203.967 258.986C200.119 252.057 193.653 248.669 184.571 248.669C175.489 248.669 169.331 252.057 165.329 258.832C162.404 264.067 160.865 270.534 160.865 278.541C160.865 286.547 162.25 293.168 165.175 298.095C169.177 305.024 175.643 308.412 184.571 308.412C193.499 308.412 199.811 305.024 203.813 298.249C206.738 293.014 208.277 286.547 208.277 278.541Z" fill="#444545"/>
<path d="M336.815 259.756V327.813H310.954V267.916C310.954 262.527 310.184 258.37 308.799 255.752C306.182 251.133 301.41 248.669 294.328 248.669C288.479 248.669 283.553 250.671 279.704 254.674C275.856 258.678 274.009 264.221 274.009 271.304V327.813H248.147V229.423H272.931V243.896C276.01 239.277 279.089 235.582 282.167 233.118C287.709 228.961 294.636 226.959 302.795 226.959C312.955 226.959 320.96 229.731 326.963 235.12C333.583 240.971 336.815 249.285 336.815 259.91V259.756Z" fill="#444545"/>
<path d="M428.408 229.423H453.192V322.577C453.192 335.511 451.037 345.212 446.573 351.525C438.876 362.457 424.56 368 403.316 368C391.925 368 382.227 365.69 374.222 361.071C364.986 355.682 360.368 348.137 360.368 338.591H388.384C389.154 341.824 390.386 344.134 392.233 345.52C395.004 347.521 399.622 348.599 406.549 348.599C413.476 348.599 418.71 346.751 422.097 343.21C425.483 339.669 427.177 333.818 427.177 325.657V313.801L426.869 313.493C423.482 319.498 419.326 323.655 414.708 325.811C410.859 327.659 406.241 328.582 400.699 328.582C388.23 328.582 378.225 324.425 370.528 316.11C362.215 307.026 358.213 294.092 358.213 277.617C358.213 261.141 362.215 248.669 370.374 239.585C377.917 231.27 387.461 227.113 399.314 227.113C407.319 227.113 413.938 229.115 419.172 233.118C422.559 235.736 425.483 239.277 427.946 244.05L428.254 229.577L428.408 229.423ZM384.844 279.003C384.844 286.393 386.383 292.552 389.308 297.326C393.003 303.331 398.39 306.41 405.471 306.41C413.322 306.41 419.172 303.331 422.866 297.326C425.791 292.552 427.331 286.085 427.331 277.925C427.331 269.764 425.483 262.835 421.789 257.6C417.633 251.903 412.091 249.131 405.164 249.131C399.622 249.131 395.158 251.133 391.617 255.29C387.153 260.526 384.998 268.532 384.998 279.003H384.844Z" fill="#444545"/>
<path d="M611.132 195.086H636.993V327.659H609.285L555.407 232.964L555.099 327.659H529.237V195.086H558.485L610.824 287.471L611.132 195.086Z" fill="#444545"/>
<path d="M729.356 229.423H754.14V322.577C754.14 335.511 751.985 345.212 747.521 351.525C739.824 362.457 725.507 368 704.264 368C692.873 368 683.175 365.69 675.17 361.071C665.934 355.682 661.316 348.137 661.316 338.591H689.332C690.102 341.824 691.333 344.134 693.181 345.52C695.951 347.521 700.57 348.599 707.497 348.599C714.424 348.599 719.658 346.751 723.044 343.21C726.431 339.669 728.124 333.818 728.124 325.657V313.801L727.817 313.493C724.43 319.498 720.274 323.655 715.655 325.811C711.807 327.659 707.189 328.582 701.647 328.582C689.178 328.582 679.172 324.425 671.475 316.11C663.163 307.026 659.16 294.092 659.16 277.617C659.16 261.141 663.163 248.669 671.321 239.585C678.864 231.27 688.409 227.113 700.262 227.113C708.266 227.113 714.886 229.115 720.12 233.118C723.506 235.736 726.431 239.277 728.894 244.05L729.202 229.577L729.356 229.423ZM685.792 279.003C685.792 286.393 687.331 292.552 690.256 297.326C693.95 303.331 699.338 306.41 706.419 306.41C714.27 306.41 720.12 303.331 723.814 297.326C726.739 292.552 728.278 286.085 728.278 277.925C728.278 269.764 726.431 262.835 722.737 257.6C718.58 251.903 713.039 249.131 706.111 249.131C700.57 249.131 696.105 251.133 692.565 255.29C688.101 260.526 685.946 268.532 685.946 279.003H685.792Z" fill="#444545"/>
<path d="M867.592 259.756V327.813H841.73V267.916C841.73 262.527 840.961 258.37 839.575 255.752C836.958 251.133 832.186 248.669 825.105 248.669C819.255 248.669 814.33 250.671 810.481 254.674C806.633 258.678 804.785 264.221 804.785 271.304V327.813H778.924V195.086H804.785V242.049C806.633 237.891 810.173 234.196 815.561 231.27C820.949 228.345 826.952 226.805 833.572 226.805C843.732 226.805 851.736 229.577 857.74 234.966C864.359 240.817 867.592 249.131 867.592 259.756Z" fill="#444545"/>
<path d="M951.334 298.865H977.965C974.886 309.798 969.037 317.958 960.262 323.347C953.027 327.967 944.561 330.276 934.862 330.276C919.777 330.276 908.231 326.427 900.073 318.574C890.682 309.49 886.064 295.478 886.064 276.231C886.064 260.68 890.375 248.362 899.149 239.277C907.308 230.962 918.545 226.805 933.015 226.805C945.33 226.805 955.49 230.193 963.341 236.967C973.963 246.052 979.197 260.68 979.197 280.85V285.623H911.926C912.696 294.246 915.005 300.405 918.699 304.1C922.394 307.796 927.781 309.644 934.862 309.644C938.711 309.644 942.251 308.72 945.484 306.872C948.717 305.024 950.564 302.407 951.488 299.019L951.334 298.865ZM942.867 190.929L963.957 217.875H942.867L931.014 202.785L919.623 217.875H898.533L919.623 190.929H942.867ZM912.542 268.532H952.411C951.642 261.295 949.333 255.752 945.176 252.211C941.79 249.285 937.479 247.746 932.399 247.746C920.7 247.746 914.081 254.675 912.542 268.532ZM943.791 338.745V360.147H920.546V338.745H943.791Z" fill="#444545"/>
<path d="M1239.81 252.673L1296 321.192H1222.42L1201.79 294.4C1190.86 305.332 1179.47 313.647 1167.92 319.19C1152.53 326.427 1134.06 329.968 1112.51 329.968C1083.87 329.968 1060.63 321.192 1042.62 303.792C1024.61 286.393 1015.53 265.299 1015.53 240.817C1015.53 223.418 1018.91 208.79 1025.84 196.626C1035.08 180.459 1051.55 165.215 1075.25 150.741L1082.03 146.584C1074.33 137.654 1067.86 128.415 1062.94 118.869C1056.63 106.089 1053.39 93.6167 1053.39 81.4527C1053.39 60.5121 1061.09 43.4209 1076.49 30.3331C1091.88 17.2452 1111.89 10.6243 1136.37 10.6243C1155.76 10.6243 1172.7 16.1674 1187.01 27.2536C1204.1 40.6494 1212.57 58.9724 1212.57 82.3766C1212.57 101.162 1205.64 117.791 1191.78 132.418C1183.32 141.349 1172.85 149.202 1160.53 155.823L1204.72 210.33C1208.72 204.017 1212.26 196.626 1215.18 188.311C1218.11 179.997 1220.11 170.296 1221.19 159.21H1274.91C1272.76 180.305 1269.06 197.55 1263.83 210.946C1258.59 224.341 1250.43 238.199 1239.5 252.519L1239.81 252.673ZM1170.54 256.214L1113.43 185.232C1098.96 195.394 1089.57 203.247 1085.26 208.636C1079.26 216.027 1076.18 225.573 1076.18 237.121C1076.18 246.052 1079.26 254.213 1085.26 261.603C1093.88 272.382 1106.04 277.617 1122.05 277.617C1131.13 277.617 1140.37 275.307 1149.76 270.688C1156.69 267.3 1163.61 262.373 1170.39 256.06L1170.54 256.214ZM1160.23 81.2987C1160.23 72.9841 1157.76 66.6711 1152.99 62.6678C1148.22 58.5105 1141.91 56.3548 1134.21 56.3548C1127.28 56.3548 1121.43 58.5105 1116.51 62.8218C1111.58 67.1331 1109.12 73.2921 1109.12 81.2987C1109.12 90.5372 1116.66 103.625 1131.75 120.408C1140.83 114.557 1147.6 109.014 1152.07 103.471C1157.61 96.5423 1160.38 89.1515 1160.38 81.2987H1160.23Z" fill="#444545"/>
</g>
<defs>
<clipPath id="clip0_39_148">
<rect width="1296" height="368" fill="white"/>
</clipPath>
</defs>
</svg>
