<svg width="566" height="150" viewBox="0 0 566 150" fill="none" xmlns="http://www.w3.org/2000/svg">
<g clip-path="url(#clip0_4_194)">
<path d="M541.672 114.444L566 145.819H544.272L531.363 129.292C526.162 135.719 520.906 140.41 515.582 143.351C508.891 147.153 500.966 149.061 491.809 149.061C477.017 149.061 466.059 144.083 458.934 134.112C453.976 127.169 451.51 119.393 451.51 110.8C451.51 100.572 453.569 92.2941 457.687 85.9676C461.805 79.641 470.028 72.7406 482.341 65.2664C477.017 58.2513 473.401 52.8716 471.477 49.1417C469.066 44.2927 467.86 39.0421 467.86 33.4042C467.86 24.4237 470.583 16.9782 476.028 11.082C482.097 4.52593 490.143 1.24072 500.167 1.24072C510.191 1.24072 518.183 4.38247 523.75 10.6803C528.573 16.06 530.998 22.8456 530.998 31.0371C530.998 40.0177 528.207 47.9223 522.64 54.7366C519.484 58.6673 514.038 63.3871 506.29 68.896L531.363 100.27C532.907 95.8806 533.991 92.3371 534.614 89.6545C535.237 86.9718 535.942 82.998 536.754 77.7617H552.725C552.725 82.6106 551.763 88.1481 549.853 94.3886C547.93 100.615 545.207 107.3 541.685 114.444H541.672ZM522.64 117.199L491.809 77.3744C483.086 83.2705 477.329 87.9043 474.538 91.2468C470.326 96.2249 468.226 102.322 468.226 109.538C468.226 117.6 471.409 123.869 477.789 128.317C482.558 131.659 487.597 133.338 492.92 133.338C505.369 133.338 515.271 127.958 522.64 117.213V117.199ZM497.566 57.204C502.89 53.4741 506.601 50.2606 508.715 47.5636C512.67 42.8438 514.661 37.7223 514.661 32.2278C514.661 26.7334 512.954 22.2288 509.554 19.5461C507.008 17.509 503.892 16.5048 500.181 16.5048C494.112 16.5048 489.683 18.5419 486.906 22.6018C485.104 25.2988 484.21 28.4979 484.21 32.2422C484.21 36.2447 485.795 40.8641 488.951 46.1147C491.24 49.9163 494.126 53.6176 497.593 57.2327L497.566 57.204Z" fill="#444545"/>
<path d="M97.5844 37.5502V57.5053H86.707V2.37402H110.507C115.587 2.37402 119.556 3.93773 122.427 7.07948C125.299 10.2212 126.735 14.5393 126.735 20.0338C126.735 23.9072 125.719 27.4363 123.687 30.6067C120.761 35.2261 116.21 37.5502 110.06 37.5502H97.5979H97.5844ZM97.5844 28.0245H107.744C111.211 28.0245 113.582 26.8912 114.855 24.6102C115.519 23.3908 115.844 21.6549 115.844 19.4026C115.844 16.7486 115.099 14.8406 113.596 13.6499C112.092 12.4592 109.654 11.871 106.281 11.871H97.5708V28.0388L97.5844 28.0245Z" fill="#444545"/>
<path d="M137.314 57.5053V2.37402H163.688C169.73 2.37402 174.186 4.33941 177.044 8.25584C179.076 11.082 180.092 14.2811 180.092 17.8532C180.092 20.9806 179.374 23.7351 177.952 26.1165C176.53 28.5122 174.538 30.1477 171.978 31.0515C174.43 32.1991 176.069 33.4903 176.895 34.9105C178.047 36.9046 178.629 40.2902 178.629 45.0387C178.629 48.8404 178.697 51.48 178.819 52.972C178.954 54.464 179.659 55.4538 180.959 55.9559V57.4909H168.917C168.538 56.0707 168.253 54.5644 168.05 52.972C167.847 51.3796 167.752 49.156 167.752 46.2725C167.752 42.1265 167.332 39.4295 166.506 38.2101C165.449 36.6033 162.997 35.8143 159.177 35.8143H148.029V57.4909H137.301L137.314 57.5053ZM148.043 26.6473H160.83C163.715 26.6473 165.828 26.0591 167.183 24.8684C168.538 23.6777 169.215 21.7553 169.215 19.1157C169.215 17.222 168.727 15.6583 167.765 14.4246C166.465 12.7318 164.392 11.871 161.534 11.871H148.043V26.6473Z" fill="#444545"/>
<path d="M202.009 2.37402V57.5053H191.146V2.37402H202.009Z" fill="#444545"/>
<path d="M245.072 2.37402H255.231V57.5053H244.354L223.182 18.1689L223.046 57.5053H212.887V2.37402H224.36L244.936 40.778L245.072 2.37402Z" fill="#444545"/>
<path d="M290.179 12.0575V57.5053H279.275V12.0575H263.48V2.37402H305.825V12.0575H290.179Z" fill="#444545"/>
<path d="M324.532 2.37402V57.5053H313.668V2.37402H324.532Z" fill="#444545"/>
<path d="M367.594 2.37402H377.753V57.5053H366.876L345.704 18.1689L345.568 57.5053H335.409V2.37402H346.882L367.458 40.778L367.594 2.37402Z" fill="#444545"/>
<path d="M415.045 37.0619V27.6797H436.786V57.4905H429.526L428.388 50.5901C426.234 53.1437 424.392 54.9513 422.861 56.0272C419.908 58.0213 416.332 59.0255 412.133 59.0255C405.455 59.0255 399.914 56.6154 395.525 51.7952C390.635 46.4728 388.197 39.2138 388.197 30.0038C388.197 21.8553 390.256 15.1127 394.36 9.7904C399.007 3.80816 405.468 0.824219 413.731 0.824219C420.978 0.824219 426.749 2.9761 431.043 7.27987C434.673 10.9094 436.502 14.9406 436.502 19.3878H425.624C425.624 17.8098 424.703 16.0452 422.861 14.0942C420.545 11.598 417.686 10.3499 414.286 10.3499C410.033 10.3499 406.579 11.8706 403.91 14.9262C400.862 18.4697 399.345 23.5481 399.345 30.1472C399.345 36.7463 400.93 42.083 404.086 45.2678C406.633 47.8931 410.087 49.1986 414.422 49.1986C417.632 49.1986 420.355 48.1083 422.604 45.942C424.852 43.7615 426.329 40.8062 427.06 37.0476H415.018L415.045 37.0619Z" fill="#444545"/>
<path d="M10.8773 124.758V144.714H0V89.5967H23.8001C28.8798 89.5967 32.8487 91.1604 35.7204 94.3021C38.5921 97.4439 40.028 101.762 40.028 107.256C40.028 111.13 39.0121 114.659 36.9802 117.829C34.0543 122.449 29.5029 124.773 23.3531 124.773H10.8773V124.758ZM10.8773 115.233H21.0367C24.5045 115.233 26.875 114.099 28.1483 111.818C28.812 110.599 29.1371 108.863 29.1371 106.611C29.1371 103.957 28.3921 102.049 26.8885 100.858C25.3849 99.6675 22.9467 99.0793 19.5738 99.0793H10.8638V115.247L10.8773 115.233Z" fill="#444545"/>
<path d="M56.3778 133.352L52.7611 144.714H41.2877L59.8455 89.5825H72.4838L90.7572 144.714H78.9994L75.6671 133.352H56.3643H56.3778ZM59.2766 123.826H72.6328L66.0766 102.006L59.2766 123.826Z" fill="#444545"/>
<path d="M140.972 107.558H130.094C129.363 104.875 128.469 102.91 127.399 101.633C125.421 99.2373 122.495 98.0322 118.621 98.0322C115.248 98.0322 112.431 99.2803 110.196 101.776C107.202 105.105 105.698 110.298 105.698 117.385C105.698 122.765 106.687 127.111 108.678 130.44C110.968 134.241 114.286 136.135 118.635 136.135C121.628 136.135 124.134 135.245 126.139 133.467C128.144 131.688 129.471 129.134 130.108 125.82H140.985C139.834 132.075 137.436 136.953 133.792 140.482C129.823 144.326 124.676 146.263 118.35 146.263C111.239 146.263 105.549 143.796 101.282 138.875C96.7987 133.725 94.55 126.509 94.55 117.241C94.55 107.974 96.8799 100.643 101.526 95.4213C105.874 90.515 111.523 88.0762 118.486 88.0762C125.448 88.0762 131.341 90.2998 135.594 94.747C139.184 98.52 140.972 102.795 140.972 107.572V107.558Z" fill="#444545"/>
<path d="M163.282 125.964V144.714H152.404V89.5967H163.282V112.019L183.154 89.5967H197.241L175.92 112.177L198.366 144.728H184.454L168.375 120.469L163.282 125.978V125.964Z" fill="#444545"/>
<path d="M213.347 133.352L209.73 144.714H198.257L216.815 89.5825H229.453L247.727 144.714H235.969L232.636 133.352H213.334H213.347ZM216.246 123.826H229.602L223.046 102.006L216.246 123.826Z" fill="#444545"/>
<path d="M278.354 124.285V114.903H300.095V144.714H292.834L291.696 137.813C289.543 140.367 287.7 142.174 286.17 143.25C283.217 145.244 279.641 146.249 275.441 146.249C268.763 146.249 263.223 143.839 258.834 139.018C253.944 133.696 251.506 126.437 251.506 117.227C251.506 109.078 253.565 102.336 257.669 97.0135C262.315 91.0313 268.777 88.0474 277.04 88.0474C284.287 88.0474 290.057 90.1992 294.351 94.503C297.982 98.1325 299.81 102.164 299.81 106.611H288.933C288.933 105.033 288.012 103.268 286.17 101.317C283.853 98.8211 280.995 97.573 277.595 97.573C273.342 97.573 269.888 99.0937 267.219 102.149C264.171 105.693 262.654 110.771 262.654 117.37C262.654 123.969 264.239 129.306 267.395 132.491C269.942 135.116 273.396 136.422 277.731 136.422C280.941 136.422 283.664 135.331 285.912 133.165C288.161 130.985 289.637 128.029 290.369 124.271H278.327L278.354 124.285Z" fill="#444545"/>
<path d="M322.554 89.5967V144.728H311.69V89.5967H322.554Z" fill="#444545"/>
<path d="M365.603 89.5967H375.762V144.728H364.885L343.713 105.392L343.577 144.728H333.418V89.5967H344.891L365.467 128.001L365.603 89.5967Z" fill="#444545"/>
<path d="M413.054 124.285V114.903H434.795V144.714H427.534L426.396 137.813C424.243 140.367 422.4 142.174 420.87 143.25C417.917 145.244 414.341 146.249 410.141 146.249C403.463 146.249 397.923 143.839 393.534 139.018C388.644 133.696 386.206 126.437 386.206 117.227C386.206 109.078 388.265 102.336 392.369 97.0135C397.015 91.0313 403.477 88.0474 411.74 88.0474C418.987 88.0474 424.757 90.1992 429.051 94.503C432.682 98.1325 434.51 102.164 434.51 106.611H423.633C423.633 105.033 422.712 103.268 420.87 101.317C418.553 98.8211 415.695 97.573 412.295 97.573C408.042 97.573 404.588 99.0937 401.919 102.149C398.871 105.693 397.354 110.771 397.354 117.37C397.354 123.969 398.939 129.306 402.095 132.491C404.642 135.116 408.096 136.422 412.431 136.422C415.641 136.422 418.364 135.331 420.612 133.165C422.861 130.985 424.337 128.029 425.069 124.271H413.027L413.054 124.285Z" fill="#444545"/>
</g>
<defs>
<clipPath id="clip0_4_194">
<rect width="566" height="148.222" fill="white" transform="translate(0 0.838867)"/>
</clipPath>
</defs>
</svg>
