<svg width="56" height="56" viewBox="0 0 56 56" fill="none" xmlns="http://www.w3.org/2000/svg">
<g id="Group">
<path id="Vector" d="M28.1624 55.3905C43.4183 55.3905 55.7857 43.0834 55.7857 27.9018C55.7857 12.7202 43.4183 0.413086 28.1624 0.413086C12.9065 0.413086 0.539185 12.7202 0.539185 27.9018C0.539185 43.0834 12.9065 55.3905 28.1624 55.3905Z" fill="#0267FF"/>
<path id="Vector_2" d="M20.1653 44.455C17.9102 45.3956 15.6216 46.114 13.1581 46.0029C12.8232 45.9881 12.4957 45.9029 11.9859 45.8214C12.2762 45.4104 12.4511 45.1289 12.6595 44.8697C13.3628 43.9958 13.8577 43.0329 14.1666 41.9479C14.5164 40.7259 14.308 39.6149 13.5972 38.6188C11.1561 35.2007 9.79034 31.3605 9.16516 27.2611C8.71116 24.2912 8.64045 21.3101 9.02003 18.2957C9.44798 14.8851 10.2741 11.6189 11.6845 8.486C12.0603 7.64538 12.5999 6.9788 13.3628 6.48258C15.897 4.83466 18.5763 3.49782 21.5013 2.67942C24.7277 1.77584 27.995 1.67955 31.3032 2.0832C34.9426 2.52388 38.329 3.68668 41.4549 5.5753C46.6462 8.7156 50.3377 13.1335 52.5928 18.7327C54.1669 22.6395 54.7028 26.7353 54.312 30.8939C53.9287 34.9748 52.4551 38.7299 50.1814 42.1479C49.4818 43.1996 48.6891 44.1883 47.9226 45.1956C47.2899 46.0251 46.4564 46.5732 45.433 46.8324C41.6633 47.7915 37.8415 48.2285 33.9453 48.0174C31.2474 47.8693 28.5718 47.573 25.9892 46.7657C24.4821 46.2954 23.027 45.6585 21.5571 45.0808C21.0882 44.8956 20.6379 44.666 20.1616 44.4513L20.1653 44.455Z" fill="white"/>
<g id="Group_2">
<path id="Vector_3" d="M18.9411 29.3606H25.3752C25.5315 30.9197 25.1817 31.327 23.9537 31.3233C21.6092 31.3381 16.4924 31.3159 16.0943 31.3159C15.8226 30.5605 16.0087 29.8828 16.4813 29.3051C18.2377 27.1646 19.9867 25.0205 21.7358 22.8727C21.9404 22.6209 22.1265 22.3542 22.4577 21.9098H16.2431V19.8657C19.369 19.8657 22.5507 19.8138 25.5985 19.8027C25.7994 20.8507 25.1668 21.4692 24.6495 22.1172C22.841 24.3873 21.0287 26.6536 19.2202 28.92C19.1606 28.994 19.116 29.0829 18.9373 29.3569L18.9411 29.3606Z" fill="#0267FF"/>
<path id="Vector_4" d="M32.8959 23.0801C33.0039 22.8876 33.0857 22.7469 33.1825 22.5728H34.8868V31.2308C34.4812 31.2308 33.7407 31.2716 33.443 31.2308C33.216 31.0049 33.175 30.9531 32.8811 30.6309C30.0082 31.6974 28.0545 31.2975 26.6627 29.3867C25.498 27.7869 25.5761 25.539 26.8488 24.017C28.3262 22.2506 30.3654 21.9173 32.8959 23.0838V23.0801ZM30.291 29.3422C31.7572 29.3496 32.8662 28.2609 32.8364 26.8389C32.8103 25.4724 31.6977 24.3207 30.3729 24.2837C28.9439 24.2466 27.727 25.4243 27.7345 26.8426C27.7456 28.2831 28.8211 29.3385 30.291 29.3422Z" fill="#0267FF"/>
<path id="Vector_5" d="M44.1082 22.3135C46.5606 22.3061 48.6631 24.3465 48.611 26.8388C48.5552 29.4199 46.6834 31.2567 44.0636 31.3159C41.6485 31.3715 39.5534 29.2532 39.5385 26.7832C39.5236 24.3428 41.5889 22.3209 44.1082 22.3135ZM44.0524 29.3458C45.6377 29.3569 46.6536 28.3571 46.6387 26.8018C46.6276 25.3871 45.5707 24.354 44.1454 24.354C42.6346 24.354 41.6261 25.3538 41.6112 26.8573C41.5964 28.2608 42.6495 29.3347 44.0524 29.3421V29.3458Z" fill="#0267FF"/>
<path id="Vector_6" d="M38.3179 31.216C38.035 31.253 37.875 31.1938 37.7113 31.2012C37.4136 31.2123 36.7772 31.2012 36.3307 31.2012C36.3307 30.742 36.2898 30.4939 36.2898 30.1458C36.2674 26.8166 36.2898 23.4875 36.2972 20.1583C36.2972 20.0954 36.2972 19.8843 36.2972 19.8843H38.3216V31.2123L38.3179 31.216Z" fill="#0267FF"/>
</g>
</g>
</svg>
